<?xml version="1.0" standalone="no"?>
<!DOCTYPE svg PUBLIC "-//W3C//DTD SVG 20010904//EN"
 "http://www.w3.org/TR/2001/REC-SVG-20010904/DTD/svg10.dtd">
<svg version="1.0" xmlns="http://www.w3.org/2000/svg"
 width="467.000000pt" height="467.000000pt" viewBox="0 0 467.000000 467.000000"
 preserveAspectRatio="xMidYMid meet">
<metadata>
Created by potrace 1.11, written by Peter Selinger 2001-2013
</metadata>
<g transform="translate(0.000000,467.000000) scale(0.100000,-0.100000)"
fill="#000000" stroke="none">
<path d="M2935 4589 c-77 -44 -158 -91 -180 -103 -58 -33 -744 -430 -785 -455
-19 -11 -48 -28 -65 -37 -16 -9 -131 -75 -255 -147 -124 -72 -234 -135 -245
-141 -11 -6 -140 -81 -288 -166 l-267 -154 0 -1212 0 -1211 26 -27 c15 -14 37
-26 50 -26 37 0 387 184 402 211 10 19 11 220 7 1009 l-6 985 158 90 c87 50
167 95 178 101 11 6 99 56 195 111 96 55 196 112 223 126 26 15 68 39 95 54
26 14 80 46 120 70 41 24 76 43 78 43 2 0 21 11 42 24 20 13 193 112 384 220
191 108 354 206 361 216 11 15 14 71 15 233 2 197 1 214 -18 235 -40 47 -72
40 -225 -49z"/>
<path d="M3022 3763 c-37 -19 -87 -47 -112 -60 -25 -14 -82 -46 -128 -70 -55
-30 -88 -55 -97 -74 -16 -30 -16 24 0 -1509 l5 -495 -67 -39 c-164 -96 -566
-326 -569 -326 -2 0 -28 -16 -58 -35 -30 -19 -57 -35 -59 -35 -4 0 -206 -114
-247 -140 -8 -5 -123 -71 -255 -147 -132 -76 -249 -143 -260 -150 -11 -7 -27
-16 -35 -20 -98 -52 -242 -139 -259 -157 -21 -22 -22 -34 -25 -227 -2 -154 1
-211 11 -231 15 -31 41 -48 72 -48 12 0 112 53 224 117 111 64 240 138 287
165 47 27 92 53 100 58 47 30 641 370 647 370 3 0 14 6 22 14 9 7 36 25 61 38
25 14 101 58 170 98 310 180 293 172 316 156 20 -13 82 -48 239 -131 50 -27
155 -84 235 -128 80 -44 157 -80 171 -80 22 0 102 44 249 137 168 107 167 106
156 150 -6 26 -42 47 -543 312 l-93 49 0 265 c0 146 0 688 0 1205 0 1033 4
971 -60 993 -26 10 -39 7 -98 -25z"/>
</g>
</svg>
