<?xml version="1.0" encoding="UTF-8" standalone="no"?>
<!-- Generator: Adobe Illustrator 19.1.0, SVG Export Plug-In . SVG Version: 6.00 Build 0)  -->

<svg
   xmlns:dc="http://purl.org/dc/elements/1.1/"
   xmlns:cc="http://creativecommons.org/ns#"
   xmlns:rdf="http://www.w3.org/1999/02/22-rdf-syntax-ns#"
   xmlns:svg="http://www.w3.org/2000/svg"
   xmlns="http://www.w3.org/2000/svg"
   xmlns:sodipodi="http://sodipodi.sourceforge.net/DTD/sodipodi-0.dtd"
   xmlns:inkscape="http://www.inkscape.org/namespaces/inkscape"
   version="1.1"
   id="Capa_1"
   x="0px"
   y="0px"
   viewBox="0 0 68.436 48.695002"
   xml:space="preserve"
   sodipodi:docname="emailIcon.svg"
   inkscape:version="0.92.4 (5da689c313, 2019-01-14)"
   width="68.435997"
   height="48.695"><metadata
   id="metadata903"><rdf:RDF><cc:Work
       rdf:about=""><dc:format>image/svg+xml</dc:format><dc:type
         rdf:resource="http://purl.org/dc/dcmitype/StillImage" /></cc:Work></rdf:RDF></metadata><defs
   id="defs901" /><sodipodi:namedview
   pagecolor="#ffffff"
   bordercolor="#666666"
   borderopacity="1"
   objecttolerance="10"
   gridtolerance="10"
   guidetolerance="10"
   inkscape:pageopacity="0"
   inkscape:pageshadow="2"
   inkscape:window-width="1920"
   inkscape:window-height="1017"
   id="namedview899"
   showgrid="false"
   inkscape:zoom="2.1904647"
   inkscape:cx="-154.48824"
   inkscape:cy="-8.8512293"
   inkscape:window-x="-8"
   inkscape:window-y="-8"
   inkscape:window-maximized="1"
   inkscape:current-layer="group-58svg" />
<g
   id="g866"
   transform="translate(0,-9.87)">
	<g
   id="group-58svg">
		<path
   id="path-1_53_"
   style="fill:#4e02fb;fill-opacity:1"
   d="m 60.592,18.758 c 4.493,0 7.408,3.642 7.408,8.136 v 23.389 c 0,4.493 -2.189,8.282 -6.682,8.282 H 17.59 C 13.097,58.565 8,54.776 8,50.283 V 26.894 c 0,-4.494 4.006,-8.136 8.499,-8.136 v 0"
   inkscape:connector-curvature="0" />
		<path
   id="path-2_53_"
   style="fill:#ffffff"
   d="M 68.436,23.843 43.479,39.06 c -2.473,1.413 -5.505,1.43 -7.995,0.044 L 10.979,23.843 v 0"
   inkscape:connector-curvature="0" />
		<path
   id="path-3_53_"
   d="M 54.318,57.565 H 10.59 C 5.476,57.565 0,53.836 0,48.284 V 24.893 c 0,-5.222 4.521,-9.635 9.874,-9.635 0.828,0 1.5,0.672 1.5,1.5 0,0.829 -0.672,1.5 -1.5,1.5 C 6.147,18.258 3,21.297 3,24.893 v 23.391 c 0,3.701 4,6.281 7.59,6.281 H 54.318 C 57.823,54.565 60,52.158 60,48.284 V 24.893 c 0,-3.782 -2.648,-6.635 -6.158,-6.635 -0.828,0 -1.5,-0.671 -1.5,-1.5 0,-0.828 0.672,-1.5 1.5,-1.5 5.22,0 9.158,4.142 9.158,9.635 v 23.391 c 0,5.551 -3.489,9.281 -8.682,9.281 z"
   inkscape:connector-curvature="0" />
		<path
   id="path-4_42_"
   d="m 32.422,39.62 c -1.617,0 -3.227,-0.402 -4.667,-1.205 L 3.186,23.116 C 2.483,22.678 2.268,21.753 2.706,21.05 3.144,20.345 4.07,20.134 4.772,20.569 l 24.505,15.262 c 1.955,1.086 4.453,1.07 6.458,-0.074 l 23.897,-15.18 c 0.7,-0.445 1.626,-0.238 2.071,0.462 0.443,0.699 0.237,1.626 -0.462,2.07 L 37.284,38.326 c -1.511,0.863 -3.19,1.294 -4.862,1.294 z"
   inkscape:connector-curvature="0" />
		<path
   id="path-5_27_"
   d="m 34.502,15.703 0.268,-1.192 h 2.836 l -1.632,7.702 c -0.101,0.487 -0.151,0.809 -0.151,0.967 0,0.165 0.041,0.294 0.123,0.386 0.083,0.094 0.182,0.14 0.296,0.14 0.387,0 0.886,-0.252 1.499,-0.757 0.612,-0.505 1.146,-1.193 1.6,-2.063 0.455,-0.87 0.682,-1.821 0.682,-2.852 0,-0.859 -0.163,-1.668 -0.489,-2.428 -0.325,-0.758 -0.796,-1.418 -1.412,-1.976 -0.616,-0.559 -1.377,-0.995 -2.283,-1.311 -0.905,-0.315 -1.932,-0.472 -3.077,-0.472 -1.167,0 -2.239,0.152 -3.212,0.456 -0.974,0.305 -1.83,0.741 -2.568,1.311 -0.737,0.569 -1.353,1.273 -1.847,2.111 -0.437,0.73 -0.77,1.54 -0.999,2.427 -0.23,0.888 -0.344,1.794 -0.344,2.718 0,1.232 0.245,2.358 0.736,3.378 0.491,1.021 1.203,1.877 2.137,2.568 0.936,0.691 2.064,1.181 3.39,1.472 1.325,0.289 2.821,0.349 4.49,0.177 1.325,-0.157 2.447,-0.459 3.368,-0.903 0.92,-0.444 1.698,-1.067 2.336,-1.869 h 2.288 c -0.372,0.766 -0.857,1.451 -1.456,2.052 -0.598,0.602 -1.298,1.108 -2.1,1.52 -0.801,0.412 -1.701,0.725 -2.696,0.94 -0.995,0.215 -2.08,0.322 -3.255,0.322 -1.762,0 -3.347,-0.23 -4.759,-0.692 -1.411,-0.463 -2.597,-1.129 -3.561,-1.998 -0.963,-0.871 -1.692,-1.909 -2.186,-3.116 -0.494,-1.206 -0.741,-2.54 -0.741,-4.001 0,-1.526 0.254,-2.95 0.763,-4.276 0.509,-1.324 1.24,-2.476 2.197,-3.453 0.955,-0.978 2.123,-1.742 3.502,-2.294 1.378,-0.551 2.899,-0.827 4.56,-0.827 1.36,0 2.608,0.199 3.743,0.596 1.136,0.398 2.107,0.969 2.917,1.714 0.809,0.745 1.427,1.627 1.852,2.648 0.427,1.02 0.64,2.147 0.64,3.378 0,0.96 -0.172,1.9 -0.516,2.82 -0.343,0.92 -0.836,1.747 -1.477,2.481 -0.641,0.735 -1.395,1.315 -2.261,1.741 -0.866,0.426 -1.801,0.639 -2.804,0.639 -0.58,0 -1.031,-0.098 -1.353,-0.296 -0.322,-0.196 -0.537,-0.51 -0.645,-0.94 -0.623,0.617 -1.339,1.005 -2.148,1.166 -0.81,0.161 -1.594,0.086 -2.353,-0.226 -0.758,-0.311 -1.373,-0.836 -1.842,-1.573 -0.469,-0.738 -0.704,-1.647 -0.704,-2.729 0,-1.124 0.243,-2.23 0.725,-3.319 0.484,-1.089 1.172,-1.98 2.063,-2.675 0.892,-0.694 1.9,-1.042 3.024,-1.042 1.289,0 2.234,0.483 2.836,1.45 z m -5.876,5.565 c 0,0.859 0.179,1.518 0.537,1.976 0.358,0.459 0.827,0.688 1.407,0.688 0.673,0 1.266,-0.269 1.779,-0.806 0.511,-0.537 0.9,-1.215 1.165,-2.036 0.264,-0.819 0.397,-1.612 0.397,-2.379 0,-0.379 -0.045,-0.721 -0.135,-1.026 -0.089,-0.304 -0.221,-0.571 -0.396,-0.8 -0.176,-0.229 -0.387,-0.403 -0.635,-0.521 -0.246,-0.118 -0.527,-0.177 -0.843,-0.177 -0.63,0 -1.198,0.245 -1.702,0.735 -0.506,0.491 -0.893,1.128 -1.166,1.912 -0.272,0.785 -0.408,1.596 -0.408,2.434 z"
   inkscape:connector-curvature="0" />
	</g>
</g>
<g
   id="g868"
   transform="translate(0,-9.87)">
</g>
<g
   id="g870"
   transform="translate(0,-9.87)">
</g>
<g
   id="g872"
   transform="translate(0,-9.87)">
</g>
<g
   id="g874"
   transform="translate(0,-9.87)">
</g>
<g
   id="g876"
   transform="translate(0,-9.87)">
</g>
<g
   id="g878"
   transform="translate(0,-9.87)">
</g>
<g
   id="g880"
   transform="translate(0,-9.87)">
</g>
<g
   id="g882"
   transform="translate(0,-9.87)">
</g>
<g
   id="g884"
   transform="translate(0,-9.87)">
</g>
<g
   id="g886"
   transform="translate(0,-9.87)">
</g>
<g
   id="g888"
   transform="translate(0,-9.87)">
</g>
<g
   id="g890"
   transform="translate(0,-9.87)">
</g>
<g
   id="g892"
   transform="translate(0,-9.87)">
</g>
<g
   id="g894"
   transform="translate(0,-9.87)">
</g>
<g
   id="g896"
   transform="translate(0,-9.87)">
</g>
</svg>