<?xml version="1.0" encoding="UTF-8" standalone="no"?>
<!-- Generator: Adobe Illustrator 19.1.0, SVG Export Plug-In . SVG Version: 6.00 Build 0)  -->

<svg
   xmlns:dc="http://purl.org/dc/elements/1.1/"
   xmlns:cc="http://creativecommons.org/ns#"
   xmlns:rdf="http://www.w3.org/1999/02/22-rdf-syntax-ns#"
   xmlns:svg="http://www.w3.org/2000/svg"
   xmlns="http://www.w3.org/2000/svg"
   xmlns:sodipodi="http://sodipodi.sourceforge.net/DTD/sodipodi-0.dtd"
   xmlns:inkscape="http://www.inkscape.org/namespaces/inkscape"
   version="1.1"
   id="Capa_1"
   x="0px"
   y="0px"
   viewBox="0 0 66.008496 63.503999"
   xml:space="preserve"
   sodipodi:docname="phoneIcon.svg"
   inkscape:version="0.92.4 (5da689c313, 2019-01-14)"
   width="66.008499"
   height="63.504002"><metadata
   id="metadata4694"><rdf:RDF><cc:Work
       rdf:about=""><dc:format>image/svg+xml</dc:format><dc:type
         rdf:resource="http://purl.org/dc/dcmitype/StillImage" /></cc:Work></rdf:RDF></metadata><defs
   id="defs4692" /><sodipodi:namedview
   pagecolor="#ffffff"
   bordercolor="#666666"
   borderopacity="1"
   objecttolerance="10"
   gridtolerance="10"
   guidetolerance="10"
   inkscape:pageopacity="0"
   inkscape:pageshadow="2"
   inkscape:window-width="1920"
   inkscape:window-height="1017"
   id="namedview4690"
   showgrid="false"
   inkscape:zoom="3.575324"
   inkscape:cx="33.004002"
   inkscape:cy="31.751998"
   inkscape:window-x="-8"
   inkscape:window-y="-8"
   inkscape:window-maximized="1"
   inkscape:current-layer="group-2svg" />
<g
   id="g4657"
   transform="translate(0,-1.252)">
	<g
   id="group-2svg">
		<path
   id="path-1_11_"
   style="fill:#4e02fb;fill-opacity:1"
   d="M 53.923,39.998 47.398,46.523 35.705,34.831 24.012,23.138 30.538,16.612 c 1.562,-1.562 1.562,-4.095 0,-5.657 L 24.502,4.919 c -1.556,-1.556 -4.101,-1.556 -5.657,0 L 7.842,15.922 c -3.124,3.124 -3.124,8.189 0,11.313 L 25.571,44.964 42.52,61.913 c 3.125,3.125 8.19,3.125 11.314,0 L 64.837,50.911 c 1.562,-1.562 1.562,-4.095 0,-5.657 L 59.58,39.998 c -1.562,-1.563 -4.094,-1.563 -5.657,0 z"
   inkscape:connector-curvature="0" />
		<path
   id="path-2_11_"
   d="m 44.177,64.756 c -2.537,0 -4.923,-0.988 -6.717,-2.782 L 2.782,27.296 C 0.987,25.502 0,23.116 0,20.579 0,18.041 0.987,15.655 2.782,13.861 L 13.785,2.858 c 1.035,-1.035 2.416,-1.606 3.889,-1.606 1.472,0 2.853,0.571 3.889,1.606 l 6.035,6.036 c 2.145,2.145 2.145,5.634 0,7.778 l -5.465,5.466 21.265,21.264 5.465,-5.465 c 1.038,-1.039 2.42,-1.611 3.889,-1.611 1.469,0 2.85,0.572 3.889,1.611 l 5.256,5.256 c 1.039,1.039 1.611,2.42 1.611,3.889 0,1.469 -0.572,2.851 -1.611,3.889 L 50.895,61.974 c -1.795,1.794 -4.181,2.782 -6.718,2.782 z M 17.674,4.252 c -0.671,0 -1.299,0.258 -1.768,0.727 L 4.903,15.982 c -2.534,2.535 -2.534,6.659 0,9.193 l 34.678,34.677 c 1.228,1.228 2.86,1.904 4.596,1.904 1.736,0 3.369,-0.676 4.597,-1.904 L 59.776,48.85 c 0.975,-0.974 0.975,-2.561 0,-3.536 L 54.52,40.058 c -0.945,-0.945 -2.593,-0.944 -3.535,0 l -6.527,6.525 c -0.586,0.586 -1.535,0.586 -2.121,0 L 18.951,23.198 c -0.281,-0.281 -0.439,-0.662 -0.439,-1.06 0,-0.398 0.158,-0.78 0.439,-1.061 l 6.526,-6.526 c 0.975,-0.974 0.975,-2.561 0,-3.535 L 19.442,4.979 C 18.972,4.511 18.344,4.252 17.674,4.252 Z"
   inkscape:connector-curvature="0" />
		<path
   id="path-3_11_"
   d="m 57.429,54.818 c -0.384,0 -0.768,-0.146 -1.061,-0.439 L 45.455,43.466 c -0.586,-0.586 -0.586,-1.536 0,-2.121 0.586,-0.586 1.535,-0.586 2.121,0 l 10.913,10.913 c 0.586,0.585 0.586,1.535 0,2.121 -0.293,0.293 -0.676,0.439 -1.06,0.439 z"
   inkscape:connector-curvature="0" />
		<path
   id="path-4_9_"
   d="m 23.13,20.52 c -0.384,0 -0.768,-0.147 -1.06,-0.44 L 10.377,8.387 c -0.586,-0.585 -0.586,-1.535 0,-2.121 0.586,-0.586 1.535,-0.586 2.121,0 l 11.693,11.693 c 0.585,0.585 0.585,1.536 0,2.121 -0.293,0.293 -0.677,0.44 -1.061,0.44 z"
   inkscape:connector-curvature="0" />
	</g>
</g>
<g
   id="g4659"
   transform="translate(0,-1.252)">
</g>
<g
   id="g4661"
   transform="translate(0,-1.252)">
</g>
<g
   id="g4663"
   transform="translate(0,-1.252)">
</g>
<g
   id="g4665"
   transform="translate(0,-1.252)">
</g>
<g
   id="g4667"
   transform="translate(0,-1.252)">
</g>
<g
   id="g4669"
   transform="translate(0,-1.252)">
</g>
<g
   id="g4671"
   transform="translate(0,-1.252)">
</g>
<g
   id="g4673"
   transform="translate(0,-1.252)">
</g>
<g
   id="g4675"
   transform="translate(0,-1.252)">
</g>
<g
   id="g4677"
   transform="translate(0,-1.252)">
</g>
<g
   id="g4679"
   transform="translate(0,-1.252)">
</g>
<g
   id="g4681"
   transform="translate(0,-1.252)">
</g>
<g
   id="g4683"
   transform="translate(0,-1.252)">
</g>
<g
   id="g4685"
   transform="translate(0,-1.252)">
</g>
<g
   id="g4687"
   transform="translate(0,-1.252)">
</g>
</svg>