<?xml version="1.0" encoding="UTF-8" standalone="no"?>
<!-- Generator: Adobe Illustrator 23.0.2, SVG Export Plug-In . SVG Version: 6.00 Build 0)  -->

<svg
   xmlns:dc="http://purl.org/dc/elements/1.1/"
   xmlns:cc="http://creativecommons.org/ns#"
   xmlns:rdf="http://www.w3.org/1999/02/22-rdf-syntax-ns#"
   xmlns:svg="http://www.w3.org/2000/svg"
   xmlns="http://www.w3.org/2000/svg"
   xmlns:xlink="http://www.w3.org/1999/xlink"
   xmlns:sodipodi="http://sodipodi.sourceforge.net/DTD/sodipodi-0.dtd"
   xmlns:inkscape="http://www.inkscape.org/namespaces/inkscape"
   version="1.1"
   id="layer_1"
   x="0px"
   y="0px"
   viewBox="0 0 800 500"
   style="enable-background:new 0 0 800 500;"
   xml:space="preserve"
   sodipodi:docname="bg_1.svg"
   inkscape:version="0.92.2 (5c3e80d, 2017-08-06)"><metadata
     id="metadata14227"><rdf:RDF><cc:Work
         rdf:about=""><dc:format>image/svg+xml</dc:format><dc:type
           rdf:resource="http://purl.org/dc/dcmitype/StillImage" /><dc:title></dc:title></cc:Work></rdf:RDF></metadata><defs
     id="defs14225" /><sodipodi:namedview
     pagecolor="#ffffff"
     bordercolor="#666666"
     borderopacity="1"
     objecttolerance="10"
     gridtolerance="10"
     guidetolerance="10"
     inkscape:pageopacity="0"
     inkscape:pageshadow="2"
     inkscape:window-width="1920"
     inkscape:window-height="1017"
     id="namedview14223"
     showgrid="false"
     inkscape:zoom="1.0040916"
     inkscape:cx="219.42446"
     inkscape:cy="295.3798"
     inkscape:window-x="-8"
     inkscape:window-y="-8"
     inkscape:window-maximized="1"
     inkscape:current-layer="g14218" /><style
     type="text/css"
     id="style12925">
	.st0{clip-path:url(#SVGID_2_);fill:#FFFFFF;}
	.st1{clip-path:url(#SVGID_2_);fill:#D2E1EA;}
	.st2{clip-path:url(#SVGID_2_);}
	.st3{fill:#C8DAE3;}
	.st4{fill:#0B3C5E;}
	.st5{fill:#1A4767;}
	.st6{fill:#FFBB00;}
	.st7{fill:#FFFFFF;}
	.st8{fill:#CCE4EB;}
	.st9{fill:#291A6D;}
	.st10{fill:#FF3F54;}
	.st11{fill:#A3BCCF;}
	.st12{fill:#86A4B6;}
	.st13{fill:#BDD5DA;}
	.st14{fill:#00CF76;}
	.st15{fill:#F5C5B9;}
	.st16{fill:#2F287A;}
	.st17{fill:#E6EFF5;}
	.st18{fill:#EABCB3;}
	.st19{fill:#FFC828;}
	.st20{fill:#7793A3;}
	.st21{fill:#E22C4A;}
	.st22{fill:#00BC5F;}
	.st23{fill:#EE304E;}
	.st24{fill:#FFE35B;}
	.st25{fill:#00BC64;}
	.st26{fill:#31D882;}
	.st27{fill:#FFB100;}
	.st28{fill:#F5D1C6;}
	.st29{fill:#FBD4C1;}
	.st30{fill:#F1BDAB;}
	.st31{fill:#161052;}
</style><g
     id="g14220"><defs
       id="defs12928"><rect
         id="SVGID_1_"
         width="800"
         height="500" /></defs><clipPath
       id="SVGID_2_"><use
         xlink:href="#SVGID_1_"
         style="overflow:visible;"
         id="use12930" /></clipPath><rect
       class="st0"
       width="800"
       height="500"
       clip-path="url(#SVGID_2_)"
       id="rect12933" /><g
       class="st2"
       clip-path="url(#SVGID_2_)"
       id="g14218"><g
         id="g13674"
         transform="translate(-134.44988,-43.820702)"><path
           class="st8"
           d="m 617.4,141.9 c 0,-16.9 13.7,-30.7 30.7,-30.7 16.9,0 30.7,13.7 30.7,30.7 0,17 -13.8,30.6 -30.8,30.6 -16.9,0 -30.6,-13.7 -30.6,-30.6 z"
           id="path13634"
           inkscape:connector-curvature="0"
           style="fill:#cce4eb" /><g
           id="g13672"><path
             class="st9"
             d="m 621.3,140.3 c 0,-16.9 13.7,-30.7 30.7,-30.7 17,0 30.7,13.7 30.7,30.7 0,17 -13.8,30.7 -30.7,30.7 -16.9,0 -30.7,-13.7 -30.7,-30.7 z"
             id="path13636"
             inkscape:connector-curvature="0"
             style="fill:#291a6d" /><path
             class="st7"
             d="m 625.4,140.3 c 0,-14.6 11.9,-26.5 26.5,-26.5 14.6,0 26.5,11.9 26.5,26.5 0,14.6 -11.9,26.5 -26.5,26.5 -14.6,0 -26.5,-11.8 -26.5,-26.5 z"
             id="path13638"
             inkscape:connector-curvature="0"
             style="fill:#ffffff" /><path
             class="st10"
             d="m 648.9,140.3 c 0,-1.7 1.4,-3.1 3.1,-3.1 1.7,0 3.1,1.4 3.1,3.1 0,1.7 -1.4,3.1 -3.1,3.1 -1.7,0 -3.1,-1.4 -3.1,-3.1 z"
             id="path13640"
             inkscape:connector-curvature="0"
             style="fill:#ff3f54" /><g
             id="g13666"><path
               class="st8"
               d="m 649.6,119.6 c 0,-1.3 1,-2.3 2.3,-2.3 1.3,0 2.3,1 2.3,2.3 0,1.3 -1,2.3 -2.3,2.3 -1.3,0 -2.3,-1.1 -2.3,-2.3 z"
               id="path13642"
               inkscape:connector-curvature="0"
               style="fill:#cce4eb" /><path
               class="st8"
               d="m 660.3,121.2 c 0.6,-1.1 2.1,-1.5 3.2,-0.8 1.1,0.6 1.5,2.1 0.8,3.2 -0.6,1.1 -2.1,1.5 -3.2,0.8 -1,-0.7 -1.4,-2.1 -0.8,-3.2 z"
               id="path13644"
               inkscape:connector-curvature="0"
               style="fill:#cce4eb" /><path
               class="st8"
               d="m 668.8,127.9 c 1.1,-0.6 2.5,-0.3 3.2,0.8 0.6,1.1 0.3,2.5 -0.8,3.2 -1.1,0.6 -2.5,0.3 -3.2,-0.8 -0.7,-1.1 -0.3,-2.5 0.8,-3.2 z"
               id="path13646"
               inkscape:connector-curvature="0"
               style="fill:#cce4eb" /><path
               class="st8"
               d="m 672.7,138 c 1.3,0 2.3,1 2.3,2.3 0,1.3 -1,2.3 -2.3,2.3 -1.3,0 -2.3,-1 -2.3,-2.3 0,-1.3 1,-2.3 2.3,-2.3 z"
               id="path13648"
               inkscape:connector-curvature="0"
               style="fill:#cce4eb" /><path
               class="st8"
               d="m 671.1,148.7 c 1.1,0.6 1.5,2.1 0.8,3.2 -0.6,1.1 -2.1,1.5 -3.2,0.8 -1.1,-0.6 -1.5,-2.1 -0.8,-3.2 0.7,-1.1 2.1,-1.4 3.2,-0.8 z"
               id="path13650"
               inkscape:connector-curvature="0"
               style="fill:#cce4eb" /><path
               class="st8"
               d="m 664.4,157.1 c 0.6,1.1 0.3,2.5 -0.8,3.2 -1.1,0.6 -2.5,0.3 -3.2,-0.8 -0.6,-1.1 -0.3,-2.5 0.8,-3.2 1.1,-0.7 2.5,-0.3 3.2,0.8 z"
               id="path13652"
               inkscape:connector-curvature="0"
               style="fill:#cce4eb" /><path
               class="st8"
               d="m 654.3,161.1 c 0,1.3 -1,2.3 -2.3,2.3 -1.3,0 -2.3,-1 -2.3,-2.3 0,-1.3 1,-2.3 2.3,-2.3 1.3,0 2.3,1 2.3,2.3 z"
               id="path13654"
               inkscape:connector-curvature="0"
               style="fill:#cce4eb" /><path
               class="st8"
               d="m 643.6,159.5 c -0.6,1.1 -2.1,1.5 -3.2,0.8 -1.1,-0.6 -1.5,-2.1 -0.8,-3.2 0.6,-1.1 2.1,-1.5 3.2,-0.8 1.1,0.6 1.4,2.1 0.8,3.2 z"
               id="path13656"
               inkscape:connector-curvature="0"
               style="fill:#cce4eb" /><path
               class="st8"
               d="m 635.1,152.7 c -1.1,0.6 -2.5,0.3 -3.2,-0.8 -0.6,-1.1 -0.3,-2.5 0.8,-3.2 1.1,-0.6 2.5,-0.3 3.2,0.8 0.7,1.2 0.4,2.6 -0.8,3.2 z"
               id="path13658"
               inkscape:connector-curvature="0"
               style="fill:#cce4eb" /><path
               class="st8"
               d="m 631.2,142.6 c -1.3,0 -2.3,-1 -2.3,-2.3 0,-1.3 1,-2.3 2.3,-2.3 1.3,0 2.3,1 2.3,2.3 0,1.3 -1,2.3 -2.3,2.3 z"
               id="path13660"
               inkscape:connector-curvature="0"
               style="fill:#cce4eb" /><path
               class="st8"
               d="m 632.8,132 c -1.1,-0.6 -1.5,-2.1 -0.8,-3.2 0.6,-1.1 2.1,-1.5 3.2,-0.8 1.1,0.6 1.5,2.1 0.8,3.2 -0.6,1 -2.1,1.4 -3.2,0.8 z"
               id="path13662"
               inkscape:connector-curvature="0"
               style="fill:#cce4eb" /><path
               class="st8"
               d="m 639.6,123.5 c -0.6,-1.1 -0.3,-2.5 0.8,-3.2 1.1,-0.6 2.5,-0.3 3.2,0.8 0.6,1.1 0.3,2.5 -0.8,3.2 -1.2,0.7 -2.6,0.3 -3.2,-0.8 z"
               id="path13664"
               inkscape:connector-curvature="0"
               style="fill:#cce4eb" /></g><path
             class="st10"
             d="m 652,140.1 v 0 c 0.7,-0.5 0.9,-1.4 0.4,-2.2 l -7.2,-10.8 c -0.5,-0.7 -1.4,-0.9 -2.2,-0.4 v 0 c -0.7,0.5 -0.9,1.4 -0.4,2.2 l 7.2,10.8 c 0.5,0.6 1.4,0.8 2.2,0.4 z"
             id="path13668"
             inkscape:connector-curvature="0"
             style="fill:#ff3f54" /><path
             class="st10"
             d="m 653.2,140.3 v 0 c 0,-0.9 -0.7,-1.6 -1.6,-1.6 h -7.2 c -0.9,0 -1.6,0.7 -1.6,1.6 v 0 c 0,0.9 0.7,1.6 1.6,1.6 h 7.2 c 0.9,0 1.6,-0.7 1.6,-1.6 z"
             id="path13670"
             inkscape:connector-curvature="0"
             style="fill:#ff3f54" /></g></g><g
         id="g13968"
         transform="translate(-134.44988,-43.820702)"><polygon
           class="st11"
           points="597.5,335.2 589.2,246 594.5,246 602.8,335.2 "
           id="polygon13676"
           style="fill:#a3bccf" /><polygon
           class="st8"
           points="583.9,333.1 575.7,243.9 580.9,243.9 589.2,333.1 "
           id="polygon13678"
           style="fill:#cce4eb" /><polygon
           class="st11"
           points="422.1,335.2 430.4,246 425.1,246 416.8,335.2 "
           id="polygon13680"
           style="fill:#a3bccf" /><polygon
           class="st8"
           points="437.3,333.1 445.6,243.9 440.3,243.9 432,333.1 "
           id="polygon13682"
           style="fill:#cce4eb" /><rect
           x="402.70001"
           y="242.5"
           transform="rotate(-180,510.00635,245.8496)"
           class="st8"
           width="214.60001"
           height="6.6999998"
           id="rect13684"
           style="fill:#cce4eb" /><polygon
           class="st12"
           points="608.9,255.9 613,249.2 410,249.2 414.1,255.9 "
           id="polygon13686"
           style="fill:#86a4b6" /><g
           id="g13738"><rect
             x="548.20001"
             y="222.60001"
             class="st11"
             width="7.9000001"
             height="15.9"
             id="rect13688"
             style="fill:#a3bccf" /><path
             class="st13"
             d="m 564.4,242.5 h -24.5 v -0.1 c 0,-2.9 2.4,-5.3 5.3,-5.3 h 14 c 2.8,0.1 5.2,2.4 5.2,5.4 z"
             id="path13690"
             inkscape:connector-curvature="0"
             style="fill:#bdd5da" /><path
             class="st11"
             d="M 578.7,231.8 H 526 c -1.4,0 -2.5,-1.1 -2.5,-2.5 v -34 c 0,-1.4 1.1,-2.5 2.5,-2.5 h 52.8 c 1.4,0 2.5,1.1 2.5,2.5 v 34 c -0.1,1.3 -1.2,2.5 -2.6,2.5 z"
             id="path13692"
             inkscape:connector-curvature="0"
             style="fill:#a3bccf" /><path
             class="st7"
             d="m 576.2,229.1 h -47.7 c -1.4,0 -2.5,-1.1 -2.5,-2.5 v -28.7 c 0,-1.4 1.1,-2.5 2.5,-2.5 h 47.7 c 1.4,0 2.5,1.1 2.5,2.5 v 28.7 c 0,1.4 -1.1,2.5 -2.5,2.5 z"
             id="path13694"
             inkscape:connector-curvature="0"
             style="fill:#ffffff" /><g
             id="g13736"><g
               id="g13704"><path
                 class="st8"
                 d="m 543.5,199.3 h 25.1 c 0.5,0 0.9,-0.4 0.9,-0.9 v 0 c 0,-0.5 -0.4,-0.9 -0.9,-0.9 h -25.1 c -0.5,0 -0.9,0.4 -0.9,0.9 v 0 c 0,0.6 0.4,0.9 0.9,0.9 z"
                 id="path13696"
                 inkscape:connector-curvature="0"
                 style="fill:#cce4eb" /><path
                 class="st8"
                 d="m 551.2,202.9 h 17.4 c 0.5,0 0.9,-0.4 0.9,-0.9 v 0 c 0,-0.5 -0.4,-0.9 -0.9,-0.9 h -17.4 c -0.5,0 -0.9,0.4 -0.9,0.9 v 0 c 0,0.5 0.4,0.9 0.9,0.9 z"
                 id="path13698"
                 inkscape:connector-curvature="0"
                 style="fill:#cce4eb" /><path
                 class="st8"
                 d="m 546.2,206.5 h 18.5 c 0.5,0 0.9,-0.4 0.9,-0.9 v 0 c 0,-0.5 -0.4,-0.9 -0.9,-0.9 h -18.5 c -0.5,0 -0.9,0.4 -0.9,0.9 v 0 c 0,0.5 0.4,0.9 0.9,0.9 z"
                 id="path13700"
                 inkscape:connector-curvature="0"
                 style="fill:#cce4eb" /><path
                 class="st8"
                 d="m 551.9,210.1 h 12.8 c 0.5,0 0.9,-0.4 0.9,-0.9 v 0 c 0,-0.5 -0.4,-0.9 -0.9,-0.9 h -12.8 c -0.5,0 -0.9,0.4 -0.9,0.9 v 0 c 0.1,0.5 0.4,0.9 0.9,0.9 z"
                 id="path13702"
                 inkscape:connector-curvature="0"
                 style="fill:#cce4eb" /></g><g
               id="g13716"><path
                 class="st8"
                 d="M 542.1,215.5 H 555 c 0.5,0 0.9,-0.4 0.9,-0.9 v 0 c 0,-0.5 -0.4,-0.9 -0.9,-0.9 h -12.8 c -0.5,0 -0.9,0.4 -0.9,0.9 v 0 c 0,0.5 0.4,0.9 0.8,0.9 z"
                 id="path13706"
                 inkscape:connector-curvature="0"
                 style="fill:#cce4eb" /><path
                 class="st8"
                 d="M 539.1,219 H 555 c 0.5,0 0.9,-0.4 0.9,-0.9 v 0 c 0,-0.5 -0.4,-0.9 -0.9,-0.9 h -15.9 c -0.5,0 -0.9,0.4 -0.9,0.9 v 0 c 0,0.6 0.4,0.9 0.9,0.9 z"
                 id="path13708"
                 inkscape:connector-curvature="0"
                 style="fill:#cce4eb" /><path
                 class="st8"
                 d="m 543.3,222.4 h 8.3 c 0.5,0 0.9,-0.4 0.9,-0.9 v 0 c 0,-0.5 -0.4,-0.9 -0.9,-0.9 h -8.3 c -0.5,0 -0.9,0.4 -0.9,0.9 v 0 c 0,0.5 0.4,0.9 0.9,0.9 z"
                 id="path13710"
                 inkscape:connector-curvature="0"
                 style="fill:#cce4eb" /><path
                 class="st8"
                 d="m 543.3,225.4 h 8.3 c 0.5,0 0.9,-0.4 0.9,-0.9 v 0 c 0,-0.5 -0.4,-0.9 -0.9,-0.9 h -8.3 c -0.5,0 -0.9,0.4 -0.9,0.9 v 0 c 0,0.5 0.4,0.9 0.9,0.9 z"
                 id="path13712"
                 inkscape:connector-curvature="0"
                 style="fill:#cce4eb" /><path
                 class="st8"
                 d="m 558.2,215.5 v 0 c 0.4,0 0.7,-0.3 0.7,-0.7 v -0.3 c 0,-0.4 -0.3,-0.7 -0.7,-0.7 v 0 c -0.4,0 -0.7,0.3 -0.7,0.7 v 0.3 c 0,0.4 0.3,0.7 0.7,0.7 z"
                 id="path13714"
                 inkscape:connector-curvature="0"
                 style="fill:#cce4eb" /></g><g
               id="g13734"><g
                 id="g13720"><path
                   class="st14"
                   d="m 538.1,199.9 c 0.2,0 0.3,0 0.4,-0.1 0.1,-0.1 0.1,-0.2 0.2,-0.3 0,-0.1 0,-0.3 0,-0.7 0,-0.3 0,-0.5 0,-0.6 0,-0.1 0.1,-0.2 0.2,-0.3 0.1,-0.1 0.2,-0.2 0.3,-0.2 0.1,0 0.3,-0.1 0.6,-0.1 h 0.1 v 0.7 c -0.2,0 -0.3,0 -0.4,0 -0.1,0 -0.1,0.1 -0.1,0.1 0,0 0,0.1 0,0.3 0,0.4 0,0.7 0,0.8 0,0.2 -0.1,0.3 -0.2,0.5 -0.1,0.1 -0.2,0.2 -0.3,0.3 0.1,0.1 0.2,0.1 0.3,0.2 0.1,0.1 0.1,0.2 0.2,0.3 0,0.1 0.1,0.3 0.1,0.5 0,0.3 0,0.5 0,0.6 0,0.1 0,0.2 0,0.2 0,0 0.1,0.1 0.1,0.1 0.1,0 0.2,0 0.4,0 v 0.7 h -0.1 c -0.2,0 -0.4,0 -0.5,0 -0.2,0 -0.3,-0.1 -0.4,-0.2 -0.1,-0.1 -0.1,-0.2 -0.2,-0.3 0,-0.1 0,-0.4 0,-0.7 0,-0.2 0,-0.4 0,-0.5 0,-0.1 -0.1,-0.2 -0.1,-0.3 0,-0.1 -0.1,-0.1 -0.2,-0.2 -0.1,0 -0.2,-0.1 -0.3,-0.1 v -0.7 z"
                   id="path13718"
                   inkscape:connector-curvature="0"
                   style="fill:#00cf76" /></g><g
                 id="g13724"><path
                   class="st14"
                   d="m 574.5,208.6 c -0.1,0 -0.2,0 -0.3,0.1 -0.1,0 -0.1,0.1 -0.2,0.2 0,0.1 -0.1,0.2 -0.1,0.3 0,0.1 0,0.2 0,0.5 0,0.4 0,0.6 0,0.7 0,0.1 -0.1,0.3 -0.2,0.3 -0.1,0.1 -0.2,0.2 -0.4,0.2 -0.1,0 -0.3,0 -0.5,0 h -0.1 v -0.7 c 0.2,0 0.3,0 0.4,0 0.1,0 0.1,-0.1 0.1,-0.1 0,0 0,-0.1 0,-0.2 0,-0.1 0,-0.3 0,-0.6 0,-0.2 0,-0.3 0.1,-0.5 0,-0.1 0.1,-0.2 0.2,-0.3 0.1,-0.1 0.2,-0.2 0.3,-0.2 -0.1,-0.1 -0.2,-0.2 -0.3,-0.3 -0.1,-0.1 -0.1,-0.3 -0.2,-0.5 0,-0.1 0,-0.4 0,-0.8 0,-0.1 0,-0.2 0,-0.3 0,0 -0.1,-0.1 -0.1,-0.1 -0.1,0 -0.2,0 -0.4,0 v -0.7 h 0.1 c 0.2,0 0.4,0 0.6,0.1 0.1,0 0.2,0.1 0.3,0.2 0.1,0.1 0.2,0.2 0.2,0.3 0,0.1 0,0.3 0,0.6 0,0.3 0,0.6 0,0.7 0,0.1 0.1,0.3 0.2,0.3 0.1,0.1 0.2,0.1 0.4,0.1 v 0.7 z"
                   id="path13722"
                   inkscape:connector-curvature="0"
                   style="fill:#00cf76" /></g><g
                 id="g13728"><path
                   class="st14"
                   d="m 532.4,216.1 c 0.2,0 0.3,0 0.4,-0.1 0.1,-0.1 0.1,-0.2 0.2,-0.3 0,-0.1 0,-0.3 0,-0.7 0,-0.3 0,-0.5 0,-0.6 0,-0.1 0.1,-0.2 0.2,-0.3 0.1,-0.1 0.2,-0.2 0.3,-0.2 0.1,0 0.3,-0.1 0.6,-0.1 h 0.1 v 0.7 c -0.2,0 -0.3,0 -0.4,0 -0.1,0 -0.1,0.1 -0.1,0.1 0,0 0,0.1 0,0.3 0,0.4 0,0.7 0,0.8 0,0.2 -0.1,0.3 -0.2,0.5 -0.1,0.1 -0.2,0.2 -0.3,0.3 0.1,0.1 0.2,0.1 0.3,0.2 0.1,0.1 0.1,0.2 0.2,0.3 0,0.1 0.1,0.3 0.1,0.5 0,0.3 0,0.5 0,0.6 0,0.1 0,0.2 0,0.2 0,0 0.1,0.1 0.1,0.1 0,0 0.2,0 0.4,0 v 0.7 h -0.1 c -0.2,0 -0.4,0 -0.5,0 -0.2,0 -0.3,-0.1 -0.4,-0.2 -0.1,-0.1 -0.1,-0.2 -0.2,-0.3 0,-0.1 0,-0.4 0,-0.7 0,-0.2 0,-0.4 0,-0.5 0,-0.1 -0.1,-0.2 -0.1,-0.3 0,-0.1 -0.1,-0.1 -0.2,-0.2 -0.1,0 -0.2,-0.1 -0.3,-0.1 v -0.7 z"
                   id="path13726"
                   inkscape:connector-curvature="0"
                   style="fill:#00cf76" /></g><g
                 id="g13732"><path
                   class="st14"
                   d="m 560.6,223.1 c -0.1,0 -0.2,0 -0.3,0.1 -0.1,0 -0.1,0.1 -0.2,0.2 0,0.1 -0.1,0.2 -0.1,0.3 0,0.1 0,0.2 0,0.5 0,0.4 0,0.6 0,0.7 0,0.1 -0.1,0.3 -0.2,0.3 -0.1,0.1 -0.2,0.2 -0.4,0.2 -0.1,0 -0.3,0 -0.5,0 h -0.1 v -0.7 c 0.2,0 0.3,0 0.4,0 0.1,0 0.1,-0.1 0.1,-0.1 0,0 0,-0.1 0,-0.2 0,-0.1 0,-0.3 0,-0.6 0,-0.2 0,-0.3 0.1,-0.5 0,-0.1 0.1,-0.2 0.2,-0.3 0.1,-0.1 0.2,-0.1 0.3,-0.2 -0.1,-0.1 -0.2,-0.2 -0.3,-0.3 -0.1,-0.1 -0.1,-0.3 -0.2,-0.5 0,-0.1 0,-0.4 0,-0.8 0,-0.1 0,-0.2 0,-0.3 0,0 -0.1,-0.1 -0.1,-0.1 -0.1,0 -0.2,0 -0.4,0 v -0.7 h 0.1 c 0.2,0 0.4,0 0.6,0.1 0.1,0 0.2,0.1 0.3,0.2 0.1,0.1 0.2,0.2 0.2,0.3 0,0.1 0,0.3 0,0.6 0,0.3 0,0.6 0,0.7 0,0.1 0.1,0.3 0.2,0.3 0.1,0.1 0.2,0.1 0.4,0.1 v 0.7 z"
                   id="path13730"
                   inkscape:connector-curvature="0"
                   style="fill:#00cf76" /></g></g></g></g><g
           id="g13904"><g
             id="g13790"><rect
               x="469.39999"
               y="214.5"
               class="st11"
               width="11.1"
               height="22.4"
               id="rect13740"
               style="fill:#a3bccf" /><path
               class="st13"
               d="m 492.3,242.6 h -34.6 v -1.9 c 0,-3.1 2.5,-5.6 5.6,-5.6 h 23.4 c 3.1,0 5.6,2.5 5.6,5.6 z"
               id="path13742"
               inkscape:connector-curvature="0"
               style="fill:#bdd5da" /><path
               class="st13"
               d="m 513.5,227.4 h -76.4 c -1.4,0 -2.5,-1.1 -2.5,-2.5 V 175 c 0,-1.4 1.1,-2.5 2.5,-2.5 h 76.4 c 1.4,0 2.5,1.1 2.5,2.5 v 49.9 c 0,1.4 -1.1,2.5 -2.5,2.5 z"
               id="path13744"
               inkscape:connector-curvature="0"
               style="fill:#bdd5da" /><path
               class="st7"
               d="m 509.9,223.7 h -69.3 c -1.4,0 -2.5,-1.1 -2.5,-2.5 v -42.5 c 0,-1.4 1.1,-2.5 2.5,-2.5 h 69.3 c 1.4,0 2.5,1.1 2.5,2.5 v 42.5 c 0,1.4 -1.1,2.5 -2.5,2.5 z"
               id="path13746"
               inkscape:connector-curvature="0"
               style="fill:#ffffff" /><g
               id="g13788"><g
                 id="g13756"><path
                   class="st8"
                   d="m 462.8,181.7 h 35.3 c 0.7,0 1.2,-0.5 1.2,-1.2 v 0 c 0,-0.7 -0.5,-1.2 -1.2,-1.2 h -35.3 c -0.7,0 -1.2,0.5 -1.2,1.2 v 0 c 0,0.7 0.6,1.2 1.2,1.2 z"
                   id="path13748"
                   inkscape:connector-curvature="0"
                   style="fill:#cce4eb" /><path
                   class="st8"
                   d="m 473.7,186.8 h 24.5 c 0.7,0 1.2,-0.5 1.2,-1.2 v 0 c 0,-0.7 -0.5,-1.2 -1.2,-1.2 h -24.5 c -0.7,0 -1.2,0.5 -1.2,1.2 v 0 c 0,0.6 0.5,1.2 1.2,1.2 z"
                   id="path13750"
                   inkscape:connector-curvature="0"
                   style="fill:#cce4eb" /><path
                   class="st8"
                   d="M 466.3,191.8 H 493 c 0.5,0 0.9,-0.4 0.9,-0.9 v -0.6 c 0,-0.5 -0.4,-0.9 -0.9,-0.9 h -26.7 c -0.5,0 -0.9,0.4 -0.9,0.9 v 0.6 c 0,0.5 0.4,0.9 0.9,0.9 z"
                   id="path13752"
                   inkscape:connector-curvature="0"
                   style="fill:#cce4eb" /><path
                   class="st8"
                   d="m 474.7,196.9 h 18.1 c 0.7,0 1.2,-0.5 1.2,-1.2 v 0 c 0,-0.7 -0.5,-1.2 -1.2,-1.2 h -18.1 c -0.7,0 -1.2,0.5 -1.2,1.2 v 0 c 0,0.6 0.5,1.2 1.2,1.2 z"
                   id="path13754"
                   inkscape:connector-curvature="0"
                   style="fill:#cce4eb" /></g><g
                 id="g13768"><path
                   class="st8"
                   d="M 460.9,204.5 H 479 c 0.7,0 1.2,-0.5 1.2,-1.2 v 0 c 0,-0.7 -0.5,-1.2 -1.2,-1.2 h -18.1 c -0.7,0 -1.2,0.5 -1.2,1.2 v 0 c 0,0.7 0.5,1.2 1.2,1.2 z"
                   id="path13758"
                   inkscape:connector-curvature="0"
                   style="fill:#cce4eb" /><path
                   class="st8"
                   d="M 456.6,209.5 H 479 c 0.7,0 1.2,-0.5 1.2,-1.2 v 0 c 0,-0.7 -0.5,-1.2 -1.2,-1.2 h -22.3 c -0.7,0 -1.2,0.5 -1.2,1.2 v 0 c -0.1,0.6 0.5,1.2 1.1,1.2 z"
                   id="path13760"
                   inkscape:connector-curvature="0"
                   style="fill:#cce4eb" /><path
                   class="st8"
                   d="m 462.5,214.2 h 11.7 c 0.7,0 1.2,-0.5 1.2,-1.2 v 0 c 0,-0.7 -0.5,-1.2 -1.2,-1.2 h -11.7 c -0.7,0 -1.2,0.5 -1.2,1.2 v 0 c 0,0.6 0.6,1.2 1.2,1.2 z"
                   id="path13762"
                   inkscape:connector-curvature="0"
                   style="fill:#cce4eb" /><path
                   class="st8"
                   d="m 462.5,218.5 h 11.7 c 0.7,0 1.2,-0.5 1.2,-1.2 v 0 c 0,-0.7 -0.5,-1.2 -1.2,-1.2 h -11.7 c -0.7,0 -1.2,0.5 -1.2,1.2 v 0 c 0,0.6 0.6,1.2 1.2,1.2 z"
                   id="path13764"
                   inkscape:connector-curvature="0"
                   style="fill:#cce4eb" /><path
                   class="st8"
                   d="m 483.6,204.5 v 0 c 0.6,0 1,-0.5 1,-1 v -0.4 c 0,-0.6 -0.5,-1 -1,-1 v 0 c -0.6,0 -1,0.5 -1,1 v 0.4 c 0,0.6 0.4,1 1,1 z"
                   id="path13766"
                   inkscape:connector-curvature="0"
                   style="fill:#cce4eb" /></g><g
                 id="g13786"><g
                   id="g13772"><path
                     class="st14"
                     d="m 455.2,182.6 c 0.2,0 0.4,-0.1 0.5,-0.2 0.1,-0.1 0.2,-0.2 0.3,-0.4 0,-0.1 0.1,-0.5 0.1,-0.9 0,-0.4 0,-0.7 0.1,-0.9 0,-0.2 0.1,-0.4 0.3,-0.5 0.1,-0.1 0.3,-0.2 0.5,-0.3 0.2,-0.1 0.5,-0.1 0.8,-0.1 h 0.2 v 0.9 c -0.3,0 -0.5,0 -0.6,0.1 -0.1,0 -0.1,0.1 -0.2,0.1 0,0.1 0,0.2 -0.1,0.4 0,0.6 0,1 -0.1,1.2 0,0.3 -0.1,0.5 -0.2,0.7 -0.1,0.1 -0.2,0.2 -0.4,0.4 0.1,0.1 0.3,0.2 0.4,0.3 0.1,0.1 0.2,0.3 0.2,0.4 0.1,0.2 0.1,0.4 0.1,0.6 0,0.4 0,0.7 0,0.9 0,0.2 0,0.3 0.1,0.3 0,0.1 0.1,0.1 0.2,0.2 0.1,0 0.3,0.1 0.5,0.1 v 0.9 h -0.2 c -0.3,0 -0.6,0 -0.7,-0.1 -0.2,-0.1 -0.4,-0.2 -0.5,-0.3 -0.1,-0.1 -0.2,-0.3 -0.3,-0.5 -0.1,-0.2 -0.1,-0.5 -0.1,-1.1 0,-0.3 0,-0.5 0,-0.6 0,-0.2 -0.1,-0.3 -0.1,-0.4 -0.1,-0.1 -0.2,-0.2 -0.2,-0.2 -0.1,0 -0.2,-0.1 -0.4,-0.1 v -0.9 z"
                     id="path13770"
                     inkscape:connector-curvature="0"
                     style="fill:#00cf76" /></g><g
                   id="g13776"><path
                     class="st14"
                     d="m 506.5,194.8 c -0.2,0 -0.3,0 -0.4,0.1 -0.1,0 -0.2,0.1 -0.2,0.2 -0.1,0.1 -0.1,0.2 -0.1,0.4 0,0.1 0,0.3 0,0.6 0,0.5 0,0.9 -0.1,1.1 0,0.2 -0.1,0.4 -0.3,0.5 -0.1,0.1 -0.3,0.2 -0.5,0.3 -0.2,0 -0.4,0.1 -0.7,0.1 H 504 v -0.9 c 0.3,0 0.5,0 0.5,-0.1 0.1,0 0.1,-0.1 0.2,-0.2 0,-0.1 0.1,-0.2 0.1,-0.3 0,-0.2 0,-0.5 0,-0.9 0,-0.3 0,-0.5 0.1,-0.6 0.1,-0.2 0.1,-0.3 0.2,-0.4 0.1,-0.1 0.2,-0.2 0.4,-0.3 -0.2,-0.1 -0.3,-0.2 -0.4,-0.4 -0.1,-0.2 -0.2,-0.4 -0.2,-0.7 0,-0.2 0,-0.6 -0.1,-1.2 0,-0.2 0,-0.3 -0.1,-0.4 0,-0.1 -0.1,-0.1 -0.2,-0.1 -0.1,0 -0.3,-0.1 -0.6,-0.1 v -0.9 h 0.2 c 0.3,0 0.6,0 0.8,0.1 0.2,0.1 0.3,0.1 0.5,0.3 0.1,0.1 0.2,0.3 0.3,0.5 0,0.2 0.1,0.5 0.1,0.9 0,0.5 0,0.8 0.1,0.9 0.1,0.2 0.1,0.4 0.3,0.4 0.1,0.1 0.3,0.1 0.5,0.2 v 0.9 z"
                     id="path13774"
                     inkscape:connector-curvature="0"
                     style="fill:#00cf76" /></g><g
                   id="g13780"><path
                     class="st14"
                     d="m 447.1,205.3 c 0.2,0 0.4,-0.1 0.5,-0.2 0.1,-0.1 0.2,-0.2 0.3,-0.4 0,-0.1 0.1,-0.5 0.1,-0.9 0,-0.4 0,-0.7 0.1,-0.9 0,-0.2 0.1,-0.4 0.3,-0.5 0.1,-0.1 0.3,-0.2 0.5,-0.3 0.2,-0.1 0.5,-0.1 0.8,-0.1 h 0.2 v 0.9 c -0.3,0 -0.5,0 -0.6,0.1 -0.1,0 -0.1,0.1 -0.2,0.1 0,0.1 0,0.2 -0.1,0.4 0,0.6 0,1 -0.1,1.2 0,0.3 -0.1,0.5 -0.2,0.7 -0.1,0.1 -0.2,0.2 -0.4,0.4 0.1,0.1 0.3,0.2 0.4,0.3 0.1,0.1 0.2,0.3 0.2,0.4 0.1,0.2 0.1,0.4 0.1,0.6 0,0.4 0,0.7 0,0.9 0,0.2 0,0.3 0.1,0.3 0,0.1 0.1,0.1 0.2,0.2 0.1,0 0.3,0.1 0.5,0.1 v 0.9 h -0.2 c -0.3,0 -0.6,0 -0.7,-0.1 -0.2,-0.1 -0.4,-0.2 -0.5,-0.3 -0.1,-0.1 -0.2,-0.3 -0.3,-0.5 0,-0.2 -0.1,-0.5 -0.1,-1.1 0,-0.3 0,-0.5 0,-0.6 0,-0.2 -0.1,-0.3 -0.1,-0.4 -0.1,-0.1 -0.2,-0.2 -0.2,-0.2 -0.1,0 -0.2,-0.1 -0.4,-0.1 v -0.9 z"
                     id="path13778"
                     inkscape:connector-curvature="0"
                     style="fill:#00cf76" /></g><g
                   id="g13784"><path
                     class="st14"
                     d="m 486.9,215.2 c -0.2,0 -0.3,0 -0.4,0.1 -0.1,0 -0.2,0.1 -0.2,0.2 -0.1,0.1 -0.1,0.2 -0.1,0.4 0,0.1 0,0.3 0,0.6 0,0.5 0,0.9 -0.1,1.1 0,0.2 -0.1,0.4 -0.3,0.5 -0.1,0.1 -0.3,0.2 -0.5,0.3 -0.2,0 -0.4,0.1 -0.7,0.1 h -0.2 v -0.9 c 0.3,0 0.5,0 0.5,-0.1 0.1,0 0.1,-0.1 0.2,-0.2 0,-0.1 0.1,-0.2 0.1,-0.3 0,-0.2 0,-0.5 0,-0.9 0,-0.3 0,-0.5 0.1,-0.6 0.1,-0.2 0.1,-0.3 0.2,-0.4 0.1,-0.1 0.2,-0.2 0.4,-0.3 -0.2,-0.1 -0.3,-0.2 -0.4,-0.4 -0.1,-0.2 -0.2,-0.4 -0.2,-0.7 0,-0.2 0,-0.6 -0.1,-1.2 0,-0.2 0,-0.3 -0.1,-0.4 0,-0.1 -0.1,-0.1 -0.2,-0.1 -0.1,0 -0.3,-0.1 -0.6,-0.1 V 211 h 0.2 c 0.3,0 0.6,0 0.8,0.1 0.2,0.1 0.3,0.1 0.5,0.3 0.1,0.1 0.2,0.3 0.3,0.5 0,0.2 0.1,0.5 0.1,0.9 0,0.5 0,0.8 0.1,0.9 0.1,0.2 0.1,0.4 0.3,0.4 0.1,0.1 0.3,0.1 0.5,0.2 v 0.9 z"
                     id="path13782"
                     inkscape:connector-curvature="0"
                     style="fill:#00cf76" /></g></g></g></g><g
             id="g13834"><g
               id="g13818"><rect
                 x="475.89999"
                 y="240.8"
                 class="st11"
                 width="37.900002"
                 height="2.2"
                 id="rect13792"
                 style="fill:#a3bccf" /><g
                 id="g13816"><rect
                   x="477.10001"
                   y="240.2"
                   class="st11"
                   width="2.2"
                   height="0.89999998"
                   id="rect13794"
                   style="fill:#a3bccf" /><rect
                   x="480.29999"
                   y="240.2"
                   class="st11"
                   width="2.2"
                   height="0.89999998"
                   id="rect13796"
                   style="fill:#a3bccf" /><rect
                   x="483.39999"
                   y="240.2"
                   class="st11"
                   width="2.2"
                   height="0.89999998"
                   id="rect13798"
                   style="fill:#a3bccf" /><rect
                   x="486.60001"
                   y="240.2"
                   class="st11"
                   width="2.2"
                   height="0.89999998"
                   id="rect13800"
                   style="fill:#a3bccf" /><rect
                   x="489.79999"
                   y="240.2"
                   class="st11"
                   width="2.2"
                   height="0.89999998"
                   id="rect13802"
                   style="fill:#a3bccf" /><rect
                   x="493"
                   y="240.2"
                   class="st11"
                   width="2.2"
                   height="0.89999998"
                   id="rect13804"
                   style="fill:#a3bccf" /><rect
                   x="496.10001"
                   y="240.2"
                   class="st11"
                   width="2.2"
                   height="0.89999998"
                   id="rect13806"
                   style="fill:#a3bccf" /><rect
                   x="499.29999"
                   y="240.2"
                   class="st11"
                   width="2.2"
                   height="0.89999998"
                   id="rect13808"
                   style="fill:#a3bccf" /><rect
                   x="502.5"
                   y="240.2"
                   class="st11"
                   width="2.2"
                   height="0.89999998"
                   id="rect13810"
                   style="fill:#a3bccf" /><rect
                   x="505.70001"
                   y="240.2"
                   class="st11"
                   width="2.2"
                   height="0.89999998"
                   id="rect13812"
                   style="fill:#a3bccf" /><rect
                   x="508.89999"
                   y="240.2"
                   class="st11"
                   width="2.2"
                   height="0.89999998"
                   id="rect13814"
                   style="fill:#a3bccf" /></g></g><g
               id="g13832"><g
                 id="g13828"><rect
                   x="463.60001"
                   y="240.2"
                   class="st12"
                   width="2.2"
                   height="0.89999998"
                   id="rect13820"
                   style="fill:#86a4b6" /><rect
                   x="466.79999"
                   y="240.2"
                   class="st12"
                   width="2.2"
                   height="0.89999998"
                   id="rect13822"
                   style="fill:#86a4b6" /><rect
                   x="470"
                   y="240.2"
                   class="st12"
                   width="2.2"
                   height="0.89999998"
                   id="rect13824"
                   style="fill:#86a4b6" /><rect
                   x="473.20001"
                   y="240.2"
                   class="st12"
                   width="2.2"
                   height="0.89999998"
                   id="rect13826"
                   style="fill:#86a4b6" /></g><rect
                 x="462.89999"
                 y="240.8"
                 class="st12"
                 width="13"
                 height="2.2"
                 id="rect13830"
                 style="fill:#86a4b6" /></g></g><g
             id="g13842"><path
               class="st9"
               d="m 531.2,331.8 c 0.2,1.2 -26.7,1.7 -26.7,0.9 -0.2,-2.3 1,-5.1 2.4,-5.7 0.8,-0.3 1.8,-0.4 3,-0.4 2.5,-0.1 5.6,0.2 8.4,-0.6 1.3,-0.4 2.4,-0.8 3.1,-1.3 0,0 0,0 0,0 1.6,-0.9 2.2,-1.8 2.2,-1.8 l 5.5,-0.7 c 0.1,0.1 1.7,6.1 2.1,9.6 z"
               id="path13836"
               inkscape:connector-curvature="0"
               style="fill:#291a6d" /><path
               class="st15"
               d="m 522.2,314.8 0.7,8.8 c 0.1,1.6 1.4,2.8 2.9,2.9 v 0 c 1.7,0.1 3.2,-1.3 3.3,-3 l 0.2,-8.6 z"
               id="path13838"
               inkscape:connector-curvature="0"
               style="fill:#f5c5b9" /><path
               class="st16"
               d="m 521.8,328.7 c -0.8,0.5 -10.5,1.5 -10.9,0.2 -0.4,-1.3 -0.9,-2.3 -0.9,-2.3 2.5,-0.1 5.6,0.2 8.4,-0.6 1.3,-0.4 2.4,-0.8 3.1,-1.3 0,0 0,0 0,0 0,0 1.1,3.4 0.3,4 z"
               id="path13840"
               inkscape:connector-curvature="0"
               style="fill:#2f287a" /></g><g
             id="g13850"><path
               class="st9"
               d="m 514.9,332.1 c 0.2,1.2 -21.6,1.7 -21.7,0.9 -0.2,-2.3 1,-5.1 2.4,-5.7 0.8,-0.3 1.8,-0.4 3,-0.4 2.5,-0.1 0.5,0.2 3.3,-0.6 1.3,-0.4 2.4,-0.8 3.1,-1.3 0,0 0,0 0,0 1.6,-0.9 2.2,-1.8 2.2,-1.8 l 5.5,-0.7 c 0.1,0.1 1.7,6.1 2.2,9.6 z"
               id="path13844"
               inkscape:connector-curvature="0"
               style="fill:#291a6d" /><path
               class="st15"
               d="m 505.9,315.1 0.7,8.8 c 0.1,1.6 1.4,2.8 2.9,2.9 v 0 c 1.7,0.1 3.2,-1.3 3.3,-3 l 0.2,-8.6 z"
               id="path13846"
               inkscape:connector-curvature="0"
               style="fill:#f5c5b9" /><path
               class="st16"
               d="m 505.4,329 c -0.8,0.5 -5.4,1.5 -5.8,0.2 -0.4,-1.3 -0.9,-2.3 -0.9,-2.3 1.3,-0.1 2.2,-0.2 3.3,-0.6 1.3,-0.4 2.4,-0.8 3.1,-1.3 0,0 0,0 0,0 0,0 1.1,3.4 0.3,4 z"
               id="path13848"
               inkscape:connector-curvature="0"
               style="fill:#2f287a" /></g><polygon
             class="st8"
             points="518.8,317.8 531.5,317 527.5,271 510,269.8 "
             id="polygon13852"
             style="fill:#cce4eb" /><path
             class="st15"
             d="m 535.8,201 c 0,0 1.7,4.2 1.4,5.9 0,0 6.9,-0.4 8.4,-1.6 1.5,-1.2 0,-5.8 0,-5.8 z"
             id="path13854"
             inkscape:connector-curvature="0"
             style="fill:#f5c5b9" /><path
             class="st17"
             d="m 563.4,259.6 c 0,0 6.2,20.8 0,23.5 -6.2,2.7 -50.9,-3.1 -52.3,-1.9 -1.4,1.2 5,36.1 4.7,37.5 -0.2,1.5 -11.7,1.2 -11.7,1.2 0,0 -11.8,-47.5 -9,-53.2 2.9,-5.7 44.7,-7.2 44.7,-7.2 h 23.6 z"
             id="path13856"
             inkscape:connector-curvature="0"
             style="fill:#e6eff5" /><path
             class="st15"
             d="m 540.4,179.1 c -5.8,0 -10.6,5.6 -10.6,12.4 0,0.8 0.1,1.5 0.2,2.3 -0.4,1 -0.9,2.2 -1.1,2.8 -0.2,0.6 0.9,0.5 2,0.4 1.7,4.1 5.3,7 9.5,7 5.8,0 10.6,-5.6 10.6,-12.4 0,-7 -4.8,-12.5 -10.6,-12.5 z"
             id="path13858"
             inkscape:connector-curvature="0"
             style="fill:#f5c5b9" /><path
             class="st18"
             d="m 508.9,240 c 0,0 4.3,-2.1 9.9,-1 5.6,1.1 19.9,-0.8 19.9,-0.8 0,0 -0.9,10 -1.2,10.1 -0.4,0.1 -21.2,-4.3 -24.1,-5 -3.1,-0.9 -4.5,-3.3 -4.5,-3.3 z"
             id="path13860"
             inkscape:connector-curvature="0"
             style="fill:#eabcb3" /><path
             class="st9"
             d="m 523.9,183.8 c 0,0 9.5,-0.2 9.4,3.8 -0.2,4 2.1,5.9 2.1,5.9 0,0 0.9,-1.5 2.6,-1.2 1.7,0.2 0.9,4.2 -1.5,3.7 0,0 0.8,4.2 3.3,5.3 0,0 -1.7,0.1 -2.2,-0.1 0,0 3.2,1.8 5.8,1.8 2.7,0 5.2,-1.2 6.2,-2.5 0,0 -0.1,0.3 -0.2,1.3 0,0 4.7,-5.7 3.9,-13 -0.7,-6.4 -5.1,-12.3 -10.3,-13.5 0,0 1.1,1.9 1.4,2.5 0,0 -2.1,-3.5 -8.1,-2.9 -4,0.4 -9.4,2.7 -12.4,8.9 z"
             id="path13862"
             inkscape:connector-curvature="0"
             style="fill:#291a6d" /><path
             class="st15"
             d="m 531.8,231.1 c 0,0 -9.2,15 -11.8,15.1 -2.1,0.1 -5.9,-1 -8.6,-2.5 -2.1,-1.1 -8.8,-3.2 -8.8,-3.2 -0.3,-0.1 -0.7,-0.1 -1,-0.2 v -0.1 h -0.4 c -0.9,-0.2 -1.6,-0.3 -1.8,-0.2 -0.3,0 -0.6,0.3 -1,0.5 v -0.3 h -2.2 v 0.6 h -1 v -0.6 H 493 v 0.6 h -1 v -0.6 h -2.2 v 0.6 h -1 v -0.6 h -0.2 c 1.4,-5.2 6.1,-6.5 7.9,-6.7 1.7,-0.3 17.6,1.2 19.3,1.1 1.7,-0.1 8.2,-12.3 8.2,-12.3 z"
             id="path13864"
             inkscape:connector-curvature="0"
             style="fill:#f5c5b9" /><path
             class="st19"
             d="m 519.9,227 c 0,0 1.2,7.8 8.8,10.4 l 3,-2.6 c 0,0 5.2,17.4 -1.5,25.9 0,0 17.9,4.3 37.2,1.5 0,0 -6,-44.1 -8.7,-48.6 -4.6,-7.7 -13.7,-10.4 -22.9,-7.5 -9.3,2.7 -15.9,20.9 -15.9,20.9 z"
             id="path13866"
             inkscape:connector-curvature="0"
             style="fill:#ffc828" /><g
             id="g13902"><g
               id="g13882"><path
                 class="st20"
                 d="m 545.2,330 h 2.3 c 0.8,0 1.4,-0.6 1.4,-1.4 v -10.4 h -5.2 v 10.4 c 0,0.7 0.7,1.4 1.5,1.4 z"
                 id="path13868"
                 inkscape:connector-curvature="0"
                 style="fill:#7793a3" /><path
                 class="st11"
                 d="m 515.8,332.9 c -0.9,-2.6 0.6,-5.5 3.2,-6.3 l 23.4,-7.7 v -10.5 h 7.8 V 319 l 23.1,7.6 c 2.6,0.9 4.1,3.7 3.2,6.3 l -30.4,-10 v 0 z"
                 id="path13870"
                 inkscape:connector-curvature="0"
                 style="fill:#a3bccf" /><path
                 class="st12"
                 d="m 522,332.2 c 0,-2.2 -1.8,-4 -4,-4 -2.2,0 -4,1.8 -4,4 0,2.2 1.8,4 4,4 2.1,0 4,-1.8 4,-4 z"
                 id="path13872"
                 inkscape:connector-curvature="0"
                 style="fill:#86a4b6" /><path
                 class="st12"
                 d="m 570.4,332.2 c 0,-2.2 1.8,-4 4,-4 2.2,0 4,1.8 4,4 0,2.2 -1.8,4 -4,4 -2.2,0 -4,-1.8 -4,-4 z"
                 id="path13874"
                 inkscape:connector-curvature="0"
                 style="fill:#86a4b6" /><path
                 class="st12"
                 d="m 542.7,329.8 c 0,-2 1.6,-3.6 3.6,-3.6 2,0 3.6,1.6 3.6,3.6 0,2 -1.6,3.6 -3.6,3.6 -2,0 -3.6,-1.6 -3.6,-3.6 z"
                 id="path13876"
                 inkscape:connector-curvature="0"
                 style="fill:#86a4b6" /><rect
                 x="542.20001"
                 y="289.29999"
                 transform="rotate(-180,546.1563,299.8042)"
                 class="st12"
                 width="8"
                 height="20.9"
                 id="rect13878"
                 style="fill:#86a4b6" /><rect
                 x="540"
                 y="303.70001"
                 transform="rotate(-180,546.1558,311.7217)"
                 class="st11"
                 width="12.2"
                 height="16"
                 id="rect13880"
                 style="fill:#a3bccf" /></g><path
               class="st9"
               d="M 540.4,290.5 H 552 c 4.1,0 7.4,-3.3 7.4,-7.4 v -1.6 h -26.5 v 1.6 c 0,4.1 3.4,7.4 7.5,7.4 z"
               id="path13884"
               inkscape:connector-curvature="0"
               style="fill:#291a6d" /><path
               class="st21"
               d="m 555.3,229.5 h 28.6 l 1.4,-9.2 c 0.8,-5.2 -3.2,-9.9 -8.5,-9.9 h -21.2 c -4.2,0 -7.8,3.1 -8.5,7.2 l -0.3,1.9 c -0.8,5.3 3.2,10 8.5,10 z"
               id="path13886"
               inkscape:connector-curvature="0"
               style="fill:#e22c4a" /><path
               class="st10"
               d="m 517,272.4 c 0,5.8 4.7,10.5 10.5,10.5 H 561 c 5.8,0 11,-2.3 14.8,-6.1 3.8,-3.8 6.1,-9 6.1,-14.8 l 5.6,-37.1 c 1,-6.6 -4.1,-12.5 -10.7,-12.5 h -15.6 c -5.4,0 -10,4 -10.7,9.3 l -5.3,36.3 c -0.3,2.3 -2.3,4 -4.7,4 h -13 c -0.7,0 -1.3,0.1 -2,0.2 -1.1,0.2 -2.1,0.6 -3.1,1.1 -0.9,0.5 -1.7,1.1 -2.4,1.8 -1.9,1.8 -3,4.4 -3,7.3 z"
               id="path13888"
               inkscape:connector-curvature="0"
               style="fill:#ff3f54" /><path
               class="st21"
               d="m 560.9,225 h 17.9 c 1.6,0 2.9,-1.3 2.9,-2.9 v 0 c 0,-1.6 -1.3,-2.9 -2.9,-2.9 h -17.9 c -1.6,0 -2.9,1.3 -2.9,2.9 v 0 c 0,1.6 1.3,2.9 2.9,2.9 z"
               id="path13890"
               inkscape:connector-curvature="0"
               style="fill:#e22c4a" /><path
               class="st10"
               d="m 517.7,258.3 h 17.9 c 1.6,0 2.9,-1.3 2.9,-2.9 v 0 c 0,-1.6 -1.3,-2.9 -2.9,-2.9 h -17.9 c -1.6,0 -2.9,1.3 -2.9,2.9 v 0 c 0,1.6 1.3,2.9 2.9,2.9 z"
               id="path13892"
               inkscape:connector-curvature="0"
               style="fill:#ff3f54" /><path
               class="st21"
               d="M 559.1,233.7 H 577 c 1.6,0 2.9,-1.3 2.9,-2.9 v 0 c 0,-1.6 -1.3,-2.9 -2.9,-2.9 h -17.9 c -1.6,0 -2.9,1.3 -2.9,2.9 v 0 c 0,1.6 1.3,2.9 2.9,2.9 z"
               id="path13894"
               inkscape:connector-curvature="0"
               style="fill:#e22c4a" /><path
               class="st21"
               d="m 557.4,242.4 h 17.9 c 1.6,0 2.9,-1.3 2.9,-2.9 v 0 c 0,-1.6 -1.3,-2.9 -2.9,-2.9 h -17.9 c -1.6,0 -2.9,1.3 -2.9,2.9 v 0 c 0,1.6 1.3,2.9 2.9,2.9 z"
               id="path13896"
               inkscape:connector-curvature="0"
               style="fill:#e22c4a" /><rect
               x="531.40002"
               y="258.29999"
               transform="rotate(-180,532.90965,260.09035)"
               class="st21"
               width="3.0999999"
               height="3.5999999"
               id="rect13898"
               style="fill:#e22c4a" /><path
               class="st21"
               d="m 522.4,258.3 v 4.9 c 1,-0.5 2,-0.9 3.1,-1.1 v -3.8 h -3.1 z"
               id="path13900"
               inkscape:connector-curvature="0"
               style="fill:#e22c4a" /></g></g><g
           id="g13936"><g
             id="g13932"><path
               class="st14"
               d="m 449.5,237.3 h 9 l 2.3,-13.6 c 0.7,-4.3 -2.5,-8.1 -6.9,-8.1 v 0 c -4.3,0 -7.6,3.9 -6.9,8.1 z"
               id="path13906"
               inkscape:connector-curvature="0"
               style="fill:#00cf76" /><path
               class="st22"
               d="m 459.5,221.4 3,-0.2 -2.7,1.4 c -0.3,0.2 -0.7,0 -0.8,-0.3 -0.2,-0.3 0,-0.7 0.3,-0.8 0.1,0 0.2,-0.1 0.2,-0.1 z"
               id="path13908"
               inkscape:connector-curvature="0"
               style="fill:#00bc5f" /><path
               class="st22"
               d="m 457.1,217.2 2.2,-1.7 -1.3,2.5 c -0.2,0.3 -0.5,0.4 -0.8,0.3 -0.3,-0.2 -0.4,-0.5 -0.3,-0.8 0,-0.2 0.1,-0.3 0.2,-0.3 z"
               id="path13910"
               inkscape:connector-curvature="0"
               style="fill:#00bc5f" /><path
               class="st22"
               d="m 454.3,216.4 0.1,-2.4 1.1,2.1 c 0.2,0.3 0.1,0.7 -0.3,0.9 -0.3,0.2 -0.7,0.1 -0.9,-0.3 0,0 0,-0.2 0,-0.3 z"
               id="path13912"
               inkscape:connector-curvature="0"
               style="fill:#00bc5f" /><path
               class="st22"
               d="m 449.3,218.7 -1.2,-2.5 2.1,1.7 c 0.3,0.2 0.3,0.6 0.1,0.9 -0.2,0.3 -0.6,0.3 -0.9,0.1 0,0 -0.1,-0.1 -0.1,-0.2 z"
               id="path13914"
               inkscape:connector-curvature="0"
               style="fill:#00bc5f" /><path
               class="st22"
               d="m 448.1,222.1 h -3 l 2.8,-1.2 c 0.3,-0.1 0.7,0 0.8,0.3 0.1,0.3 0,0.7 -0.3,0.8 -0.2,0.1 -0.3,0.1 -0.3,0.1 z"
               id="path13916"
               inkscape:connector-curvature="0"
               style="fill:#00bc5f" /><path
               class="st22"
               d="m 448.2,226 h -2.5 l 2.2,-1.2 c 0.3,-0.2 0.7,-0.1 0.9,0.3 0.2,0.3 0.1,0.7 -0.2,0.9 -0.1,0 -0.2,0 -0.4,0 z"
               id="path13918"
               inkscape:connector-curvature="0"
               style="fill:#00bc5f" /><path
               class="st22"
               d="m 451.9,219.1 0.3,-1.9 0.9,1.7 c 0.2,0.3 0,0.7 -0.3,0.9 -0.3,0.2 -0.7,0 -0.9,-0.3 0,-0.1 -0.1,-0.2 0,-0.4 z"
               id="path13920"
               inkscape:connector-curvature="0"
               style="fill:#00bc5f" /><path
               class="st22"
               d="m 451.5,222.8 -1.2,-2 2.1,1.1 c 0.3,0.2 0.4,0.6 0.3,0.9 -0.2,0.3 -0.6,0.4 -0.9,0.3 -0.1,-0.1 -0.2,-0.2 -0.3,-0.3 z"
               id="path13922"
               inkscape:connector-curvature="0"
               style="fill:#00bc5f" /><path
               class="st22"
               d="m 455.4,221.3 3,-1.9 -2.2,2.8 c -0.2,0.3 -0.6,0.3 -0.9,0.1 -0.3,-0.2 -0.3,-0.6 -0.1,-0.9 0.1,0 0.1,-0.1 0.2,-0.1 z"
               id="path13924"
               inkscape:connector-curvature="0"
               style="fill:#00bc5f" /><path
               class="st22"
               d="m 455.4,224.2 2.5,0.2 -2.4,1 c -0.3,0.1 -0.7,0 -0.8,-0.3 -0.1,-0.3 0,-0.7 0.3,-0.8 0.2,-0.1 0.3,-0.1 0.4,-0.1 z"
               id="path13926"
               inkscape:connector-curvature="0"
               style="fill:#00bc5f" /><path
               class="st22"
               d="m 460.6,224.6 1.8,1.4 -2.3,-0.3 c -0.3,0 -0.6,-0.4 -0.5,-0.7 0,-0.3 0.4,-0.6 0.7,-0.5 0.1,0 0.2,0 0.3,0.1 z"
               id="path13928"
               inkscape:connector-curvature="0"
               style="fill:#00bc5f" /><path
               class="st22"
               d="m 451.5,225.8 -1.1,-1.5 1.7,0.4 c 0.4,0.1 0.6,0.4 0.5,0.8 -0.1,0.4 -0.4,0.6 -0.8,0.5 -0.1,0 -0.2,0 -0.3,-0.2 z"
               id="path13930"
               inkscape:connector-curvature="0"
               style="fill:#00bc5f" /></g><polygon
             class="st9"
             points="461.3,242.2 465.1,228 443.4,228 447.1,242.2 "
             id="polygon13934"
             style="fill:#291a6d" /></g><g
           id="g13966"><g
             id="g13962"><path
               class="st9"
               d="m 426.6,233.8 h -5.1 c -0.3,0 -0.7,-0.2 -0.8,-0.5 l -20,-40.4 c -0.1,-0.3 -0.1,-0.6 0,-0.9 0.2,-0.3 0.5,-0.4 0.8,-0.4 h 5.1 c 0.3,0 0.7,0.2 0.8,0.5 l 20,40.4 c 0.1,0.3 0.1,0.6 0,0.9 -0.2,0.3 -0.5,0.4 -0.8,0.4 z m -4.5,-1.8 h 3 L 406,193.4 h -3 z"
               id="path13938"
               inkscape:connector-curvature="0"
               style="fill:#291a6d" /><path
               class="st9"
               d="m 406.6,193.4 h -5.1 c -0.4,0 -0.7,-0.2 -0.8,-0.5 -0.1,-0.3 -0.1,-0.7 0.2,-1 l 23.8,-26.2 c 0.2,-0.2 0.4,-0.3 0.7,-0.3 h 5.1 c 0.4,0 0.7,0.2 0.8,0.5 0.1,0.3 0.1,0.7 -0.2,1 l -23.8,26.2 c -0.2,0.2 -0.4,0.3 -0.7,0.3 z m -3,-1.8 h 2.6 l 22.2,-24.4 h -2.6 z"
               id="path13940"
               inkscape:connector-curvature="0"
               style="fill:#291a6d" /><path
               class="st23"
               d="m 415.6,237 h 15.9 v 0 c 0,-3.1 -2.5,-5.5 -5.5,-5.5 h -4.8 c -3.1,0 -5.6,2.5 -5.6,5.5 z"
               id="path13942"
               inkscape:connector-curvature="0"
               style="fill:#ee304e" /><path
               class="st10"
               d="m 410.3,242.6 h 26.4 v -2.9 c 0,-3 -2.4,-5.4 -5.4,-5.4 h -15.6 c -3,0 -5.4,2.4 -5.4,5.4 z"
               id="path13944"
               inkscape:connector-curvature="0"
               style="fill:#ff3f54" /><g
               id="g13952"><path
                 class="st24"
                 d="m 441,190.2 c -2.5,-3.2 -1.8,-7.8 1.4,-10.3 3.2,-2.5 7.8,-1.8 10.3,1.4 2.5,3.2 1.8,7.8 -1.4,10.3 -3.2,2.5 -7.8,1.9 -10.3,-1.4 z"
                 id="path13946"
                 inkscape:connector-curvature="0"
                 style="fill:#ffe35b" /><path
                 class="st23"
                 d="m 434.4,183.7 13.1,-10 -8.7,-11.3 c -2.8,-3.6 -7.9,-4.3 -11.5,-1.5 v 0 c -3.6,2.8 -4.3,7.9 -1.5,11.5 z"
                 id="path13948"
                 inkscape:connector-curvature="0"
                 style="fill:#ee304e" /><path
                 class="st10"
                 d="m 432.2,198.1 c -7.3,-10.7 -7,-23.7 0.9,-29.7 7.9,-6 20.5,-2.8 28.9,7 z"
                 id="path13950"
                 inkscape:connector-curvature="0"
                 style="fill:#ff3f54" /></g><circle
               class="st16"
               cx="407"
               cy="192.39999"
               r="1.6"
               id="circle13954"
               style="fill:#2f287a" /><path
               class="st7"
               d="m 406,192.4 c 0,-0.5 0.4,-1 1,-1 0.5,0 1,0.4 1,1 0,0.5 -0.4,1 -1,1 -0.6,-0.1 -1,-0.5 -1,-1 z"
               id="path13956"
               inkscape:connector-curvature="0"
               style="fill:#ffffff" /><circle
               class="st16"
               cx="402.20001"
               cy="192.39999"
               r="1.6"
               id="circle13958"
               style="fill:#2f287a" /><path
               class="st7"
               d="m 401.2,192.4 c 0,-0.5 0.4,-1 1,-1 0.6,0 1,0.4 1,1 0,0.5 -0.4,1 -1,1 -0.6,0 -1,-0.5 -1,-1 z"
               id="path13960"
               inkscape:connector-curvature="0"
               style="fill:#ffffff" /></g><path
             class="st7"
             d="m 452.4,186.4 c 0.2,1 -0.1,2.1 -0.7,2.9 -0.6,0.8 -1.4,1.3 -2.3,1.4 0.9,-0.3 1.5,-0.9 1.9,-1.7 0.4,-0.8 0.4,-1.6 0.1,-2.4 -0.1,-0.3 0,-0.5 0.3,-0.6 0.3,-0.1 0.6,0 0.6,0.3 0.1,0 0.1,0 0.1,0.1 z"
             id="path13964"
             inkscape:connector-curvature="0"
             style="fill:#ffffff" /></g></g><g
         id="g14072"
         transform="translate(-134.44988,-43.820702)"><g
           id="g14004"><path
             class="st25"
             d="m 758.3,353 0.7,0.1 c 0,-0.1 2.3,-13.5 1.3,-29.6 -0.9,-13.7 9.7,-25.6 9.8,-25.7 l -0.5,-0.5 c -0.1,0.1 -10.9,12.3 -10,26.3 1,16 -1.3,29.2 -1.3,29.4 z"
             id="path13970"
             inkscape:connector-curvature="0"
             style="fill:#00bc64" /><path
             class="st25"
             d="m 768.9,298.7 c 0,0 11,-3.7 6.9,-7.3 -3.7,-3.2 -7.5,4.9 -6.9,7.3 z"
             id="path13972"
             inkscape:connector-curvature="0"
             style="fill:#00bc64" /><g
             id="g13978"><path
               class="st25"
               d="m 765.7,303.9 c 0,0 0,-10.4 -4.3,-9.1 -4.7,1.4 1.9,8.8 4.3,9.1 z"
               id="path13974"
               inkscape:connector-curvature="0"
               style="fill:#00bc64" /><path
               class="st25"
               d="m 765.2,303.7 c 0,0 12,3.9 10,-1.2 -1.8,-4.2 -8.9,-1 -10,1.2 z"
               id="path13976"
               inkscape:connector-curvature="0"
               style="fill:#00bc64" /></g><g
             id="g13984"><path
               class="st25"
               d="m 761.9,311.9 c 0,0 -0.9,-10.3 -5,-8.7 -4.5,1.8 2.6,8.6 5,8.7 z"
               id="path13980"
               inkscape:connector-curvature="0"
               style="fill:#00bc64" /><path
               class="st25"
               d="m 761.4,311.8 c 0,0 12.3,2.9 9.8,-2 -2,-4.1 -8.9,-0.3 -9.8,2 z"
               id="path13982"
               inkscape:connector-curvature="0"
               style="fill:#00bc64" /></g><g
             id="g13990"><path
               class="st25"
               d="m 760.1,320.5 c 0,0 -3.9,-9.6 -7.3,-6.9 -3.9,3.2 4.9,7.5 7.3,6.9 z"
               id="path13986"
               inkscape:connector-curvature="0"
               style="fill:#00bc64" /><path
               class="st25"
               d="m 759.5,320.6 c 0,0 12.6,-0.9 8.8,-4.8 -3.1,-3.3 -8.6,2.3 -8.8,4.8 z"
               id="path13988"
               inkscape:connector-curvature="0"
               style="fill:#00bc64" /></g><g
             id="g13996"><path
               class="st25"
               d="m 760.6,332.8 c 0,0 -5,-12.5 -9.5,-8.9 -5.1,4 6.4,9.7 9.5,8.9 z"
               id="path13992"
               inkscape:connector-curvature="0"
               style="fill:#00bc64" /><path
               class="st25"
               d="m 759.9,332.8 c 0,0 16.4,-1.1 11.5,-6.3 -4.2,-4.2 -11.3,3.2 -11.5,6.3 z"
               id="path13994"
               inkscape:connector-curvature="0"
               style="fill:#00bc64" /></g><g
             id="g14002"><path
               class="st25"
               d="m 760,344.8 c 0,0 -5,-12.5 -9.5,-8.9 -5,4 6.4,9.7 9.5,8.9 z"
               id="path13998"
               inkscape:connector-curvature="0"
               style="fill:#00bc64" /><path
               class="st25"
               d="m 759.3,344.9 c 0,0 16.4,-1.1 11.5,-6.3 -4.1,-4.2 -11.3,3.1 -11.5,6.3 z"
               id="path14000"
               inkscape:connector-curvature="0"
               style="fill:#00bc64" /></g></g><g
           id="g14034"><path
             class="st26"
             d="m 753.8,352.4 c 0,-0.1 -2.1,-10.4 -5.3,-23.9 -2.3,-10 -11,-15.8 -11.1,-15.9 l 0.4,-0.6 c 0.1,0.1 9,6 11.4,16.3 3.1,13.5 5.2,23.8 5.3,23.9 z"
             id="path14006"
             inkscape:connector-curvature="0"
             style="fill:#31d882" /><path
             class="st26"
             d="m 738.3,313 c 0,0 -9.9,0.6 -7.7,-3.6 1.9,-3.7 7.4,1.6 7.7,3.6 z"
             id="path14008"
             inkscape:connector-curvature="0"
             style="fill:#31d882" /><g
             id="g14014"><path
               class="st26"
               d="m 742.2,316.7 c 0,0 -3.2,-8.2 0.5,-8.5 4.2,-0.4 1.3,7.5 -0.5,8.5 z"
               id="path14010"
               inkscape:connector-curvature="0"
               style="fill:#31d882" /><path
               class="st26"
               d="m 742.5,316.4 c 0,0 -8.3,6.9 -8.2,2.2 0,-3.9 6.7,-3.6 8.2,-2.2 z"
               id="path14012"
               inkscape:connector-curvature="0"
               style="fill:#31d882" /></g><g
             id="g14020"><path
               class="st26"
               d="m 747,323.9 c 0,0 -1,-8.8 2.7,-8.1 4.2,0.7 -0.7,7.6 -2.7,8.1 z"
               id="path14016"
               inkscape:connector-curvature="0"
               style="fill:#31d882" /><path
               class="st26"
               d="m 747.4,323.7 c 0,0 -9.8,4.4 -8.5,0 1,-3.8 7.4,-1.8 8.5,0 z"
               id="path14018"
               inkscape:connector-curvature="0"
               style="fill:#31d882" /></g><g
             id="g14026"><path
               class="st26"
               d="m 749.9,333.9 c 0,0 1.8,-10.7 6,-8.6 4.6,2.3 -3.4,8.7 -6,8.6 z"
               id="path14022"
               inkscape:connector-curvature="0"
               style="fill:#31d882" /><path
               class="st26"
               d="m 750.5,333.9 c 0,0 -13.1,1.9 -10.1,-3 2.5,-4.1 9.4,0.5 10.1,3 z"
               id="path14024"
               inkscape:connector-curvature="0"
               style="fill:#31d882" /></g><g
             id="g14032"><path
               class="st26"
               d="m 751.9,343.3 c 0,0 2,-11.9 6.7,-9.6 5.1,2.6 -3.8,9.8 -6.7,9.6 z"
               id="path14028"
               inkscape:connector-curvature="0"
               style="fill:#31d882" /><path
               class="st26"
               d="m 752.5,343.2 c 0,0 -14.6,2.1 -11.2,-3.3 2.8,-4.5 10.4,0.6 11.2,3.3 z"
               id="path14030"
               inkscape:connector-curvature="0"
               style="fill:#31d882" /></g></g><g
           id="g14064"><path
             class="st14"
             d="m 757.5,352.7 c 0,-0.1 2.1,-10.4 5.3,-23.9 2.3,-10 11,-15.8 11.1,-15.9 l -0.4,-0.6 c -0.1,0.1 -9,6.1 -11.4,16.3 -3.1,13.5 -5.2,23.8 -5.3,23.9 z"
             id="path14036"
             inkscape:connector-curvature="0"
             style="fill:#00cf76" /><path
             class="st14"
             d="m 773,313.3 c 0,0 9.9,0.6 7.7,-3.6 -1.9,-3.7 -7.5,1.5 -7.7,3.6 z"
             id="path14038"
             inkscape:connector-curvature="0"
             style="fill:#00cf76" /><g
             id="g14044"><path
               class="st14"
               d="m 769.1,316.9 c 0,0 3.2,-8.2 -0.5,-8.5 -4.2,-0.3 -1.3,7.5 0.5,8.5 z"
               id="path14040"
               inkscape:connector-curvature="0"
               style="fill:#00cf76" /><path
               class="st14"
               d="m 768.7,316.6 c 0,0 8.3,6.9 8.3,2.2 -0.1,-3.8 -6.7,-3.6 -8.3,-2.2 z"
               id="path14042"
               inkscape:connector-curvature="0"
               style="fill:#00cf76" /></g><g
             id="g14050"><path
               class="st14"
               d="m 764.3,324.2 c 0,0 1,-8.8 -2.7,-8.1 -4.2,0.7 0.6,7.6 2.7,8.1 z"
               id="path14046"
               inkscape:connector-curvature="0"
               style="fill:#00cf76" /><path
               class="st14"
               d="m 763.8,324 c 0,0 9.8,4.4 8.5,0 -1,-3.8 -7.3,-1.8 -8.5,0 z"
               id="path14048"
               inkscape:connector-curvature="0"
               style="fill:#00cf76" /></g><g
             id="g14056"><path
               class="st14"
               d="m 761.4,334.2 c 0,0 -1.8,-10.7 -6,-8.6 -4.6,2.3 3.4,8.7 6,8.6 z"
               id="path14052"
               inkscape:connector-curvature="0"
               style="fill:#00cf76" /><path
               class="st14"
               d="m 760.8,334.1 c 0,0 13.1,1.9 10.1,-3 -2.5,-4 -9.4,0.6 -10.1,3 z"
               id="path14054"
               inkscape:connector-curvature="0"
               style="fill:#00cf76" /></g><g
             id="g14062"><path
               class="st14"
               d="m 759.4,343.6 c 0,0 -2,-11.9 -6.7,-9.6 -5.1,2.6 3.8,9.7 6.7,9.6 z"
               id="path14058"
               inkscape:connector-curvature="0"
               style="fill:#00cf76" /><path
               class="st14"
               d="m 758.7,343.5 c 0,0 14.6,2.1 11.2,-3.3 -2.7,-4.5 -10.4,0.6 -11.2,3.3 z"
               id="path14060"
               inkscape:connector-curvature="0"
               style="fill:#00cf76" /></g></g><g
           id="g14070"><path
             class="st12"
             d="m 752.4,352.4 v -3 h 8.7 v 3 c 0,2.5 0.8,4.9 2.4,6.8 4.1,4.9 6.9,13.3 6.9,18.3 0,3.7 -1.5,7.1 -3.9,9.5 v 0 c -6.3,2.4 -13.2,2.4 -19.5,0 v 0 c -2.4,-2.5 -3.9,-5.8 -3.9,-9.5 0,-5.1 2.8,-13.4 6.9,-18.3 1.6,-1.8 2.4,-4.3 2.4,-6.8 z"
             id="path14066"
             inkscape:connector-curvature="0"
             style="fill:#86a4b6" /><path
             class="st7"
             d="m 747.3,378.5 c 0.5,0 0.9,-0.4 0.9,-0.9 0,-4.7 2.5,-12.8 6.7,-17.7 0.3,-0.4 0.3,-0.9 -0.1,-1.2 -0.4,-0.3 -0.9,-0.3 -1.2,0.1 -4.4,5.2 -7.1,13.9 -7.1,18.8 -0.1,0.5 0.3,0.9 0.8,0.9 z"
             id="path14068"
             inkscape:connector-curvature="0"
             style="fill:#ffffff" /></g></g><g
         id="g14136"
         transform="translate(-134.44988,-43.820702)"><g
           id="g14086"><path
             class="st27"
             d="m 716.1,329.5 c -6,2.1 -11.5,5.9 -13.5,1.8 -2,-4.2 -2.6,-18.8 3,-35.3 0,0 -28.3,-6.5 -33.4,-2.2 l -4.6,2.5 4.6,2.5 c 2,5.9 5.8,8.8 0,13.7 -6.7,5.6 -25.6,0.2 -23.8,-7.6 1.9,-7.8 6.4,-13.6 -1.9,-14.3 -8.3,-0.7 -29.8,6 -29.8,6 l -5.3,3 6.6,2.9 c 2.1,10 5.8,29.2 1.8,28.8 -4.2,-0.4 -10.8,-5.3 -14.7,-3.6 v 0 H 605 c -0.2,0.1 -0.4,0.2 -0.5,0.3 l -5.4,3.1 2.9,2.1 c -1.9,8.5 -1.3,23.7 7.3,21.2 9.5,-2.8 17.5,-4.4 7.7,30.9 0,0 16.3,6.9 26.8,6.4 l 0.9,1.1 4.3,-2.4 c 0,0 0,0 0,0 v 0 0 c 0.9,-0.5 1.6,-1.1 2.2,-2 5.9,-9 -5.6,-9 -5.1,-15.8 0.5,-6.8 27.6,-10.4 29.9,4.3 1,6 -8,9.9 -4.7,13.5 2.6,2.8 19,1.1 28.4,-1.9 l 0.3,0.3 3.6,-1.9 v 0 c 0.7,-0.4 1.3,-0.7 1.7,-1.1 0,0 -8.5,-28.9 -3,-33.6 2.6,-2.1 5.6,-0.8 8.5,0.6 -0.5,0.3 -0.8,0.5 -0.8,0.5 0,0 3,3.5 3,3.5 l 4.4,-2.5 v 0 c 0.8,-0.3 1.4,-0.9 2,-2 3.8,-7.1 2.7,-24.9 -3.3,-22.8 z"
             id="path14074"
             inkscape:connector-curvature="0"
             style="fill:#ffb100" /><path
             class="st19"
             d="m 700.1,388.6 c 0,0 -8.5,-28.9 -3,-33.6 5.5,-4.6 13.4,7.1 17.1,0.1 3.7,-7 2.6,-24.8 -3.4,-22.7 -6,2.1 -11.5,5.9 -13.5,1.8 -2,-4.2 -2.6,-18.8 3,-35.3 0,0 -35.4,-8.2 -34.1,-0.2 1.3,8 7.4,11 0.7,16.7 -6.7,5.6 -25.6,0.2 -23.8,-7.6 1.9,-7.8 6.4,-13.6 -1.9,-14.3 -8.3,-0.7 -29.8,6 -29.8,6 0,0 8.5,35.2 3.2,34.6 -5.3,-0.5 -14.4,-8.2 -17.1,-0.8 -2.7,7.5 -3,26.6 6.5,23.8 9.5,-2.8 17.5,-4.4 7.7,30.9 0,0 28.4,12.1 34.3,3.1 5.9,-9 -5.6,-9 -5.1,-15.8 0.5,-6.8 27.6,-10.4 29.9,4.3 1,6 -8,9.9 -4.7,13.5 3.3,3.6 28.4,0.1 34,-4.5 z"
             id="path14076"
             inkscape:connector-curvature="0"
             style="fill:#ffc828" /><g
             id="g14084"><path
               class="st7"
               d="m 646.4,356.1 -20.7,-9 v -5 l 20.7,-8.9 v 5.9 l -14.4,5.5 14.4,5.7 z"
               id="path14078"
               inkscape:connector-curvature="0"
               style="fill:#ffffff" /><path
               class="st7"
               d="m 648.3,360.1 7.5,-31.2 h 4.3 l -7.6,31.2 z"
               id="path14080"
               inkscape:connector-curvature="0"
               style="fill:#ffffff" /><path
               class="st7"
               d="m 662,356.1 v -5.8 L 676.5,344.6 662,339 v -5.8 l 20.7,9 v 4.9 z"
               id="path14082"
               inkscape:connector-curvature="0"
               style="fill:#ffffff" /></g></g><g
           id="g14134"><g
             id="g14092"><path
               class="st9"
               d="m 640.6,350.6 c 0,0 -4.6,4 -4.8,7.1 -0.2,3.1 8.3,-3.5 8.3,-3.5 0,0 1.1,1.9 1.6,2 0.4,0 0.3,-4.6 -1.3,-6.1 -1.6,-1.6 -3.8,0.5 -3.8,0.5 z"
               id="path14088"
               inkscape:connector-curvature="0"
               style="fill:#291a6d" /><path
               class="st28"
               d="m 640.2,345.1 1.1,5.1 c 0,0 -2.8,3.4 -1.8,4.6 1,1.1 5.5,-3.6 5.5,-3.6 l -0.3,-5.7 z"
               id="path14090"
               inkscape:connector-curvature="0"
               style="fill:#f5d1c6" /></g><g
             id="g14098"><path
               class="st9"
               d="m 625.3,339.3 c 0,0 -4.6,4 -4.8,7.1 -0.2,3.1 8.3,-3.5 8.3,-3.5 0,0 1.1,1.9 1.6,2 0.4,0 0.3,-4.6 -1.3,-6.1 -1.6,-1.6 -3.8,0.5 -3.8,0.5 z"
               id="path14094"
               inkscape:connector-curvature="0"
               style="fill:#291a6d" /><path
               class="st28"
               d="m 625,333.8 1.1,5.1 c 0,0 -2.8,3.4 -1.8,4.6 1,1.1 5.5,-3.6 5.5,-3.6 l -0.3,-5.7 z"
               id="path14096"
               inkscape:connector-curvature="0"
               style="fill:#f5d1c6" /></g><path
             class="st9"
             d="m 686.5,281.3 c 0,0 2.8,7.6 -5.5,14.4 -8.4,6.9 -29.5,13.2 -30.8,16.1 -1.3,3 -2.9,36.2 -2.9,36.2 0,0 -6.5,-0.2 -8.6,-0.7 -2.1,-0.5 -3,-34.8 -0.6,-39.6 3.8,-7.5 22,-20.3 22,-20.3 0,0 -14.4,7.9 -22.4,17.8 -4.8,6 -5.2,23.5 -6.4,29.9 -2.6,1.6 -9.2,0.3 -9.2,0.3 0,0 -0.6,-31.8 4.8,-38.5 11.4,-14 34.1,-22.5 34.1,-22.5 z"
             id="path14100"
             inkscape:connector-curvature="0"
             style="fill:#291a6d" /><path
             class="st17"
             d="m 669.7,234.1 c 4.6,-1.2 9.1,2.7 4.5,9.1 -4.5,6.4 -13,19.5 -17.7,22.9 -2.9,2.1 -20.9,11.2 -23.4,9.6 l 2.1,-4.2 13.4,-8.6 c 2.6,-1.6 4.6,-3.9 6,-6.6 3.5,-7 10.4,-21 15.1,-22.2 z"
             id="path14102"
             inkscape:connector-curvature="0"
             style="fill:#e6eff5" /><path
             class="st19"
             d="m 677.6,230.4 c 0,0 8.9,4 10.7,20.4 1.7,16.4 -1.4,33.4 -1.4,33.4 0,0 -17.4,-0.2 -29.6,-9.2 0,0 4.3,-29 10.1,-39.5 3,-5.3 10.2,-5.1 10.2,-5.1 z"
             id="path14104"
             inkscape:connector-curvature="0"
             style="fill:#ffc828" /><polygon
             class="st17"
             points="665.1,280.8 653.1,285 652.3,280.8 "
             id="polygon14106"
             style="fill:#e6eff5" /><polygon
             class="st8"
             points="665.1,281.6 653.1,286.1 653.1,285 665.1,280.8 "
             id="polygon14108"
             style="fill:#cce4eb" /><polygon
             class="st17"
             points="653.1,285 653.1,286.1 626.7,286 626.7,285 "
             id="polygon14110"
             style="fill:#e6eff5" /><path
             class="st17"
             d="m 672.2,239.9 c 3.5,-3.2 9.3,-1.3 8.7,6.6 -0.6,7.9 -3.3,18 -6.5,22.2 -2.2,2.9 -22.6,12.4 -25.4,11.5 l 1,-4.6 15.9,-9.6 c 1.5,-1.2 2.4,-2.9 2.6,-4.8 0.6,-5.4 0.8,-18.7 3.7,-21.3 z"
             id="path14112"
             inkscape:connector-curvature="0"
             style="fill:#e6eff5" /><path
             class="st10"
             d="m 626.7,285 26.4,-0.1 -4.1,-21.2 c -0.1,-0.5 -0.5,-0.8 -1,-0.8 h -24.3 c -0.7,0 -1.1,0.6 -1,1.2 z"
             id="path14114"
             inkscape:connector-curvature="0"
             style="fill:#ff3f54" /><g
             id="g14132"><path
               class="st29"
               d="m 678.9,225.2 c 0,0 -0.3,4.3 0.8,6.5 0,0 -5.2,3.8 -9.4,0.8 0,0 1.7,-6.8 0.7,-8.9 -1.2,-2.1 7.9,1.6 7.9,1.6 z"
               id="path14116"
               inkscape:connector-curvature="0"
               style="fill:#fbd4c1" /><path
               class="st29"
               d="m 665.6,220.3 c 1.9,5.4 7.1,8.6 11.7,7 4.6,-1.6 6.8,-7.3 4.9,-12.7 -1.9,-5.4 -7.1,-8.6 -11.7,-7 -4.6,1.6 -6.8,7.3 -4.9,12.7 z"
               id="path14118"
               inkscape:connector-curvature="0"
               style="fill:#fbd4c1" /><g
               id="g14128"><path
                 class="st9"
                 d="m 671,209.6 c 0,0 -6.7,1.4 -7,6.8 0,0 -6,-6.5 0.3,-10.1 4.6,-2.5 6.7,3.3 6.7,3.3 z"
                 id="path14120"
                 inkscape:connector-curvature="0"
                 style="fill:#291a6d" /><path
                 class="st9"
                 d="m 676.9,221.4 c 0,0 1,0.3 1.8,-0.7 1.1,-1.2 -0.4,-4.4 -3.1,-2 0,0 -6,-1.6 -7.5,-8 0,0 -0.3,-6.3 8.5,-6.1 10.2,0.2 10.5,14 6.6,18.8 -1.6,1.9 -2.9,2.9 -4.3,3.7 -2.1,-1.4 -2,-5.7 -2,-5.7 z"
                 id="path14122"
                 inkscape:connector-curvature="0"
                 style="fill:#291a6d" /><path
                 class="st9"
                 d="m 679.7,207.7 c 0,0 3.8,-9.3 12.3,-7.7 8.5,1.6 7.9,18.1 7.3,22.9 -0.5,4.8 5.1,7.5 9.5,6.7 0,0 -10.3,11.4 -18.4,1.1 -4.2,-5.4 -2.1,-19.7 -6.4,-19.7 -4.4,-0.1 -4.3,-3.3 -4.3,-3.3 z"
                 id="path14124"
                 inkscape:connector-curvature="0"
                 style="fill:#291a6d" /><path
                 class="st19"
                 d="m 684.7,211.4 c -1.5,-0.7 -4.2,-3.1 -4.1,-5.7 0.1,-2.6 1.1,0.5 1.7,1.4 0.6,0.9 4.7,5.3 2.4,4.3 z"
                 id="path14126"
                 inkscape:connector-curvature="0"
                 style="fill:#ffc828" /></g><path
               class="st29"
               d="m 665.8,217.9 c 0,0 -0.1,3 -0.8,5 -0.4,1.1 2.7,-0.2 2.7,-0.2 z"
               id="path14130"
               inkscape:connector-curvature="0"
               style="fill:#fbd4c1" /></g></g></g><g
         id="g14178"
         transform="translate(-134.44988,-43.820702)"><path
           class="st30"
           d="m 362.5,272.7 c 1,-2.4 2.7,5.2 4,5.2 1.8,0.1 7.5,0.1 10.6,0.2 0.6,0 1.1,-0.4 1.3,-0.9 0.4,-1.3 1.4,-2.8 2,-3.5 0.4,-0.4 0.7,-0.8 0.9,-0.9 0.4,-0.2 1.3,-0.1 1.9,-0.1 0.4,0 0.6,0.1 0.7,0.1 0.2,0 -0.3,0.9 -1,1.1 -0.3,0.1 -0.7,0.3 -1,0.6 0,0 0,0 0,0 -0.3,0.3 -0.5,0.7 -0.5,1.1 0,0.1 0,0.1 0.1,0.2 0,0 0.5,-0.1 1.1,-0.2 0.2,0 0.5,0 0.8,0 0.9,0 1.3,0.4 1.4,0.9 0.2,0.8 -0.3,2 -0.3,2 0,0 1.2,1.1 0,2.1 0.3,0.5 0.5,1.6 -0.6,2.2 0,0 0.6,1.6 -0.8,2 0,0 -3.3,0.4 -4.8,-1.1 -0.6,-0.6 -1.3,-0.9 -2.2,-0.8 -4.9,0.6 -7.5,-1 -11.8,-1.1 -3.7,-2.9 -2.7,-6.6 -1.8,-9.1 z"
           id="path14138"
           inkscape:connector-curvature="0"
           style="fill:#f1bdab" /><path
           class="st13"
           d="m 350.5,255.2 2.6,14.2 c 0,0 8.4,13.7 12.1,14 0.8,0.1 6.4,0.4 9.7,0.1 1.3,-0.1 2.2,-0.3 2.4,-0.7 1.2,-2.6 1,-5.6 0.7,-7.3 -0.1,-0.8 -0.8,-1.3 -1.6,-1.3 l -1,0.1 -5.4,0.3 c -1.4,0.1 -2.7,-0.7 -3.4,-1.9 -2.3,-4.4 -8.4,-17.7 -10,-19.3 -2.1,-2.2 -6.1,1.8 -6.1,1.8 z"
           id="path14140"
           inkscape:connector-curvature="0"
           style="fill:#bdd5da" /><path
           class="st9"
           d="m 328.3,385.2 c 0,0 -2,0.7 -5.2,0.7 l 0.1,4.3 c 0,0 2.3,0.3 3.8,0.1 l 0.6,-1.1 1.2,1.2 c 0,0 7.2,0.8 11,0.5 0,0 0.4,-1.3 -1.3,-1.8 -1.8,-0.6 -5.8,-1.4 -7,-2 -1.3,-0.8 -3.2,-1.9 -3.2,-1.9 z"
           id="path14142"
           inkscape:connector-curvature="0"
           style="fill:#291a6d" /><path
           class="st30"
           d="m 322.8,378.7 0.2,5.5 0.1,1.7 c 3,0.9 5.2,-0.7 5.2,-0.7 l 0.1,-1.8 0.1,-4.6 z"
           id="path14144"
           inkscape:connector-curvature="0"
           style="fill:#f1bdab" /><path
           class="st9"
           d="m 346.9,385.5 c 0,0 -2,0.7 -5.2,0.7 l 0.1,4.3 c 0,0 2.3,0.3 3.8,0.1 l 0.6,-1.1 1.2,1.2 c 0,0 7.2,0.8 11,0.5 0,0 0.4,-1.3 -1.3,-1.8 -1.8,-0.6 -5.8,-1.4 -7,-2 -1.3,-0.7 -3.2,-1.9 -3.2,-1.9 z"
           id="path14146"
           inkscape:connector-curvature="0"
           style="fill:#291a6d" /><path
           class="st30"
           d="m 341.4,379.1 0.2,5.5 0.1,1.7 c 3,0.9 5.2,-0.7 5.2,-0.7 l 0.1,-2 0.1,-4.4 z"
           id="path14148"
           inkscape:connector-curvature="0"
           style="fill:#f1bdab" /><path
           class="st9"
           d="m 321.1,296.5 c 1,-4.5 20.3,-2.9 20.3,-2.9 0,0 0,0.9 -0.1,2.5 2.7,-1.1 6.4,-1.4 11.4,-0.3 0,0 1.3,15.6 1.3,34.3 0,5.9 -0.2,15.1 -0.9,23.1 -1.3,14.6 -4.8,28 -4.8,28 l -8.5,-0.1 c 0,0 1.5,-13.3 0.9,-28 -0.3,-7.8 -1.9,-20.2 -2.5,-26.3 -1,6.6 -1.1,18.7 -2.6,26.8 -2.6,14.4 -6.5,27.6 -6.5,27.6 H 321 c 0.9,-9.6 1.5,-19.5 1.2,-27.8 -0.8,-24.9 -4.8,-40.9 -1.1,-56.9 z"
           id="path14150"
           inkscape:connector-curvature="0"
           style="fill:#291a6d" /><path
           class="st8"
           d="m 351.9,245.5 c 0,0 -9.4,-2.3 -14.5,5.2 -5.1,7.5 -17.4,39.7 -18.6,47.6 0,0 22.1,10.6 35.2,8.1 0,0 3.8,-28.4 5,-34.8 1.1,-6.5 0.5,-22.8 -7.1,-26.1 z"
           id="path14152"
           inkscape:connector-curvature="0"
           style="fill:#cce4eb" /><path
           class="st30"
           d="m 357.5,241.7 c 0,0 -1.8,4.2 -1.9,7.3 0,0.6 -0.5,1.1 -1.1,1.1 -2.4,0.2 -4.7,-3.6 -5.9,-4.9 0.8,-2.1 2.6,-6.9 2.6,-6.9 z"
           id="path14154"
           inkscape:connector-curvature="0"
           style="fill:#f1bdab" /><path
           class="st31"
           d="m 338.1,326.8 c 0,0 1.4,-7.3 2,-12.6 0,0 0.9,12.6 -1.3,18.7 z"
           id="path14156"
           inkscape:connector-curvature="0"
           style="fill:#161052" /><path
           class="st30"
           d="m 365.8,231.8 c 0.9,1.5 -1.3,3.9 -1.1,8 0.1,1.6 -1.7,0.5 -1.7,0.5 0,0 -3.7,6.3 -6.1,5.1 -2.4,-1.2 -7,-2.1 -7.5,-3.9 -0.4,-1.7 -2.2,-12.7 5.9,-13 4.9,0 9,1 10.5,3.3 z"
           id="path14158"
           inkscape:connector-curvature="0"
           style="fill:#f1bdab" /><path
           class="st14"
           d="m 339.3,322.6 c 0,0 17,3.5 17.6,0.6 0.6,-2.9 -4.3,-7.2 -0.6,-8.8 3.7,-1.6 13.2,-1.7 11.6,3.1 -1.6,4.8 -3.6,9.4 17.5,2 0,0 -7.8,-15.9 -3.1,-17.8 4.7,-2 5.4,3.4 8.7,-0.1 3.3,-3.5 1.2,-14.3 -4.3,-11.8 -5.4,2.5 -6.4,0 -6.6,-3.9 -0.2,-3.9 1.9,-12.4 1.9,-12.4 0,0 -13.6,-5.2 -17.7,-0.7 -4.1,4.5 9.2,8.2 -3.9,10.4 -13.1,2.2 -6.6,-6.2 -6.5,-7.6 0.1,-1.4 -3.1,-5.8 -18.5,1.2 0,0 7.1,13.9 2.7,17.6 -2.6,2.2 -6.4,-3.1 -8.3,-2.1 -4.6,2.4 -3.9,16.3 3.2,15.3 7.1,-1 7.5,0 7.9,1.7 0.4,1.9 -1.6,13.3 -1.6,13.3 z"
           id="path14160"
           inkscape:connector-curvature="0"
           style="fill:#00cf76" /><path
           class="st30"
           d="m 384,275.5 c 0,0 -5,0.3 -6.5,-0.1 -1.5,-0.3 -1.5,1.6 -0.9,2 0,0 -0.8,0.1 -1.2,0.7 -0.3,0.4 0,2.1 1,1.9 0,0 -1.9,1 0.6,2.5 0,0 -0.7,1.3 0.5,1.7 1.2,0.4 3.6,1.1 6,0.2 2.3,-0.9 1.5,-2.7 1.5,-2.7 0,0 1.1,-1.3 0.2,-2.1 0,0 0.7,-1.4 -0.2,-2.2 -0.1,0 0.7,-1.8 -1,-1.9 z"
           id="path14170"
           inkscape:connector-curvature="0"
           style="fill:#f1bdab" /><path
           class="st30"
           d="m 357.7,292.9 c -0.5,-0.8 -4.8,-2.9 -4.1,-2.6 0.7,0.3 3.1,1 3.2,0.7 0.1,-0.2 -0.5,-0.9 -1.7,-1.7 -1.2,-0.8 -4.1,-2 -4,-2.1 0.1,-0.1 1.5,0.3 1.9,0.5 0.4,0.2 2.4,0.7 2.1,0.2 -0.3,-0.6 -2.4,-1.9 -3.6,-2.8 -1.1,-0.8 -3.6,-0.6 -5.2,-0.5 -0.8,0.1 -1.6,-0.1 -2.3,-0.5 -1.1,-0.6 -2.8,-1.6 -3.9,-2.3 -1.9,-1.2 -3.8,5.3 -3.8,5.3 0,0 3.3,1.1 5.5,1.7 0.9,0.3 1.7,0.8 2.3,1.6 1.8,2.4 2.7,2.4 4,2.9 1.6,0.6 6.4,1.6 6.3,1.2 -0.1,-0.2 -1.3,-0.9 -2.3,-1.4 1.5,0.6 4.1,1.3 4,0.8 -0.1,-0.4 -2,-1.6 -3,-2.1 1.4,0.7 5.1,1.9 4.6,1.1 z"
           id="path14172"
           inkscape:connector-curvature="0"
           style="fill:#f1bdab" /><path
           class="st13"
           d="m 327.9,280.6 c 0.7,3 5.7,6.1 8.8,7.8 0.3,0.2 0.6,0.3 0.9,0.5 0.9,0.5 2,0 2.4,-0.9 l 2.1,-6 c 0.3,-0.8 -0.1,-1.7 -0.9,-2.1 0,0 0,0 0,0 -1.8,-0.8 -4.5,-2.5 -3.7,-4.4 0.9,-2.1 5.8,-9.1 8.6,-13.2 0.8,-1.1 2.4,-5.2 1.1,-8 -1.9,-4.1 -9.1,-3.9 -12.4,0.9 -4.9,6.9 -8.4,19.2 -6.9,25.4 z"
           id="path14174"
           inkscape:connector-curvature="0"
           style="fill:#bdd5da" /><path
           class="st9"
           d="m 346.7,227.2 c 0.8,-2 2.1,-3.4 3.6,-4.5 -0.1,-0.3 -0.4,-0.6 -1.3,-0.9 0,0 1.3,-0.7 2.6,0 0.2,-0.7 0.7,-1.7 1.6,-2.4 0,0 -0.1,1.1 0.1,1.7 2.1,-0.8 4.3,-1.1 5.7,-1.1 9.2,-0.1 12.7,7.1 16.6,9.1 0,0 -4,5.2 -11.4,4.1 -1.7,-0.3 -6.1,-2 -8.2,-3.2 -0.5,-0.3 -1.6,-0.3 -2.1,0 -1.4,1.1 -0.6,4.2 -1.2,4.5 -0.5,-0.7 -1.6,-1.8 -2.4,-0.9 -0.6,0.6 -0.7,2.4 1.2,3.5 0.4,2.2 -1.2,4 -1.7,5.2 0,0 -6.7,-5.9 -3.1,-15.1 z"
           id="path14176"
           inkscape:connector-curvature="0"
           style="fill:#291a6d" /></g><g
         id="g14216"
         transform="translate(-134.44988,-43.820702)"><g
           id="g14188"><path
             class="st10"
             d="m 435.6,388.7 c 0,0 13.6,-3.9 15.8,-1.3 2.2,2.6 -3.4,6.3 -0.1,8 3.3,1.8 11.6,1.3 10.6,-1.5 -1,-2.8 -2.8,-5.4 -0.8,-6.3 2,-0.9 8.8,-1.2 16.6,1.5 0,0 3.9,-16.6 0.2,-16 -3.8,0.6 -5.2,3.5 -7.8,0.3 -2.6,-3.2 0,-12 3.6,-11.1 3.7,0.9 6.4,3 6.7,-0.9 0.4,-3.9 -2.7,-14 -2.7,-14 0,0 -16.5,3.9 -16.3,1.4 0.3,-2.5 3.9,-6.8 0.4,-8 -3.5,-1.3 -12.5,-1.5 -11.2,3 1.3,4.5 2,8.2 -14.5,3.5 0,0 -5.7,13.3 -1.5,16.1 4.2,2.8 4.2,-2.6 7.4,-2.3 3.2,0.3 4.8,13 -2.1,14 -2.8,0.4 -4.6,-3.8 -6.3,-2.3 -1.7,1.5 -0.1,13.3 2,15.9 z"
             id="path14180"
             inkscape:connector-curvature="0"
             style="fill:#ff3f54" /></g><g
           id="g14200"><path
             class="st19"
             d="m 435.6,388.7 c 0,0 -15.8,4.1 -16.5,1.5 -0.7,-2.6 3.5,-6.8 0.1,-8 -3.4,-1.2 -13,-0.5 -11.3,3.7 1.7,4.2 4.7,8 -14.8,2.5 0,0 6.3,-14.8 1.9,-16.3 -4.4,-1.5 -4.7,3.4 -7.9,0.4 -3.2,-3 -1.8,-12.9 3.2,-10.9 5.1,2 5.8,-0.3 5.7,-3.8 0,-3.5 -2.4,-11.1 -2.4,-11.1 0,0 12,-5.4 16,-1.6 3.9,3.8 -7.9,7.9 4,9.2 11.9,1.3 5.6,-6 5.5,-7.2 -0.1,-1.3 2.5,-5.4 16.8,0.1 0,0 -5.7,13 -1.5,16.1 2.5,1.9 6.2,-3.4 8,-2.6 4.3,1.9 3.4,16.4 -2.9,14.8 -5.2,-1.4 -6.3,-0.1 -6.6,1.5 0,1.5 2.7,11.7 2.7,11.7 z"
             id="path14190"
             inkscape:connector-curvature="0"
             style="fill:#ffc828" /></g><g
           id="g14214"><path
             class="st19"
             d="m 436.1,347.2 c 0,0 15.1,4.4 15.9,1.8 0.7,-2.6 -3.4,-6.8 0.1,-8 3.5,-1.1 12.1,-0.5 10.3,3.7 -1.8,4.2 -3.9,8.2 15.7,3.1 0,0 -5.9,-14.9 -1.5,-16.4 4.4,-1.4 4.7,3.5 7.9,0.6 3.2,-2.9 2.1,-12.9 -3,-11 -5.1,1.9 -5.8,-0.5 -5.7,-4 0.1,-3.5 2.6,-11.1 2.6,-11.1 0,0 -11.9,-5.7 -15.9,-1.9 -4,3.7 7.7,8.1 -4.2,9.1 -12,1 -5.5,-6.1 -5.3,-7.3 0.2,-1.2 -2.4,-5.5 -16.8,-0.3 0,0 5.4,13.1 1.2,16.1 -2.6,1.8 -5.6,-3.3 -7.4,-2.5 -4.4,1.8 -4.7,14.5 1.8,14.1 6.5,-0.4 6.8,0.5 7,2.1 0,1.7 -2.7,11.9 -2.7,11.9 z"
             id="path14202"
             inkscape:connector-curvature="0"
             style="fill:#ffc828" /></g></g></g></g></svg>