<?xml version="1.0" encoding="UTF-8" standalone="no"?>
<!-- Generator: Adobe Illustrator 23.0.2, SVG Export Plug-In . SVG Version: 6.00 Build 0)  -->

<svg
   xmlns:dc="http://purl.org/dc/elements/1.1/"
   xmlns:cc="http://creativecommons.org/ns#"
   xmlns:rdf="http://www.w3.org/1999/02/22-rdf-syntax-ns#"
   xmlns:svg="http://www.w3.org/2000/svg"
   xmlns="http://www.w3.org/2000/svg"
   xmlns:xlink="http://www.w3.org/1999/xlink"
   xmlns:sodipodi="http://sodipodi.sourceforge.net/DTD/sodipodi-0.dtd"
   xmlns:inkscape="http://www.inkscape.org/namespaces/inkscape"
   version="1.1"
   id="Layer_1"
   x="0px"
   y="0px"
   viewBox="0 0 780 500"
   style="enable-background:new 0 0 780 500;"
   xml:space="preserve"
   sodipodi:docname="bg-4.svg"
   inkscape:version="0.92.2 (5c3e80d, 2017-08-06)"><metadata
     id="metadata3478"><rdf:RDF><cc:Work
         rdf:about=""><dc:format>image/svg+xml</dc:format><dc:type
           rdf:resource="http://purl.org/dc/dcmitype/StillImage" /><dc:title></dc:title></cc:Work></rdf:RDF></metadata><defs
     id="defs3476" /><sodipodi:namedview
     pagecolor="#ffffff"
     bordercolor="#666666"
     borderopacity="1"
     objecttolerance="10"
     gridtolerance="10"
     guidetolerance="10"
     inkscape:pageopacity="0"
     inkscape:pageshadow="2"
     inkscape:window-width="1920"
     inkscape:window-height="1017"
     id="namedview3474"
     showgrid="false"
     inkscape:zoom="1.0298376"
     inkscape:cx="258.4121"
     inkscape:cy="400.84027"
     inkscape:window-x="-8"
     inkscape:window-y="-8"
     inkscape:window-maximized="1"
     inkscape:current-layer="g3469" /><style
     type="text/css"
     id="style2818">
	.st0{clip-path:url(#SVGID_2_);fill:none;stroke:#6031DA;stroke-width:44.7984;stroke-miterlimit:10;}
	.st1{clip-path:url(#SVGID_2_);fill:#DDD4FC;}
	.st2{fill:none;stroke:#CECAEA;stroke-width:0.25;stroke-miterlimit:10;}
	.st3{fill:none;stroke:#CFCBEA;stroke-width:0.25;stroke-miterlimit:10;}
	.st4{fill:none;stroke:#CFCBEB;stroke-width:0.25;stroke-miterlimit:10;}
	.st5{fill:none;stroke:#D0CCEB;stroke-width:0.25;stroke-miterlimit:10;}
	.st6{fill:none;stroke:#D0CDEB;stroke-width:0.25;stroke-miterlimit:10;}
	.st7{fill:none;stroke:#D1CDEB;stroke-width:0.25;stroke-miterlimit:10;}
	.st8{fill:none;stroke:#D1CEEB;stroke-width:0.25;stroke-miterlimit:10;}
	.st9{fill:none;stroke:#D2CEEC;stroke-width:0.25;stroke-miterlimit:10;}
	.st10{fill:none;stroke:#D2CFEC;stroke-width:0.25;stroke-miterlimit:10;}
	.st11{fill:none;stroke:#D3CFEC;stroke-width:0.25;stroke-miterlimit:10;}
	.st12{fill:none;stroke:#D3D0EC;stroke-width:0.25;stroke-miterlimit:10;}
	.st13{fill:none;stroke:#D4D0EC;stroke-width:0.25;stroke-miterlimit:10;}
	.st14{fill:none;stroke:#D4D1ED;stroke-width:0.25;stroke-miterlimit:10;}
	.st15{fill:none;stroke:#D5D1ED;stroke-width:0.25;stroke-miterlimit:10;}
	.st16{fill:none;stroke:#D5D2ED;stroke-width:0.25;stroke-miterlimit:10;}
	.st17{fill:none;stroke:#D6D2ED;stroke-width:0.25;stroke-miterlimit:10;}
	.st18{fill:none;stroke:#D6D3ED;stroke-width:0.25;stroke-miterlimit:10;}
	.st19{fill:none;stroke:#D7D3EE;stroke-width:0.25;stroke-miterlimit:10;}
	.st20{fill:none;stroke:#D7D4EE;stroke-width:0.25;stroke-miterlimit:10;}
	.st21{fill:none;stroke:#D8D5EE;stroke-width:0.25;stroke-miterlimit:10;}
	.st22{fill:none;stroke:#D9D5EF;stroke-width:0.25;stroke-miterlimit:10;}
	.st23{fill:none;stroke:#D9D6EF;stroke-width:0.25;stroke-miterlimit:10;}
	.st24{fill:none;stroke:#DAD7EF;stroke-width:0.25;stroke-miterlimit:10;}
	.st25{fill:none;stroke:#DBD8EF;stroke-width:0.25;stroke-miterlimit:10;}
	.st26{fill:none;stroke:#DBD8F0;stroke-width:0.25;stroke-miterlimit:10;}
	.st27{fill:none;stroke:#DCD9F0;stroke-width:0.25;stroke-miterlimit:10;}
	.st28{fill:none;stroke:#DDDAF0;stroke-width:0.25;stroke-miterlimit:10;}
	.st29{fill:none;stroke:#DDDBF1;stroke-width:0.25;stroke-miterlimit:10;}
	.st30{fill:none;stroke:#DEDBF1;stroke-width:0.25;stroke-miterlimit:10;}
	.st31{fill:none;stroke:#DEDCF1;stroke-width:0.25;stroke-miterlimit:10;}
	.st32{fill:none;stroke:#DFDCF1;stroke-width:0.25;stroke-miterlimit:10;}
	.st33{fill:none;stroke:#DFDDF1;stroke-width:0.25;stroke-miterlimit:10;}
	.st34{fill:none;stroke:#E0DDF2;stroke-width:0.25;stroke-miterlimit:10;}
	.st35{fill:none;stroke:#E0DEF2;stroke-width:0.25;stroke-miterlimit:10;}
	.st36{fill:none;stroke:#E1DEF2;stroke-width:0.25;stroke-miterlimit:10;}
	.st37{fill:none;stroke:#E1DFF2;stroke-width:0.25;stroke-miterlimit:10;}
	.st38{fill:none;stroke:#E2DFF3;stroke-width:0.25;stroke-miterlimit:10;}
	.st39{fill:none;stroke:#E2E0F3;stroke-width:0.25;stroke-miterlimit:10;}
	.st40{fill:none;stroke:#E3E0F3;stroke-width:0.25;stroke-miterlimit:10;}
	.st41{fill:none;stroke:#E3E1F3;stroke-width:0.25;stroke-miterlimit:10;}
	.st42{fill:none;stroke:#E4E2F3;stroke-width:0.25;stroke-miterlimit:10;}
	.st43{fill:none;stroke:#E4E2F4;stroke-width:0.25;stroke-miterlimit:10;}
	.st44{fill:none;stroke:#E5E3F4;stroke-width:0.25;stroke-miterlimit:10;}
	.st45{fill:none;stroke:#E6E4F4;stroke-width:0.25;stroke-miterlimit:10;}
	.st46{fill:none;stroke:#E7E5F5;stroke-width:0.25;stroke-miterlimit:10;}
	.st47{fill:none;stroke:#E8E6F5;stroke-width:0.25;stroke-miterlimit:10;}
	.st48{fill:none;stroke:#E9E7F5;stroke-width:0.25;stroke-miterlimit:10;}
	.st49{fill:none;stroke:#E9E7F6;stroke-width:0.25;stroke-miterlimit:10;}
	.st50{fill:none;stroke:#EAE8F6;stroke-width:0.25;stroke-miterlimit:10;}
	.st51{fill:none;stroke:#EAE9F6;stroke-width:0.25;stroke-miterlimit:10;}
	.st52{fill:none;stroke:#EBE9F6;stroke-width:0.25;stroke-miterlimit:10;}
	.st53{fill:none;stroke:#EBEAF6;stroke-width:0.25;stroke-miterlimit:10;}
	.st54{fill:none;stroke:#ECEAF7;stroke-width:0.25;stroke-miterlimit:10;}
	.st55{fill:none;stroke:#ECEBF7;stroke-width:0.25;stroke-miterlimit:10;}
	.st56{fill:none;stroke:#EDEBF7;stroke-width:0.25;stroke-miterlimit:10;}
	.st57{fill:none;stroke:#EDECF7;stroke-width:0.25;stroke-miterlimit:10;}
	.st58{fill:none;stroke:#EEECF8;stroke-width:0.25;stroke-miterlimit:10;}
	.st59{fill:none;stroke:#EEEDF8;stroke-width:0.25;stroke-miterlimit:10;}
	.st60{fill:none;stroke:#EFEDF8;stroke-width:0.25;stroke-miterlimit:10;}
	.st61{fill:none;stroke:#EFEEF8;stroke-width:0.25;stroke-miterlimit:10;}
	.st62{fill:none;stroke:#F0EEF8;stroke-width:0.25;stroke-miterlimit:10;}
	.st63{fill:none;stroke:#F0EFF9;stroke-width:0.25;stroke-miterlimit:10;}
	.st64{fill:none;stroke:#F1F0F9;stroke-width:0.25;stroke-miterlimit:10;}
	.st65{fill:none;stroke:#F2F1F9;stroke-width:0.25;stroke-miterlimit:10;}
	.st66{fill:none;stroke:#F2F1FA;stroke-width:0.25;stroke-miterlimit:10;}
	.st67{fill:none;stroke:#F3F2FA;stroke-width:0.25;stroke-miterlimit:10;}
	.st68{fill:none;stroke:#F4F3FA;stroke-width:0.25;stroke-miterlimit:10;}
	.st69{fill:none;stroke:#F4F4FA;stroke-width:0.25;stroke-miterlimit:10;}
	.st70{fill:none;stroke:#F5F4FB;stroke-width:0.25;stroke-miterlimit:10;}
	.st71{fill:none;stroke:#F6F5FB;stroke-width:0.25;stroke-miterlimit:10;}
	.st72{fill:none;stroke:#F6F6FB;stroke-width:0.25;stroke-miterlimit:10;}
	.st73{fill:none;stroke:#F7F6FC;stroke-width:0.25;stroke-miterlimit:10;}
	.st74{fill:none;stroke:#F7F7FC;stroke-width:0.25;stroke-miterlimit:10;}
	.st75{fill:none;stroke:#F8F7FC;stroke-width:0.25;stroke-miterlimit:10;}
	.st76{fill:none;stroke:#F8F8FC;stroke-width:0.25;stroke-miterlimit:10;}
	.st77{fill:none;stroke:#F9F8FC;stroke-width:0.25;stroke-miterlimit:10;}
	.st78{fill:none;stroke:#F9F9FD;stroke-width:0.25;stroke-miterlimit:10;}
	.st79{fill:none;stroke:#FAF9FD;stroke-width:0.25;stroke-miterlimit:10;}
	.st80{fill:none;stroke:#FAFAFD;stroke-width:0.25;stroke-miterlimit:10;}
	.st81{fill:none;stroke:#FBFAFD;stroke-width:0.25;stroke-miterlimit:10;}
	.st82{fill:none;stroke:#FBFBFD;stroke-width:0.25;stroke-miterlimit:10;}
	.st83{fill:none;stroke:#FCFBFE;stroke-width:0.25;stroke-miterlimit:10;}
	.st84{fill:none;stroke:#FCFCFE;stroke-width:0.25;stroke-miterlimit:10;}
	.st85{fill:none;stroke:#FDFCFE;stroke-width:0.25;stroke-miterlimit:10;}
	.st86{fill:none;stroke:#FDFDFE;stroke-width:0.25;stroke-miterlimit:10;}
	.st87{fill:none;stroke:#FEFEFE;stroke-width:0.25;stroke-miterlimit:10;}
	.st88{fill:none;stroke:#FEFEFF;stroke-width:0.25;stroke-miterlimit:10;}
	.st89{fill:none;stroke:#FFFFFF;stroke-width:0.25;stroke-miterlimit:10;}
	.st90{fill:#FFFFFF;}
	.st91{fill:#23105B;}
	.st92{font-family:'Ubuntu-Bold';}
	.st93{font-size:32.928px;}
	.st94{fill:none;stroke:#6031DA;stroke-width:0.7888;stroke-linecap:round;stroke-linejoin:round;stroke-miterlimit:10;}
	.st95{fill:#6031DA;}
	.st96{font-family:'Raleway-Medium';}
	.st97{font-size:8px;}
	.st98{fill:#FEFEFE;}
	.st99{fill:#FDFDFE;}
	.st100{fill:#FCFDFD;}
	.st101{fill:#FBFCFD;}
	.st102{fill:#FAFBFC;}
	.st103{fill:#F9FAFC;}
	.st104{fill:#F8F9FB;}
	.st105{fill:#F7F9FB;}
	.st106{fill:#F6F8FA;}
	.st107{fill:#F5F7FA;}
	.st108{fill:#F4F6F9;}
	.st109{fill:#F3F5F9;}
	.st110{fill:#F2F5F8;}
	.st111{fill:#F1F4F8;}
	.st112{fill:#F0F3F7;}
	.st113{fill:#EFF2F7;}
	.st114{fill:#EEF1F6;}
	.st115{fill:#EDF1F6;}
	.st116{fill:#ECF0F5;}
	.st117{fill:#EBEFF4;}
	.st118{fill:#EAEEF4;}
	.st119{fill:#E9EDF3;}
	.st120{fill:#E8EDF3;}
	.st121{fill:#E7ECF2;}
	.st122{fill:#E6EBF2;}
	.st123{fill:#E5EAF1;}
	.st124{fill:#E4E9F1;}
	.st125{fill:#E3E9F0;}
	.st126{fill:#E2E8F0;}
	.st127{fill:#E1E7EF;}
	.st128{fill:#E0E6EF;}
	.st129{fill:#DFE5EE;}
	.st130{fill:#DEE5EE;}
	.st131{fill:#DDE4ED;}
	.st132{fill:#DCE3ED;}
	.st133{fill:#DBE2EC;}
	.st134{fill:#DAE1EB;}
	.st135{fill:#D9E0EA;}
	.st136{fill:#D8DFEA;}
	.st137{fill:#D7DEE9;}
	.st138{fill:#D6DEE9;}
	.st139{fill:#D5DDE8;}
	.st140{fill:#D4DCE8;}
	.st141{fill:#D3DBE7;}
	.st142{fill:#D2DAE7;}
	.st143{fill:#D1DAE6;}
	.st144{fill:#D0D9E6;}
	.st145{fill:#CFD8E5;}
	.st146{fill:#CED7E5;}
	.st147{fill:#CDD6E4;}
	.st148{fill:#CCD6E4;}
	.st149{fill:#CBD5E3;}
	.st150{fill:#CAD4E3;}
	.st151{fill:#C9D3E2;}
	.st152{fill:#C8D2E1;}
	.st153{fill:#C7D2E1;}
	.st154{fill:#C6D1E0;}
	.st155{fill:#C5D0E0;}
	.st156{fill:#C4CFDF;}
	.st157{fill:#C3CEDF;}
	.st158{fill:#C2CEDE;}
	.st159{fill:#C1CDDE;}
	.st160{fill:#C0CCDD;}
	.st161{fill:#BFCBDD;}
	.st162{fill:#BECADC;}
	.st163{fill:#BDCADC;}
	.st164{fill:#BCC9DB;}
	.st165{fill:#BBC8DB;}
	.st166{fill:#BAC7DA;}
	.st167{fill:#B9C6DA;}
	.st168{fill:#B8C6D9;}
	.st169{fill:#B7C5D9;}
	.st170{fill:#B6C4D8;}
	.st171{fill:url(#SVGID_3_);}
	.st172{fill:#381F93;}
	.st173{fill:#43567A;}
	.st174{font-size:13px;}
	.st175{fill:none;stroke:#6031DA;stroke-miterlimit:10;}
	.st176{fill:#DDD4FC;}
	.st177{fill:#FFFFFF;stroke:#6031DA;stroke-width:0.4089;stroke-linecap:round;stroke-linejoin:round;stroke-miterlimit:10;}
	.st178{fill:#DDD4FC;stroke:#6031DA;stroke-width:0.4089;stroke-linecap:round;stroke-linejoin:round;stroke-miterlimit:10;}
	.st179{fill:none;stroke:#6031DA;stroke-width:0.4089;stroke-linecap:round;stroke-linejoin:round;stroke-miterlimit:10;}
	.st180{fill:#FFC969;}
</style><g
     id="g2830"><defs
       id="defs2821"><rect
         id="SVGID_1_"
         width="780"
         height="500" /></defs><clipPath
       id="SVGID_2_"><use
         xlink:href="#SVGID_1_"
         style="overflow:visible;"
         id="use2823" /></clipPath></g><g
     id="g3469"
     transform="translate(-8.2394366,-66.602113)"><g
       id="g3309"><path
         class="st176"
         d="m 484.15,237.91 c -1.15,-3.04 -8.79,-20.65 -33.02,-20.65 -0.34,0 -0.67,0 -1,0.01 -7.91,0.19 -14.9,2.02 -19.98,5.74 -0.02,0.01 -0.03,0.02 -0.05,0.03 -0.04,0.03 -0.08,0.06 -0.12,0.09 -0.07,0.05 -0.15,0.11 -0.22,0.16 -0.24,0.18 -0.48,0.37 -0.72,0.57 -0.07,0.06 -0.14,0.12 -0.21,0.18 -0.09,0.08 -0.18,0.16 -0.27,0.24 -0.91,0.81 -1.75,1.7 -2.5,2.66 -5.43,6.63 -9.32,16.72 -9.32,16.72 l -0.41,-10.22 h -11.18 c 0,0 -4.22,22.21 10.22,24.76 5.48,0.96 9.25,-0.13 11.82,-1.86 v 19.18 h 36.38 c 2.12,0.96 4.48,1.3 7.13,0.18 0.14,-0.06 0.27,-0.12 0.4,-0.18 h 4.43 v -2.29 c 17.28,-10.53 10.98,-29.08 8.62,-35.32 z"
         id="path3265"
         inkscape:connector-curvature="0"
         style="fill:#ddd4fc" /><polygon
         class="st95"
         points="468.71,342.99 462.34,342.99 462.34,350.76 476.26,350.76 "
         id="polygon3267"
         style="fill:#6031da" /><polygon
         class="st95"
         points="439.63,342.99 446.01,342.99 446.01,350.76 434.75,350.76 "
         id="polygon3269"
         style="fill:#6031da" /><polygon
         class="st177"
         points="431.01,345.05 450.57,345.05 450.57,289.48 453.12,289.48 456.7,345.05 476.26,345.05 472.68,289.48 471.76,275.38 431.01,275.38 "
         id="polygon3271"
         style="fill:#ffffff;stroke:#6031da;stroke-width:0.40889999;stroke-linecap:round;stroke-linejoin:round;stroke-miterlimit:10" /><line
         class="st178"
         x1="427.23001"
         y1="247.28999"
         x2="427.23001"
         y2="259.51999"
         id="line3273"
         style="fill:#ddd4fc;stroke:#6031da;stroke-width:0.40889999;stroke-linecap:round;stroke-linejoin:round;stroke-miterlimit:10" /><path
         class="st95"
         d="m 452.49,210.1 c 0,0 7.16,1.86 7.58,-6.85 0.43,-8.7 -13.54,-11.84 -16.83,-8.2 -3.29,3.63 9.25,15.05 9.25,15.05 z"
         id="path3275"
         inkscape:connector-curvature="0"
         style="fill:#6031da" /><path
         class="st177"
         d="m 451.82,221.99 v 0 c -2.44,0 -4.42,-1.98 -4.42,-4.42 v -14.35 h 8.83 v 14.35 c 0.01,2.44 -1.97,4.42 -4.41,4.42 z"
         id="path3277"
         inkscape:connector-curvature="0"
         style="fill:#ffffff;stroke:#6031da;stroke-width:0.40889999;stroke-linecap:round;stroke-linejoin:round;stroke-miterlimit:10" /><path
         class="st177"
         d="m 459.34,203.94 c 0.11,1.35 -0.9,2.53 -2.25,2.64 -0.21,0.02 -0.42,0.01 -0.61,-0.03 -0.1,0.9 -0.38,1.75 -0.81,2.51 -1.03,1.82 -2.92,3.12 -5.17,3.3 -3.6,0.29 -6.75,-2.39 -7.04,-6 -0.29,-3.6 2.39,-6.75 6,-7.04 2.44,-0.2 4.68,0.97 5.95,2.87 0.36,-0.28 0.81,-0.46 1.3,-0.5 1.34,-0.1 2.52,0.9 2.63,2.25 z"
         id="path3279"
         inkscape:connector-curvature="0"
         style="fill:#ffffff;stroke:#6031da;stroke-width:0.40889999;stroke-linecap:round;stroke-linejoin:round;stroke-miterlimit:10" /><path
         class="st179"
         d="m 455.7,205.19 c 0,0 -0.02,-1.24 1.21,-1.17"
         id="path3281"
         inkscape:connector-curvature="0"
         style="fill:none;stroke:#6031da;stroke-width:0.40889999;stroke-linecap:round;stroke-linejoin:round;stroke-miterlimit:10" /><path
         class="st95"
         d="m 461.65,302.54 v 22.07 h -65.69 v -92.17 h 64.52 v 22.07 h -39.21 v 12.98 h 33.49 V 288 h -33.49 v 14.54 z"
         id="path3283"
         inkscape:connector-curvature="0"
         style="fill:#6031da" /><g
         id="g3293"><polygon
           class="st177"
           points="414.52,235.5 405.93,235.45 405.75,228.7 414.59,228.64 "
           id="polygon3285"
           style="fill:#ffffff;stroke:#6031da;stroke-width:0.40889999;stroke-linecap:round;stroke-linejoin:round;stroke-miterlimit:10" /><line
           class="st179"
           x1="412.78"
           y1="235.38"
           x2="412.66"
           y2="230.96001"
           id="line3287"
           style="fill:none;stroke:#6031da;stroke-width:0.40889999;stroke-linecap:round;stroke-linejoin:round;stroke-miterlimit:10" /><line
           class="st179"
           x1="410.47"
           y1="235.16"
           x2="410.35999"
           y2="230.74001"
           id="line3289"
           style="fill:none;stroke:#6031da;stroke-width:0.40889999;stroke-linecap:round;stroke-linejoin:round;stroke-miterlimit:10" /><line
           class="st179"
           x1="408.17001"
           y1="235.12"
           x2="408.04999"
           y2="230.69"
           id="line3291"
           style="fill:none;stroke:#6031da;stroke-width:0.40889999;stroke-linecap:round;stroke-linejoin:round;stroke-miterlimit:10" /></g><g
         id="g3305"><polygon
           class="st177"
           points="455.98,277.17 452.71,281.04 454.08,282.42 452.87,284.01 459.66,289.28 468.48,278.68 460.05,273.08 "
           id="polygon3295"
           style="fill:#ffffff;stroke:#6031da;stroke-width:0.40889999;stroke-linecap:round;stroke-linejoin:round;stroke-miterlimit:10" /><line
           class="st179"
           x1="454.29001"
           y1="285.03"
           x2="457.20001"
           y2="281.70001"
           id="line3297"
           style="fill:none;stroke:#6031da;stroke-width:0.40889999;stroke-linecap:round;stroke-linejoin:round;stroke-miterlimit:10" /><line
           class="st179"
           x1="456.20001"
           y1="286.34"
           x2="459.12"
           y2="283.01001"
           id="line3299"
           style="fill:none;stroke:#6031da;stroke-width:0.40889999;stroke-linecap:round;stroke-linejoin:round;stroke-miterlimit:10" /><line
           class="st179"
           x1="458"
           y1="287.78"
           x2="460.92001"
           y2="284.45001"
           id="line3301"
           style="fill:none;stroke:#6031da;stroke-width:0.40889999;stroke-linecap:round;stroke-linejoin:round;stroke-miterlimit:10" /><line
           class="st179"
           x1="454.04999"
           y1="282.48999"
           x2="456.20001"
           y2="280"
           id="line3303"
           style="fill:none;stroke:#6031da;stroke-width:0.40889999;stroke-linecap:round;stroke-linejoin:round;stroke-miterlimit:10" /></g><path
         class="st178"
         d="m 470.93,244.97 c 6.13,13.08 -12.66,27.5 -12.66,27.5 l 11.25,8.38 c 0,0 15.59,-12.89 17.12,-22.37"
         id="path3307"
         inkscape:connector-curvature="0"
         style="fill:#ddd4fc;stroke:#6031da;stroke-width:0.40889999;stroke-linecap:round;stroke-linejoin:round;stroke-miterlimit:10" /></g><g
       id="g3357"><path
         class="st176"
         d="m 356.24,227.38 c -0.01,-0.01 -0.02,-0.03 -0.03,-0.04 -4.22,-6.51 -12.03,-9.61 -22.45,-9.86 -0.33,-0.01 -0.66,-0.01 -1,-0.01 -24.22,0 -31.87,17.61 -33.01,20.65 -2.36,6.24 -8.66,24.79 8.59,35.33 v 2.29 h 4.43 c 0.14,0.06 0.27,0.12 0.4,0.18 2.65,1.12 5.02,0.78 7.13,-0.18 h 28.85 v 8 h 14.72 v -29.68 c -0.01,-9.11 -2.26,-19.35 -7.63,-26.68 z"
         id="path3311"
         inkscape:connector-curvature="0"
         style="fill:#ddd4fc" /><path
         class="st95"
         d="m 327.08,210.06 c -1.47,-1.16 -2.82,-2.74 -3.73,-3.71 -2.86,-3.04 -3.18,-7.52 -0.67,-10.91 1.93,-2.61 5.09,-4.13 8.3,-4.63 3.04,-0.48 7.81,-0.71 9.17,2.75 1.97,5.02 -0.35,12.75 -4.2,16.13 -1.59,1.39 -3.43,1.7 -5.47,1.82 -1.11,0.07 -2.29,-0.57 -3.4,-1.45 z"
         id="path3313"
         inkscape:connector-curvature="0"
         style="fill:#6031da" /><polygon
         class="st95"
         points="315.18,343.19 321.55,343.19 321.55,350.95 307.63,350.95 "
         id="polygon3315"
         style="fill:#6031da" /><polygon
         class="st95"
         points="344.26,343.19 337.88,343.19 337.88,350.95 349.14,350.95 "
         id="polygon3317"
         style="fill:#6031da" /><polygon
         class="st177"
         points="352.88,345.25 333.32,345.25 333.32,289.67 330.77,289.67 327.19,345.25 307.63,345.25 311.21,289.67 312.13,275.58 352.88,275.58 "
         id="polygon3319"
         style="fill:#ffffff;stroke:#6031da;stroke-width:0.40889999;stroke-linecap:round;stroke-linejoin:round;stroke-miterlimit:10" /><line
         class="st177"
         x1="354.87"
         y1="244.55"
         x2="354.87"
         y2="256.78"
         id="line3321"
         style="fill:#ffffff;stroke:#6031da;stroke-width:0.40889999;stroke-linecap:round;stroke-linejoin:round;stroke-miterlimit:10" /><path
         class="st177"
         d="m 332.07,222.19 v 0 c 2.44,0 4.42,-1.98 4.42,-4.42 v -14.35 h -8.83 v 14.35 c 0,2.44 1.97,4.42 4.41,4.42 z"
         id="path3323"
         inkscape:connector-curvature="0"
         style="fill:#ffffff;stroke:#6031da;stroke-width:0.40889999;stroke-linecap:round;stroke-linejoin:round;stroke-miterlimit:10" /><path
         class="st177"
         d="m 324.55,204.14 c -0.11,1.35 0.9,2.53 2.25,2.64 0.21,0.02 0.42,0.01 0.61,-0.03 0.1,0.9 0.38,1.75 0.81,2.51 1.03,1.82 2.92,3.12 5.17,3.3 3.6,0.29 6.75,-2.39 7.04,-6 0.29,-3.6 -2.39,-6.75 -6,-7.04 -2.44,-0.2 -4.68,0.97 -5.95,2.87 -0.36,-0.28 -0.81,-0.46 -1.3,-0.5 -1.33,-0.11 -2.52,0.9 -2.63,2.25 z"
         id="path3325"
         inkscape:connector-curvature="0"
         style="fill:#ffffff;stroke:#6031da;stroke-width:0.40889999;stroke-linecap:round;stroke-linejoin:round;stroke-miterlimit:10" /><path
         class="st179"
         d="m 328.19,205.38 c 0,0 0.02,-1.24 -1.21,-1.17"
         id="path3327"
         inkscape:connector-curvature="0"
         style="fill:none;stroke:#6031da;stroke-width:0.40889999;stroke-linecap:round;stroke-linejoin:round;stroke-miterlimit:10" /><path
         class="st95"
         d="m 302.83,354.33 9.93,-91.64 35.24,3.82 c 7.57,0.82 14.11,2.75 19.61,5.78 5.5,3.03 9.97,6.83 13.39,11.38 3.42,4.55 5.82,9.71 7.2,15.47 1.38,5.76 1.73,11.79 1.05,18.07 -0.76,6.97 -2.54,13.15 -5.34,18.55 -2.8,5.4 -6.45,9.88 -10.92,13.44 -4.48,3.56 -9.68,6.13 -15.59,7.71 -5.92,1.58 -12.36,1.99 -19.33,1.24 z m 60.87,-39.89 c 0.38,-3.53 0.26,-6.81 -0.37,-9.83 -0.63,-3.03 -1.72,-5.67 -3.25,-7.93 -1.54,-2.26 -3.54,-4.1 -5.99,-5.55 -2.46,-1.44 -5.28,-2.33 -8.46,-2.68 l -10.07,-1.09 -5.17,47.76 10.07,1.09 c 3.27,0.35 6.26,0.07 8.97,-0.86 2.71,-0.92 5.07,-2.37 7.06,-4.33 2,-1.96 3.61,-4.35 4.83,-7.18 1.21,-2.82 2,-5.96 2.38,-9.4 z"
         id="path3329"
         inkscape:connector-curvature="0"
         style="fill:#6031da" /><g
         id="g3341"><polygon
           class="st177"
           points="358.53,266.12 357.44,271.08 359.3,271.65 358.98,273.62 367.45,275.11 369.85,267.51 359.91,264.68 "
           id="polygon3331"
           style="fill:#ffffff;stroke:#6031da;stroke-width:0.40889999;stroke-linecap:round;stroke-linejoin:round;stroke-miterlimit:10" /><line
           class="st179"
           x1="360.70001"
           y1="273.85999"
           x2="361.73001"
           y2="269.56"
           id="line3333"
           style="fill:none;stroke:#6031da;stroke-width:0.40889999;stroke-linecap:round;stroke-linejoin:round;stroke-miterlimit:10" /><line
           class="st179"
           x1="363.01001"
           y1="274.13"
           x2="364.03"
           y2="269.82001"
           id="line3335"
           style="fill:none;stroke:#6031da;stroke-width:0.40889999;stroke-linecap:round;stroke-linejoin:round;stroke-miterlimit:10" /><line
           class="st179"
           x1="365.26999"
           y1="274.56"
           x2="366.29001"
           y2="270.25"
           id="line3337"
           style="fill:none;stroke:#6031da;stroke-width:0.40889999;stroke-linecap:round;stroke-linejoin:round;stroke-miterlimit:10" /><line
           class="st179"
           x1="359.29999"
           y1="271.73001"
           x2="360.04001"
           y2="268.51999"
           id="line3339"
           style="fill:none;stroke:#6031da;stroke-width:0.40889999;stroke-linecap:round;stroke-linejoin:round;stroke-miterlimit:10" /></g><g
         id="g3353"><polygon
           class="st177"
           points="327.09,277.36 330.37,281.23 328.99,282.61 330.2,284.21 323.41,289.48 314.59,278.88 323.02,273.27 "
           id="polygon3343"
           style="fill:#ffffff;stroke:#6031da;stroke-width:0.40889999;stroke-linecap:round;stroke-linejoin:round;stroke-miterlimit:10" /><line
           class="st179"
           x1="328.79001"
           y1="285.22"
           x2="325.87"
           y2="281.89999"
           id="line3345"
           style="fill:none;stroke:#6031da;stroke-width:0.40889999;stroke-linecap:round;stroke-linejoin:round;stroke-miterlimit:10" /><line
           class="st179"
           x1="326.87"
           y1="286.53"
           x2="323.95999"
           y2="283.20999"
           id="line3347"
           style="fill:none;stroke:#6031da;stroke-width:0.40889999;stroke-linecap:round;stroke-linejoin:round;stroke-miterlimit:10" /><line
           class="st179"
           x1="325.07999"
           y1="287.97"
           x2="322.16"
           y2="284.64999"
           id="line3349"
           style="fill:none;stroke:#6031da;stroke-width:0.40889999;stroke-linecap:round;stroke-linejoin:round;stroke-miterlimit:10" /><line
           class="st179"
           x1="329.03"
           y1="282.67999"
           x2="326.87"
           y2="280.20001"
           id="line3351"
           style="fill:none;stroke:#6031da;stroke-width:0.40889999;stroke-linecap:round;stroke-linejoin:round;stroke-miterlimit:10" /></g><path
         class="st178"
         d="m 312.14,245.17 c -6.13,13.08 12.66,27.5 12.66,27.5 l -11.25,8.38 c 0,0 -13.81,-10.99 -16.12,-21.68"
         id="path3355"
         inkscape:connector-curvature="0"
         style="fill:#ddd4fc;stroke:#6031da;stroke-width:0.40889999;stroke-linecap:round;stroke-linejoin:round;stroke-miterlimit:10" /></g><line
       class="st178"
       x1="213.5433"
       y1="352.13324"
       x2="579.48334"
       y2="352.13324"
       id="line3405"
       style="fill:#ddd4fc;stroke:#6031da;stroke-width:4;stroke-linecap:round;stroke-linejoin:round;stroke-miterlimit:10;stroke-dasharray:none" /><g
       id="g3403"><g
         id="g3369"><polygon
           class="st177"
           points="490.59,257.05 487.48,258.51 488.5,260.57 485.39,262.48 490.05,269.7 501.88,262.62 495.78,254.54 "
           id="polygon3359"
           style="fill:#ffffff;stroke:#6031da;stroke-width:0.40889999;stroke-linecap:round;stroke-linejoin:round;stroke-miterlimit:10" /><line
           class="st179"
           x1="486.39001"
           y1="263.91"
           x2="490.23999"
           y2="261.73999"
           id="line3361"
           style="fill:none;stroke:#6031da;stroke-width:0.40889999;stroke-linecap:round;stroke-linejoin:round;stroke-miterlimit:10" /><line
           class="st179"
           x1="487.76001"
           y1="265.78"
           x2="491.60999"
           y2="263.60999"
           id="line3363"
           style="fill:none;stroke:#6031da;stroke-width:0.40889999;stroke-linecap:round;stroke-linejoin:round;stroke-miterlimit:10" /><line
           class="st179"
           x1="488.98001"
           y1="267.73001"
           x2="492.82999"
           y2="265.56"
           id="line3365"
           style="fill:none;stroke:#6031da;stroke-width:0.40889999;stroke-linecap:round;stroke-linejoin:round;stroke-miterlimit:10" /><line
           class="st179"
           x1="487"
           y1="261.42999"
           x2="489.85999"
           y2="259.79999"
           id="line3367"
           style="fill:none;stroke:#6031da;stroke-width:0.40889999;stroke-linecap:round;stroke-linejoin:round;stroke-miterlimit:10" /></g><polygon
         class="st95"
         points="556.21,343.12 562.58,343.12 562.58,350.88 548.66,350.88 "
         id="polygon3371"
         style="fill:#6031da" /><polygon
         class="st95"
         points="534.25,343.12 540.63,343.12 540.63,350.88 526.91,350.88 "
         id="polygon3373"
         style="fill:#6031da" /><polygon
         class="st177"
         points="525.63,345.17 545.19,345.17 545.19,289.6 547.74,289.6 548.46,345.17 568.02,345.17 567.3,289.6 567.2,275.51 525.63,275.51 "
         id="polygon3375"
         style="fill:#ffffff;stroke:#6031da;stroke-width:0.40889999;stroke-linecap:round;stroke-linejoin:round;stroke-miterlimit:10" /><path
         class="st176"
         d="m 573.95,237 c -2.54,-13.2 -15.68,-19.62 -28.19,-19.62 -0.34,0 -0.67,0 -1,0.01 -14.63,0.35 -26.14,6.31 -28.13,19.47 v 0 c -3.58,10.69 -22.34,15.76 -22.34,15.76 l 1.5,1.91 6.33,9.72 c 0,0 13.29,-2.87 21.47,-10.88 v 22.26 h 46.59 v -13.3 c 1.13,-1.46 2.1,-3.06 2.84,-4.82 2.69,-6.33 2.2,-13.9 0.93,-20.51 z"
         id="path3377"
         inkscape:connector-curvature="0"
         style="fill:#ddd4fc" /><path
         class="st95"
         d="m 533.09,198.66 c -0.83,3.02 0.52,6.77 2.95,8.62 5.93,4.5 16.93,2.04 14.55,-7.2 -1.08,-4.19 -6,-6.46 -10.01,-6.43 -2.49,0.02 -5.04,1.06 -6.54,3.06 -0.45,0.59 -0.76,1.25 -0.95,1.95 z"
         id="path3379"
         inkscape:connector-curvature="0"
         style="fill:#6031da" /><path
         class="st177"
         d="m 541.96,221.75 v 0 c -2.44,0 -4.42,-1.98 -4.42,-4.42 v -14.35 h 8.83 v 14.35 c 0,2.44 -1.98,4.42 -4.41,4.42 z"
         id="path3381"
         inkscape:connector-curvature="0"
         style="fill:#ffffff;stroke:#6031da;stroke-width:0.40889999;stroke-linecap:round;stroke-linejoin:round;stroke-miterlimit:10" /><path
         class="st177"
         d="m 549.47,203.7 c 0.11,1.35 -0.9,2.53 -2.25,2.64 -0.21,0.02 -0.42,0.01 -0.61,-0.03 -0.1,0.9 -0.38,1.75 -0.81,2.51 -1.03,1.82 -2.92,3.12 -5.17,3.3 -3.6,0.29 -6.75,-2.39 -7.04,-6 -0.29,-3.6 2.39,-6.75 6,-7.04 2.44,-0.2 4.68,0.97 5.95,2.87 0.36,-0.28 0.81,-0.46 1.3,-0.5 1.34,-0.11 2.53,0.9 2.63,2.25 z"
         id="path3383"
         inkscape:connector-curvature="0"
         style="fill:#ffffff;stroke:#6031da;stroke-width:0.40889999;stroke-linecap:round;stroke-linejoin:round;stroke-miterlimit:10" /><path
         class="st179"
         d="m 545.83,204.94 c 0,0 -0.02,-1.24 1.21,-1.17"
         id="path3385"
         inkscape:connector-curvature="0"
         style="fill:none;stroke:#6031da;stroke-width:0.40889999;stroke-linecap:round;stroke-linejoin:round;stroke-miterlimit:10" /><path
         class="st95"
         d="m 542.96,192.21 c -0.46,1.68 0.29,3.75 1.64,4.77 3.29,2.49 9.38,1.13 8.06,-3.99 -0.6,-2.32 -3.33,-3.58 -5.55,-3.56 -1.38,0.01 -2.79,0.59 -3.62,1.69 -0.25,0.34 -0.42,0.71 -0.53,1.09 z"
         id="path3387"
         inkscape:connector-curvature="0"
         style="fill:#6031da" /><g
         id="g3399"><polygon
           class="st177"
           points="533.24,271.31 530.13,272.77 531.15,274.84 528.04,276.74 532.7,283.97 544.53,276.88 538.43,268.8 "
           id="polygon3389"
           style="fill:#ffffff;stroke:#6031da;stroke-width:0.40889999;stroke-linecap:round;stroke-linejoin:round;stroke-miterlimit:10" /><line
           class="st179"
           x1="529.03003"
           y1="278.17001"
           x2="532.89001"
           y2="276"
           id="line3391"
           style="fill:none;stroke:#6031da;stroke-width:0.40889999;stroke-linecap:round;stroke-linejoin:round;stroke-miterlimit:10" /><line
           class="st179"
           x1="530.40997"
           y1="280.04001"
           x2="534.26001"
           y2="277.87"
           id="line3393"
           style="fill:none;stroke:#6031da;stroke-width:0.40889999;stroke-linecap:round;stroke-linejoin:round;stroke-miterlimit:10" /><line
           class="st179"
           x1="531.63"
           y1="281.98999"
           x2="535.47998"
           y2="279.82001"
           id="line3395"
           style="fill:none;stroke:#6031da;stroke-width:0.40889999;stroke-linecap:round;stroke-linejoin:round;stroke-miterlimit:10" /><line
           class="st179"
           x1="529.65002"
           y1="275.69"
           x2="532.5"
           y2="274.06"
           id="line3397"
           style="fill:none;stroke:#6031da;stroke-width:0.40889999;stroke-linecap:round;stroke-linejoin:round;stroke-miterlimit:10" /></g><path
         class="st178"
         d="m 559.24,246.96 c 1.46,14.38 -22.32,19.93 -22.32,19.93 l 1.5,1.91 6.33,9.72 c 0,0 15.82,-3.41 23.57,-13.19"
         id="path3401"
         inkscape:connector-curvature="0"
         style="fill:#ddd4fc;stroke:#6031da;stroke-width:0.40889999;stroke-linecap:round;stroke-linejoin:round;stroke-miterlimit:10" /></g><g
       id="g3441"><path
         class="st95"
         d="m 259.5,259.38 c 7.31,-4.72 4.86,-13.25 -1.88,-17.03 -5.29,-2.97 -11.73,-2.34 -16.05,1.97 -2.17,2.17 -4.1,6.03 -7.13,7.06 -3.78,1.29 -7.94,-0.8 -11.76,-0.31 -7.12,0.91 -6.68,11.14 -12.6,11.73 -2.57,0.26 -3.64,-1.38 -4.94,1.87 -0.99,2.48 -0.25,5.86 1.26,8.01 2.15,3.07 4.94,2.46 8.3,2.58 3.74,0.13 4.93,-0.99 8.28,-2.69 2.25,-1.14 4.71,-1.51 7.23,-1.27 3.41,0.34 6.13,2.03 9.63,0.58 2.62,-1.08 4.29,-3.93 6.94,-4.72 1.79,-0.53 2.88,0.22 4.65,-0.96 0.98,-0.66 1.74,-1.7 2.72,-2.4 1.87,-1.32 3.01,-2.91 5.35,-4.42 z"
         id="path3407"
         inkscape:connector-curvature="0"
         style="fill:#6031da" /><rect
         x="234.25"
         y="325.84"
         class="st177"
         width="42.380001"
         height="11.62"
         id="rect3409"
         style="fill:#ffffff;stroke:#6031da;stroke-width:0.40889999;stroke-linecap:round;stroke-linejoin:round;stroke-miterlimit:10" /><path
         class="st177"
         d="m 266.39,350.85 h -40.51 c -4.78,0 -8.65,-3.87 -8.65,-8.65 v 0 c 0,-4.78 3.87,-8.65 8.65,-8.65 l 40.51,4.09 z"
         id="path3411"
         inkscape:connector-curvature="0"
         style="fill:#ffffff;stroke:#6031da;stroke-width:0.40889999;stroke-linecap:round;stroke-linejoin:round;stroke-miterlimit:10" /><polygon
         class="st95"
         points="242.08,347.43 242.08,341.06 234.32,341.06 234.32,352.93 "
         id="polygon3413"
         style="fill:#6031da" /><path
         class="st176"
         d="m 284.2,299.17 c 0,-16.11 -12.75,-29.52 -28.85,-29.9 -0.33,-0.01 -0.66,-0.01 -1,-0.01 -24.22,0 -31.87,17.61 -33.01,20.65 -2.28,6.03 -5.45,21.94 8.59,25.9 v 14.17 h 41.42 l 12.86,-0.05 v -30.76 z"
         id="path3415"
         inkscape:connector-curvature="0"
         style="fill:#ddd4fc" /><path
         class="st177"
         d="m 253.17,273.62 v 0 c 2.44,0 4.42,-1.98 4.42,-4.42 v -14.35 h -8.83 v 14.35 c 0,2.44 1.97,4.42 4.41,4.42 z"
         id="path3417"
         inkscape:connector-curvature="0"
         style="fill:#ffffff;stroke:#6031da;stroke-width:0.40889999;stroke-linecap:round;stroke-linejoin:round;stroke-miterlimit:10" /><path
         class="st177"
         d="m 245.43,257.58 c 0.23,1.33 1.49,2.23 2.83,2.01 0.21,-0.04 0.41,-0.1 0.59,-0.18 0.32,0.85 0.8,1.6 1.4,2.23 1.45,1.51 3.6,2.3 5.82,1.93 3.56,-0.61 5.96,-3.98 5.35,-7.55 -0.61,-3.56 -3.98,-5.96 -7.55,-5.35 -2.42,0.41 -4.3,2.09 -5.06,4.25 -0.42,-0.18 -0.9,-0.25 -1.38,-0.17 -1.33,0.23 -2.22,1.5 -2,2.83 z"
         id="path3419"
         inkscape:connector-curvature="0"
         style="fill:#ffffff;stroke:#6031da;stroke-width:0.40889999;stroke-linecap:round;stroke-linejoin:round;stroke-miterlimit:10" /><path
         class="st179"
         d="m 249.27,257.89 c 0,0 -0.28,-1.21 -1.46,-0.84"
         id="path3421"
         inkscape:connector-curvature="0"
         style="fill:none;stroke:#6031da;stroke-width:0.40889999;stroke-linecap:round;stroke-linejoin:round;stroke-miterlimit:10" /><path
         class="st177"
         d="m 241.81,350.85 h 40.51 c 4.78,0 8.65,-3.87 8.65,-8.65 v 0 c 0,-4.78 -3.87,-8.65 -8.65,-8.65 l -40.51,4.09 z"
         id="path3423"
         inkscape:connector-curvature="0"
         style="fill:#ffffff;stroke:#6031da;stroke-width:0.40889999;stroke-linecap:round;stroke-linejoin:round;stroke-miterlimit:10" /><path
         class="st95"
         d="m 266.23,350.76 v -91.4 h 24.9 v 91.4 z"
         id="path3425"
         inkscape:connector-curvature="0"
         style="fill:#6031da" /><line
         class="st178"
         x1="276.01999"
         y1="294.23001"
         x2="276.01999"
         y2="301.12"
         id="line3427"
         style="fill:#ddd4fc;stroke:#6031da;stroke-width:0.40889999;stroke-linecap:round;stroke-linejoin:round;stroke-miterlimit:10" /><g
         id="g3437"><polygon
           class="st177"
           points="266.29,305.16 266.36,307.36 270.12,307.53 269.97,316.7 256.18,316.83 257.17,306.75 "
           id="polygon3429"
           style="fill:#ffffff;stroke:#6031da;stroke-width:0.40889999;stroke-linecap:round;stroke-linejoin:round;stroke-miterlimit:10" /><line
           class="st179"
           x1="270.07999"
           y1="310.09"
           x2="265.76001"
           y2="309.91"
           id="line3431"
           style="fill:none;stroke:#6031da;stroke-width:0.40889999;stroke-linecap:round;stroke-linejoin:round;stroke-miterlimit:10" /><line
           class="st179"
           x1="269.88"
           y1="312.39999"
           x2="265.57001"
           y2="312.22"
           id="line3433"
           style="fill:none;stroke:#6031da;stroke-width:0.40889999;stroke-linecap:round;stroke-linejoin:round;stroke-miterlimit:10" /><line
           class="st179"
           x1="269.85999"
           y1="314.70001"
           x2="265.54999"
           y2="314.53"
           id="line3435"
           style="fill:none;stroke:#6031da;stroke-width:0.40889999;stroke-linecap:round;stroke-linejoin:round;stroke-miterlimit:10" /></g><path
         class="st178"
         d="m 236.38,296.2 c 0,0 -0.28,7.22 2.37,7.49 2.64,0.28 18.97,1.74 18.97,1.74 l 0.03,1.72 -0.34,10.19 -1.36,-0.08 c -3.27,0.11 -10.37,0.23 -18.09,-0.47"
         id="path3439"
         inkscape:connector-curvature="0"
         style="fill:#ddd4fc;stroke:#6031da;stroke-width:0.40889999;stroke-linecap:round;stroke-linejoin:round;stroke-miterlimit:10" /><path
         inkscape:connector-curvature="0"
         class="st95"
         d="m 366.14434,212.60738 54.01033,-20.86252 8.97203,23.22741 -54.01033,20.86252 z"
         id="path3425-9"
         style="fill:#6031da;stroke-width:0.79591113" /></g><g
       id="g3467"
       transform="matrix(1.2672653,0,0,1.2672653,-72.936605,-58.09874)"><g
         id="g3449"><path
           class="st180"
           d="m 278.66,202.68 h -0.03 c -8.16,0 -14.78,6.41 -14.78,14.32 0,2.46 0.63,4.79 1.76,6.81 l 1.74,2.7 c 1.36,2.12 2.26,4.48 2.63,6.95 l 0.68,4.51 h 7.97 7.97 l 0.89,-4.99 c 0.38,-2.15 1.16,-4.22 2.3,-6.1 l 1.86,-3.07 c 1.13,-2.02 1.77,-4.33 1.77,-6.78 0.01,-7.89 -6.62,-14.34 -14.76,-14.35 z"
           id="path3443"
           inkscape:connector-curvature="0"
           style="fill:#ffc969" /><polygon
           class="st179"
           points="281.16,239.95 283.86,217.41 273.41,217.41 276.11,239.95 "
           id="polygon3445"
           style="fill:none;stroke:#6031da;stroke-width:0.40889999;stroke-linecap:round;stroke-linejoin:round;stroke-miterlimit:10" /><polygon
           class="st95"
           points="278.64,245.14 286.69,245.14 286.69,237.96 278.64,237.96 270.67,237.96 270.67,245.14 "
           id="polygon3447"
           style="fill:#6031da" /></g><g
         id="g3465"><line
           class="st179"
           x1="278.67999"
           y1="197.36"
           x2="278.67999"
           y2="189.33"
           id="line3451"
           style="fill:none;stroke:#6031da;stroke-width:0.40889999;stroke-linecap:round;stroke-linejoin:round;stroke-miterlimit:10" /><line
           class="st179"
           x1="259.29999"
           y1="216.74001"
           x2="251.27"
           y2="216.74001"
           id="line3453"
           style="fill:none;stroke:#6031da;stroke-width:0.40889999;stroke-linecap:round;stroke-linejoin:round;stroke-miterlimit:10" /><line
           class="st179"
           x1="306.09"
           y1="216.74001"
           x2="298.06"
           y2="216.74001"
           id="line3455"
           style="fill:none;stroke:#6031da;stroke-width:0.40889999;stroke-linecap:round;stroke-linejoin:round;stroke-miterlimit:10" /><line
           class="st179"
           x1="264.97"
           y1="230.45"
           x2="259.29999"
           y2="236.12"
           id="line3457"
           style="fill:none;stroke:#6031da;stroke-width:0.40889999;stroke-linecap:round;stroke-linejoin:round;stroke-miterlimit:10" /><line
           class="st179"
           x1="298.06"
           y1="197.36"
           x2="292.38"
           y2="203.03999"
           id="line3459"
           style="fill:none;stroke:#6031da;stroke-width:0.40889999;stroke-linecap:round;stroke-linejoin:round;stroke-miterlimit:10" /><line
           class="st179"
           x1="264.97"
           y1="203.03999"
           x2="259.29999"
           y2="197.36"
           id="line3461"
           style="fill:none;stroke:#6031da;stroke-width:0.40889999;stroke-linecap:round;stroke-linejoin:round;stroke-miterlimit:10" /><line
           class="st179"
           x1="298.06"
           y1="236.12"
           x2="292.38"
           y2="230.45"
           id="line3463"
           style="fill:none;stroke:#6031da;stroke-width:0.40889999;stroke-linecap:round;stroke-linejoin:round;stroke-miterlimit:10" /></g></g></g><path
     class="st95"
     d="m 557.75017,248.15494 5.29907,21.42439 -63.76841,15.77235 -22.13027,-89.47379 62.63263,-15.49143 5.29907,21.42439 -38.06301,9.41443 3.11653,12.60031 32.51034,-8.04105 4.9245,19.91004 -32.51033,8.04104 3.4911,14.11466 z"
     id="path3471"
     inkscape:connector-curvature="0"
     style="fill:#6031da" /></svg>