<?xml version="1.0" encoding="UTF-8" standalone="no"?>
<!-- Generator: Adobe Illustrator 23.0.2, SVG Export Plug-In . SVG Version: 6.00 Build 0)  -->

<svg
   xmlns:dc="http://purl.org/dc/elements/1.1/"
   xmlns:cc="http://creativecommons.org/ns#"
   xmlns:rdf="http://www.w3.org/1999/02/22-rdf-syntax-ns#"
   xmlns:svg="http://www.w3.org/2000/svg"
   xmlns="http://www.w3.org/2000/svg"
   xmlns:sodipodi="http://sodipodi.sourceforge.net/DTD/sodipodi-0.dtd"
   xmlns:inkscape="http://www.inkscape.org/namespaces/inkscape"
   version="1.1"
   id="Ñëîé_1"
   x="0px"
   y="0px"
   viewBox="0 0 438.5 324.79001"
   xml:space="preserve"
   sodipodi:docname="bg5.svg"
   inkscape:version="0.92.4 (5da689c313, 2019-01-14)"
   width="438.5"
   height="324.79001"><metadata
     id="metadata4933"><rdf:RDF><cc:Work
         rdf:about=""><dc:format>image/svg+xml</dc:format><dc:type
           rdf:resource="http://purl.org/dc/dcmitype/StillImage" /><dc:title /></cc:Work></rdf:RDF></metadata><defs
     id="defs4931" /><sodipodi:namedview
     pagecolor="#ffffff"
     bordercolor="#666666"
     borderopacity="1"
     objecttolerance="10"
     gridtolerance="10"
     guidetolerance="10"
     inkscape:pageopacity="0"
     inkscape:pageshadow="2"
     inkscape:window-width="1920"
     inkscape:window-height="1017"
     id="namedview4929"
     showgrid="false"
     inkscape:zoom="0.66939442"
     inkscape:cx="268.36653"
     inkscape:cy="165.28232"
     inkscape:window-x="-8"
     inkscape:window-y="-8"
     inkscape:window-maximized="1"
     inkscape:current-layer="Ñëîé_1" /><style
     type="text/css"
     id="style4249">
	.st0{fill:url(#SVGID_1_);}
	.st1{fill:#FFFFFF;}
	.st2{fill:url(#SVGID_2_);}
	.st3{fill:url(#SVGID_3_);}
	.st4{fill:url(#SVGID_4_);}
	.st5{opacity:0.6;fill:#020230;}
	.st6{fill:url(#SVGID_5_);}
	.st7{fill:url(#SVGID_6_);}
	.st8{fill:url(#SVGID_7_);}
	.st9{fill:url(#SVGID_8_);}
	.st10{opacity:0.4;}
	.st11{fill:#06033E;}
	.st12{fill:url(#SVGID_9_);}
	.st13{fill:url(#SVGID_10_);}
	.st14{opacity:0.4;fill:#06033E;}
	.st15{opacity:0.5;fill:#06033E;}
	.st16{fill:url(#SVGID_11_);}
	.st17{opacity:0.5;}
	.st18{fill:#E8975B;}
	.st19{fill:#F8359E;}
	.st20{fill:url(#SVGID_12_);}
	.st21{fill:url(#SVGID_13_);}
	.st22{fill:url(#SVGID_14_);}
	.st23{fill:url(#SVGID_15_);}
	.st24{fill:url(#SVGID_16_);}
	.st25{fill:url(#SVGID_17_);}
	.st26{fill:url(#SVGID_18_);}
	.st27{fill:#0C0A78;}
	.st28{fill:url(#SVGID_19_);}
	.st29{opacity:0.5;fill:#FFFFFF;}
</style><radialGradient
     id="SVGID_1_"
     cx="171.40041"
     cy="135.2401"
     r="733.4801"
     gradientTransform="matrix(1.0858,0,0,1.088,-119.9181,-249.2813)"
     gradientUnits="userSpaceOnUse"><stop
       offset="3.968250e-03"
       style="stop-color:#4C02F1"
       id="stop4251" /><stop
       offset="8.168010e-03"
       style="stop-color:#4B02EF"
       id="stop4253" /><stop
       offset="0.1263"
       style="stop-color:#3903C4"
       id="stop4255" /><stop
       offset="0.2487"
       style="stop-color:#29039E"
       id="stop4257" /><stop
       offset="0.3765"
       style="stop-color:#1D0380"
       id="stop4259" /><stop
       offset="0.5099"
       style="stop-color:#130468"
       id="stop4261" /><stop
       offset="0.6513"
       style="stop-color:#0C0457"
       id="stop4263" /><stop
       offset="0.8062"
       style="stop-color:#07044D"
       id="stop4265" /><stop
       offset="1"
       style="stop-color:#06044A"
       id="stop4267" /></radialGradient><linearGradient
     id="SVGID_2_"
     gradientUnits="userSpaceOnUse"
     x1="481.05899"
     y1="306.9162"
     x2="513.67029"
     y2="306.9162"
     gradientTransform="translate(-75.17,-37.55)"><stop
       offset="0"
       style="stop-color:#E39A65"
       id="stop4296" /><stop
       offset="1"
       style="stop-color:#E95F8D"
       id="stop4298" /></linearGradient><path
     class="st2"
     d="m 422.19,278.96 c -1.2,0 -2.41,-0.31 -3.48,-0.93 l -11.74,-6.78 c -0.68,-0.39 -1.09,-1.1 -1.09,-1.88 0,-0.79 0.41,-1.49 1.09,-1.88 l 11.74,-6.78 c 2.15,-1.24 4.82,-1.24 6.96,0 l 11.74,6.78 c 0.68,0.39 1.09,1.1 1.09,1.88 0,0.79 -0.41,1.49 -1.09,1.88 l -11.74,6.78 c -1.07,0.61 -2.27,0.93 -3.48,0.93 z m 0,-17.32 c -0.88,0 -1.76,0.23 -2.55,0.68 l -11.74,6.78 c -0.14,0.08 -0.16,0.2 -0.16,0.27 0,0.07 0.02,0.19 0.16,0.27 l 11.74,6.78 c 0,0 0,0 0,0 1.57,0.91 3.53,0.91 5.1,0 l 11.74,-6.78 c 0.14,-0.08 0.16,-0.2 0.16,-0.27 0,-0.07 -0.02,-0.19 -0.16,-0.27 l -11.74,-6.78 c -0.78,-0.46 -1.66,-0.68 -2.55,-0.68 z"
     id="path4301"
     inkscape:connector-curvature="0"
     style="fill:url(#SVGID_2_)" /><linearGradient
     id="SVGID_3_"
     gradientUnits="userSpaceOnUse"
     x1="436.40759"
     y1="262.22299"
     x2="491.186"
     y2="262.22299"
     gradientTransform="translate(-75.17,-37.55)"><stop
       offset="0"
       style="stop-color:#E39A65"
       id="stop4303" /><stop
       offset="1"
       style="stop-color:#E95F8D"
       id="stop4305" /></linearGradient><path
     class="st3"
     d="m 388.63,240.5 c -1.96,0 -3.91,-0.5 -5.66,-1.51 l -20.2,-11.66 c -0.96,-0.55 -1.54,-1.55 -1.54,-2.66 0,-1.11 0.57,-2.1 1.54,-2.66 l 20.2,-11.66 c 3.49,-2.01 7.82,-2.02 11.31,0 l 20.2,11.66 c 0.96,0.55 1.54,1.55 1.54,2.66 0,1.11 -0.57,2.1 -1.53,2.66 l -20.2,11.66 c -1.75,1.01 -3.71,1.51 -5.66,1.51 z m -4.73,-3.12 c 2.92,1.68 6.54,1.68 9.45,0 l 20.2,-11.66 c 0.54,-0.32 0.6,-0.84 0.6,-1.05 0,-0.21 -0.06,-0.73 -0.6,-1.05 l -20.2,-11.66 c -2.92,-1.68 -6.54,-1.68 -9.45,0 l -20.2,11.66 c -0.55,0.32 -0.6,0.84 -0.6,1.05 0,0.21 0.06,0.73 0.6,1.05 z"
     id="path4308"
     inkscape:connector-curvature="0"
     style="fill:url(#SVGID_3_)" /><linearGradient
     id="SVGID_4_"
     gradientUnits="userSpaceOnUse"
     x1="75.184998"
     y1="280.57529"
     x2="129.9633"
     y2="280.57529"
     gradientTransform="translate(-75.17,-37.55)"><stop
       offset="0"
       style="stop-color:#E39A65"
       id="stop4310" /><stop
       offset="1"
       style="stop-color:#E95F8D"
       id="stop4312" /></linearGradient><path
     class="st4"
     d="m 27.4,258.86 c -1.96,0 -3.91,-0.5 -5.66,-1.51 L 1.54,245.69 C 0.58,245.13 0,244.14 0,243.03 c 0,-1.11 0.57,-2.1 1.54,-2.66 l 20.2,-11.66 c 3.49,-2.02 7.82,-2.02 11.31,0 l 20.2,11.66 c 0.96,0.55 1.54,1.55 1.54,2.66 0,1.11 -0.57,2.1 -1.54,2.66 l -20.2,11.66 c -1.73,1 -3.69,1.51 -5.65,1.51 z m 0,-29.8 c -1.63,0 -3.27,0.42 -4.73,1.26 l -20.2,11.66 c -0.54,0.32 -0.6,0.84 -0.6,1.05 0,0.21 0.06,0.73 0.6,1.05 l 20.2,11.66 v 0 c 2.92,1.68 6.54,1.68 9.45,0 l 20.2,-11.66 c 0.55,-0.32 0.6,-0.84 0.6,-1.05 0,-0.21 -0.06,-0.73 -0.6,-1.05 l -20.2,-11.66 c -1.45,-0.84 -3.08,-1.26 -4.72,-1.26 z"
     id="path4315"
     inkscape:connector-curvature="0"
     style="fill:url(#SVGID_4_)" /><g
     id="g4716"
     transform="translate(-75.17,-37.55)"><path
       class="st5"
       d="M 307.12,347.28 162.69,263.89 c -2.11,-1.22 -1.84,-3.34 0.59,-4.74 l 92.7,-53.52 c 2.43,-1.4 6.11,-1.56 8.21,-0.34 l 144.43,83.39 c 2.11,1.22 1.84,3.34 -0.59,4.74 l -92.7,53.52 c -2.43,1.4 -6.1,1.56 -8.21,0.34 z"
       id="path4317"
       inkscape:connector-curvature="0"
       style="opacity:0.6;fill:#020230" /><linearGradient
       id="SVGID_5_"
       gradientUnits="userSpaceOnUse"
       x1="138.9594"
       y1="277.06161"
       x2="431.31781"
       y2="277.06161"><stop
         offset="0"
         style="stop-color:#E39A65"
         id="stop4319" /><stop
         offset="1"
         style="stop-color:#E95F8D"
         id="stop4321" /></linearGradient><path
       class="st6"
       d="m 310.43,362.34 c -1.69,0 -3.31,-0.35 -4.54,-1.07 v 0 L 141.05,266.1 c -1.35,-0.78 -2.09,-1.9 -2.09,-3.16 0,-1.45 1.01,-2.86 2.76,-3.87 l 112.36,-65.83 c 3.08,-1.78 7.61,-1.95 10.31,-0.39 l 164.84,95.17 c 1.35,0.78 2.09,1.9 2.09,3.16 0,1.45 -1.01,2.85 -2.76,3.87 L 316.2,360.88 c -1.68,0.96 -3.77,1.46 -5.77,1.46 z M 259.87,193.66 c -1.69,0 -3.48,0.41 -4.85,1.2 l -112.36,65.83 c -1.15,0.67 -1.83,1.51 -1.83,2.26 0,0.72 0.63,1.24 1.16,1.54 l 164.84,95.17 c 0,0 0,0 0,0 2.1,1.22 5.97,1.04 8.44,-0.39 l 112.36,-65.83 c 1.15,-0.67 1.83,-1.51 1.83,-2.26 0,-0.72 -0.63,-1.24 -1.16,-1.54 L 263.46,194.47 c -0.94,-0.55 -2.23,-0.81 -3.59,-0.81 z"
       id="path4324"
       inkscape:connector-curvature="0"
       style="fill:url(#SVGID_5_)" /><radialGradient
       id="SVGID_6_"
       cx="300.44589"
       cy="60.607201"
       r="223.2961"
       gradientUnits="userSpaceOnUse"><stop
         offset="0"
         style="stop-color:#E39A65"
         id="stop4326" /><stop
         offset="0.4742"
         style="stop-color:#A92FFB"
         id="stop4328" /><stop
         offset="0.5947"
         style="stop-color:#891CFB"
         id="stop4330" /><stop
         offset="0.7421"
         style="stop-color:#6507FA"
         id="stop4332" /><stop
         offset="0.8016"
         style="stop-color:#0D0C6F"
         id="stop4334" /></radialGradient><path
       class="st7"
       d="M 446.99,148.88 303.13,65.82 c -0.99,-0.57 -2.02,-0.69 -2.94,-0.42 v 0 0 c 0,0 -0.01,0 -0.01,0 l -2.66,0.93 0.94,0.22 c -0.38,0.45 -0.68,1 -0.88,1.65 l -32.53,105.63 c -0.81,2.62 0.37,5.8 2.64,7.11 L 411.54,264 c 0.35,0.2 0.7,0.34 1.06,0.43 l -0.36,0.78 2.54,-0.89 h -0.01 c 1.04,-0.41 1.9,-1.35 2.31,-2.69 L 449.61,156 c 0.82,-2.63 -0.36,-5.81 -2.62,-7.12 z"
       id="path4337"
       inkscape:connector-curvature="0"
       style="fill:url(#SVGID_6_)" /><radialGradient
       id="SVGID_7_"
       cx="163.8732"
       cy="239.93021"
       r="244.1723"
       gradientUnits="userSpaceOnUse"><stop
         offset="0"
         style="stop-color:#E39A65"
         id="stop4339" /><stop
         offset="0.4742"
         style="stop-color:#A92FFB"
         id="stop4341" /><stop
         offset="0.5679"
         style="stop-color:#891CFB"
         id="stop4343" /><stop
         offset="0.6825"
         style="stop-color:#6507FA"
         id="stop4345" /><stop
         offset="0.7381"
         style="stop-color:#0D0C6F"
         id="stop4347" /></radialGradient><path
       class="st8"
       d="m 406.39,267.94 0.05,0.06 -142.1,-82.04 c -2.09,-1.21 -5.74,-1.06 -8.16,0.34 l -91.81,53.01 -3.06,-1.17 0.86,4.29 v 0 c 0.11,0.65 0.57,1.25 1.38,1.72 l 143.41,82.8 c 2.09,1.21 5.74,1.06 8.16,-0.34 l 92.04,-53.14 c 1.14,-0.66 1.79,-1.47 1.95,-2.27 l 0.01,0.01 0.88,-4.18 z"
       id="path4350"
       inkscape:connector-curvature="0"
       style="fill:url(#SVGID_7_)" /><radialGradient
       id="SVGID_8_"
       cx="186.33051"
       cy="190.9207"
       r="218.96001"
       gradientUnits="userSpaceOnUse"><stop
         offset="0"
         style="stop-color:#E39A65"
         id="stop4352" /><stop
         offset="0.4742"
         style="stop-color:#A92FFB"
         id="stop4354" /><stop
         offset="0.5875"
         style="stop-color:#891CFB"
         id="stop4356" /><stop
         offset="0.7262"
         style="stop-color:#6507FA"
         id="stop4358" /><stop
         offset="1"
         style="stop-color:#3919BB"
         id="stop4360" /></radialGradient><path
       class="st9"
       d="M 307.12,323.17 162.69,239.78 c -2.11,-1.22 -1.84,-3.34 0.59,-4.74 l 92.7,-53.52 c 2.43,-1.4 6.11,-1.56 8.21,-0.34 l 144.43,83.39 c 2.11,1.22 1.84,3.34 -0.59,4.74 l -92.7,53.52 c -2.43,1.4 -6.1,1.56 -8.21,0.34 z"
       id="path4363"
       inkscape:connector-curvature="0"
       style="fill:url(#SVGID_8_)" /><path
       class="st1"
       d="m 408.03,268.19 -92.7,53.52 c -2.43,1.4 -6.11,1.56 -8.21,0.34 L 162.69,238.66 c -0.72,-0.41 -1.14,-0.94 -1.31,-1.5 -0.28,0.97 0.13,1.94 1.31,2.62 l 144.43,83.39 c 2.11,1.22 5.78,1.06 8.21,-0.34 l 92.7,-53.52 c 1.6,-0.93 2.24,-2.16 1.9,-3.24 -0.21,0.75 -0.84,1.5 -1.9,2.12 z"
       id="path4365"
       inkscape:connector-curvature="0"
       style="fill:#ffffff" /><g
       class="st10"
       id="g4515"
       style="opacity:0.4"><path
         class="st11"
         d="m 231.58,226.25 -4.88,-2.82 c -0.39,-0.23 -0.34,-0.62 0.11,-0.88 l 5.76,-3.32 c 0.45,-0.26 1.14,-0.29 1.53,-0.06 l 4.88,2.82 c 0.39,0.23 0.34,0.62 -0.11,0.88 l -5.76,3.32 c -0.45,0.26 -1.14,0.29 -1.53,0.06 z"
         id="path4367"
         inkscape:connector-curvature="0"
         style="fill:#06033e" /><path
         class="st11"
         d="m 239.11,230.6 -4.88,-2.82 c -0.39,-0.23 -0.34,-0.62 0.11,-0.88 l 5.76,-3.32 c 0.45,-0.26 1.14,-0.29 1.53,-0.06 l 4.88,2.82 c 0.39,0.23 0.34,0.62 -0.11,0.88 l -5.76,3.32 c -0.45,0.26 -1.14,0.28 -1.53,0.06 z"
         id="path4369"
         inkscape:connector-curvature="0"
         style="fill:#06033e" /><path
         class="st11"
         d="m 246.64,234.95 -4.88,-2.82 c -0.39,-0.23 -0.34,-0.62 0.11,-0.88 l 5.76,-3.32 c 0.45,-0.26 1.14,-0.29 1.53,-0.06 l 4.88,2.82 c 0.39,0.23 0.34,0.62 -0.11,0.88 l -5.76,3.32 c -0.45,0.25 -1.14,0.28 -1.53,0.06 z"
         id="path4371"
         inkscape:connector-curvature="0"
         style="fill:#06033e" /><path
         class="st11"
         d="m 257.06,231.36 -4.88,-2.82 c -0.39,-0.23 -0.34,-0.62 0.11,-0.88 l 4.83,-2.79 c 0.45,-0.26 1.14,-0.29 1.53,-0.06 l 4.88,2.82 c 0.39,0.23 0.34,0.62 -0.11,0.88 l -4.83,2.79 c -0.46,0.25 -1.14,0.28 -1.53,0.06 z"
         id="path4373"
         inkscape:connector-curvature="0"
         style="fill:#06033e" /><path
         class="st11"
         d="m 264.59,235.7 -4.88,-2.82 c -0.39,-0.23 -0.34,-0.62 0.11,-0.88 l 4.83,-2.79 c 0.45,-0.26 1.14,-0.29 1.53,-0.06 l 4.88,2.82 c 0.39,0.23 0.34,0.62 -0.11,0.88 l -4.83,2.79 c -0.46,0.26 -1.14,0.29 -1.53,0.06 z"
         id="path4375"
         inkscape:connector-curvature="0"
         style="fill:#06033e" /><path
         class="st11"
         d="m 272.12,240.05 -4.88,-2.82 c -0.39,-0.23 -0.34,-0.62 0.11,-0.88 l 4.83,-2.79 c 0.45,-0.26 1.14,-0.29 1.53,-0.06 l 4.88,2.82 c 0.39,0.23 0.34,0.62 -0.11,0.88 l -4.83,2.79 c -0.46,0.26 -1.14,0.29 -1.53,0.06 z"
         id="path4377"
         inkscape:connector-curvature="0"
         style="fill:#06033e" /><path
         class="st11"
         d="m 279.65,244.4 -4.88,-2.82 c -0.39,-0.23 -0.34,-0.62 0.11,-0.88 l 4.83,-2.79 c 0.45,-0.26 1.14,-0.29 1.53,-0.06 l 4.88,2.82 c 0.39,0.23 0.34,0.62 -0.11,0.88 l -4.83,2.79 c -0.46,0.26 -1.14,0.28 -1.53,0.06 z"
         id="path4379"
         inkscape:connector-curvature="0"
         style="fill:#06033e" /><path
         class="st11"
         d="m 287.18,248.75 -4.88,-2.82 c -0.39,-0.23 -0.34,-0.62 0.11,-0.88 l 4.83,-2.79 c 0.45,-0.26 1.14,-0.29 1.53,-0.06 l 4.88,2.82 c 0.39,0.23 0.34,0.62 -0.11,0.88 l -4.83,2.79 c -0.46,0.25 -1.14,0.28 -1.53,0.06 z"
         id="path4381"
         inkscape:connector-curvature="0"
         style="fill:#06033e" /><path
         class="st11"
         d="m 294.71,253.09 -4.88,-2.82 c -0.39,-0.23 -0.34,-0.62 0.11,-0.88 l 4.83,-2.79 c 0.45,-0.26 1.14,-0.29 1.53,-0.06 l 4.88,2.82 c 0.39,0.23 0.34,0.62 -0.11,0.88 l -4.83,2.79 c -0.46,0.26 -1.14,0.29 -1.53,0.06 z"
         id="path4383"
         inkscape:connector-curvature="0"
         style="fill:#06033e" /><path
         class="st11"
         d="m 302.24,257.44 -4.88,-2.82 c -0.39,-0.23 -0.34,-0.62 0.11,-0.88 l 4.83,-2.79 c 0.45,-0.26 1.14,-0.29 1.53,-0.06 l 4.88,2.82 c 0.39,0.23 0.34,0.62 -0.11,0.88 l -4.83,2.79 c -0.46,0.26 -1.14,0.29 -1.53,0.06 z"
         id="path4385"
         inkscape:connector-curvature="0"
         style="fill:#06033e" /><path
         class="st11"
         d="m 309.77,261.79 -4.88,-2.82 c -0.39,-0.23 -0.34,-0.62 0.11,-0.88 l 4.83,-2.79 c 0.45,-0.26 1.14,-0.29 1.53,-0.06 l 4.88,2.82 c 0.39,0.23 0.34,0.62 -0.11,0.88 l -4.83,2.79 c -0.46,0.26 -1.14,0.29 -1.53,0.06 z"
         id="path4387"
         inkscape:connector-curvature="0"
         style="fill:#06033e" /><path
         class="st11"
         d="m 317.3,266.14 -4.88,-2.82 c -0.39,-0.23 -0.34,-0.62 0.11,-0.88 l 4.83,-2.79 c 0.45,-0.26 1.14,-0.29 1.53,-0.06 l 4.88,2.82 c 0.39,0.23 0.34,0.62 -0.11,0.88 l -4.83,2.79 c -0.46,0.25 -1.14,0.28 -1.53,0.06 z"
         id="path4389"
         inkscape:connector-curvature="0"
         style="fill:#06033e" /><path
         class="st11"
         d="m 324.83,270.48 -4.88,-2.82 c -0.39,-0.23 -0.34,-0.62 0.11,-0.88 l 4.83,-2.79 c 0.45,-0.26 1.14,-0.29 1.53,-0.06 l 4.88,2.82 c 0.39,0.23 0.34,0.62 -0.11,0.88 l -4.83,2.79 c -0.46,0.26 -1.14,0.29 -1.53,0.06 z"
         id="path4391"
         inkscape:connector-curvature="0"
         style="fill:#06033e" /><path
         class="st11"
         d="m 268.15,229.3 -4.88,-2.82 c -0.39,-0.23 -0.34,-0.62 0.11,-0.88 l 4.83,-2.79 c 0.45,-0.26 1.14,-0.29 1.53,-0.06 l 4.88,2.82 c 0.39,0.23 0.34,0.62 -0.11,0.88 l -4.83,2.79 c -0.45,0.26 -1.14,0.28 -1.53,0.06 z"
         id="path4393"
         inkscape:connector-curvature="0"
         style="fill:#06033e" /><path
         class="st11"
         d="m 260.51,224.89 -4.88,-2.82 c -0.39,-0.23 -0.34,-0.62 0.11,-0.88 l 4.83,-2.79 c 0.45,-0.26 1.14,-0.29 1.53,-0.06 l 4.88,2.82 c 0.39,0.23 0.34,0.62 -0.11,0.88 l -4.83,2.79 c -0.46,0.25 -1.14,0.28 -1.53,0.06 z"
         id="path4395"
         inkscape:connector-curvature="0"
         style="fill:#06033e" /><path
         class="st11"
         d="m 252.85,220.47 -10.5,-6.06 c -0.39,-0.23 -0.34,-0.62 0.11,-0.88 l 4.83,-2.79 c 0.45,-0.26 1.14,-0.29 1.53,-0.06 l 10.5,6.06 c 0.39,0.23 0.34,0.62 -0.11,0.88 l -4.83,2.79 c -0.45,0.25 -1.13,0.28 -1.53,0.06 z"
         id="path4397"
         inkscape:connector-curvature="0"
         style="fill:#06033e" /><path
         class="st11"
         d="m 258.2,215.09 -8.52,-4.92 c -0.39,-0.23 -0.34,-0.62 0.11,-0.88 l 4.83,-2.79 c 0.45,-0.26 1.14,-0.29 1.53,-0.06 l 8.52,4.92 c 0.39,0.23 0.34,0.62 -0.11,0.88 l -4.83,2.79 c -0.45,0.26 -1.13,0.29 -1.53,0.06 z"
         id="path4399"
         inkscape:connector-curvature="0"
         style="fill:#06033e" /><path
         class="st11"
         d="m 275.68,233.65 -4.88,-2.82 c -0.39,-0.23 -0.34,-0.62 0.11,-0.88 l 4.83,-2.79 c 0.45,-0.26 1.14,-0.29 1.53,-0.06 l 4.88,2.82 c 0.39,0.23 0.34,0.62 -0.11,0.88 l -4.83,2.79 c -0.45,0.25 -1.14,0.28 -1.53,0.06 z"
         id="path4401"
         inkscape:connector-curvature="0"
         style="fill:#06033e" /><path
         class="st11"
         d="m 283.21,237.99 -4.88,-2.82 c -0.39,-0.23 -0.34,-0.62 0.11,-0.88 l 4.83,-2.79 c 0.45,-0.26 1.14,-0.29 1.53,-0.06 l 4.88,2.82 c 0.39,0.23 0.34,0.62 -0.11,0.88 l -4.83,2.79 c -0.45,0.26 -1.14,0.29 -1.53,0.06 z"
         id="path4403"
         inkscape:connector-curvature="0"
         style="fill:#06033e" /><path
         class="st11"
         d="m 290.74,242.34 -4.88,-2.82 c -0.39,-0.23 -0.34,-0.62 0.11,-0.88 l 4.83,-2.79 c 0.45,-0.26 1.14,-0.29 1.53,-0.06 l 4.88,2.82 c 0.39,0.23 0.34,0.62 -0.11,0.88 l -4.83,2.79 c -0.45,0.26 -1.14,0.29 -1.53,0.06 z"
         id="path4405"
         inkscape:connector-curvature="0"
         style="fill:#06033e" /><path
         class="st11"
         d="m 298.27,246.69 -4.88,-2.82 c -0.39,-0.23 -0.34,-0.62 0.11,-0.88 l 4.83,-2.79 c 0.45,-0.26 1.14,-0.29 1.53,-0.06 l 4.88,2.82 c 0.39,0.23 0.34,0.62 -0.11,0.88 l -4.83,2.79 c -0.45,0.26 -1.14,0.28 -1.53,0.06 z"
         id="path4407"
         inkscape:connector-curvature="0"
         style="fill:#06033e" /><path
         class="st11"
         d="m 305.8,251.04 -4.88,-2.82 c -0.39,-0.23 -0.34,-0.62 0.11,-0.88 l 4.83,-2.79 c 0.45,-0.26 1.14,-0.29 1.53,-0.06 l 4.88,2.82 c 0.39,0.23 0.34,0.62 -0.11,0.88 l -4.83,2.79 c -0.45,0.25 -1.14,0.28 -1.53,0.06 z"
         id="path4409"
         inkscape:connector-curvature="0"
         style="fill:#06033e" /><path
         class="st11"
         d="m 313.33,255.38 -4.88,-2.82 c -0.39,-0.23 -0.34,-0.62 0.11,-0.88 l 4.83,-2.79 c 0.45,-0.26 1.14,-0.29 1.53,-0.06 l 4.88,2.82 c 0.39,0.23 0.34,0.62 -0.11,0.88 l -4.83,2.79 c -0.45,0.26 -1.13,0.29 -1.53,0.06 z"
         id="path4411"
         inkscape:connector-curvature="0"
         style="fill:#06033e" /><path
         class="st11"
         d="m 320.86,259.73 -4.88,-2.82 c -0.39,-0.23 -0.34,-0.62 0.11,-0.88 l 4.83,-2.79 c 0.45,-0.26 1.14,-0.29 1.53,-0.06 l 4.88,2.82 c 0.39,0.23 0.34,0.62 -0.11,0.88 l -4.83,2.79 c -0.45,0.26 -1.13,0.29 -1.53,0.06 z"
         id="path4413"
         inkscape:connector-curvature="0"
         style="fill:#06033e" /><path
         class="st11"
         d="m 328.39,264.08 -4.88,-2.82 c -0.39,-0.23 -0.34,-0.62 0.11,-0.88 l 4.83,-2.79 c 0.45,-0.26 1.14,-0.29 1.53,-0.06 l 4.88,2.82 c 0.39,0.23 0.34,0.62 -0.11,0.88 l -4.83,2.79 c -0.45,0.26 -1.13,0.28 -1.53,0.06 z"
         id="path4415"
         inkscape:connector-curvature="0"
         style="fill:#06033e" /><path
         class="st11"
         d="m 335.92,268.43 -4.88,-2.82 c -0.39,-0.23 -0.34,-0.62 0.11,-0.88 l 4.83,-2.79 c 0.45,-0.26 1.14,-0.29 1.53,-0.06 l 4.88,2.82 c 0.39,0.23 0.34,0.62 -0.11,0.88 l -4.83,2.79 c -0.45,0.25 -1.13,0.28 -1.53,0.06 z"
         id="path4417"
         inkscape:connector-curvature="0"
         style="fill:#06033e" /><path
         class="st11"
         d="m 349.31,276.16 -10.64,-6.14 c -0.39,-0.23 -0.34,-0.62 0.11,-0.88 l 4.83,-2.79 c 0.45,-0.26 1.14,-0.29 1.53,-0.06 l 10.64,6.14 c 0.39,0.23 0.34,0.62 -0.11,0.88 l -4.83,2.79 c -0.45,0.25 -1.14,0.28 -1.53,0.06 z"
         id="path4419"
         inkscape:connector-curvature="0"
         style="fill:#06033e" /><path
         class="st11"
         d="m 363.97,267.69 -8.98,-5.18 c -0.39,-0.23 -0.34,-0.62 0.11,-0.88 l 4.83,-2.79 c 0.45,-0.26 1.14,-0.29 1.53,-0.06 l 8.98,5.18 c 0.39,0.23 0.34,0.62 -0.11,0.88 l -4.83,2.79 c -0.45,0.26 -1.14,0.29 -1.53,0.06 z"
         id="path4421"
         inkscape:connector-curvature="0"
         style="fill:#06033e" /><path
         class="st11"
         d="m 288.87,232.79 -4.88,-2.82 c -0.39,-0.23 -0.34,-0.62 0.11,-0.88 l 4.83,-2.79 c 0.45,-0.26 1.14,-0.29 1.53,-0.06 l 4.88,2.82 c 0.39,0.23 0.34,0.62 -0.11,0.88 l -4.83,2.79 c -0.46,0.26 -1.14,0.29 -1.53,0.06 z"
         id="path4423"
         inkscape:connector-curvature="0"
         style="fill:#06033e" /><path
         class="st11"
         d="m 281.15,228.34 -4.88,-2.82 c -0.39,-0.23 -0.34,-0.62 0.11,-0.88 l 4.83,-2.79 c 0.45,-0.26 1.14,-0.29 1.53,-0.06 l 4.88,2.82 c 0.39,0.23 0.34,0.62 -0.11,0.88 l -4.83,2.79 c -0.45,0.26 -1.14,0.28 -1.53,0.06 z"
         id="path4425"
         inkscape:connector-curvature="0"
         style="fill:#06033e" /><path
         class="st11"
         d="m 273.43,223.88 -4.88,-2.82 c -0.39,-0.23 -0.34,-0.62 0.11,-0.88 l 4.83,-2.79 c 0.45,-0.26 1.14,-0.29 1.53,-0.06 l 4.88,2.82 c 0.39,0.23 0.34,0.62 -0.11,0.88 l -4.83,2.79 c -0.45,0.26 -1.13,0.29 -1.53,0.06 z"
         id="path4427"
         inkscape:connector-curvature="0"
         style="fill:#06033e" /><path
         class="st11"
         d="m 265.72,219.43 -4.88,-2.82 c -0.39,-0.23 -0.34,-0.62 0.11,-0.88 l 4.83,-2.79 c 0.45,-0.26 1.14,-0.29 1.53,-0.06 l 4.88,2.82 c 0.39,0.23 0.34,0.62 -0.11,0.88 l -4.83,2.79 c -0.46,0.26 -1.14,0.28 -1.53,0.06 z"
         id="path4429"
         inkscape:connector-curvature="0"
         style="fill:#06033e" /><path
         class="st11"
         d="m 296.4,237.14 -4.88,-2.82 c -0.39,-0.23 -0.34,-0.62 0.11,-0.88 l 4.83,-2.79 c 0.45,-0.26 1.14,-0.29 1.53,-0.06 l 4.88,2.82 c 0.39,0.23 0.34,0.62 -0.11,0.88 l -4.83,2.79 c -0.45,0.26 -1.14,0.29 -1.53,0.06 z"
         id="path4431"
         inkscape:connector-curvature="0"
         style="fill:#06033e" /><path
         class="st11"
         d="m 303.93,241.49 -4.88,-2.82 c -0.39,-0.23 -0.34,-0.62 0.11,-0.88 l 4.83,-2.79 c 0.45,-0.26 1.14,-0.29 1.53,-0.06 l 4.88,2.82 c 0.39,0.23 0.34,0.62 -0.11,0.88 l -4.83,2.79 c -0.45,0.26 -1.14,0.29 -1.53,0.06 z"
         id="path4433"
         inkscape:connector-curvature="0"
         style="fill:#06033e" /><path
         class="st11"
         d="m 311.46,245.84 -4.88,-2.82 c -0.39,-0.23 -0.34,-0.62 0.11,-0.88 l 4.83,-2.79 c 0.45,-0.26 1.14,-0.29 1.53,-0.06 l 4.88,2.82 c 0.39,0.23 0.34,0.62 -0.11,0.88 l -4.83,2.79 c -0.45,0.26 -1.14,0.28 -1.53,0.06 z"
         id="path4435"
         inkscape:connector-curvature="0"
         style="fill:#06033e" /><path
         class="st11"
         d="m 318.99,250.18 -4.88,-2.82 c -0.39,-0.23 -0.34,-0.62 0.11,-0.88 l 4.83,-2.79 c 0.45,-0.26 1.14,-0.29 1.53,-0.06 l 4.88,2.82 c 0.39,0.23 0.34,0.62 -0.11,0.88 l -4.83,2.79 c -0.45,0.26 -1.14,0.29 -1.53,0.06 z"
         id="path4437"
         inkscape:connector-curvature="0"
         style="fill:#06033e" /><path
         class="st11"
         d="m 326.52,254.53 -4.88,-2.82 c -0.39,-0.23 -0.34,-0.62 0.11,-0.88 l 4.83,-2.79 c 0.45,-0.26 1.14,-0.29 1.53,-0.06 l 4.88,2.82 c 0.39,0.23 0.34,0.62 -0.11,0.88 l -4.83,2.79 c -0.45,0.26 -1.14,0.29 -1.53,0.06 z"
         id="path4439"
         inkscape:connector-curvature="0"
         style="fill:#06033e" /><path
         class="st11"
         d="m 334.05,258.88 -4.88,-2.82 c -0.39,-0.23 -0.34,-0.62 0.11,-0.88 l 4.83,-2.79 c 0.45,-0.26 1.14,-0.29 1.53,-0.06 l 4.88,2.82 c 0.39,0.23 0.34,0.62 -0.11,0.88 l -4.83,2.79 c -0.45,0.26 -1.14,0.29 -1.53,0.06 z"
         id="path4441"
         inkscape:connector-curvature="0"
         style="fill:#06033e" /><path
         class="st11"
         d="m 341.58,263.23 -4.88,-2.82 c -0.39,-0.23 -0.34,-0.62 0.11,-0.88 l 4.83,-2.79 c 0.45,-0.26 1.14,-0.29 1.53,-0.06 l 4.88,2.82 c 0.39,0.23 0.34,0.62 -0.11,0.88 l -4.83,2.79 c -0.45,0.26 -1.14,0.28 -1.53,0.06 z"
         id="path4443"
         inkscape:connector-curvature="0"
         style="fill:#06033e" /><path
         class="st11"
         d="m 349.11,267.58 -4.88,-2.82 c -0.39,-0.23 -0.34,-0.62 0.11,-0.88 l 4.83,-2.79 c 0.45,-0.26 1.14,-0.29 1.53,-0.06 l 4.88,2.82 c 0.39,0.23 0.34,0.62 -0.11,0.88 l -4.83,2.79 c -0.45,0.25 -1.14,0.28 -1.53,0.06 z"
         id="path4445"
         inkscape:connector-curvature="0"
         style="fill:#06033e" /><path
         class="st11"
         d="m 356.64,271.92 -4.88,-2.82 c -0.39,-0.23 -0.34,-0.62 0.11,-0.88 l 4.83,-2.79 c 0.45,-0.26 1.14,-0.29 1.53,-0.06 l 4.88,2.82 c 0.39,0.23 0.34,0.62 -0.11,0.88 l -4.83,2.79 c -0.45,0.26 -1.14,0.29 -1.53,0.06 z"
         id="path4447"
         inkscape:connector-curvature="0"
         style="fill:#06033e" /><path
         class="st11"
         d="m 284.9,222.04 -4.88,-2.82 c -0.39,-0.23 -0.34,-0.62 0.11,-0.88 l 4.83,-2.79 c 0.45,-0.26 1.14,-0.29 1.53,-0.06 l 4.88,2.82 c 0.39,0.23 0.34,0.62 -0.11,0.88 l -4.83,2.79 c -0.45,0.26 -1.13,0.29 -1.53,0.06 z"
         id="path4449"
         inkscape:connector-curvature="0"
         style="fill:#06033e" /><path
         class="st11"
         d="m 277.41,217.72 -4.88,-2.82 c -0.39,-0.23 -0.34,-0.62 0.11,-0.88 l 4.83,-2.79 c 0.45,-0.26 1.14,-0.29 1.53,-0.06 l 4.88,2.82 c 0.39,0.23 0.34,0.62 -0.11,0.88 l -4.83,2.79 c -0.45,0.25 -1.14,0.28 -1.53,0.06 z"
         id="path4451"
         inkscape:connector-curvature="0"
         style="fill:#06033e" /><path
         class="st11"
         d="m 269.92,213.39 -4.88,-2.82 c -0.39,-0.23 -0.34,-0.62 0.11,-0.88 l 4.83,-2.79 c 0.45,-0.26 1.14,-0.29 1.53,-0.06 l 4.88,2.82 c 0.39,0.23 0.34,0.62 -0.11,0.88 l -4.83,2.79 c -0.46,0.26 -1.14,0.29 -1.53,0.06 z"
         id="path4453"
         inkscape:connector-curvature="0"
         style="fill:#06033e" /><path
         class="st11"
         d="m 262.43,209.06 -4.88,-2.82 c -0.39,-0.23 -0.34,-0.62 0.11,-0.88 l 4.83,-2.79 c 0.45,-0.26 1.14,-0.29 1.53,-0.06 l 4.88,2.82 c 0.39,0.23 0.34,0.62 -0.11,0.88 l -4.83,2.79 c -0.46,0.26 -1.14,0.29 -1.53,0.06 z"
         id="path4455"
         inkscape:connector-curvature="0"
         style="fill:#06033e" /><path
         class="st11"
         d="m 270.13,204.61 -4.88,-2.82 c -0.39,-0.23 -0.34,-0.62 0.11,-0.88 l 1.6,-0.92 c 0.45,-0.26 1.14,-0.29 1.53,-0.06 l 4.88,2.82 c 0.39,0.23 0.34,0.62 -0.11,0.88 l -1.6,0.92 c -0.45,0.26 -1.14,0.29 -1.53,0.06 z"
         id="path4457"
         inkscape:connector-curvature="0"
         style="fill:#06033e" /><path
         class="st11"
         d="m 279.91,210.26 -4.88,-2.82 c -0.39,-0.23 -0.34,-0.62 0.11,-0.88 l 1.6,-0.92 c 0.45,-0.26 1.14,-0.29 1.53,-0.06 l 4.88,2.82 c 0.39,0.23 0.34,0.62 -0.11,0.88 l -1.6,0.92 c -0.46,0.26 -1.14,0.29 -1.53,0.06 z"
         id="path4459"
         inkscape:connector-curvature="0"
         style="fill:#06033e" /><path
         class="st11"
         d="m 287.37,214.57 -4.88,-2.82 c -0.39,-0.23 -0.34,-0.62 0.11,-0.88 l 1.6,-0.92 c 0.45,-0.26 1.14,-0.29 1.53,-0.06 l 4.88,2.82 c 0.39,0.23 0.34,0.62 -0.11,0.88 l -1.6,0.92 c -0.45,0.26 -1.14,0.28 -1.53,0.06 z"
         id="path4461"
         inkscape:connector-curvature="0"
         style="fill:#06033e" /><path
         class="st11"
         d="m 294.83,218.88 -4.88,-2.82 c -0.39,-0.23 -0.34,-0.62 0.11,-0.88 l 1.6,-0.92 c 0.45,-0.26 1.14,-0.29 1.53,-0.06 l 4.88,2.82 c 0.39,0.23 0.34,0.62 -0.11,0.88 l -1.6,0.92 c -0.45,0.25 -1.14,0.28 -1.53,0.06 z"
         id="path4463"
         inkscape:connector-curvature="0"
         style="fill:#06033e" /><path
         class="st11"
         d="m 302.29,223.18 -4.88,-2.82 c -0.39,-0.23 -0.34,-0.62 0.11,-0.88 l 1.6,-0.92 c 0.45,-0.26 1.14,-0.29 1.53,-0.06 l 4.88,2.82 c 0.39,0.23 0.34,0.62 -0.11,0.88 l -1.6,0.92 c -0.45,0.26 -1.14,0.29 -1.53,0.06 z"
         id="path4465"
         inkscape:connector-curvature="0"
         style="fill:#06033e" /><path
         class="st11"
         d="m 343.95,247.23 -4.88,-2.82 c -0.39,-0.23 -0.34,-0.62 0.11,-0.88 l 1.6,-0.92 c 0.45,-0.26 1.14,-0.29 1.53,-0.06 l 4.88,2.82 c 0.39,0.23 0.34,0.62 -0.11,0.88 l -1.6,0.92 c -0.45,0.26 -1.14,0.29 -1.53,0.06 z"
         id="path4467"
         inkscape:connector-curvature="0"
         style="fill:#06033e" /><path
         class="st11"
         d="m 351.41,251.54 -4.88,-2.82 c -0.39,-0.23 -0.34,-0.62 0.11,-0.88 l 1.6,-0.92 c 0.45,-0.26 1.14,-0.29 1.53,-0.06 l 4.88,2.82 c 0.39,0.23 0.34,0.62 -0.11,0.88 l -1.6,0.92 c -0.45,0.26 -1.14,0.29 -1.53,0.06 z"
         id="path4469"
         inkscape:connector-curvature="0"
         style="fill:#06033e" /><path
         class="st11"
         d="m 358.87,255.85 -4.88,-2.82 c -0.39,-0.23 -0.34,-0.62 0.11,-0.88 l 1.6,-0.92 c 0.45,-0.26 1.14,-0.29 1.53,-0.06 l 4.88,2.82 c 0.39,0.23 0.34,0.62 -0.11,0.88 l -1.6,0.92 c -0.45,0.26 -1.14,0.29 -1.53,0.06 z"
         id="path4471"
         inkscape:connector-curvature="0"
         style="fill:#06033e" /><path
         class="st11"
         d="m 366.34,260.16 -4.88,-2.82 c -0.39,-0.23 -0.34,-0.62 0.11,-0.88 l 1.6,-0.92 c 0.45,-0.26 1.14,-0.29 1.53,-0.06 l 4.88,2.82 c 0.39,0.23 0.34,0.62 -0.11,0.88 l -1.6,0.92 c -0.46,0.26 -1.14,0.28 -1.53,0.06 z"
         id="path4473"
         inkscape:connector-curvature="0"
         style="fill:#06033e" /><path
         class="st11"
         d="m 292.43,226.39 -4.88,-2.82 c -0.39,-0.23 -0.34,-0.62 0.11,-0.88 l 4.83,-2.79 c 0.45,-0.26 1.14,-0.29 1.53,-0.06 l 4.88,2.82 c 0.39,0.23 0.34,0.62 -0.11,0.88 l -4.83,2.79 c -0.45,0.26 -1.13,0.28 -1.53,0.06 z"
         id="path4475"
         inkscape:connector-curvature="0"
         style="fill:#06033e" /><path
         class="st11"
         d="m 299.96,230.74 -4.88,-2.82 c -0.39,-0.23 -0.34,-0.62 0.11,-0.88 l 4.83,-2.79 c 0.45,-0.26 1.14,-0.29 1.53,-0.06 l 4.88,2.82 c 0.39,0.23 0.34,0.62 -0.11,0.88 l -4.83,2.79 c -0.45,0.25 -1.13,0.28 -1.53,0.06 z"
         id="path4477"
         inkscape:connector-curvature="0"
         style="fill:#06033e" /><path
         class="st11"
         d="m 307.49,235.08 -4.88,-2.82 c -0.39,-0.23 -0.34,-0.62 0.11,-0.88 l 4.83,-2.79 c 0.45,-0.26 1.14,-0.29 1.53,-0.06 l 4.88,2.82 c 0.39,0.23 0.34,0.62 -0.11,0.88 l -4.83,2.79 c -0.45,0.26 -1.13,0.29 -1.53,0.06 z"
         id="path4479"
         inkscape:connector-curvature="0"
         style="fill:#06033e" /><path
         class="st11"
         d="m 315.03,239.43 -4.88,-2.82 c -0.39,-0.23 -0.34,-0.62 0.11,-0.88 l 4.83,-2.79 c 0.45,-0.26 1.14,-0.29 1.53,-0.06 l 4.88,2.82 c 0.39,0.23 0.34,0.62 -0.11,0.88 l -4.83,2.79 c -0.46,0.26 -1.14,0.29 -1.53,0.06 z"
         id="path4481"
         inkscape:connector-curvature="0"
         style="fill:#06033e" /><path
         class="st11"
         d="m 322.56,243.78 -4.88,-2.82 c -0.39,-0.23 -0.34,-0.62 0.11,-0.88 l 4.83,-2.79 c 0.45,-0.26 1.14,-0.29 1.53,-0.06 l 4.88,2.82 c 0.39,0.23 0.34,0.62 -0.11,0.88 l -4.83,2.79 c -0.46,0.26 -1.14,0.29 -1.53,0.06 z"
         id="path4483"
         inkscape:connector-curvature="0"
         style="fill:#06033e" /><path
         class="st11"
         d="m 330.09,248.13 -4.88,-2.82 c -0.39,-0.23 -0.34,-0.62 0.11,-0.88 l 4.83,-2.79 c 0.45,-0.26 1.14,-0.29 1.53,-0.06 l 4.88,2.82 c 0.39,0.23 0.34,0.62 -0.11,0.88 l -4.83,2.79 c -0.46,0.25 -1.14,0.28 -1.53,0.06 z"
         id="path4485"
         inkscape:connector-curvature="0"
         style="fill:#06033e" /><path
         class="st11"
         d="m 337.62,252.47 -4.88,-2.82 c -0.39,-0.23 -0.34,-0.62 0.11,-0.88 l 4.83,-2.79 c 0.45,-0.26 1.14,-0.29 1.53,-0.06 l 4.88,2.82 c 0.39,0.23 0.34,0.62 -0.11,0.88 l -4.83,2.79 c -0.46,0.26 -1.14,0.29 -1.53,0.06 z"
         id="path4487"
         inkscape:connector-curvature="0"
         style="fill:#06033e" /><path
         class="st11"
         d="M 345.15,256.82 340.27,254 c -0.39,-0.23 -0.34,-0.62 0.11,-0.88 l 4.83,-2.79 c 0.45,-0.26 1.14,-0.29 1.53,-0.06 l 4.88,2.82 c 0.39,0.23 0.34,0.62 -0.11,0.88 l -4.83,2.79 c -0.46,0.26 -1.14,0.29 -1.53,0.06 z"
         id="path4489"
         inkscape:connector-curvature="0"
         style="fill:#06033e" /><path
         class="st11"
         d="m 352.68,261.17 -4.88,-2.82 c -0.39,-0.23 -0.34,-0.62 0.11,-0.88 l 4.83,-2.79 c 0.45,-0.26 1.14,-0.29 1.53,-0.06 l 4.88,2.82 c 0.39,0.23 0.34,0.62 -0.11,0.88 l -4.83,2.79 c -0.46,0.26 -1.14,0.29 -1.53,0.06 z"
         id="path4491"
         inkscape:connector-curvature="0"
         style="fill:#06033e" /><path
         class="st11"
         d="m 249.38,226.93 -14.36,-8.29 c -0.39,-0.23 -0.34,-0.62 0.11,-0.88 l 4.83,-2.79 c 0.45,-0.26 1.14,-0.29 1.53,-0.06 l 14.36,8.29 c 0.39,0.23 0.34,0.62 -0.11,0.88 l -4.83,2.79 c -0.45,0.25 -1.14,0.28 -1.53,0.06 z"
         id="path4493"
         inkscape:connector-curvature="0"
         style="fill:#06033e" /><path
         class="st11"
         d="m 341.89,280.34 -14.36,-8.29 c -0.39,-0.23 -0.34,-0.62 0.11,-0.88 l 4.83,-2.79 c 0.45,-0.26 1.14,-0.29 1.53,-0.06 l 14.36,8.29 c 0.39,0.23 0.34,0.62 -0.11,0.88 l -4.83,2.79 c -0.45,0.25 -1.13,0.28 -1.53,0.06 z"
         id="path4495"
         inkscape:connector-curvature="0"
         style="fill:#06033e" /><path
         class="st11"
         d="m 311.78,272.55 -4.88,-2.82 c -0.39,-0.23 -0.34,-0.62 0.11,-0.88 l 5.76,-3.32 c 0.45,-0.26 1.14,-0.29 1.53,-0.06 l 4.88,2.82 c 0.39,0.23 0.34,0.62 -0.11,0.88 l -5.76,3.32 c -0.46,0.26 -1.14,0.29 -1.53,0.06 z"
         id="path4497"
         inkscape:connector-curvature="0"
         style="fill:#06033e" /><path
         class="st11"
         d="m 257.09,240.98 -7.8,-4.5 c -0.39,-0.23 -0.34,-0.62 0.11,-0.88 l 5.76,-3.32 c 0.45,-0.26 1.14,-0.29 1.53,-0.06 l 7.8,4.5 c 0.39,0.23 0.34,0.62 -0.11,0.88 l -5.76,3.32 c -0.45,0.26 -1.13,0.29 -1.53,0.06 z"
         id="path4499"
         inkscape:connector-curvature="0"
         style="fill:#06033e" /><path
         class="st11"
         d="m 304.52,268.36 -7.8,-4.5 c -0.39,-0.23 -0.34,-0.62 0.11,-0.88 l 5.76,-3.32 c 0.45,-0.26 1.14,-0.29 1.53,-0.06 l 7.8,4.5 c 0.39,0.23 0.34,0.62 -0.11,0.88 l -5.76,3.32 c -0.45,0.26 -1.13,0.29 -1.53,0.06 z"
         id="path4501"
         inkscape:connector-curvature="0"
         style="fill:#06033e" /><path
         class="st11"
         d="m 267.96,247.25 -7.8,-4.5 c -0.39,-0.23 -0.34,-0.62 0.11,-0.88 l 5.76,-3.32 c 0.45,-0.26 1.14,-0.29 1.53,-0.06 l 7.8,4.5 c 0.39,0.23 0.34,0.62 -0.11,0.88 l -5.76,3.32 c -0.46,0.26 -1.14,0.29 -1.53,0.06 z"
         id="path4503"
         inkscape:connector-curvature="0"
         style="fill:#06033e" /><path
         class="st11"
         d="m 267.61,238.51 33.9,19.58 c 0.42,0.24 0.42,0.64 0,0.88 l -5.87,3.39 c -0.42,0.24 -1.1,0.24 -1.52,0 l -33.9,-19.57 z"
         id="path4505"
         inkscape:connector-curvature="0"
         style="fill:#06033e" /><path
         class="st11"
         d="m 332.83,280.44 5.43,3.14 c 0.32,0.19 0.28,0.51 -0.09,0.72 l -2.35,1.36 c -0.37,0.21 -0.93,0.24 -1.25,0.05 l -5.43,-3.14 c -0.32,-0.19 -0.28,-0.51 0.09,-0.72 l 2.35,-1.36 c 0.36,-0.22 0.92,-0.24 1.25,-0.05 z"
         id="path4507"
         inkscape:connector-curvature="0"
         style="fill:#06033e" /><path
         class="st11"
         d="m 325.23,276.05 5.43,3.14 c 0.32,0.19 0.28,0.51 -0.09,0.72 l -2.35,1.36 c -0.37,0.21 -0.93,0.24 -1.25,0.05 l -5.43,-3.14 c -0.32,-0.19 -0.28,-0.51 0.09,-0.72 l 2.35,-1.36 c 0.37,-0.21 0.93,-0.23 1.25,-0.05 z"
         id="path4509"
         inkscape:connector-curvature="0"
         style="fill:#06033e" /><path
         class="st11"
         d="m 317.7,271.7 5.43,3.14 c 0.32,0.19 0.28,0.51 -0.09,0.72 l -2.35,1.36 c -0.37,0.21 -0.93,0.24 -1.25,0.05 l -5.43,-3.14 c -0.32,-0.19 -0.28,-0.51 0.09,-0.72 l 2.35,-1.36 c 0.37,-0.21 0.93,-0.23 1.25,-0.05 z"
         id="path4511"
         inkscape:connector-curvature="0"
         style="fill:#06033e" /><path
         class="st11"
         d="m 329.39,273.65 5.43,3.14 c 0.32,0.19 0.28,0.51 -0.09,0.72 l -2.35,1.36 c -0.37,0.21 -0.93,0.24 -1.25,0.05 l -5.43,-3.14 c -0.32,-0.19 -0.28,-0.51 0.09,-0.72 l 2.35,-1.36 c 0.37,-0.21 0.93,-0.23 1.25,-0.05 z"
         id="path4513"
         inkscape:connector-curvature="0"
         style="fill:#06033e" /></g><g
       class="st10"
       id="g4665"
       style="opacity:0.4"><path
         class="st11"
         d="m 231.58,226.25 -4.88,-2.82 c -0.39,-0.23 -0.34,-0.62 0.11,-0.88 l 5.76,-3.32 c 0.45,-0.26 1.14,-0.29 1.53,-0.06 l 4.88,2.82 c 0.39,0.23 0.34,0.62 -0.11,0.88 l -5.76,3.32 c -0.45,0.26 -1.14,0.29 -1.53,0.06 z"
         id="path4517"
         inkscape:connector-curvature="0"
         style="fill:#06033e" /><path
         class="st11"
         d="m 239.11,230.6 -4.88,-2.82 c -0.39,-0.23 -0.34,-0.62 0.11,-0.88 l 5.76,-3.32 c 0.45,-0.26 1.14,-0.29 1.53,-0.06 l 4.88,2.82 c 0.39,0.23 0.34,0.62 -0.11,0.88 l -5.76,3.32 c -0.45,0.26 -1.14,0.28 -1.53,0.06 z"
         id="path4519"
         inkscape:connector-curvature="0"
         style="fill:#06033e" /><path
         class="st11"
         d="m 246.64,234.95 -4.88,-2.82 c -0.39,-0.23 -0.34,-0.62 0.11,-0.88 l 5.76,-3.32 c 0.45,-0.26 1.14,-0.29 1.53,-0.06 l 4.88,2.82 c 0.39,0.23 0.34,0.62 -0.11,0.88 l -5.76,3.32 c -0.45,0.25 -1.14,0.28 -1.53,0.06 z"
         id="path4521"
         inkscape:connector-curvature="0"
         style="fill:#06033e" /><path
         class="st11"
         d="m 257.06,231.36 -4.88,-2.82 c -0.39,-0.23 -0.34,-0.62 0.11,-0.88 l 4.83,-2.79 c 0.45,-0.26 1.14,-0.29 1.53,-0.06 l 4.88,2.82 c 0.39,0.23 0.34,0.62 -0.11,0.88 l -4.83,2.79 c -0.46,0.25 -1.14,0.28 -1.53,0.06 z"
         id="path4523"
         inkscape:connector-curvature="0"
         style="fill:#06033e" /><path
         class="st11"
         d="m 264.59,235.7 -4.88,-2.82 c -0.39,-0.23 -0.34,-0.62 0.11,-0.88 l 4.83,-2.79 c 0.45,-0.26 1.14,-0.29 1.53,-0.06 l 4.88,2.82 c 0.39,0.23 0.34,0.62 -0.11,0.88 l -4.83,2.79 c -0.46,0.26 -1.14,0.29 -1.53,0.06 z"
         id="path4525"
         inkscape:connector-curvature="0"
         style="fill:#06033e" /><path
         class="st11"
         d="m 272.12,240.05 -4.88,-2.82 c -0.39,-0.23 -0.34,-0.62 0.11,-0.88 l 4.83,-2.79 c 0.45,-0.26 1.14,-0.29 1.53,-0.06 l 4.88,2.82 c 0.39,0.23 0.34,0.62 -0.11,0.88 l -4.83,2.79 c -0.46,0.26 -1.14,0.29 -1.53,0.06 z"
         id="path4527"
         inkscape:connector-curvature="0"
         style="fill:#06033e" /><path
         class="st11"
         d="m 279.65,244.4 -4.88,-2.82 c -0.39,-0.23 -0.34,-0.62 0.11,-0.88 l 4.83,-2.79 c 0.45,-0.26 1.14,-0.29 1.53,-0.06 l 4.88,2.82 c 0.39,0.23 0.34,0.62 -0.11,0.88 l -4.83,2.79 c -0.46,0.26 -1.14,0.28 -1.53,0.06 z"
         id="path4529"
         inkscape:connector-curvature="0"
         style="fill:#06033e" /><path
         class="st11"
         d="m 287.18,248.75 -4.88,-2.82 c -0.39,-0.23 -0.34,-0.62 0.11,-0.88 l 4.83,-2.79 c 0.45,-0.26 1.14,-0.29 1.53,-0.06 l 4.88,2.82 c 0.39,0.23 0.34,0.62 -0.11,0.88 l -4.83,2.79 c -0.46,0.25 -1.14,0.28 -1.53,0.06 z"
         id="path4531"
         inkscape:connector-curvature="0"
         style="fill:#06033e" /><path
         class="st11"
         d="m 294.71,253.09 -4.88,-2.82 c -0.39,-0.23 -0.34,-0.62 0.11,-0.88 l 4.83,-2.79 c 0.45,-0.26 1.14,-0.29 1.53,-0.06 l 4.88,2.82 c 0.39,0.23 0.34,0.62 -0.11,0.88 l -4.83,2.79 c -0.46,0.26 -1.14,0.29 -1.53,0.06 z"
         id="path4533"
         inkscape:connector-curvature="0"
         style="fill:#06033e" /><path
         class="st11"
         d="m 302.24,257.44 -4.88,-2.82 c -0.39,-0.23 -0.34,-0.62 0.11,-0.88 l 4.83,-2.79 c 0.45,-0.26 1.14,-0.29 1.53,-0.06 l 4.88,2.82 c 0.39,0.23 0.34,0.62 -0.11,0.88 l -4.83,2.79 c -0.46,0.26 -1.14,0.29 -1.53,0.06 z"
         id="path4535"
         inkscape:connector-curvature="0"
         style="fill:#06033e" /><path
         class="st11"
         d="m 309.77,261.79 -4.88,-2.82 c -0.39,-0.23 -0.34,-0.62 0.11,-0.88 l 4.83,-2.79 c 0.45,-0.26 1.14,-0.29 1.53,-0.06 l 4.88,2.82 c 0.39,0.23 0.34,0.62 -0.11,0.88 l -4.83,2.79 c -0.46,0.26 -1.14,0.29 -1.53,0.06 z"
         id="path4537"
         inkscape:connector-curvature="0"
         style="fill:#06033e" /><path
         class="st11"
         d="m 317.3,266.14 -4.88,-2.82 c -0.39,-0.23 -0.34,-0.62 0.11,-0.88 l 4.83,-2.79 c 0.45,-0.26 1.14,-0.29 1.53,-0.06 l 4.88,2.82 c 0.39,0.23 0.34,0.62 -0.11,0.88 l -4.83,2.79 c -0.46,0.25 -1.14,0.28 -1.53,0.06 z"
         id="path4539"
         inkscape:connector-curvature="0"
         style="fill:#06033e" /><path
         class="st11"
         d="m 324.83,270.48 -4.88,-2.82 c -0.39,-0.23 -0.34,-0.62 0.11,-0.88 l 4.83,-2.79 c 0.45,-0.26 1.14,-0.29 1.53,-0.06 l 4.88,2.82 c 0.39,0.23 0.34,0.62 -0.11,0.88 l -4.83,2.79 c -0.46,0.26 -1.14,0.29 -1.53,0.06 z"
         id="path4541"
         inkscape:connector-curvature="0"
         style="fill:#06033e" /><path
         class="st11"
         d="m 268.15,229.3 -4.88,-2.82 c -0.39,-0.23 -0.34,-0.62 0.11,-0.88 l 4.83,-2.79 c 0.45,-0.26 1.14,-0.29 1.53,-0.06 l 4.88,2.82 c 0.39,0.23 0.34,0.62 -0.11,0.88 l -4.83,2.79 c -0.45,0.26 -1.14,0.28 -1.53,0.06 z"
         id="path4543"
         inkscape:connector-curvature="0"
         style="fill:#06033e" /><path
         class="st11"
         d="m 260.51,224.89 -4.88,-2.82 c -0.39,-0.23 -0.34,-0.62 0.11,-0.88 l 4.83,-2.79 c 0.45,-0.26 1.14,-0.29 1.53,-0.06 l 4.88,2.82 c 0.39,0.23 0.34,0.62 -0.11,0.88 l -4.83,2.79 c -0.46,0.25 -1.14,0.28 -1.53,0.06 z"
         id="path4545"
         inkscape:connector-curvature="0"
         style="fill:#06033e" /><path
         class="st11"
         d="m 252.85,220.47 -10.5,-6.06 c -0.39,-0.23 -0.34,-0.62 0.11,-0.88 l 4.83,-2.79 c 0.45,-0.26 1.14,-0.29 1.53,-0.06 l 10.5,6.06 c 0.39,0.23 0.34,0.62 -0.11,0.88 l -4.83,2.79 c -0.45,0.25 -1.13,0.28 -1.53,0.06 z"
         id="path4547"
         inkscape:connector-curvature="0"
         style="fill:#06033e" /><path
         class="st11"
         d="m 258.2,215.09 -8.52,-4.92 c -0.39,-0.23 -0.34,-0.62 0.11,-0.88 l 4.83,-2.79 c 0.45,-0.26 1.14,-0.29 1.53,-0.06 l 8.52,4.92 c 0.39,0.23 0.34,0.62 -0.11,0.88 l -4.83,2.79 c -0.45,0.26 -1.13,0.29 -1.53,0.06 z"
         id="path4549"
         inkscape:connector-curvature="0"
         style="fill:#06033e" /><path
         class="st11"
         d="m 275.68,233.65 -4.88,-2.82 c -0.39,-0.23 -0.34,-0.62 0.11,-0.88 l 4.83,-2.79 c 0.45,-0.26 1.14,-0.29 1.53,-0.06 l 4.88,2.82 c 0.39,0.23 0.34,0.62 -0.11,0.88 l -4.83,2.79 c -0.45,0.25 -1.14,0.28 -1.53,0.06 z"
         id="path4551"
         inkscape:connector-curvature="0"
         style="fill:#06033e" /><path
         class="st11"
         d="m 283.21,237.99 -4.88,-2.82 c -0.39,-0.23 -0.34,-0.62 0.11,-0.88 l 4.83,-2.79 c 0.45,-0.26 1.14,-0.29 1.53,-0.06 l 4.88,2.82 c 0.39,0.23 0.34,0.62 -0.11,0.88 l -4.83,2.79 c -0.45,0.26 -1.14,0.29 -1.53,0.06 z"
         id="path4553"
         inkscape:connector-curvature="0"
         style="fill:#06033e" /><path
         class="st11"
         d="m 290.74,242.34 -4.88,-2.82 c -0.39,-0.23 -0.34,-0.62 0.11,-0.88 l 4.83,-2.79 c 0.45,-0.26 1.14,-0.29 1.53,-0.06 l 4.88,2.82 c 0.39,0.23 0.34,0.62 -0.11,0.88 l -4.83,2.79 c -0.45,0.26 -1.14,0.29 -1.53,0.06 z"
         id="path4555"
         inkscape:connector-curvature="0"
         style="fill:#06033e" /><path
         class="st11"
         d="m 298.27,246.69 -4.88,-2.82 c -0.39,-0.23 -0.34,-0.62 0.11,-0.88 l 4.83,-2.79 c 0.45,-0.26 1.14,-0.29 1.53,-0.06 l 4.88,2.82 c 0.39,0.23 0.34,0.62 -0.11,0.88 l -4.83,2.79 c -0.45,0.26 -1.14,0.28 -1.53,0.06 z"
         id="path4557"
         inkscape:connector-curvature="0"
         style="fill:#06033e" /><path
         class="st11"
         d="m 305.8,251.04 -4.88,-2.82 c -0.39,-0.23 -0.34,-0.62 0.11,-0.88 l 4.83,-2.79 c 0.45,-0.26 1.14,-0.29 1.53,-0.06 l 4.88,2.82 c 0.39,0.23 0.34,0.62 -0.11,0.88 l -4.83,2.79 c -0.45,0.25 -1.14,0.28 -1.53,0.06 z"
         id="path4559"
         inkscape:connector-curvature="0"
         style="fill:#06033e" /><path
         class="st11"
         d="m 313.33,255.38 -4.88,-2.82 c -0.39,-0.23 -0.34,-0.62 0.11,-0.88 l 4.83,-2.79 c 0.45,-0.26 1.14,-0.29 1.53,-0.06 l 4.88,2.82 c 0.39,0.23 0.34,0.62 -0.11,0.88 l -4.83,2.79 c -0.45,0.26 -1.13,0.29 -1.53,0.06 z"
         id="path4561"
         inkscape:connector-curvature="0"
         style="fill:#06033e" /><path
         class="st11"
         d="m 320.86,259.73 -4.88,-2.82 c -0.39,-0.23 -0.34,-0.62 0.11,-0.88 l 4.83,-2.79 c 0.45,-0.26 1.14,-0.29 1.53,-0.06 l 4.88,2.82 c 0.39,0.23 0.34,0.62 -0.11,0.88 l -4.83,2.79 c -0.45,0.26 -1.13,0.29 -1.53,0.06 z"
         id="path4563"
         inkscape:connector-curvature="0"
         style="fill:#06033e" /><path
         class="st11"
         d="m 328.39,264.08 -4.88,-2.82 c -0.39,-0.23 -0.34,-0.62 0.11,-0.88 l 4.83,-2.79 c 0.45,-0.26 1.14,-0.29 1.53,-0.06 l 4.88,2.82 c 0.39,0.23 0.34,0.62 -0.11,0.88 l -4.83,2.79 c -0.45,0.26 -1.13,0.28 -1.53,0.06 z"
         id="path4565"
         inkscape:connector-curvature="0"
         style="fill:#06033e" /><path
         class="st11"
         d="m 335.92,268.43 -4.88,-2.82 c -0.39,-0.23 -0.34,-0.62 0.11,-0.88 l 4.83,-2.79 c 0.45,-0.26 1.14,-0.29 1.53,-0.06 l 4.88,2.82 c 0.39,0.23 0.34,0.62 -0.11,0.88 l -4.83,2.79 c -0.45,0.25 -1.13,0.28 -1.53,0.06 z"
         id="path4567"
         inkscape:connector-curvature="0"
         style="fill:#06033e" /><path
         class="st11"
         d="m 349.31,276.16 -10.64,-6.14 c -0.39,-0.23 -0.34,-0.62 0.11,-0.88 l 4.83,-2.79 c 0.45,-0.26 1.14,-0.29 1.53,-0.06 l 10.64,6.14 c 0.39,0.23 0.34,0.62 -0.11,0.88 l -4.83,2.79 c -0.45,0.25 -1.14,0.28 -1.53,0.06 z"
         id="path4569"
         inkscape:connector-curvature="0"
         style="fill:#06033e" /><path
         class="st11"
         d="m 363.97,267.69 -8.98,-5.18 c -0.39,-0.23 -0.34,-0.62 0.11,-0.88 l 4.83,-2.79 c 0.45,-0.26 1.14,-0.29 1.53,-0.06 l 8.98,5.18 c 0.39,0.23 0.34,0.62 -0.11,0.88 l -4.83,2.79 c -0.45,0.26 -1.14,0.29 -1.53,0.06 z"
         id="path4571"
         inkscape:connector-curvature="0"
         style="fill:#06033e" /><path
         class="st11"
         d="m 288.87,232.79 -4.88,-2.82 c -0.39,-0.23 -0.34,-0.62 0.11,-0.88 l 4.83,-2.79 c 0.45,-0.26 1.14,-0.29 1.53,-0.06 l 4.88,2.82 c 0.39,0.23 0.34,0.62 -0.11,0.88 l -4.83,2.79 c -0.46,0.26 -1.14,0.29 -1.53,0.06 z"
         id="path4573"
         inkscape:connector-curvature="0"
         style="fill:#06033e" /><path
         class="st11"
         d="m 281.15,228.34 -4.88,-2.82 c -0.39,-0.23 -0.34,-0.62 0.11,-0.88 l 4.83,-2.79 c 0.45,-0.26 1.14,-0.29 1.53,-0.06 l 4.88,2.82 c 0.39,0.23 0.34,0.62 -0.11,0.88 l -4.83,2.79 c -0.45,0.26 -1.14,0.28 -1.53,0.06 z"
         id="path4575"
         inkscape:connector-curvature="0"
         style="fill:#06033e" /><path
         class="st11"
         d="m 273.43,223.88 -4.88,-2.82 c -0.39,-0.23 -0.34,-0.62 0.11,-0.88 l 4.83,-2.79 c 0.45,-0.26 1.14,-0.29 1.53,-0.06 l 4.88,2.82 c 0.39,0.23 0.34,0.62 -0.11,0.88 l -4.83,2.79 c -0.45,0.26 -1.13,0.29 -1.53,0.06 z"
         id="path4577"
         inkscape:connector-curvature="0"
         style="fill:#06033e" /><path
         class="st11"
         d="m 265.72,219.43 -4.88,-2.82 c -0.39,-0.23 -0.34,-0.62 0.11,-0.88 l 4.83,-2.79 c 0.45,-0.26 1.14,-0.29 1.53,-0.06 l 4.88,2.82 c 0.39,0.23 0.34,0.62 -0.11,0.88 l -4.83,2.79 c -0.46,0.26 -1.14,0.28 -1.53,0.06 z"
         id="path4579"
         inkscape:connector-curvature="0"
         style="fill:#06033e" /><path
         class="st11"
         d="m 296.4,237.14 -4.88,-2.82 c -0.39,-0.23 -0.34,-0.62 0.11,-0.88 l 4.83,-2.79 c 0.45,-0.26 1.14,-0.29 1.53,-0.06 l 4.88,2.82 c 0.39,0.23 0.34,0.62 -0.11,0.88 l -4.83,2.79 c -0.45,0.26 -1.14,0.29 -1.53,0.06 z"
         id="path4581"
         inkscape:connector-curvature="0"
         style="fill:#06033e" /><path
         class="st11"
         d="m 303.93,241.49 -4.88,-2.82 c -0.39,-0.23 -0.34,-0.62 0.11,-0.88 l 4.83,-2.79 c 0.45,-0.26 1.14,-0.29 1.53,-0.06 l 4.88,2.82 c 0.39,0.23 0.34,0.62 -0.11,0.88 l -4.83,2.79 c -0.45,0.26 -1.14,0.29 -1.53,0.06 z"
         id="path4583"
         inkscape:connector-curvature="0"
         style="fill:#06033e" /><path
         class="st11"
         d="m 311.46,245.84 -4.88,-2.82 c -0.39,-0.23 -0.34,-0.62 0.11,-0.88 l 4.83,-2.79 c 0.45,-0.26 1.14,-0.29 1.53,-0.06 l 4.88,2.82 c 0.39,0.23 0.34,0.62 -0.11,0.88 l -4.83,2.79 c -0.45,0.26 -1.14,0.28 -1.53,0.06 z"
         id="path4585"
         inkscape:connector-curvature="0"
         style="fill:#06033e" /><path
         class="st11"
         d="m 318.99,250.18 -4.88,-2.82 c -0.39,-0.23 -0.34,-0.62 0.11,-0.88 l 4.83,-2.79 c 0.45,-0.26 1.14,-0.29 1.53,-0.06 l 4.88,2.82 c 0.39,0.23 0.34,0.62 -0.11,0.88 l -4.83,2.79 c -0.45,0.26 -1.14,0.29 -1.53,0.06 z"
         id="path4587"
         inkscape:connector-curvature="0"
         style="fill:#06033e" /><path
         class="st11"
         d="m 326.52,254.53 -4.88,-2.82 c -0.39,-0.23 -0.34,-0.62 0.11,-0.88 l 4.83,-2.79 c 0.45,-0.26 1.14,-0.29 1.53,-0.06 l 4.88,2.82 c 0.39,0.23 0.34,0.62 -0.11,0.88 l -4.83,2.79 c -0.45,0.26 -1.14,0.29 -1.53,0.06 z"
         id="path4589"
         inkscape:connector-curvature="0"
         style="fill:#06033e" /><path
         class="st11"
         d="m 334.05,258.88 -4.88,-2.82 c -0.39,-0.23 -0.34,-0.62 0.11,-0.88 l 4.83,-2.79 c 0.45,-0.26 1.14,-0.29 1.53,-0.06 l 4.88,2.82 c 0.39,0.23 0.34,0.62 -0.11,0.88 l -4.83,2.79 c -0.45,0.26 -1.14,0.29 -1.53,0.06 z"
         id="path4591"
         inkscape:connector-curvature="0"
         style="fill:#06033e" /><path
         class="st11"
         d="m 341.58,263.23 -4.88,-2.82 c -0.39,-0.23 -0.34,-0.62 0.11,-0.88 l 4.83,-2.79 c 0.45,-0.26 1.14,-0.29 1.53,-0.06 l 4.88,2.82 c 0.39,0.23 0.34,0.62 -0.11,0.88 l -4.83,2.79 c -0.45,0.26 -1.14,0.28 -1.53,0.06 z"
         id="path4593"
         inkscape:connector-curvature="0"
         style="fill:#06033e" /><path
         class="st11"
         d="m 349.11,267.58 -4.88,-2.82 c -0.39,-0.23 -0.34,-0.62 0.11,-0.88 l 4.83,-2.79 c 0.45,-0.26 1.14,-0.29 1.53,-0.06 l 4.88,2.82 c 0.39,0.23 0.34,0.62 -0.11,0.88 l -4.83,2.79 c -0.45,0.25 -1.14,0.28 -1.53,0.06 z"
         id="path4595"
         inkscape:connector-curvature="0"
         style="fill:#06033e" /><path
         class="st11"
         d="m 356.64,271.92 -4.88,-2.82 c -0.39,-0.23 -0.34,-0.62 0.11,-0.88 l 4.83,-2.79 c 0.45,-0.26 1.14,-0.29 1.53,-0.06 l 4.88,2.82 c 0.39,0.23 0.34,0.62 -0.11,0.88 l -4.83,2.79 c -0.45,0.26 -1.14,0.29 -1.53,0.06 z"
         id="path4597"
         inkscape:connector-curvature="0"
         style="fill:#06033e" /><path
         class="st11"
         d="m 284.9,222.04 -4.88,-2.82 c -0.39,-0.23 -0.34,-0.62 0.11,-0.88 l 4.83,-2.79 c 0.45,-0.26 1.14,-0.29 1.53,-0.06 l 4.88,2.82 c 0.39,0.23 0.34,0.62 -0.11,0.88 l -4.83,2.79 c -0.45,0.26 -1.13,0.29 -1.53,0.06 z"
         id="path4599"
         inkscape:connector-curvature="0"
         style="fill:#06033e" /><path
         class="st11"
         d="m 277.41,217.72 -4.88,-2.82 c -0.39,-0.23 -0.34,-0.62 0.11,-0.88 l 4.83,-2.79 c 0.45,-0.26 1.14,-0.29 1.53,-0.06 l 4.88,2.82 c 0.39,0.23 0.34,0.62 -0.11,0.88 l -4.83,2.79 c -0.45,0.25 -1.14,0.28 -1.53,0.06 z"
         id="path4601"
         inkscape:connector-curvature="0"
         style="fill:#06033e" /><path
         class="st11"
         d="m 269.92,213.39 -4.88,-2.82 c -0.39,-0.23 -0.34,-0.62 0.11,-0.88 l 4.83,-2.79 c 0.45,-0.26 1.14,-0.29 1.53,-0.06 l 4.88,2.82 c 0.39,0.23 0.34,0.62 -0.11,0.88 l -4.83,2.79 c -0.46,0.26 -1.14,0.29 -1.53,0.06 z"
         id="path4603"
         inkscape:connector-curvature="0"
         style="fill:#06033e" /><path
         class="st11"
         d="m 262.43,209.06 -4.88,-2.82 c -0.39,-0.23 -0.34,-0.62 0.11,-0.88 l 4.83,-2.79 c 0.45,-0.26 1.14,-0.29 1.53,-0.06 l 4.88,2.82 c 0.39,0.23 0.34,0.62 -0.11,0.88 l -4.83,2.79 c -0.46,0.26 -1.14,0.29 -1.53,0.06 z"
         id="path4605"
         inkscape:connector-curvature="0"
         style="fill:#06033e" /><path
         class="st11"
         d="m 270.13,204.61 -4.88,-2.82 c -0.39,-0.23 -0.34,-0.62 0.11,-0.88 l 1.6,-0.92 c 0.45,-0.26 1.14,-0.29 1.53,-0.06 l 4.88,2.82 c 0.39,0.23 0.34,0.62 -0.11,0.88 l -1.6,0.92 c -0.45,0.26 -1.14,0.29 -1.53,0.06 z"
         id="path4607"
         inkscape:connector-curvature="0"
         style="fill:#06033e" /><path
         class="st11"
         d="m 279.91,210.26 -4.88,-2.82 c -0.39,-0.23 -0.34,-0.62 0.11,-0.88 l 1.6,-0.92 c 0.45,-0.26 1.14,-0.29 1.53,-0.06 l 4.88,2.82 c 0.39,0.23 0.34,0.62 -0.11,0.88 l -1.6,0.92 c -0.46,0.26 -1.14,0.29 -1.53,0.06 z"
         id="path4609"
         inkscape:connector-curvature="0"
         style="fill:#06033e" /><path
         class="st11"
         d="m 287.37,214.57 -4.88,-2.82 c -0.39,-0.23 -0.34,-0.62 0.11,-0.88 l 1.6,-0.92 c 0.45,-0.26 1.14,-0.29 1.53,-0.06 l 4.88,2.82 c 0.39,0.23 0.34,0.62 -0.11,0.88 l -1.6,0.92 c -0.45,0.26 -1.14,0.28 -1.53,0.06 z"
         id="path4611"
         inkscape:connector-curvature="0"
         style="fill:#06033e" /><path
         class="st11"
         d="m 294.83,218.88 -4.88,-2.82 c -0.39,-0.23 -0.34,-0.62 0.11,-0.88 l 1.6,-0.92 c 0.45,-0.26 1.14,-0.29 1.53,-0.06 l 4.88,2.82 c 0.39,0.23 0.34,0.62 -0.11,0.88 l -1.6,0.92 c -0.45,0.25 -1.14,0.28 -1.53,0.06 z"
         id="path4613"
         inkscape:connector-curvature="0"
         style="fill:#06033e" /><path
         class="st11"
         d="m 302.29,223.18 -4.88,-2.82 c -0.39,-0.23 -0.34,-0.62 0.11,-0.88 l 1.6,-0.92 c 0.45,-0.26 1.14,-0.29 1.53,-0.06 l 4.88,2.82 c 0.39,0.23 0.34,0.62 -0.11,0.88 l -1.6,0.92 c -0.45,0.26 -1.14,0.29 -1.53,0.06 z"
         id="path4615"
         inkscape:connector-curvature="0"
         style="fill:#06033e" /><path
         class="st11"
         d="m 343.95,247.23 -4.88,-2.82 c -0.39,-0.23 -0.34,-0.62 0.11,-0.88 l 1.6,-0.92 c 0.45,-0.26 1.14,-0.29 1.53,-0.06 l 4.88,2.82 c 0.39,0.23 0.34,0.62 -0.11,0.88 l -1.6,0.92 c -0.45,0.26 -1.14,0.29 -1.53,0.06 z"
         id="path4617"
         inkscape:connector-curvature="0"
         style="fill:#06033e" /><path
         class="st11"
         d="m 351.41,251.54 -4.88,-2.82 c -0.39,-0.23 -0.34,-0.62 0.11,-0.88 l 1.6,-0.92 c 0.45,-0.26 1.14,-0.29 1.53,-0.06 l 4.88,2.82 c 0.39,0.23 0.34,0.62 -0.11,0.88 l -1.6,0.92 c -0.45,0.26 -1.14,0.29 -1.53,0.06 z"
         id="path4619"
         inkscape:connector-curvature="0"
         style="fill:#06033e" /><path
         class="st11"
         d="m 358.87,255.85 -4.88,-2.82 c -0.39,-0.23 -0.34,-0.62 0.11,-0.88 l 1.6,-0.92 c 0.45,-0.26 1.14,-0.29 1.53,-0.06 l 4.88,2.82 c 0.39,0.23 0.34,0.62 -0.11,0.88 l -1.6,0.92 c -0.45,0.26 -1.14,0.29 -1.53,0.06 z"
         id="path4621"
         inkscape:connector-curvature="0"
         style="fill:#06033e" /><path
         class="st11"
         d="m 366.34,260.16 -4.88,-2.82 c -0.39,-0.23 -0.34,-0.62 0.11,-0.88 l 1.6,-0.92 c 0.45,-0.26 1.14,-0.29 1.53,-0.06 l 4.88,2.82 c 0.39,0.23 0.34,0.62 -0.11,0.88 l -1.6,0.92 c -0.46,0.26 -1.14,0.28 -1.53,0.06 z"
         id="path4623"
         inkscape:connector-curvature="0"
         style="fill:#06033e" /><path
         class="st11"
         d="m 292.43,226.39 -4.88,-2.82 c -0.39,-0.23 -0.34,-0.62 0.11,-0.88 l 4.83,-2.79 c 0.45,-0.26 1.14,-0.29 1.53,-0.06 l 4.88,2.82 c 0.39,0.23 0.34,0.62 -0.11,0.88 l -4.83,2.79 c -0.45,0.26 -1.13,0.28 -1.53,0.06 z"
         id="path4625"
         inkscape:connector-curvature="0"
         style="fill:#06033e" /><path
         class="st11"
         d="m 299.96,230.74 -4.88,-2.82 c -0.39,-0.23 -0.34,-0.62 0.11,-0.88 l 4.83,-2.79 c 0.45,-0.26 1.14,-0.29 1.53,-0.06 l 4.88,2.82 c 0.39,0.23 0.34,0.62 -0.11,0.88 l -4.83,2.79 c -0.45,0.25 -1.13,0.28 -1.53,0.06 z"
         id="path4627"
         inkscape:connector-curvature="0"
         style="fill:#06033e" /><path
         class="st11"
         d="m 307.49,235.08 -4.88,-2.82 c -0.39,-0.23 -0.34,-0.62 0.11,-0.88 l 4.83,-2.79 c 0.45,-0.26 1.14,-0.29 1.53,-0.06 l 4.88,2.82 c 0.39,0.23 0.34,0.62 -0.11,0.88 l -4.83,2.79 c -0.45,0.26 -1.13,0.29 -1.53,0.06 z"
         id="path4629"
         inkscape:connector-curvature="0"
         style="fill:#06033e" /><path
         class="st11"
         d="m 315.03,239.43 -4.88,-2.82 c -0.39,-0.23 -0.34,-0.62 0.11,-0.88 l 4.83,-2.79 c 0.45,-0.26 1.14,-0.29 1.53,-0.06 l 4.88,2.82 c 0.39,0.23 0.34,0.62 -0.11,0.88 l -4.83,2.79 c -0.46,0.26 -1.14,0.29 -1.53,0.06 z"
         id="path4631"
         inkscape:connector-curvature="0"
         style="fill:#06033e" /><path
         class="st11"
         d="m 322.56,243.78 -4.88,-2.82 c -0.39,-0.23 -0.34,-0.62 0.11,-0.88 l 4.83,-2.79 c 0.45,-0.26 1.14,-0.29 1.53,-0.06 l 4.88,2.82 c 0.39,0.23 0.34,0.62 -0.11,0.88 l -4.83,2.79 c -0.46,0.26 -1.14,0.29 -1.53,0.06 z"
         id="path4633"
         inkscape:connector-curvature="0"
         style="fill:#06033e" /><path
         class="st11"
         d="m 330.09,248.13 -4.88,-2.82 c -0.39,-0.23 -0.34,-0.62 0.11,-0.88 l 4.83,-2.79 c 0.45,-0.26 1.14,-0.29 1.53,-0.06 l 4.88,2.82 c 0.39,0.23 0.34,0.62 -0.11,0.88 l -4.83,2.79 c -0.46,0.25 -1.14,0.28 -1.53,0.06 z"
         id="path4635"
         inkscape:connector-curvature="0"
         style="fill:#06033e" /><path
         class="st11"
         d="m 337.62,252.47 -4.88,-2.82 c -0.39,-0.23 -0.34,-0.62 0.11,-0.88 l 4.83,-2.79 c 0.45,-0.26 1.14,-0.29 1.53,-0.06 l 4.88,2.82 c 0.39,0.23 0.34,0.62 -0.11,0.88 l -4.83,2.79 c -0.46,0.26 -1.14,0.29 -1.53,0.06 z"
         id="path4637"
         inkscape:connector-curvature="0"
         style="fill:#06033e" /><path
         class="st11"
         d="M 345.15,256.82 340.27,254 c -0.39,-0.23 -0.34,-0.62 0.11,-0.88 l 4.83,-2.79 c 0.45,-0.26 1.14,-0.29 1.53,-0.06 l 4.88,2.82 c 0.39,0.23 0.34,0.62 -0.11,0.88 l -4.83,2.79 c -0.46,0.26 -1.14,0.29 -1.53,0.06 z"
         id="path4639"
         inkscape:connector-curvature="0"
         style="fill:#06033e" /><path
         class="st11"
         d="m 352.68,261.17 -4.88,-2.82 c -0.39,-0.23 -0.34,-0.62 0.11,-0.88 l 4.83,-2.79 c 0.45,-0.26 1.14,-0.29 1.53,-0.06 l 4.88,2.82 c 0.39,0.23 0.34,0.62 -0.11,0.88 l -4.83,2.79 c -0.46,0.26 -1.14,0.29 -1.53,0.06 z"
         id="path4641"
         inkscape:connector-curvature="0"
         style="fill:#06033e" /><path
         class="st11"
         d="m 249.38,226.93 -14.36,-8.29 c -0.39,-0.23 -0.34,-0.62 0.11,-0.88 l 4.83,-2.79 c 0.45,-0.26 1.14,-0.29 1.53,-0.06 l 14.36,8.29 c 0.39,0.23 0.34,0.62 -0.11,0.88 l -4.83,2.79 c -0.45,0.25 -1.14,0.28 -1.53,0.06 z"
         id="path4643"
         inkscape:connector-curvature="0"
         style="fill:#06033e" /><path
         class="st11"
         d="m 341.89,280.34 -14.36,-8.29 c -0.39,-0.23 -0.34,-0.62 0.11,-0.88 l 4.83,-2.79 c 0.45,-0.26 1.14,-0.29 1.53,-0.06 l 14.36,8.29 c 0.39,0.23 0.34,0.62 -0.11,0.88 l -4.83,2.79 c -0.45,0.25 -1.13,0.28 -1.53,0.06 z"
         id="path4645"
         inkscape:connector-curvature="0"
         style="fill:#06033e" /><path
         class="st11"
         d="m 311.78,272.55 -4.88,-2.82 c -0.39,-0.23 -0.34,-0.62 0.11,-0.88 l 5.76,-3.32 c 0.45,-0.26 1.14,-0.29 1.53,-0.06 l 4.88,2.82 c 0.39,0.23 0.34,0.62 -0.11,0.88 l -5.76,3.32 c -0.46,0.26 -1.14,0.29 -1.53,0.06 z"
         id="path4647"
         inkscape:connector-curvature="0"
         style="fill:#06033e" /><path
         class="st11"
         d="m 257.09,240.98 -7.8,-4.5 c -0.39,-0.23 -0.34,-0.62 0.11,-0.88 l 5.76,-3.32 c 0.45,-0.26 1.14,-0.29 1.53,-0.06 l 7.8,4.5 c 0.39,0.23 0.34,0.62 -0.11,0.88 l -5.76,3.32 c -0.45,0.26 -1.13,0.29 -1.53,0.06 z"
         id="path4649"
         inkscape:connector-curvature="0"
         style="fill:#06033e" /><path
         class="st11"
         d="m 304.52,268.36 -7.8,-4.5 c -0.39,-0.23 -0.34,-0.62 0.11,-0.88 l 5.76,-3.32 c 0.45,-0.26 1.14,-0.29 1.53,-0.06 l 7.8,4.5 c 0.39,0.23 0.34,0.62 -0.11,0.88 l -5.76,3.32 c -0.45,0.26 -1.13,0.29 -1.53,0.06 z"
         id="path4651"
         inkscape:connector-curvature="0"
         style="fill:#06033e" /><path
         class="st11"
         d="m 267.96,247.25 -7.8,-4.5 c -0.39,-0.23 -0.34,-0.62 0.11,-0.88 l 5.76,-3.32 c 0.45,-0.26 1.14,-0.29 1.53,-0.06 l 7.8,4.5 c 0.39,0.23 0.34,0.62 -0.11,0.88 l -5.76,3.32 c -0.46,0.26 -1.14,0.29 -1.53,0.06 z"
         id="path4653"
         inkscape:connector-curvature="0"
         style="fill:#06033e" /><path
         class="st11"
         d="m 267.61,238.51 33.9,19.58 c 0.42,0.24 0.42,0.64 0,0.88 l -5.87,3.39 c -0.42,0.24 -1.1,0.24 -1.52,0 l -33.9,-19.57 z"
         id="path4655"
         inkscape:connector-curvature="0"
         style="fill:#06033e" /><path
         class="st11"
         d="m 332.83,280.44 5.43,3.14 c 0.32,0.19 0.28,0.51 -0.09,0.72 l -2.35,1.36 c -0.37,0.21 -0.93,0.24 -1.25,0.05 l -5.43,-3.14 c -0.32,-0.19 -0.28,-0.51 0.09,-0.72 l 2.35,-1.36 c 0.36,-0.22 0.92,-0.24 1.25,-0.05 z"
         id="path4657"
         inkscape:connector-curvature="0"
         style="fill:#06033e" /><path
         class="st11"
         d="m 325.23,276.05 5.43,3.14 c 0.32,0.19 0.28,0.51 -0.09,0.72 l -2.35,1.36 c -0.37,0.21 -0.93,0.24 -1.25,0.05 l -5.43,-3.14 c -0.32,-0.19 -0.28,-0.51 0.09,-0.72 l 2.35,-1.36 c 0.37,-0.21 0.93,-0.23 1.25,-0.05 z"
         id="path4659"
         inkscape:connector-curvature="0"
         style="fill:#06033e" /><path
         class="st11"
         d="m 317.7,271.7 5.43,3.14 c 0.32,0.19 0.28,0.51 -0.09,0.72 l -2.35,1.36 c -0.37,0.21 -0.93,0.24 -1.25,0.05 l -5.43,-3.14 c -0.32,-0.19 -0.28,-0.51 0.09,-0.72 l 2.35,-1.36 c 0.37,-0.21 0.93,-0.23 1.25,-0.05 z"
         id="path4661"
         inkscape:connector-curvature="0"
         style="fill:#06033e" /><path
         class="st11"
         d="m 329.39,273.65 5.43,3.14 c 0.32,0.19 0.28,0.51 -0.09,0.72 l -2.35,1.36 c -0.37,0.21 -0.93,0.24 -1.25,0.05 l -5.43,-3.14 c -0.32,-0.19 -0.28,-0.51 0.09,-0.72 l 2.35,-1.36 c 0.37,-0.21 0.93,-0.23 1.25,-0.05 z"
         id="path4663"
         inkscape:connector-curvature="0"
         style="fill:#06033e" /></g><radialGradient
       id="SVGID_9_"
       cx="240.8779"
       cy="107.1847"
       r="223.3409"
       gradientUnits="userSpaceOnUse"><stop
         offset="0"
         style="stop-color:#E39A65"
         id="stop4667" /><stop
         offset="0.4742"
         style="stop-color:#A92FFB"
         id="stop4669" /><stop
         offset="0.5875"
         style="stop-color:#891CFB"
         id="stop4671" /><stop
         offset="0.7262"
         style="stop-color:#6507FA"
         id="stop4673" /><stop
         offset="1"
         style="stop-color:#3919BB"
         id="stop4675" /></radialGradient><path
       class="st12"
       d="M 409.09,264.86 265.22,181.8 c -2.26,-1.31 -3.44,-4.49 -2.64,-7.11 L 295.11,69.06 c 0.81,-2.62 3.29,-3.68 5.56,-2.38 l 143.86,83.06 c 2.26,1.31 3.44,4.49 2.64,7.11 l -32.53,105.63 c -0.8,2.62 -3.29,3.68 -5.55,2.38 z"
       id="path4678"
       inkscape:connector-curvature="0"
       style="fill:url(#SVGID_9_)" /><linearGradient
       id="SVGID_10_"
       gradientUnits="userSpaceOnUse"
       x1="265.4256"
       y1="165.8121"
       x2="444.392"
       y2="165.8121"><stop
         offset="0"
         style="stop-color:#3919BB"
         id="stop4680" /><stop
         offset="1"
         style="stop-color:#6507FA"
         id="stop4682" /></linearGradient><path
       class="st13"
       d="M 407.73,261.16 268.19,180.53 c -2.16,-1.25 -3.29,-4.3 -2.52,-6.8 l 31.1,-100.98 c 0.77,-2.51 3.15,-3.53 5.32,-2.28 l 139.54,80.63 c 2.16,1.25 3.29,4.3 2.52,6.8 l -31.1,100.98 c -0.78,2.51 -3.16,3.53 -5.32,2.28 z"
       id="path4685"
       inkscape:connector-curvature="0"
       style="fill:url(#SVGID_10_)" /><path
       class="st14"
       d="M 407.73,261.16 268.19,180.53 c -2.16,-1.25 -3.29,-4.3 -2.52,-6.8 l 31.1,-100.98 c 0.77,-2.51 3.15,-3.53 5.32,-2.28 l 139.54,80.63 c 2.16,1.25 3.29,4.3 2.52,6.8 l -31.1,100.98 c -0.78,2.51 -3.16,3.53 -5.32,2.28 z"
       id="path4687"
       inkscape:connector-curvature="0"
       style="opacity:0.4;fill:#06033e" /><path
       class="st14"
       d="M 407.73,261.16 268.19,180.53 c -2.16,-1.25 -3.29,-4.3 -2.52,-6.8 l 31.1,-100.98 c 0.77,-2.51 3.15,-3.53 5.32,-2.28 l 139.54,80.63 c 2.16,1.25 3.29,4.3 2.52,6.8 l -31.1,100.98 c -0.78,2.51 -3.16,3.53 -5.32,2.28 z"
       id="path4689"
       inkscape:connector-curvature="0"
       style="opacity:0.4;fill:#06033e" /><path
       class="st15"
       d="m 400.23,230.3 -94.46,-54.54 c -1.49,-0.86 -2.26,-2.95 -1.73,-4.67 l 21.36,-69.36 c 0.53,-1.72 2.16,-2.42 3.65,-1.56 l 94.46,54.54 c 1.49,0.86 2.26,2.95 1.73,4.67 l -21.36,69.36 c -0.53,1.72 -2.16,2.41 -3.65,1.56 z"
       id="path4691"
       inkscape:connector-curvature="0"
       style="opacity:0.5;fill:#06033e" /><g
       id="g4706"><radialGradient
         id="SVGID_11_"
         cx="159.34621"
         cy="59.491402"
         r="347.8475"
         gradientUnits="userSpaceOnUse"><stop
           offset="0"
           style="stop-color:#E39A65"
           id="stop4693" /><stop
           offset="0.4742"
           style="stop-color:#A92FFB"
           id="stop4695" /><stop
           offset="0.5875"
           style="stop-color:#891CFB"
           id="stop4697" /><stop
           offset="0.7262"
           style="stop-color:#6507FA"
           id="stop4699" /><stop
           offset="1"
           style="stop-color:#3919BB"
           id="stop4701" /></radialGradient><path
         class="st16"
         d="m 387.47,231.97 -94.46,-54.54 c -1.49,-0.86 -2.26,-2.95 -1.73,-4.67 l 21.36,-69.36 c 0.53,-1.72 2.16,-2.42 3.65,-1.56 l 94.46,54.54 c 1.49,0.86 2.26,2.95 1.73,4.67 l -21.36,69.36 c -0.53,1.72 -2.16,2.42 -3.65,1.56 z"
         id="path4704"
         inkscape:connector-curvature="0"
         style="fill:url(#SVGID_11_)" /></g><g
       class="st17"
       id="g4710"
       style="opacity:0.5"><path
         class="st11"
         d="m 387.47,231.97 -94.46,-54.54 c -1.49,-0.86 -2.26,-2.95 -1.73,-4.67 l 21.36,-69.36 c 0.53,-1.72 2.16,-2.42 3.65,-1.56 l 94.46,54.54 c 1.49,0.86 2.26,2.95 1.73,4.67 l -21.36,69.36 c -0.53,1.72 -2.16,2.42 -3.65,1.56 z"
         id="path4708"
         inkscape:connector-curvature="0"
         style="fill:#06033e" /></g><path
       class="st1"
       d="m 410.75,156.38 -94.46,-54.54 c -0.93,-0.54 -1.92,-0.46 -2.66,0.09 0.45,-0.01 0.91,0.09 1.36,0.35 l 94.46,54.54 c 1.49,0.86 2.26,2.95 1.73,4.67 l -21.36,69.36 c -0.2,0.64 -0.55,1.14 -0.99,1.47 1.01,-0.03 1.92,-0.72 2.28,-1.91 l 21.36,-69.36 c 0.54,-1.72 -0.24,-3.81 -1.72,-4.67 z"
       id="path4712"
       inkscape:connector-curvature="0"
       style="fill:#ffffff" /><path
       class="st14"
       d="m 268.33,288.61 c -1.3,0 -2.55,-0.27 -3.5,-0.82 v 0 l -37.85,-21.85 c -1,-0.58 -1.55,-1.41 -1.55,-2.33 0,-1.07 0.76,-2.13 2.09,-2.89 L 247,249.47 c 2.38,-1.37 5.87,-1.51 7.96,-0.31 l 37.84,21.85 c 1,0.58 1.55,1.41 1.56,2.33 0,1.07 -0.76,2.13 -2.09,2.89 l -19.48,11.25 c -1.29,0.75 -2.91,1.13 -4.46,1.13 z m -16.85,-39.16 c -1.37,0 -2.82,0.33 -3.93,0.97 l -19.48,11.25 c -0.98,0.57 -1.54,1.28 -1.54,1.95 0,0.66 0.55,1.12 1.01,1.38 l 37.85,21.85 c 1.72,0.99 4.86,0.85 6.86,-0.31 l 19.48,-11.25 c 0.98,-0.57 1.54,-1.27 1.54,-1.95 0,-0.66 -0.55,-1.12 -1.01,-1.38 l -37.84,-21.85 c -0.78,-0.45 -1.83,-0.66 -2.94,-0.66 z"
       id="path4714"
       inkscape:connector-curvature="0"
       style="opacity:0.4;fill:#06033e" /></g><g
     id="g4762"
     transform="translate(-75.17,-37.55)"><g
       id="g4746"><path
         class="st1"
         d="m 339.3,138.24 -5.84,-3.37 c -0.54,-0.31 -0.83,-1.06 -0.65,-1.68 v 0 c 0.18,-0.61 0.77,-0.86 1.31,-0.55 l 5.84,3.37 c 0.54,0.31 0.83,1.06 0.65,1.68 v 0 c -0.18,0.61 -0.77,0.86 -1.31,0.55 z"
         id="path4718"
         inkscape:connector-curvature="0"
         style="fill:#ffffff" /><path
         class="st1"
         d="m 353.21,146.27 -8.61,-4.97 c -0.54,-0.31 -0.83,-1.06 -0.65,-1.68 v 0 c 0.18,-0.61 0.77,-0.86 1.31,-0.55 l 8.61,4.97 c 0.54,0.31 0.83,1.06 0.65,1.68 v 0 c -0.18,0.62 -0.77,0.86 -1.31,0.55 z"
         id="path4720"
         inkscape:connector-curvature="0"
         style="fill:#ffffff" /><path
         class="st1"
         d="m 327.52,164.24 -5.84,-3.37 c -0.54,-0.31 -0.83,-1.06 -0.65,-1.68 v 0 c 0.18,-0.61 0.77,-0.86 1.31,-0.55 l 5.84,3.37 c 0.54,0.31 0.83,1.06 0.65,1.68 v 0 c -0.18,0.61 -0.77,0.86 -1.31,0.55 z"
         id="path4722"
         inkscape:connector-curvature="0"
         style="fill:#ffffff" /><path
         class="st1"
         d="m 339.92,171.39 -8.61,-4.97 c -0.54,-0.31 -0.83,-1.06 -0.65,-1.68 v 0 c 0.18,-0.61 0.77,-0.86 1.31,-0.55 l 8.61,4.97 c 0.54,0.31 0.83,1.06 0.65,1.68 v 0 c -0.18,0.62 -0.77,0.87 -1.31,0.55 z"
         id="path4724"
         inkscape:connector-curvature="0"
         style="fill:#ffffff" /><path
         class="st1"
         d="m 321.8,133.6 -3.65,-2.11 c -0.54,-0.31 -0.83,-1.06 -0.65,-1.68 v 0 c 0.18,-0.61 0.77,-0.86 1.31,-0.55 l 3.65,2.11 c 0.54,0.31 0.83,1.06 0.65,1.68 v 0 c -0.18,0.62 -0.77,0.87 -1.31,0.55 z"
         id="path4726"
         inkscape:connector-curvature="0"
         style="fill:#ffffff" /><path
         class="st1"
         d="m 332.78,145.41 -11.15,-6.44 c -0.54,-0.31 -0.83,-1.06 -0.65,-1.68 v 0 c 0.18,-0.61 0.77,-0.86 1.31,-0.55 l 11.15,6.44 c 0.54,0.31 0.83,1.06 0.65,1.68 v 0 c -0.18,0.61 -0.77,0.86 -1.31,0.55 z"
         id="path4728"
         inkscape:connector-curvature="0"
         style="fill:#ffffff" /><path
         class="st1"
         d="m 322.5,150.4 -3.65,-2.11 c -0.54,-0.31 -0.83,-1.06 -0.65,-1.68 v 0 c 0.18,-0.61 0.77,-0.86 1.31,-0.55 l 3.65,2.11 c 0.54,0.31 0.83,1.06 0.65,1.68 v 0 c -0.18,0.62 -0.77,0.87 -1.31,0.55 z"
         id="path4730"
         inkscape:connector-curvature="0"
         style="fill:#ffffff" /><path
         class="st1"
         d="m 341.26,183.1 -9.74,-5.63 c -0.54,-0.31 -0.83,-1.06 -0.65,-1.68 v 0 c 0.18,-0.61 0.77,-0.86 1.31,-0.55 l 9.74,5.63 c 0.54,0.31 0.83,1.06 0.65,1.68 v 0 c -0.18,0.62 -0.77,0.87 -1.31,0.55 z"
         id="path4732"
         inkscape:connector-curvature="0"
         style="fill:#ffffff" /><path
         class="st1"
         d="m 318.41,158.98 -2.34,-1.35 c -0.54,-0.31 -0.83,-1.06 -0.65,-1.68 v 0 c 0.18,-0.61 0.77,-0.86 1.31,-0.55 l 2.34,1.35 c 0.54,0.31 0.83,1.06 0.65,1.68 v 0 c -0.18,0.61 -0.77,0.86 -1.31,0.55 z"
         id="path4734"
         inkscape:connector-curvature="0"
         style="fill:#ffffff" /><path
         class="st1"
         d="m 316.19,168.63 -2.91,-1.68 c -0.54,-0.31 -0.83,-1.06 -0.65,-1.68 v 0 c 0.18,-0.61 0.77,-0.86 1.31,-0.55 l 2.91,1.68 c 0.54,0.31 0.83,1.06 0.65,1.68 v 0 c -0.18,0.62 -0.76,0.86 -1.31,0.55 z"
         id="path4736"
         inkscape:connector-curvature="0"
         style="fill:#ffffff" /><path
         class="st1"
         d="m 327.51,175.16 -7.67,-4.43 c -0.54,-0.31 -0.83,-1.06 -0.65,-1.68 v 0 c 0.18,-0.61 0.77,-0.86 1.31,-0.55 l 7.67,4.43 c 0.54,0.31 0.83,1.06 0.65,1.68 v 0 c -0.18,0.62 -0.77,0.86 -1.31,0.55 z"
         id="path4738"
         inkscape:connector-curvature="0"
         style="fill:#ffffff" /><path
         class="st1"
         d="m 317.41,174.8 -5.51,-3.18 c -0.54,-0.31 -0.83,-1.06 -0.65,-1.68 v 0 c 0.18,-0.61 0.77,-0.86 1.31,-0.55 l 5.51,3.18 c 0.54,0.31 0.83,1.06 0.65,1.68 v 0 c -0.18,0.62 -0.77,0.86 -1.31,0.55 z"
         id="path4740"
         inkscape:connector-curvature="0"
         style="fill:#ffffff" /><path
         class="st1"
         d="m 349.62,187.95 -3.54,-2.04 c -0.54,-0.31 -0.83,-1.06 -0.65,-1.68 v 0 c 0.18,-0.61 0.77,-0.86 1.31,-0.55 l 3.54,2.04 c 0.54,0.31 0.83,1.06 0.65,1.68 v 0 c -0.18,0.62 -0.77,0.87 -1.31,0.55 z"
         id="path4742"
         inkscape:connector-curvature="0"
         style="fill:#ffffff" /><path
         class="st1"
         d="m 336.07,158.24 -9.74,-5.63 c -0.54,-0.31 -0.83,-1.06 -0.65,-1.68 v 0 c 0.18,-0.61 0.77,-0.86 1.31,-0.55 l 9.74,5.63 c 0.54,0.31 0.83,1.06 0.65,1.68 v 0 c -0.18,0.62 -0.77,0.86 -1.31,0.55 z"
         id="path4744"
         inkscape:connector-curvature="0"
         style="fill:#ffffff" /></g><path
       class="st18"
       d="m 337.22,153.44 -16.98,-9.8 c -0.54,-0.31 -0.83,-1.06 -0.65,-1.68 v 0 c 0.18,-0.61 0.77,-0.86 1.31,-0.55 l 16.98,9.8 c 0.54,0.31 0.83,1.06 0.65,1.68 v 0 c -0.18,0.62 -0.76,0.86 -1.31,0.55 z"
       id="path4748"
       inkscape:connector-curvature="0"
       style="fill:#e8975b" /><path
       class="st18"
       d="m 327.2,158.59 -9.74,-5.63 c -0.54,-0.31 -0.83,-1.06 -0.65,-1.68 v 0 c 0.18,-0.61 0.77,-0.86 1.31,-0.55 l 9.74,5.63 c 0.54,0.31 0.83,1.06 0.65,1.68 v 0 c -0.18,0.61 -0.77,0.86 -1.31,0.55 z"
       id="path4750"
       inkscape:connector-curvature="0"
       style="fill:#e8975b" /><path
       class="st18"
       d="m 343.46,162.51 -3.54,-2.04 c -0.54,-0.31 -0.83,-1.06 -0.65,-1.68 v 0 c 0.18,-0.61 0.77,-0.86 1.31,-0.55 l 3.54,2.04 c 0.54,0.31 0.83,1.06 0.65,1.68 v 0 c -0.18,0.61 -0.77,0.86 -1.31,0.55 z"
       id="path4752"
       inkscape:connector-curvature="0"
       style="fill:#e8975b" /><path
       class="st18"
       d="m 379.47,161.43 -20.96,-12.1 c -0.54,-0.31 -0.83,-1.06 -0.65,-1.68 v 0 c 0.18,-0.61 0.77,-0.86 1.31,-0.55 l 20.96,12.1 c 0.54,0.31 0.83,1.06 0.65,1.68 v 0 c -0.18,0.62 -0.77,0.86 -1.31,0.55 z"
       id="path4754"
       inkscape:connector-curvature="0"
       style="fill:#e8975b" /><path
       class="st19"
       d="m 326.39,169.05 -11.71,-6.76 c -0.54,-0.31 -0.83,-1.06 -0.65,-1.68 v 0 c 0.18,-0.61 0.77,-0.86 1.31,-0.55 l 11.71,6.76 c 0.54,0.31 0.83,1.06 0.65,1.68 v 0 c -0.18,0.62 -0.77,0.86 -1.31,0.55 z"
       id="path4756"
       inkscape:connector-curvature="0"
       style="fill:#f8359e" /><path
       class="st19"
       d="m 328.16,131.8 -8.61,-4.97 c -0.54,-0.31 -0.83,-1.06 -0.65,-1.68 v 0 c 0.18,-0.61 0.77,-0.86 1.31,-0.55 l 8.61,4.97 c 0.54,0.31 0.83,1.06 0.65,1.68 v 0 c -0.18,0.62 -0.77,0.87 -1.31,0.55 z"
       id="path4758"
       inkscape:connector-curvature="0"
       style="fill:#f8359e" /><path
       class="st18"
       d="m 315.61,179.22 -9.97,-5.76 c -0.54,-0.31 -0.83,-1.06 -0.65,-1.68 v 0 c 0.18,-0.61 0.77,-0.86 1.31,-0.55 l 9.97,5.76 c 0.54,0.31 0.83,1.06 0.65,1.68 v 0 c -0.18,0.62 -0.77,0.87 -1.31,0.55 z"
       id="path4760"
       inkscape:connector-curvature="0"
       style="fill:#e8975b" /></g><g
     id="g4772"
     transform="translate(-75.17,-37.55)"><path
       class="st1"
       d="m 381.82,150.65 -4.27,-2.46 c -0.4,-0.23 -0.61,-0.78 -0.47,-1.23 v 0 c 0.13,-0.45 0.56,-0.63 0.96,-0.4 l 4.27,2.46 c 0.4,0.23 0.61,0.78 0.47,1.23 v 0 c -0.13,0.45 -0.56,0.63 -0.96,0.4 z"
       id="path4764"
       inkscape:connector-curvature="0"
       style="fill:#ffffff" /><path
       class="st1"
       d="m 389.97,155.35 -4.27,-2.46 c -0.4,-0.23 -0.61,-0.78 -0.47,-1.23 v 0 c 0.13,-0.45 0.56,-0.63 0.96,-0.4 l 4.27,2.46 c 0.4,0.23 0.61,0.78 0.47,1.23 v 0 c -0.14,0.45 -0.57,0.63 -0.96,0.4 z"
       id="path4766"
       inkscape:connector-curvature="0"
       style="fill:#ffffff" /><path
       class="st1"
       d="m 398.11,160.05 -4.27,-2.46 c -0.4,-0.23 -0.61,-0.78 -0.47,-1.23 v 0 c 0.13,-0.45 0.56,-0.63 0.96,-0.4 l 4.27,2.46 c 0.4,0.23 0.61,0.78 0.47,1.23 v 0 c -0.14,0.45 -0.57,0.63 -0.96,0.4 z"
       id="path4768"
       inkscape:connector-curvature="0"
       style="fill:#ffffff" /><path
       class="st19"
       d="m 402.11,162.36 -0.13,-0.08 c -0.4,-0.23 -0.61,-0.78 -0.47,-1.23 v 0 c 0.13,-0.45 0.56,-0.63 0.96,-0.4 l 0.13,0.08 c 0.4,0.23 0.61,0.78 0.47,1.23 v 0 c -0.13,0.45 -0.56,0.63 -0.96,0.4 z"
       id="path4770"
       inkscape:connector-curvature="0"
       style="fill:#f8359e" /></g><linearGradient
     id="SVGID_12_"
     gradientUnits="userSpaceOnUse"
     x1="143.40961"
     y1="190.2935"
     x2="220.185"
     y2="190.2935"
     gradientTransform="translate(-75.17,-37.55)"><stop
       offset="0"
       style="stop-color:#E39A65"
       id="stop4774" /><stop
       offset="1"
       style="stop-color:#E95F8D"
       id="stop4776" /></linearGradient><path
     class="st20"
     d="m 106.63,174.77 c -2.7,0 -5.4,-0.7 -7.81,-2.09 v 0 L 70.23,156.17 c -1.24,-0.72 -1.98,-2 -1.98,-3.43 0,-1.43 0.74,-2.71 1.98,-3.43 L 98.82,132.8 c 4.82,-2.78 10.81,-2.78 15.63,0 l 28.59,16.51 c 1.24,0.72 1.98,2 1.98,3.43 0,1.43 -0.74,2.71 -1.98,3.43 l -28.59,16.51 c -2.42,1.39 -5.12,2.09 -7.82,2.09 z m -6.89,-3.7 c 4.25,2.45 9.52,2.45 13.77,0 l 28.59,-16.51 c 0.66,-0.38 1.05,-1.06 1.05,-1.82 0,-0.76 -0.39,-1.44 -1.05,-1.82 l -28.59,-16.51 c -4.25,-2.45 -9.52,-2.45 -13.77,0 l -28.59,16.51 c -0.66,0.38 -1.05,1.06 -1.05,1.82 0,0.76 0.39,1.44 1.05,1.82 z"
     id="path4779"
     inkscape:connector-curvature="0"
     style="fill:url(#SVGID_12_)" /><g
     id="g4922"
     transform="translate(-75.17,-37.55)"><ellipse
       class="st5"
       cx="181.64999"
       cy="190.67999"
       rx="19.639999"
       ry="11.34"
       id="ellipse4781"
       style="opacity:0.6;fill:#020230" /><radialGradient
       id="SVGID_13_"
       cx="150.2162"
       cy="127.668"
       r="165.349"
       gradientUnits="userSpaceOnUse"><stop
         offset="0"
         style="stop-color:#E39A65"
         id="stop4783" /><stop
         offset="0.1528"
         style="stop-color:#A92FFB"
         id="stop4785" /><stop
         offset="0.4087"
         style="stop-color:#3919BB"
         id="stop4787" /><stop
         offset="0.9311"
         style="stop-color:#3919BB"
         id="stop4789" /></radialGradient><path
       class="st21"
       d="m 210.77,109.86 h -55.94 l 5.2,60.57 v 0 c 0,3.36 2.22,6.73 6.67,9.29 8.89,5.13 23.31,5.13 32.2,0 4.45,-2.57 6.67,-5.93 6.67,-9.3 z"
       id="path4792"
       inkscape:connector-curvature="0"
       style="fill:url(#SVGID_13_)" /><path
       class="st14"
       d="m 210.77,109.86 h -55.94 l 0.86,9.96 c 1.28,1.64 3.01,3.22 5.18,4.66 10.69,7.09 28.33,8.46 40.36,3.35 l -1.86,44.3 c -0.08,1.93 -0.75,3.81 -2,5.28 -1.81,2.13 -5.3,4.64 -12.01,6.06 4.95,-0.32 9.75,-1.57 13.54,-3.76 4.45,-2.57 6.67,-5.93 6.67,-9.3 l 4.17,-48.57 v 0 z"
       id="path4794"
       inkscape:connector-curvature="0"
       style="opacity:0.4;fill:#06033e" /><ellipse
       class="st14"
       cx="182.8"
       cy="109.86"
       rx="27.969999"
       ry="16.15"
       id="ellipse4796"
       style="opacity:0.4;fill:#06033e" /><ellipse
       class="st14"
       cx="182.8"
       cy="104.17"
       rx="24.09"
       ry="13.91"
       id="ellipse4798"
       style="opacity:0.4;fill:#06033e" /><linearGradient
       id="SVGID_14_"
       gradientUnits="userSpaceOnUse"
       x1="153.14259"
       y1="107.1846"
       x2="212.452"
       y2="107.1846"><stop
         offset="0"
         style="stop-color:#E39A65"
         id="stop4800" /><stop
         offset="0.252"
         style="stop-color:#A92FFB"
         id="stop4802" /><stop
         offset="0.5556"
         style="stop-color:#3919BB"
         id="stop4804" /></linearGradient><path
       class="st22"
       d="m 212.42,109.1 v 0 -0.05 c 0,-0.03 -0.01,-0.06 -0.01,-0.08 l -0.54,-5.42 -0.02,0.06 c -0.24,-4.1 -3.07,-8.17 -8.49,-11.3 -11.36,-6.56 -29.77,-6.56 -41.13,0 -5.56,3.21 -8.39,7.4 -8.51,11.61 l -0.01,-0.01 -0.51,4.83 c -0.01,0.13 -0.03,0.25 -0.04,0.38 l -0.01,0.08 h 0.01 c -0.31,4.6 2.58,9.26 8.66,12.77 11.58,6.69 30.36,6.69 41.94,0 6.13,-3.54 9.01,-8.24 8.66,-12.87 z"
       id="path4807"
       inkscape:connector-curvature="0"
       style="fill:url(#SVGID_14_)" /><linearGradient
       id="SVGID_15_"
       gradientUnits="userSpaceOnUse"
       x1="158.7038"
       y1="104.171"
       x2="206.88811"
       y2="104.171"><stop
         offset="0"
         style="stop-color:#4F1FEC"
         id="stop4809" /><stop
         offset="1"
         style="stop-color:#A92FFB"
         id="stop4811" /></linearGradient><ellipse
       class="st23"
       cx="182.8"
       cy="104.17"
       rx="24.09"
       ry="13.91"
       id="ellipse4814"
       style="fill:url(#SVGID_15_)" /><linearGradient
       id="SVGID_16_"
       gradientUnits="userSpaceOnUse"
       x1="157.56059"
       y1="104.171"
       x2="205.7449"
       y2="104.171"><stop
         offset="0"
         style="stop-color:#4F1FEC"
         id="stop4816" /><stop
         offset="1"
         style="stop-color:#A92FFB"
         id="stop4818" /></linearGradient><ellipse
       class="st24"
       cx="181.64999"
       cy="104.17"
       rx="24.09"
       ry="13.91"
       id="ellipse4821"
       style="fill:url(#SVGID_16_)" /><path
       class="st14"
       d="m 168.62,96.41 c 9.41,-5.43 24.66,-5.43 34.07,0 0.12,0.07 0.22,0.14 0.34,0.22 -0.91,-0.81 -1.97,-1.58 -3.19,-2.29 -9.41,-5.43 -24.66,-5.43 -34.07,0 -9.29,5.36 -9.39,14.01 -0.34,19.46 -6.05,-5.4 -4.99,-12.67 3.19,-17.39 z"
       id="path4823"
       inkscape:connector-curvature="0"
       style="opacity:0.4;fill:#06033e" /><linearGradient
       id="SVGID_17_"
       gradientUnits="userSpaceOnUse"
       x1="158.70779"
       y1="97.82"
       x2="219.46001"
       y2="97.82"><stop
         offset="0"
         style="stop-color:#131060"
         id="stop4825" /><stop
         offset="0.1857"
         style="stop-color:#141062"
         id="stop4827" /><stop
         offset="0.2823"
         style="stop-color:#19106A"
         id="stop4829" /><stop
         offset="0.3584"
         style="stop-color:#221078"
         id="stop4831" /><stop
         offset="0.4238"
         style="stop-color:#2E0F8B"
         id="stop4833" /><stop
         offset="0.4823"
         style="stop-color:#3E0FA3"
         id="stop4835" /><stop
         offset="0.5359"
         style="stop-color:#510EC2"
         id="stop4837" /><stop
         offset="0.5847"
         style="stop-color:#680DE5"
         id="stop4839" /><stop
         offset="0.6071"
         style="stop-color:#740DF8"
         id="stop4841" /><stop
         offset="0.6179"
         style="stop-color:#7A14F0"
         id="stop4843" /><stop
         offset="0.6826"
         style="stop-color:#9B3CC3"
         id="stop4845" /><stop
         offset="0.7477"
         style="stop-color:#B75D9D"
         id="stop4847" /><stop
         offset="0.8123"
         style="stop-color:#CC7680"
         id="stop4849" /><stop
         offset="0.8762"
         style="stop-color:#DC886C"
         id="stop4851" /><stop
         offset="0.9391"
         style="stop-color:#E5935F"
         id="stop4853" /><stop
         offset="1"
         style="stop-color:#E8975B"
         id="stop4855" /></linearGradient><path
       class="st25"
       d="m 165.76,96.75 c 9.41,-5.43 24.66,-5.43 34.07,0 4.17,2.41 6.49,5.48 6.96,8.63 0.59,-3.95 -1.73,-8.02 -6.96,-11.04 -9.41,-5.43 -24.66,-5.43 -34.07,0 -5.24,3.02 -7.55,7.09 -6.96,11.04 0.47,-3.15 2.79,-6.22 6.96,-8.63 z"
       id="path4858"
       inkscape:connector-curvature="0"
       style="fill:url(#SVGID_17_)" /><radialGradient
       id="SVGID_18_"
       cx="145.7399"
       cy="90.404503"
       r="108.1645"
       gradientUnits="userSpaceOnUse"><stop
         offset="0"
         style="stop-color:#E39A65"
         id="stop4860" /><stop
         offset="0.252"
         style="stop-color:#A92FFB"
         id="stop4862" /><stop
         offset="0.7357"
         style="stop-color:#3919BB"
         id="stop4864" /></radialGradient><path
       class="st26"
       d="m 203.54,92.44 c -11.34,-6.68 -29.82,-6.84 -41.28,-0.36 -11.46,6.48 -11.55,17.15 -0.21,23.83 11.34,6.68 29.82,6.84 41.28,0.36 11.46,-6.48 11.55,-17.15 0.21,-23.83 z m -3.71,21.57 c -3.14,1.81 -6.94,3.01 -10.96,3.61 l -0.44,-1.44 c -0.18,-0.58 -0.71,-0.98 -1.32,-0.98 h -8.65 c -0.61,0 -1.14,0.4 -1.32,0.98 l -0.44,1.44 c -4.01,-0.6 -7.81,-1.8 -10.95,-3.61 -9.41,-5.43 -9.41,-14.24 0,-19.67 9.41,-5.43 24.66,-5.43 34.07,0 9.42,5.43 9.42,14.23 0.01,19.67 z"
       id="path4867"
       inkscape:connector-curvature="0"
       style="fill:url(#SVGID_18_)" /><g
       id="g4873"><path
         class="st1"
         d="m 199.83,93.31 c -9.41,-5.43 -24.66,-5.43 -34.07,0 -4.93,2.85 -7.27,6.62 -7.03,10.35 0.22,-3.39 2.56,-6.74 7.03,-9.32 9.41,-5.43 24.66,-5.43 34.07,0 4.48,2.58 6.82,5.93 7.04,9.32 0.23,-3.73 -2.11,-7.51 -7.04,-10.35 z"
         id="path4869"
         inkscape:connector-curvature="0"
         style="fill:#ffffff" /><path
         class="st1"
         d="m 203.33,115.24 c -11.46,6.48 -29.94,6.32 -41.28,-0.36 -5.4,-3.18 -8.2,-7.26 -8.42,-11.37 -0.22,4.45 2.58,8.95 8.42,12.4 11.34,6.68 29.82,6.84 41.28,0.36 6,-3.4 8.88,-7.94 8.63,-12.46 -0.21,4.17 -3.08,8.29 -8.63,11.43 z"
         id="path4871"
         inkscape:connector-curvature="0"
         style="fill:#ffffff" /></g><path
       class="st27"
       d="m 185.38,118.37 h -5.17 c -0.36,0 -0.65,-0.29 -0.65,-0.65 v -0.09 c 0,-0.36 0.29,-0.65 0.65,-0.65 h 5.17 c 0.36,0 0.65,0.29 0.65,0.65 v 0.09 c 0,0.35 -0.29,0.65 -0.65,0.65 z"
       id="path4875"
       inkscape:connector-curvature="0"
       style="fill:#0c0a78" /><linearGradient
       id="SVGID_19_"
       gradientUnits="userSpaceOnUse"
       x1="178.9827"
       y1="117.4271"
       x2="187.3873"
       y2="117.4271"><stop
         offset="0"
         style="stop-color:#131060"
         id="stop4877" /><stop
         offset="0.1857"
         style="stop-color:#141062"
         id="stop4879" /><stop
         offset="0.2823"
         style="stop-color:#19106A"
         id="stop4881" /><stop
         offset="0.3584"
         style="stop-color:#221078"
         id="stop4883" /><stop
         offset="0.4238"
         style="stop-color:#2E0F8B"
         id="stop4885" /><stop
         offset="0.4823"
         style="stop-color:#3E0FA3"
         id="stop4887" /><stop
         offset="0.5359"
         style="stop-color:#510EC2"
         id="stop4889" /><stop
         offset="0.5847"
         style="stop-color:#680DE5"
         id="stop4891" /><stop
         offset="0.6071"
         style="stop-color:#740DF8"
         id="stop4893" /><stop
         offset="0.6179"
         style="stop-color:#7A14F0"
         id="stop4895" /><stop
         offset="0.6826"
         style="stop-color:#9B3CC3"
         id="stop4897" /><stop
         offset="0.7477"
         style="stop-color:#B75D9D"
         id="stop4899" /><stop
         offset="0.8123"
         style="stop-color:#CC7680"
         id="stop4901" /><stop
         offset="0.8762"
         style="stop-color:#DC886C"
         id="stop4903" /><stop
         offset="0.9391"
         style="stop-color:#E5935F"
         id="stop4905" /><stop
         offset="1"
         style="stop-color:#E8975B"
         id="stop4907" /></linearGradient><path
       class="st28"
       d="m 185.38,116.97 h -5.17 c -0.36,0 -0.65,0.29 -0.65,0.65 v 0.09 c 0,0.06 0.02,0.12 0.04,0.17 0.08,-0.27 0.32,-0.48 0.62,-0.48 h 5.17 c 0.3,0 0.54,0.21 0.62,0.48 0.02,-0.06 0.04,-0.11 0.04,-0.17 v -0.09 c -0.02,-0.36 -0.31,-0.65 -0.67,-0.65 z"
       id="path4910"
       inkscape:connector-curvature="0"
       style="fill:url(#SVGID_19_)" /><g
       id="g4920"><path
         class="st18"
         d="m 183.59,164.21 c -0.63,2.39 -3.08,3.8 -5.47,3.17 -2.39,-0.63 -3.8,-3.08 -3.17,-5.47 0.63,-2.39 2.88,-3.06 5.27,-2.43 2.38,0.64 4,2.35 3.37,4.73 z"
         id="path4912"
         inkscape:connector-curvature="0"
         style="fill:#e8975b" /><path
         class="st18"
         d="m 187.11,159.5 c -0.9,0.88 -2.05,0.77 -2.81,-0.02 -0.76,-0.78 -0.85,-1.93 0.05,-2.81 0.9,-0.88 2.61,-1.31 3.37,-0.53 0.76,0.78 0.29,2.48 -0.61,3.36 z"
         id="path4914"
         inkscape:connector-curvature="0"
         style="fill:#e8975b" /><path
         class="st18"
         d="m 182.43,155.76 c -0.22,1.24 -1.22,1.82 -2.3,1.62 -1.08,-0.19 -1.82,-1.08 -1.6,-2.32 0.22,-1.24 1.36,-2.59 2.44,-2.39 1.08,0.2 1.68,1.85 1.46,3.09 z"
         id="path4916"
         inkscape:connector-curvature="0"
         style="fill:#e8975b" /><path
         class="st18"
         d="m 176.67,155.19 c 0.48,1.16 -0.06,2.19 -1.07,2.6 -1.01,0.42 -2.11,0.07 -2.59,-1.1 -0.48,-1.16 -0.24,-2.91 0.77,-3.33 1.01,-0.41 2.41,0.67 2.89,1.83 z"
         id="path4918"
         inkscape:connector-curvature="0"
         style="fill:#e8975b" /></g></g><path
     class="st29"
     d="m 109.46,80.12 c 0,0 15.64,-5.24 9.31,-23.21 -6.33,-17.97 -18.66,-23.45 -13.7,-37.82 0,0 -7.78,11.64 -0.51,27.38 7.27,15.75 8.87,13.94 8.78,21.47 -0.1,8.95 -7.33,12.18 -7.33,12.18 z"
     id="path4924"
     inkscape:connector-curvature="0"
     style="opacity:0.5;fill:#ffffff" /><path
     class="st29"
     d="m 110.86,21.58 c 0,0 -1.63,-10.75 8.46,-21.58 0,0 -8.92,19.92 -6,29.75 0,0 -2.36,-6.25 -2.46,-8.17 z"
     id="path4926"
     inkscape:connector-curvature="0"
     style="opacity:0.5;fill:#ffffff" /></svg>