<?xml version="1.0" encoding="UTF-8" standalone="no"?>
<!-- Created with Inkscape (http://www.inkscape.org/) -->

<svg
   xmlns:dc="http://purl.org/dc/elements/1.1/"
   xmlns:cc="http://creativecommons.org/ns#"
   xmlns:rdf="http://www.w3.org/1999/02/22-rdf-syntax-ns#"
   xmlns:svg="http://www.w3.org/2000/svg"
   xmlns="http://www.w3.org/2000/svg"
   xmlns:sodipodi="http://sodipodi.sourceforge.net/DTD/sodipodi-0.dtd"
   xmlns:inkscape="http://www.inkscape.org/namespaces/inkscape"
   version="1.1"
   id="svg815"
   xml:space="preserve"
   width="666.66669"
   height="666.66669"
   viewBox="0 0 666.66669 666.66669"
   sodipodi:docname="bg_6.svg"
   inkscape:version="0.92.2 (5c3e80d, 2017-08-06)"><metadata
     id="metadata821"><rdf:RDF><cc:Work
         rdf:about=""><dc:format>image/svg+xml</dc:format><dc:type
           rdf:resource="http://purl.org/dc/dcmitype/StillImage" /><dc:title></dc:title></cc:Work></rdf:RDF></metadata><defs
     id="defs819"><clipPath
       clipPathUnits="userSpaceOnUse"
       id="clipPath845"><path
         d="M 0,500 H 500 V 0 H 0 Z"
         id="path843"
         inkscape:connector-curvature="0" /></clipPath><clipPath
       clipPathUnits="userSpaceOnUse"
       id="clipPath869"><path
         d="M 0,500 H 500 V 0 H 0 Z"
         id="path867"
         inkscape:connector-curvature="0" /></clipPath><clipPath
       clipPathUnits="userSpaceOnUse"
       id="clipPath977"><path
         d="M 174.667,158 264,96 481,127 c 0,0 -26.667,121.333 -24,120.667 v 0 C 459.667,247 367,331 367,331 v 0 l -139.333,82 z"
         id="path975"
         inkscape:connector-curvature="0" /></clipPath><linearGradient
       x1="0"
       y1="0"
       x2="1"
       y2="0"
       gradientUnits="userSpaceOnUse"
       gradientTransform="matrix(117.33334,140,140,-117.33334,219.31311,108.89632)"
       spreadMethod="pad"
       id="linearGradient991"><stop
         style="stop-opacity:0.50000763;stop-color:#ffffff"
         offset="0"
         id="stop987" /><stop
         style="stop-opacity:0;stop-color:#ffffff"
         offset="1"
         id="stop989" /></linearGradient><mask
       maskUnits="userSpaceOnUse"
       x="0"
       y="0"
       width="1"
       height="1"
       id="mask993"><g
         id="g1003"><g
           id="g1001"><g
             id="g999"><g
               id="g997"><path
                 d="M -32768,32767 H 32767 V -32768 H -32768 Z"
                 style="fill:url(#linearGradient991);stroke:none"
                 id="path995"
                 inkscape:connector-curvature="0" /></g></g></g></g></mask><linearGradient
       x1="0"
       y1="0"
       x2="1"
       y2="0"
       gradientUnits="userSpaceOnUse"
       gradientTransform="matrix(117.33334,140,140,-117.33334,219.31311,108.89632)"
       spreadMethod="pad"
       id="linearGradient1013"><stop
         style="stop-opacity:1;stop-color:#50ffff"
         offset="0"
         id="stop1009" /><stop
         style="stop-opacity:1;stop-color:#50fdfd"
         offset="1"
         id="stop1011" /></linearGradient><clipPath
       clipPathUnits="userSpaceOnUse"
       id="clipPath1023"><path
         d="M 0,500 H 500 V 0 H 0 Z"
         id="path1021"
         inkscape:connector-curvature="0" /></clipPath><clipPath
       clipPathUnits="userSpaceOnUse"
       id="clipPath1131"><path
         d="M 0,500 H 500 V 0 H 0 Z"
         id="path1129"
         inkscape:connector-curvature="0" /></clipPath><clipPath
       clipPathUnits="userSpaceOnUse"
       id="clipPath1167"><path
         d="M 0,500 H 500 V 0 H 0 Z"
         id="path1165"
         inkscape:connector-curvature="0" /></clipPath></defs><sodipodi:namedview
     pagecolor="#ffffff"
     bordercolor="#666666"
     borderopacity="1"
     objecttolerance="10"
     gridtolerance="10"
     guidetolerance="10"
     inkscape:pageopacity="0"
     inkscape:pageshadow="2"
     inkscape:window-width="1920"
     inkscape:window-height="1017"
     id="namedview817"
     showgrid="false"
     inkscape:zoom="1.272"
     inkscape:cx="357.54863"
     inkscape:cy="322.42067"
     inkscape:window-x="-8"
     inkscape:window-y="-8"
     inkscape:window-maximized="1"
     inkscape:current-layer="g935" /><g
     id="g823"
     inkscape:groupmode="layer"
     inkscape:label="455036-PFLGX1-480"
     transform="matrix(1.3333333,0,0,-1.3333333,0,666.66667)"><path
       d="m 449.667,164.333 h -398 v 239.333 h 398 z"
       style="fill:#29004f;fill-opacity:1;fill-rule:nonzero;stroke:none"
       id="path827"
       inkscape:connector-curvature="0" /><path
       d="M 306.784,174.295 H 191.263 v 42.736 h 115.521 z"
       style="fill:#35006d;fill-opacity:1;fill-rule:nonzero;stroke:none"
       id="path829"
       inkscape:connector-curvature="0" /><path
       d="M 178.126,174.295 H 62.605 v 42.736 h 115.521 z"
       style="fill:#35006d;fill-opacity:1;fill-rule:nonzero;stroke:none"
       id="path831"
       inkscape:connector-curvature="0" /><path
       d="M 435.441,174.295 H 319.92 v 42.736 h 115.521 z"
       style="fill:#35006d;fill-opacity:1;fill-rule:nonzero;stroke:none"
       id="path833"
       inkscape:connector-curvature="0" /><path
       d="M 434.5,234 H 63 v 114.5 h 371.5 z"
       style="fill:#35006d;fill-opacity:1;fill-rule:nonzero;stroke:none"
       id="path835"
       inkscape:connector-curvature="0" /><path
       d="m 449.667,389 h -398 v 14.667 h 398 z"
       style="fill:#35006d;fill-opacity:1;fill-rule:nonzero;stroke:none"
       id="path837"
       inkscape:connector-curvature="0" /><g
       id="g839"><g
         id="g841"
         clip-path="url(#clipPath845)"><g
           id="g847"
           transform="translate(62.6665,395.5)"><path
             d="m 0,0 c 0,-1.565 -1.269,-2.833 -2.833,-2.833 -1.565,0 -2.834,1.268 -2.834,2.833 0,1.565 1.269,2.833 2.834,2.833 C -1.269,2.833 0,1.565 0,0"
             style="fill:#4b0cb4;fill-opacity:1;fill-rule:nonzero;stroke:none"
             id="path849"
             inkscape:connector-curvature="0" /></g><g
           id="g851"
           transform="translate(74.3335,395.5)"><path
             d="m 0,0 c 0,-1.565 -1.269,-2.833 -2.833,-2.833 -1.565,0 -2.834,1.268 -2.834,2.833 0,1.565 1.269,2.833 2.834,2.833 C -1.269,2.833 0,1.565 0,0"
             style="fill:#4b0cb4;fill-opacity:1;fill-rule:nonzero;stroke:none"
             id="path853"
             inkscape:connector-curvature="0" /></g><g
           id="g855"
           transform="translate(86,395.5)"><path
             d="m 0,0 c 0,-1.565 -1.269,-2.833 -2.833,-2.833 -1.565,0 -2.834,1.268 -2.834,2.833 0,1.565 1.269,2.833 2.834,2.833 C -1.269,2.833 0,1.565 0,0"
             style="fill:#4b0cb4;fill-opacity:1;fill-rule:nonzero;stroke:none"
             id="path857"
             inkscape:connector-curvature="0" /></g></g></g><text
       transform="matrix(1,0,0,-1,229.2935,373.6665)"
       style="font-variant:normal;font-weight:100;font-stretch:normal;font-size:5px;font-family:'Zing Sans Rust L Demo Base';-inkscape-font-specification:ZingSansRustLDemo-Base;writing-mode:lr-tb;fill:#ffffff;fill-opacity:1;fill-rule:nonzero;stroke:none"
       id="text861"><tspan
         x="0 3.9449999 8.085 12.72 30.26 33.654999 37.215 41.355 45.174999 48.240002 49.68 53.5 65.75 69.165001 72.574997 76.714996 80.605003 84.425003 88.029999 91.009499 105.395 108.6345 112.7745 117.4095 120.7695 122.2095 125.2745 129.2195 130.5295 134.47951 138.36951 151.17 154.67999 158.82001 162.77 165.39 168.66499 172.27 175.33501 176.77499 180.595"
         y="0"
         sodipodi:role="line"
         id="tspan859">HOMEABOUT USproductssome thingsCONTACT US</tspan></text>
<g
       id="g863"><g
         id="g865"
         clip-path="url(#clipPath869)"><g
           id="g871"
           transform="translate(61,380.5)"><path
             d="M 0,0 H 9.5"
             style="fill:none;stroke:#ffffff;stroke-width:0.82599998;stroke-linecap:butt;stroke-linejoin:miter;stroke-miterlimit:10;stroke-dasharray:none;stroke-opacity:1"
             id="path873"
             inkscape:connector-curvature="0" /></g><g
           id="g875"
           transform="translate(61,377.1958)"><path
             d="M 0,0 H 9.5"
             style="fill:none;stroke:#ffffff;stroke-width:0.82599998;stroke-linecap:butt;stroke-linejoin:miter;stroke-miterlimit:10;stroke-dasharray:none;stroke-opacity:1"
             id="path877"
             inkscape:connector-curvature="0" /></g><g
           id="g879"
           transform="translate(61,373.8911)"><path
             d="M 0,0 H 9.5"
             style="fill:none;stroke:#ffffff;stroke-width:0.82599998;stroke-linecap:butt;stroke-linejoin:miter;stroke-miterlimit:10;stroke-dasharray:none;stroke-opacity:1"
             id="path881"
             inkscape:connector-curvature="0" /></g><g
           id="g883"
           transform="translate(435.0957,374.9521)"><path
             d="m 0,0 c 0,-2.512 -2.036,-4.548 -4.548,-4.548 -2.512,0 -4.548,2.036 -4.548,4.548 0,2.512 2.036,4.548 4.548,4.548 C -2.036,4.548 0,2.512 0,0 Z"
             style="fill:none;stroke:#ffffff;stroke-width:0.68300003;stroke-linecap:butt;stroke-linejoin:miter;stroke-miterlimit:10;stroke-dasharray:none;stroke-opacity:1"
             id="path885"
             inkscape:connector-curvature="0" /></g><g
           id="g887"
           transform="translate(433.9238,371.9287)"><path
             d="M 0,0 2.264,-2.264"
             style="fill:none;stroke:#ffffff;stroke-width:0.68300003;stroke-linecap:butt;stroke-linejoin:miter;stroke-miterlimit:10;stroke-dasharray:none;stroke-opacity:1"
             id="path889"
             inkscape:connector-curvature="0" /></g><g
           id="g891"
           transform="translate(69.1665,226)"><path
             d="m 0,0 c 0,-1.564 -1.269,-2.833 -2.833,-2.833 -1.565,0 -2.834,1.269 -2.834,2.833 0,1.564 1.269,2.833 2.834,2.833 C -1.269,2.833 0,1.564 0,0"
             style="fill:#ffffff;fill-opacity:1;fill-rule:nonzero;stroke:none"
             id="path893"
             inkscape:connector-curvature="0" /></g><g
           id="g895"
           transform="translate(80.8335,226)"><path
             d="m 0,0 c 0,-1.564 -1.269,-2.833 -2.833,-2.833 -1.565,0 -2.834,1.269 -2.834,2.833 0,1.564 1.269,2.833 2.834,2.833 C -1.269,2.833 0,1.564 0,0"
             style="fill:#4b0cb4;fill-opacity:1;fill-rule:nonzero;stroke:none"
             id="path897"
             inkscape:connector-curvature="0" /></g><g
           id="g899"
           transform="translate(92.5,226)"><path
             d="m 0,0 c 0,-1.564 -1.269,-2.833 -2.833,-2.833 -1.565,0 -2.834,1.269 -2.834,2.833 0,1.564 1.269,2.833 2.834,2.833 C -1.269,2.833 0,1.564 0,0"
             style="fill:#4b0cb4;fill-opacity:1;fill-rule:nonzero;stroke:none"
             id="path901"
             inkscape:connector-curvature="0" /></g><g
           id="g903"
           transform="translate(77,298)"><path
             d="m 0,0 -8,-8 8.5,-8.5"
             style="fill:none;stroke:#ffffff;stroke-width:1;stroke-linecap:butt;stroke-linejoin:miter;stroke-miterlimit:10;stroke-dasharray:none;stroke-opacity:1"
             id="path905"
             inkscape:connector-curvature="0" /></g><g
           id="g907"
           transform="translate(420,281.5)"><path
             d="m 0,0 8,8 -8.5,8.5"
             style="fill:none;stroke:#ffffff;stroke-width:1;stroke-linecap:butt;stroke-linejoin:miter;stroke-miterlimit:10;stroke-dasharray:none;stroke-opacity:1"
             id="path909"
             inkscape:connector-curvature="0" /></g><g
           id="g911"
           transform="translate(234,261.8335)"><path
             d="M 0,0 C 0,0 3.333,9 4.833,12 15,15.5 39.833,19.167 43.5,7.667 47.167,-3.833 36.667,-25 36.667,-25 c 0,0 -13.167,-4.833 -13.334,-4.333 C 23.167,-28.833 0,0 0,0"
             style="fill:#f63a07;fill-opacity:1;fill-rule:nonzero;stroke:none"
             id="path913"
             inkscape:connector-curvature="0" /></g><g
           id="g915"
           transform="translate(227.6665,237.833)"><path
             d="M 0,0 C 0,0 -2.833,4.834 -6.333,3 -9.833,1.167 -7.5,-3.833 -6.167,-5 -4.833,-6.166 -1.5,-6.666 -1.5,-6.666 Z"
             style="fill:#f488cf;fill-opacity:1;fill-rule:nonzero;stroke:none"
             id="path917"
             inkscape:connector-curvature="0" /></g><g
           id="g919"
           transform="translate(222,238)"><path
             d="M 0,0 C 0.866,0.435 1.962,0.176 2.716,-0.448 3.461,-1.096 3.88,-2.061 3.75,-3 3.413,-2.652 3.164,-2.318 2.892,-2.021 2.627,-1.719 2.357,-1.455 2.074,-1.215 1.797,-0.964 1.481,-0.769 1.146,-0.564 0.804,-0.368 0.436,-0.189 0,0"
             style="fill:#d62b91;fill-opacity:1;fill-rule:nonzero;stroke:none"
             id="path921"
             inkscape:connector-curvature="0" /></g><g
           id="g923"
           transform="translate(409,59.75)"><path
             d="m 0,0 c 0,-7.87 -73.761,-14.25 -164.75,-14.25 -90.989,0 -164.75,6.38 -164.75,14.25 0,7.87 73.761,14.25 164.75,14.25 C -73.761,14.25 0,7.87 0,0"
             style="fill:#f63a07;fill-opacity:1;fill-rule:nonzero;stroke:none"
             id="path925"
             inkscape:connector-curvature="0" /></g><g
           id="g927"
           transform="translate(378.167,60.75)"><path
             d="m 0,0 c 0,-6.029 -59.957,-10.917 -133.917,-10.917 -73.96,0 -133.916,4.888 -133.916,10.917 0,6.029 59.956,10.917 133.916,10.917 C -59.957,10.917 0,6.029 0,0"
             style="fill:#c62c09;fill-opacity:1;fill-rule:nonzero;stroke:none"
             id="path929"
             inkscape:connector-curvature="0" /></g><g
           id="g931"
           transform="translate(171.6665,107)"><path
             d="m 0,0 c -1.333,0 -37.333,4.333 -46,-5 -8.667,-9.333 -4.333,-27 24.667,-32 29,-5 47.333,-5 47.333,-5 l 0.667,-3.333 c 0,0 82.333,-3 103.333,-3 21,0 35.333,11.666 35.667,26 C 166,-8 153.333,0.333 137,-0.667 120.667,-1.667 0,0 0,0"
             style="fill:#1a0035;fill-opacity:1;fill-rule:nonzero;stroke:none"
             id="path933"
             inkscape:connector-curvature="0" /></g><g
           id="g935"
           transform="translate(263.333,192)"><path
             d="M 0,0 C 0,0 25.667,-13 45.667,-44 65.667,-75 60,-91 60,-91 l -82.667,-2 c 0,0 -41.666,2 -42.666,2 -1,0 -48.334,9 -48.334,9 0,0 0,18.667 31.667,44.333 31.667,25.667 67.667,40 67.667,40 z"
             style="fill:#86f2a9;fill-opacity:1;fill-rule:nonzero;stroke:none"
             id="path937"
             inkscape:connector-curvature="0" /></g><g
           id="g939"
           transform="translate(252.25,198)"><path
             d="M 0,0 C 0,0 -8,-1.25 -6.5,-4.5 -5,-7.75 3.25,-10.5 7,-10.25 10.75,-10 19.5,-5 4.75,0 Z"
             style="fill:#66d886;fill-opacity:1;fill-rule:nonzero;stroke:none"
             id="path941"
             inkscape:connector-curvature="0" /></g><g
           id="g943"
           transform="translate(253.25,216.5)"><path
             d="m 0,0 -1.75,-21 c 0,0 3.5,-2 6.5,0 C 5,-10.25 4.5,1.5 4.5,1.5 Z"
             style="fill:#e56ec1;fill-opacity:1;fill-rule:nonzero;stroke:none"
             id="path945"
             inkscape:connector-curvature="0" /></g><g
           id="g947"
           transform="translate(234,261.8335)"><path
             d="m 0,0 c 0,0 -9.167,-27.833 -10.667,-37.167 -1.5,-9.333 8.667,-11.666 14,-12.666 5.334,-1 21.167,0.333 26,9.166 4.834,8.834 4.334,9.834 4.334,9.834 0,0 2.5,-3 6,-1 3.5,2 3.666,5 2.666,7.833 -1,2.833 -5.833,2.667 -9,-0.167 0.167,4 0.334,11 0.334,13.5 C 27.333,-6 12.333,0.5 0,0"
             style="fill:#f488cf;fill-opacity:1;fill-rule:nonzero;stroke:none"
             id="path949"
             inkscape:connector-curvature="0" /></g><g
           id="g951"
           transform="translate(226.75,238)"><path
             d="M 0,0 C -0.125,-1.138 -0.395,-2.233 -0.697,-3.319 -1.019,-4.4 -1.374,-5.471 -1.875,-6.5 c 0.124,1.138 0.394,2.233 0.697,3.319 C -0.855,-2.101 -0.5,-1.029 0,0"
             style="fill:#d62b91;fill-opacity:1;fill-rule:nonzero;stroke:none"
             id="path953"
             inkscape:connector-curvature="0" /></g><g
           id="g955"
           transform="translate(252,108.667)"><path
             d="m 0,0 c 3.142,3.639 6.673,6.937 10.414,9.975 3.754,3.022 7.794,5.714 12.118,7.903 4.345,2.096 9.046,3.73 13.944,3.884 2.43,0.076 4.895,-0.185 7.205,-0.959 2.301,-0.782 4.446,-1.963 6.319,-3.47 -3.973,2.703 -8.762,4.072 -13.487,3.66 -2.355,-0.18 -4.69,-0.615 -6.956,-1.312 C 27.296,18.964 25.103,18.039 22.974,16.982 18.689,14.907 14.705,12.237 10.885,9.371 8.974,7.936 7.117,6.424 5.308,4.854 3.479,3.306 1.719,1.677 0,0"
             style="fill:#3fc966;fill-opacity:1;fill-rule:nonzero;stroke:none"
             id="path957"
             inkscape:connector-curvature="0" /></g><g
           id="g959"
           transform="translate(283.667,129.667)"><path
             d="M 0,0 C -0.595,1.175 -1.138,2.37 -1.716,3.55 L -3.365,7.124 -6.604,14.291 -13,28.666 c 1.438,-2.206 2.695,-4.52 3.906,-6.854 1.221,-2.332 2.318,-4.72 3.403,-7.114 1.06,-2.404 2.087,-4.822 3.031,-7.275 C -1.71,4.973 -0.79,2.512 0,0"
             style="fill:#3fc966;fill-opacity:1;fill-rule:nonzero;stroke:none"
             id="path961"
             inkscape:connector-curvature="0" /></g><g
           id="g963"
           transform="translate(171.3335,128.333)"><path
             d="m 0,0 c 1.111,0.639 2.344,1.045 3.593,1.372 1.263,0.26 2.561,0.428 3.865,0.386 2.616,-0.038 5.206,-0.854 7.458,-2.195 2.249,-1.377 4.06,-3.311 5.588,-5.39 0.717,-1.072 1.348,-2.2 1.996,-3.304 0.502,-1.185 1.032,-2.35 1.5,-3.535 -0.675,1.091 -1.287,2.202 -1.927,3.293 -0.724,1.037 -1.414,2.097 -2.184,3.084 -0.421,0.467 -0.836,0.935 -1.241,1.41 -0.209,0.232 -0.397,0.484 -0.623,0.698 l -0.698,0.62 c -0.474,0.4 -0.895,0.867 -1.401,1.223 L 14.395,-1.29 C 12.284,-0.01 9.895,0.776 7.42,0.992 4.944,1.209 2.4,0.853 0,0"
             style="fill:#3fc966;fill-opacity:1;fill-rule:nonzero;stroke:none"
             id="path965"
             inkscape:connector-curvature="0" /></g><g
           id="g967"
           transform="translate(230,173.333)"><path
             d="m 0,0 c -0.991,-2.023 -2.075,-3.99 -3.173,-5.948 -1.089,-1.965 -2.244,-3.888 -3.4,-5.812 -1.177,-1.91 -2.354,-3.82 -3.598,-5.689 l -1.87,-2.803 C -12.695,-21.167 -13.32,-22.101 -14,-23 c 0.486,1.018 1.028,2.001 1.541,3.003 l 1.63,2.947 c 1.09,1.964 2.245,3.888 3.402,5.81 1.177,1.91 2.355,3.82 3.6,5.689 C -2.592,-3.676 -1.343,-1.81 0,0"
             style="fill:#3fc966;fill-opacity:1;fill-rule:nonzero;stroke:none"
             id="path969"
             inkscape:connector-curvature="0" /></g></g></g><g
       id="g971"><g
         id="g973"
         clip-path="url(#clipPath977)"><g
           id="g979"><g
             id="g981" /><g
             id="g1005"
             mask="url(#mask993)"><g
               id="g1007"><path
                 d="M 174.667,158 264,96 481,127 c 0,0 -26.667,121.333 -24,120.667 v 0 C 459.667,247 367,331 367,331 v 0 l -139.333,82 z"
                 style="fill:url(#linearGradient1013);stroke:none"
                 id="path1015"
                 inkscape:connector-curvature="0" /></g></g></g></g></g><g
       id="g1017"><g
         id="g1019"
         clip-path="url(#clipPath1023)"><g
           id="g1025"
           transform="translate(174.6665,158)"><path
             d="M 0,0 2.5,0.833 83.167,0 C 83.167,0 91,-60.833 90.5,-60.833 90,-60.833 89.333,-62 89.333,-62 Z"
             style="fill:#67c2da;fill-opacity:1;fill-rule:nonzero;stroke:none"
             id="path1027"
             inkscape:connector-curvature="0" /></g><g
           id="g1029"
           transform="translate(186,103.333)"><path
             d="M 0,0 90.333,-3.333 83.333,-8.5 4,-6 Z"
             style="fill:#67c2da;fill-opacity:1;fill-rule:nonzero;stroke:none"
             id="path1031"
             inkscape:connector-curvature="0" /></g><g
           id="g1033"
           transform="translate(191,98.667)"><path
             d="m 0,0 -16.333,59.333 81,-1 8.333,-61 z"
             style="fill:#ffffff;fill-opacity:1;fill-rule:nonzero;stroke:none"
             id="path1035"
             inkscape:connector-curvature="0" /></g><g
           id="g1037"
           transform="translate(313.25,96.25)"><path
             d="m 0,0 c -9.737,-1.955 -19.49,-3.825 -29.248,-5.668 -9.751,-1.878 -19.527,-3.618 -29.29,-5.435 l -29.322,-5.258 c -9.783,-1.709 -19.564,-3.42 -29.361,-5.047 l 0.13,0.184 1.508,-10.026 -1.826,9.974 -0.028,0.154 0.158,0.03 c 9.745,1.914 19.505,3.745 29.265,5.578 l 29.302,5.367 c 9.779,1.725 19.545,3.526 29.335,5.19 C -19.593,-3.258 -9.804,-1.587 0,0"
             style="fill:#4b0cb4;fill-opacity:1;fill-rule:nonzero;stroke:none"
             id="path1039"
             inkscape:connector-curvature="0" /></g><g
           id="g1041"
           transform="translate(220.3628,79.0195)"><path
             d="M 0,0 -56.863,16.73 0.274,0.961 Z"
             style="fill:#4b0cb4;fill-opacity:1;fill-rule:nonzero;stroke:none"
             id="path1043"
             inkscape:connector-curvature="0" /></g><g
           id="g1045"
           transform="translate(197.9878,63.5664)"><path
             d="m 0,0 -1.356,7.675 -13.632,-2.741 2,-5.75 z"
             style="fill:#86f2a9;fill-opacity:1;fill-rule:nonzero;stroke:none"
             id="path1047"
             inkscape:connector-curvature="0" /></g><g
           id="g1049"
           transform="translate(185,62.75)"><path
             d="m 0,0 c 0,0 -9.5,-4.417 -16.333,-14.583 -6.834,-10.167 -11.334,-12.5 -16.667,-13 -5.333,-0.5 -3.833,15.333 10.167,23.833 14,8.5 20.833,9.5 20.833,9.5 z"
             style="fill:#1a0035;fill-opacity:1;fill-rule:nonzero;stroke:none"
             id="path1051"
             inkscape:connector-curvature="0" /></g><g
           id="g1053"
           transform="translate(269.667,59.5)"><path
             d="m 0,0 c 0,0 11,-9.833 14.666,-19.5 3.667,-9.667 6.667,-12.667 9.5,-13.5 2.834,-0.833 5,6.333 -0.666,18.333 -5.667,12 -14.334,17.5 -14.334,17.5 z"
             style="fill:#1a0035;fill-opacity:1;fill-rule:nonzero;stroke:none"
             id="path1055"
             inkscape:connector-curvature="0" /></g><g
           id="g1057"
           transform="translate(260.875,233.75)"><path
             d="m 0,0 c 0,-4.418 -3.554,-8 -7.937,-8 -4.384,0 -7.938,3.582 -7.938,8 0,4.418 3.554,8 7.938,8 C -3.554,8 0,4.418 0,0 Z"
             style="fill:none;stroke:#1a0035;stroke-width:1.5;stroke-linecap:butt;stroke-linejoin:miter;stroke-miterlimit:10;stroke-dasharray:none;stroke-opacity:1"
             id="path1059"
             inkscape:connector-curvature="0" /></g><g
           id="g1061"
           transform="translate(238.25,234.8125)"><path
             d="m 0,0 c 0,-3.9 -3.137,-7.062 -7.007,-7.062 -3.87,0 -7.008,3.162 -7.008,7.062 0,3.9 3.138,7.062 7.008,7.062 C -3.137,7.062 0,3.9 0,0 Z"
             style="fill:none;stroke:#1a0035;stroke-width:1.324;stroke-linecap:butt;stroke-linejoin:miter;stroke-miterlimit:10;stroke-dasharray:none;stroke-opacity:1"
             id="path1063"
             inkscape:connector-curvature="0" /></g><g
           id="g1065"
           transform="translate(237.75,236.75)"><path
             d="M 0,0 C 0,0 3,2.5 7.75,-0.75"
             style="fill:none;stroke:#1a0035;stroke-width:1.324;stroke-linecap:butt;stroke-linejoin:miter;stroke-miterlimit:10;stroke-dasharray:none;stroke-opacity:1"
             id="path1067"
             inkscape:connector-curvature="0" /></g><g
           id="g1069"
           transform="translate(260.125,237.125)"><path
             d="m 0,0 13,5.75 0.625,-3"
             style="fill:none;stroke:#1a0035;stroke-width:1.324;stroke-linecap:butt;stroke-linejoin:miter;stroke-miterlimit:10;stroke-dasharray:none;stroke-opacity:1"
             id="path1071"
             inkscape:connector-curvature="0" /></g><g
           id="g1073"
           transform="translate(234.375,231.6875)"><path
             d="m 0,0 c 0,-1.001 -0.532,-1.812 -1.187,-1.812 -0.656,0 -1.188,0.811 -1.188,1.812 0,1.001 0.532,1.812 1.188,1.812 C -0.532,1.812 0,1.001 0,0"
             style="fill:#1a0035;fill-opacity:1;fill-rule:nonzero;stroke:none"
             id="path1075"
             inkscape:connector-curvature="0" /></g><g
           id="g1077"
           transform="translate(250,231.3125)"><path
             d="m 0,0 c 0,-1.001 -0.532,-1.812 -1.187,-1.812 -0.656,0 -1.188,0.811 -1.188,1.812 0,1.001 0.532,1.812 1.188,1.812 C -0.532,1.812 0,1.001 0,0"
             style="fill:#1a0035;fill-opacity:1;fill-rule:nonzero;stroke:none"
             id="path1079"
             inkscape:connector-curvature="0" /></g><g
           id="g1081"
           transform="translate(236.125,247.5)"><path
             d="M 0,0 C 0,0 -1.875,0.25 -6.125,-1.625"
             style="fill:none;stroke:#f63a07;stroke-width:2;stroke-linecap:butt;stroke-linejoin:miter;stroke-miterlimit:10;stroke-dasharray:none;stroke-opacity:1"
             id="path1083"
             inkscape:connector-curvature="0" /></g><g
           id="g1085"
           transform="translate(246.875,247.875)"><path
             d="M 0,0 C 0,0 6,-1.625 10.25,-4.75"
             style="fill:none;stroke:#f63a07;stroke-width:2;stroke-linecap:butt;stroke-linejoin:miter;stroke-miterlimit:10;stroke-dasharray:none;stroke-opacity:1"
             id="path1087"
             inkscape:connector-curvature="0" /></g><g
           id="g1089"
           transform="translate(240.5,235.125)"><path
             d="m 0,0 c 0,0 -2.75,-7.5 -3.75,-9.875 -1,-2.375 0.125,-3.25 2.25,-2 2.125,1.25 2,10 1.5,11.875"
             style="fill:#f757af;fill-opacity:1;fill-rule:nonzero;stroke:none"
             id="path1091"
             inkscape:connector-curvature="0" /></g><g
           id="g1093"
           transform="translate(238.375,222)"><path
             d="m 0,0 c 0.417,-1.092 0.991,-2.146 1.833,-2.739 0.833,-0.579 1.94,-0.567 2.699,0.051 0.802,0.603 1.365,1.611 1.811,2.631 C 6.767,0.985 7.146,2.079 7.25,3.25 7.562,2.086 7.389,0.845 7.076,-0.314 6.739,-1.472 6.193,-2.644 5.131,-3.487 4.595,-3.887 3.89,-4.148 3.193,-4.108 2.511,-4.076 1.829,-3.808 1.343,-3.351 0.364,-2.437 0.019,-1.174 0,0"
             style="fill:#d62b91;fill-opacity:1;fill-rule:nonzero;stroke:none"
             id="path1095"
             inkscape:connector-curvature="0" /></g><g
           id="g1097"
           transform="translate(274.125,236)"><path
             d="M 0,0 C -0.467,0.337 -1.032,0.336 -1.544,0.261 -2.064,0.177 -2.561,-0.024 -3.047,-0.243 -3.523,-0.494 -4,-0.748 -4.452,-1.056 -4.915,-1.344 -5.352,-1.678 -5.807,-1.99 l 0.044,0.437 c 0.161,-0.211 0.317,-0.426 0.456,-0.664 0.137,-0.236 0.288,-0.478 0.313,-0.827 0.012,-0.169 -0.06,-0.386 -0.198,-0.488 -0.13,-0.105 -0.266,-0.163 -0.398,-0.201 -0.263,-0.081 -0.521,-0.119 -0.785,-0.142 0.236,0.117 0.479,0.22 0.691,0.349 0.225,0.135 0.346,0.294 0.286,0.442 -0.046,0.171 -0.197,0.378 -0.345,0.567 -0.153,0.193 -0.327,0.378 -0.493,0.57 l -0.199,0.227 0.242,0.21 c 0.857,0.745 1.81,1.409 2.894,1.85 0.547,0.203 1.128,0.357 1.729,0.347 C -0.984,0.681 -0.333,0.481 0,0"
             style="fill:#d62b91;fill-opacity:1;fill-rule:nonzero;stroke:none"
             id="path1099"
             inkscape:connector-curvature="0" /></g><g
           id="g1101"
           transform="translate(272.6221,236.4883)"><path
             d="M 0,0 C 0.281,-0.344 0.475,-0.683 0.646,-1.056 0.812,-1.425 0.931,-1.814 0.992,-2.21 1.13,-3.003 0.969,-3.815 0.628,-4.497 c 0.234,0.73 0.259,1.512 0.023,2.209 -0.111,0.349 -0.269,0.68 -0.466,0.983 -0.195,0.299 -0.439,0.595 -0.679,0.811 l -0.012,0.01 c -0.144,0.13 -0.157,0.351 -0.028,0.496 0.13,0.145 0.351,0.157 0.497,0.028 C -0.024,0.028 -0.011,0.014 0,0"
             style="fill:#d62b91;fill-opacity:1;fill-rule:nonzero;stroke:none"
             id="path1103"
             inkscape:connector-curvature="0" /></g></g></g><text
       transform="matrix(1,0,0,-1,165.4448,440.9937)"
       style="font-variant:normal;font-weight:100;font-stretch:normal;font-size:25.10580063px;font-family:'Zing Sans Rust L Demo Base';-inkscape-font-specification:ZingSansRustLDemo-Base;writing-mode:lr-tb;fill:#ffffff;fill-opacity:1;fill-rule:nonzero;stroke:none"
       id="text1119"><tspan
         x="0 28.419765 45.290863 63.166191 70.39666 89.928978 106.4988 123.16905 129.74678 149.27908"
         y="0"
         sodipodi:role="line"
         id="tspan1117">WEB DESIGN</tspan></text>
<g
       id="g1161"><g
         id="g1163"
         clip-path="url(#clipPath1167)"><g
           id="g1169"
           transform="translate(260.1045,34.5352)"><path
             d="m 0,0 c -0.433,-0.443 -0.804,-0.932 -1.108,-1.453 l -0.465,0.241 c -0.068,0.297 -0.35,0.502 -0.659,0.466 -0.331,-0.039 -0.568,-0.339 -0.53,-0.67 0.039,-0.331 0.339,-0.567 0.67,-0.528 0.066,0.007 0.127,0.025 0.184,0.051 l 0.451,-0.234 C -1.708,-2.681 -1.89,-3.266 -1.996,-3.87 l 0.747,-0.132 c 0.229,1.306 0.85,2.507 1.792,3.473 z"
             style="fill:#f7fafb;fill-opacity:1;fill-rule:nonzero;stroke:none"
             id="path1171"
             inkscape:connector-curvature="0" /></g><g
           id="g1173"
           transform="translate(265.5918,36.8369)"><path
             d="m 0,0 c -0.171,0 -0.341,-0.006 -0.509,-0.017 l -0.074,0.626 c 0.187,0.15 0.296,0.389 0.266,0.645 C -0.363,1.646 -0.72,1.928 -1.112,1.882 -1.506,1.836 -1.787,1.479 -1.74,1.086 -1.71,0.832 -1.551,0.625 -1.336,0.522 l 0.073,-0.624 c -0.714,-0.116 -1.402,-0.332 -2.059,-0.645 l 0.327,-0.685 c 0.934,0.448 1.941,0.674 2.995,0.674 0.497,0 0.993,-0.053 1.476,-0.158 l 0.16,0.741 C 1.101,-0.059 0.551,0 0,0"
             style="fill:#f7fafb;fill-opacity:1;fill-rule:nonzero;stroke:none"
             id="path1175"
             inkscape:connector-curvature="0" /></g><g
           id="g1177"
           transform="translate(272.1943,34.29)"><path
             d="M 0,0 C 0.331,0.04 0.566,0.341 0.525,0.672 0.485,1.003 0.185,1.238 -0.146,1.197 -0.456,1.159 -0.682,0.894 -0.677,0.589 L -1.093,0.226 C -1.511,0.655 -1.982,1.038 -2.5,1.365 L -2.904,0.724 c 1.134,-0.715 2.02,-1.727 2.563,-2.925 l 0.691,0.312 c -0.251,0.554 -0.568,1.072 -0.943,1.545 L -0.19,0.007 C -0.129,-0.005 -0.065,-0.009 0,0"
             style="fill:#f7fafb;fill-opacity:1;fill-rule:nonzero;stroke:none"
             id="path1179"
             inkscape:connector-curvature="0" /></g><g
           id="g1181"
           transform="translate(265.0449,26.6289)"><path
             d="m 0,0 c -0.386,-0.023 -0.775,-0.035 -1.157,-0.035 -0.88,0 -1.734,0.06 -2.479,0.18 -0.39,0.061 -0.845,0.154 -1.27,0.292 1.047,-1.862 3.069,-3.125 5.388,-3.125 2.856,0 5.263,1.916 5.95,4.502 C 5.75,1.365 4.927,0.989 3.974,0.692 2.794,0.324 1.419,0.085 0,0"
             style="fill:#f7fafb;fill-opacity:1;fill-rule:nonzero;stroke:none"
             id="path1183"
             inkscape:connector-curvature="0" /></g><g
           id="g1185"
           transform="translate(268.1699,29.7139)"><path
             d="M 0,0 C -0.75,0 -1.36,0.61 -1.36,1.36 -1.36,2.11 -0.75,2.721 0,2.721 0.75,2.721 1.36,2.11 1.36,1.36 1.36,0.61 0.75,0 0,0 m -4.737,-0.908 c -1.02,0 -1.85,0.83 -1.85,1.849 0,1.021 0.83,1.851 1.85,1.851 1.019,0 1.849,-0.83 1.849,-1.851 0,-1.019 -0.83,-1.849 -1.849,-1.849 m 2.159,6.514 c -3.352,0 -6.079,-2.666 -6.079,-5.943 0,-0.425 0.046,-0.849 0.136,-1.261 0.674,-0.483 2.707,-0.89 5.348,-0.731 2.88,0.174 5.297,0.958 6.672,2.159 C 3.494,0.024 3.479,0.22 3.454,0.411 3.074,3.373 0.48,5.606 -2.578,5.606"
             style="fill:#f7fafb;fill-opacity:1;fill-rule:nonzero;stroke:none"
             id="path1187"
             inkscape:connector-curvature="0" /></g><g
           id="g1189"
           transform="translate(281.5957,33.4531)"><path
             d="M 0,0 C -0.295,0.116 -0.806,0.31 -1.383,0.238 -1.934,0.169 -2.227,-0.103 -2.227,-0.769 v -0.866 h 2.229 v -1.717 h -2.229 v -5.455 h -1.931 v 5.455 h -1.339 v 1.717 h 1.339 v 0.889 c 0,1.68 0.895,2.782 2.568,2.782 0.643,0 1.157,-0.121 1.59,-0.307 z"
             style="fill:#f7fafb;fill-opacity:1;fill-rule:nonzero;stroke:none"
             id="path1191"
             inkscape:connector-curvature="0" /></g><g
           id="g1193"
           transform="translate(286.2979,30.1221)"><path
             d="m 0,0 c -0.177,0.029 -0.357,0.046 -0.525,0.046 -0.896,0 -1.51,-0.548 -1.51,-1.613 v -3.909 h -1.933 v 7.172 h 1.873 V 0.912 c 0.451,0.673 1.14,0.977 2.021,0.977 0.414,0 0.847,-0.128 1.095,-0.337 z"
             style="fill:#f7fafb;fill-opacity:1;fill-rule:nonzero;stroke:none"
             id="path1195"
             inkscape:connector-curvature="0" /></g><g
           id="g1197"
           transform="translate(288.8516,28.9092)"><path
             d="M 0,0 H 3.175 C 2.997,0.918 2.442,1.437 1.613,1.437 0.703,1.437 0.17,0.889 0,0 m 5.114,-0.666 c 0,-0.222 -0.015,-0.488 -0.037,-0.651 h -5.085 c 0.207,-1.037 0.933,-1.488 1.843,-1.488 0.622,0 1.295,0.252 1.813,0.689 l 1.133,-1.243 c -0.814,-0.748 -1.85,-1.089 -3.056,-1.089 -2.199,0 -3.724,1.496 -3.724,3.753 0,2.257 1.48,3.797 3.627,3.797 2.064,0 3.478,-1.533 3.486,-3.768"
             style="fill:#f7fafb;fill-opacity:1;fill-rule:nonzero;stroke:none"
             id="path1199"
             inkscape:connector-curvature="0" /></g><g
           id="g1201"
           transform="translate(296.5049,28.9092)"><path
             d="M 0,0 H 3.175 C 2.997,0.918 2.441,1.437 1.613,1.437 0.703,1.437 0.17,0.889 0,0 m 5.114,-0.666 c 0,-0.222 -0.015,-0.488 -0.037,-0.651 h -5.085 c 0.207,-1.037 0.933,-1.488 1.843,-1.488 0.622,0 1.296,0.252 1.813,0.689 l 1.133,-1.243 c -0.814,-0.748 -1.85,-1.089 -3.057,-1.089 -2.199,0 -3.723,1.496 -3.723,3.753 0,2.257 1.48,3.797 3.627,3.797 2.064,0 3.478,-1.533 3.486,-3.768"
             style="fill:#f7fafb;fill-opacity:1;fill-rule:nonzero;stroke:none"
             id="path1203"
             inkscape:connector-curvature="0" /></g><g
           id="g1205"
           transform="translate(304.2871,28.2363)"><path
             d="m 0,0 c 0,-1.133 0.748,-1.977 1.844,-1.977 1.139,0 1.849,0.881 1.849,1.977 0,1.095 -0.71,1.976 -1.849,1.976 C 0.748,1.976 0,1.132 0,0 m 5.678,0 c 0,-2.154 -1.495,-3.775 -3.472,-3.775 -0.962,0 -1.644,0.378 -2.109,0.932 V -6.551 H -1.828 V 3.582 H 0.06 V 2.79 c 0.466,0.585 1.154,0.984 2.138,0.984 1.985,0 3.48,-1.621 3.48,-3.774"
             style="fill:#f7fafb;fill-opacity:1;fill-rule:nonzero;stroke:none"
             id="path1207"
             inkscape:connector-curvature="0" /></g><path
           d="m 312.809,24.646 h -1.932 v 7.172 h 1.932 z m 0.259,9.519 c 0,-0.696 -0.541,-1.229 -1.236,-1.229 -0.696,0 -1.228,0.533 -1.228,1.229 0,0.695 0.532,1.243 1.228,1.243 0.695,0 1.236,-0.548 1.236,-1.243"
           style="fill:#f7fafb;fill-opacity:1;fill-rule:nonzero;stroke:none"
           id="path1209"
           inkscape:connector-curvature="0" /><g
           id="g1211"
           transform="translate(316.0322,29.2646)"><path
             d="M 0,0 2.702,2.554 H 5.07 L 1.592,-0.821 5.093,-4.618 H 2.717 L 0,-1.717 V -4.618 H -1.932 V 6.04 L 0,6.04 Z"
             style="fill:#f7fafb;fill-opacity:1;fill-rule:nonzero;stroke:none"
             id="path1213"
             inkscape:connector-curvature="0" /></g><g
           id="g1215"
           transform="translate(184.4126,26.6299)"><path
             d="m 0,0 v 3.208 c -0.395,0.615 -1.245,1.143 -2.124,1.143 -1.42,0 -2.27,-1.172 -2.27,-2.74 0,-1.567 0.85,-2.724 2.27,-2.724 0.879,0 1.729,0.498 2.124,1.113 m 0,-1.919 v 1.055 c -0.527,-0.718 -1.391,-1.231 -2.387,-1.231 -1.846,0 -3.15,1.407 -3.15,3.706 0,2.256 1.289,3.721 3.15,3.721 0.952,0 1.816,-0.469 2.387,-1.245 v 3.765 h 1.099 v -9.771 z"
             style="fill:#f7fafb;fill-opacity:1;fill-rule:nonzero;stroke:none"
             id="path1217"
             inkscape:connector-curvature="0" /></g><g
           id="g1219"
           transform="translate(190.4038,31.0537)"><path
             d="M 0,0 C -1.509,0 -2.256,-1.274 -2.314,-2.358 H 2.329 C 2.314,-1.304 1.611,0 0,0 m -3.472,-2.798 c 0,2.051 1.465,3.706 3.487,3.706 2.138,0 3.398,-1.67 3.398,-3.794 v -0.278 h -5.727 c 0.087,-1.333 1.025,-2.446 2.548,-2.446 0.806,0 1.626,0.322 2.183,0.893 L 2.944,-5.435 C 2.241,-6.138 1.289,-6.519 0.132,-6.519 c -2.095,0 -3.604,1.509 -3.604,3.721"
             style="fill:#f7fafb;fill-opacity:1;fill-rule:nonzero;stroke:none"
             id="path1221"
             inkscape:connector-curvature="0" /></g><g
           id="g1223"
           transform="translate(194.6074,25.6484)"><path
             d="M 0,0 0.571,0.791 C 1.04,0.249 1.934,-0.22 2.9,-0.22 c 1.084,0 1.67,0.513 1.67,1.216 0,1.714 -4.38,0.659 -4.38,3.281 0,1.099 0.952,2.036 2.637,2.036 1.201,0 2.051,-0.454 2.622,-1.025 L 4.936,4.526 C 4.512,5.039 3.735,5.42 2.827,5.42 1.86,5.42 1.26,4.937 1.26,4.307 1.26,2.754 5.639,3.779 5.639,1.025 5.639,-0.161 4.687,-1.113 2.856,-1.113 1.699,-1.113 0.718,-0.762 0,0"
             style="fill:#f7fafb;fill-opacity:1;fill-rule:nonzero;stroke:none"
             id="path1225"
             inkscape:connector-curvature="0" /></g><path
           d="m 201.667,31.786 h 1.099 v -7.075 h -1.099 z m -0.189,1.743 c 0,0.41 0.336,0.747 0.731,0.747 0.411,0 0.748,-0.337 0.748,-0.747 0,-0.41 -0.337,-0.732 -0.748,-0.732 -0.395,0 -0.731,0.322 -0.731,0.732"
           style="fill:#f7fafb;fill-opacity:1;fill-rule:nonzero;stroke:none"
           id="path1227"
           inkscape:connector-curvature="0" /><g
           id="g1229"
           transform="translate(209.709,26.7471)"><path
             d="m 0,0 v 3.091 c -0.381,0.615 -1.23,1.142 -2.109,1.142 -1.421,0 -2.27,-1.128 -2.27,-2.695 0,-1.553 0.849,-2.695 2.27,-2.695 0.879,0 1.728,0.542 2.109,1.157 m -5.126,-3.853 0.556,0.821 c 0.586,-0.703 1.289,-0.967 2.299,-0.967 1.172,0 2.271,0.571 2.271,2.124 v 1.011 c -0.513,-0.718 -1.377,-1.26 -2.373,-1.26 -1.846,0 -3.149,1.377 -3.149,3.662 0,2.271 1.289,3.677 3.149,3.677 0.952,0 1.802,-0.469 2.373,-1.245 v 1.069 h 1.099 v -6.87 c 0,-2.344 -1.641,-3.076 -3.37,-3.076 -1.201,0 -2.021,0.235 -2.855,1.054"
             style="fill:#f7fafb;fill-opacity:1;fill-rule:nonzero;stroke:none"
             id="path1231"
             inkscape:connector-curvature="0" /></g><g
           id="g1233"
           transform="translate(217.4136,24.7109)"><path
             d="M 0,0 V 4.629 C 0,5.874 -0.63,6.27 -1.582,6.27 -2.446,6.27 -3.267,5.742 -3.676,5.171 V 0 h -1.099 v 7.075 h 1.099 V 6.05 c 0.497,0.586 1.464,1.201 2.519,1.201 1.479,0 2.256,-0.747 2.256,-2.285 L 1.099,0 Z"
             style="fill:#f7fafb;fill-opacity:1;fill-rule:nonzero;stroke:none"
             id="path1235"
             inkscape:connector-curvature="0" /></g><g
           id="g1237"
           transform="translate(223.4043,31.0537)"><path
             d="M 0,0 C -1.509,0 -2.256,-1.274 -2.314,-2.358 H 2.329 C 2.314,-1.304 1.611,0 0,0 m -3.472,-2.798 c 0,2.051 1.465,3.706 3.487,3.706 2.138,0 3.398,-1.67 3.398,-3.794 v -0.278 h -5.727 c 0.088,-1.333 1.025,-2.446 2.548,-2.446 0.806,0 1.626,0.322 2.183,0.893 L 2.944,-5.435 C 2.241,-6.138 1.289,-6.519 0.132,-6.519 c -2.094,0 -3.604,1.509 -3.604,3.721"
             style="fill:#f7fafb;fill-opacity:1;fill-rule:nonzero;stroke:none"
             id="path1239"
             inkscape:connector-curvature="0" /></g><g
           id="g1241"
           transform="translate(233.3506,26.6299)"><path
             d="m 0,0 v 3.208 c -0.396,0.615 -1.245,1.143 -2.124,1.143 -1.421,0 -2.271,-1.172 -2.271,-2.74 0,-1.567 0.85,-2.724 2.271,-2.724 0.879,0 1.728,0.498 2.124,1.113 m 0,-1.919 v 1.055 c -0.527,-0.718 -1.392,-1.231 -2.388,-1.231 -1.845,0 -3.149,1.407 -3.149,3.706 0,2.256 1.288,3.721 3.149,3.721 0.952,0 1.817,-0.469 2.388,-1.245 v 3.765 h 1.098 v -9.771 z"
             style="fill:#f7fafb;fill-opacity:1;fill-rule:nonzero;stroke:none"
             id="path1243"
             inkscape:connector-curvature="0" /></g><g
           id="g1245"
           transform="translate(242.9004,25.5166)"><path
             d="M 0,0 C 1.436,0 2.285,1.157 2.285,2.725 2.285,4.292 1.436,5.464 0,5.464 -0.864,5.464 -1.729,4.937 -2.109,4.321 V 1.113 C -1.729,0.498 -0.864,0 0,0 m -3.208,-0.806 v 9.771 h 1.099 V 5.2 c 0.571,0.777 1.421,1.245 2.387,1.245 1.846,0 3.15,-1.465 3.15,-3.72 0,-2.3 -1.304,-3.706 -3.15,-3.706 -0.996,0 -1.86,0.512 -2.387,1.23 v -1.055 z"
             style="fill:#f7fafb;fill-opacity:1;fill-rule:nonzero;stroke:none"
             id="path1247"
             inkscape:connector-curvature="0" /></g><g
           id="g1249"
           transform="translate(247.5288,22.9385)"><path
             d="m 0,0 c 0.161,-0.073 0.425,-0.117 0.601,-0.117 0.483,0 0.805,0.161 1.054,0.747 L 2.124,1.699 -0.835,8.848 H 0.352 L 2.71,3.047 5.054,8.848 h 1.2 L 2.71,0.337 C 2.285,-0.687 1.567,-1.084 0.63,-1.099 c -0.234,0 -0.601,0.044 -0.806,0.104 z"
             style="fill:#f7fafb;fill-opacity:1;fill-rule:nonzero;stroke:none"
             id="path1251"
             inkscape:connector-curvature="0" /></g></g></g></g></svg>