<?xml version="1.0" encoding="UTF-8" standalone="no"?>
<!-- Created with Inkscape (http://www.inkscape.org/) -->

<svg
   xmlns:dc="http://purl.org/dc/elements/1.1/"
   xmlns:cc="http://creativecommons.org/ns#"
   xmlns:rdf="http://www.w3.org/1999/02/22-rdf-syntax-ns#"
   xmlns:svg="http://www.w3.org/2000/svg"
   xmlns="http://www.w3.org/2000/svg"
   xmlns:sodipodi="http://sodipodi.sourceforge.net/DTD/sodipodi-0.dtd"
   xmlns:inkscape="http://www.inkscape.org/namespaces/inkscape"
   version="1.1"
   id="svg815"
   xml:space="preserve"
   width="666.66669"
   height="666.66669"
   viewBox="0 0 666.66669 666.66669"
   sodipodi:docname="contactSteps.svg"
   inkscape:version="0.92.2 (5c3e80d, 2017-08-06)"><metadata
     id="metadata821"><rdf:RDF><cc:Work
         rdf:about=""><dc:format>image/svg+xml</dc:format><dc:type
           rdf:resource="http://purl.org/dc/dcmitype/StillImage" /><dc:title></dc:title></cc:Work></rdf:RDF></metadata><defs
     id="defs819"><radialGradient
       fx="0"
       fy="0"
       cx="0"
       cy="0"
       r="1"
       gradientUnits="userSpaceOnUse"
       gradientTransform="matrix(250,0,0,-250,250,250)"
       spreadMethod="pad"
       id="radialGradient841"><stop
         style="stop-opacity:1;stop-color:#ffffff"
         offset="0"
         id="stop837" /><stop
         style="stop-opacity:1;stop-color:#f6f6f6"
         offset="1"
         id="stop839" /></radialGradient><clipPath
       clipPathUnits="userSpaceOnUse"
       id="clipPath853"><path
         d="M 0,500 H 500 V 0 H 0 Z"
         id="path851"
         inkscape:connector-curvature="0" /></clipPath><clipPath
       clipPathUnits="userSpaceOnUse"
       id="clipPath901"><path
         d="M 0,500 H 500 V 0 H 0 Z"
         id="path899"
         inkscape:connector-curvature="0" /></clipPath><radialGradient
       fx="0"
       fy="0"
       cx="0"
       cy="0"
       r="1"
       gradientUnits="userSpaceOnUse"
       gradientTransform="matrix(182.32936,0,0,-182.32936,252.14574,250)"
       spreadMethod="pad"
       id="radialGradient935"><stop
         style="stop-opacity:1;stop-color:#ffffff"
         offset="0"
         id="stop931" /><stop
         style="stop-opacity:1;stop-color:#f6f6f6"
         offset="1"
         id="stop933" /></radialGradient><clipPath
       clipPathUnits="userSpaceOnUse"
       id="clipPath945"><path
         d="M 0,500 H 500 V 0 H 0 Z"
         id="path943"
         inkscape:connector-curvature="0" /></clipPath><radialGradient
       fx="0"
       fy="0"
       cx="0"
       cy="0"
       r="1"
       gradientUnits="userSpaceOnUse"
       gradientTransform="matrix(44.480431,0,0,-44.480431,160.83443,398.10321)"
       spreadMethod="pad"
       id="radialGradient979"><stop
         style="stop-opacity:1;stop-color:#ffffff"
         offset="0"
         id="stop975" /><stop
         style="stop-opacity:1;stop-color:#f6f6f6"
         offset="1"
         id="stop977" /></radialGradient><radialGradient
       fx="0"
       fy="0"
       cx="0"
       cy="0"
       r="1"
       gradientUnits="userSpaceOnUse"
       gradientTransform="matrix(44.480431,0,0,-44.480431,163.4682,192.37868)"
       spreadMethod="pad"
       id="radialGradient999"><stop
         style="stop-opacity:1;stop-color:#ffffff"
         offset="0"
         id="stop995" /><stop
         style="stop-opacity:1;stop-color:#f6f6f6"
         offset="1"
         id="stop997" /></radialGradient><radialGradient
       fx="0"
       fy="0"
       cx="0"
       cy="0"
       r="1"
       gradientUnits="userSpaceOnUse"
       gradientTransform="matrix(44.480431,0,0,-44.480431,343.40253,290.97159)"
       spreadMethod="pad"
       id="radialGradient1019"><stop
         style="stop-opacity:1;stop-color:#ffffff"
         offset="0"
         id="stop1015" /><stop
         style="stop-opacity:1;stop-color:#f6f6f6"
         offset="1"
         id="stop1017" /></radialGradient><radialGradient
       fx="0"
       fy="0"
       cx="0"
       cy="0"
       r="1"
       gradientUnits="userSpaceOnUse"
       gradientTransform="matrix(44.480431,0,0,-44.480431,343.45703,101.9002)"
       spreadMethod="pad"
       id="radialGradient1039"><stop
         style="stop-opacity:1;stop-color:#ffffff"
         offset="0"
         id="stop1035" /><stop
         style="stop-opacity:1;stop-color:#f6f6f6"
         offset="1"
         id="stop1037" /></radialGradient><clipPath
       clipPathUnits="userSpaceOnUse"
       id="clipPath1101"><path
         d="M 0,500 H 500 V 0 H 0 Z"
         id="path1099"
         inkscape:connector-curvature="0" /></clipPath><clipPath
       clipPathUnits="userSpaceOnUse"
       id="clipPath1173"><path
         d="M 0,500 H 500 V 0 H 0 Z"
         id="path1171"
         inkscape:connector-curvature="0" /></clipPath></defs><sodipodi:namedview
     pagecolor="#ffffff"
     bordercolor="#666666"
     borderopacity="1"
     objecttolerance="10"
     gridtolerance="10"
     guidetolerance="10"
     inkscape:pageopacity="0"
     inkscape:pageshadow="2"
     inkscape:window-width="1920"
     inkscape:window-height="1017"
     id="namedview817"
     showgrid="false"
     inkscape:zoom="0.63599998"
     inkscape:cx="325.31222"
     inkscape:cy="274.12666"
     inkscape:window-x="-8"
     inkscape:window-y="-8"
     inkscape:window-maximized="1"
     inkscape:current-layer="g1103" /><g
     id="g823"
     inkscape:groupmode="layer"
     inkscape:label="281903-P70J1O-902"
     transform="matrix(1.3333333,0,0,-1.3333333,0,666.66667)"><g
       id="g847"><g
         id="g849"
         clip-path="url(#clipPath853)"><g
           id="g855"
           transform="translate(78.8613,197.6016)"><path
             d="M 0,0 C 0.12,2.122 1.804,3.858 3.916,4.038 4.784,4.111 5.56,4.594 5.99,5.328 l 2.35,4.193 c 0.209,0.359 0.332,0.767 0.356,1.18 0.024,0.429 -0.059,0.862 -0.24,1.249 -0.297,0.638 -0.434,1.348 -0.393,2.054 0.065,1.165 0.586,2.229 1.466,2.996 0.879,0.767 2.005,1.138 3.17,1.044 2.305,-0.185 4.074,-2.215 3.943,-4.526 L 16.641,13.501 C 16.587,12.615 16.268,11.781 15.716,11.089 15.379,10.666 15.185,10.156 15.154,9.614 15.125,9.096 15.248,8.585 15.51,8.136 L 17.64,4.491 C 18.076,3.744 18.857,3.26 19.729,3.195 l 0.02,-0.002 c 0.942,-0.074 1.855,0.379 2.38,1.182 l 2.711,4.136 c 0.252,0.384 0.398,0.829 0.425,1.289 0.026,0.458 -0.069,0.918 -0.275,1.331 -0.33,0.663 -0.482,1.407 -0.44,2.151 0.066,1.163 0.585,2.226 1.463,2.992 0.877,0.767 2,1.139 3.163,1.048 2.311,-0.179 4.084,-2.215 3.953,-4.536 C 33.123,12.687 33.114,12.585 33.101,12.485 32.808,10.18 30.687,8.511 28.375,8.765 27.371,8.876 26.408,8.428 25.863,7.597 L 23.299,3.685 C 23.048,3.302 22.902,2.856 22.876,2.398 22.848,1.9 22.96,1.404 23.202,0.964 c 0.385,-0.702 0.565,-1.499 0.52,-2.303 -0.066,-1.163 -0.586,-2.225 -1.463,-2.993 -0.877,-0.766 -2.001,-1.138 -3.164,-1.048 -2.249,0.176 -3.989,2.08 -3.959,4.336 0,0.064 0.003,0.128 0.006,0.191 0.047,0.835 0.336,1.632 0.833,2.306 0.312,0.422 0.492,0.92 0.522,1.44 0.029,0.515 -0.093,1.022 -0.352,1.466 L 13.901,8.2 C 13.482,8.917 12.731,9.399 11.893,9.489 11.854,9.493 11.817,9.498 11.78,9.503 10.723,9.645 9.695,9.149 9.162,8.241 L 7.531,5.271 C 7.324,4.916 7.202,4.511 7.178,4.1 7.143,3.474 7.333,2.854 7.712,2.354 8.33,1.542 8.637,0.534 8.58,-0.486 8.578,-0.512 8.576,-0.538 8.574,-0.564 8.492,-1.668 7.988,-2.688 7.156,-3.435 6.324,-4.182 5.256,-4.573 4.151,-4.537 2.983,-4.498 1.906,-4.003 1.119,-3.142 0.332,-2.28 -0.066,-1.165 0,0"
             style="fill:#dedede;fill-opacity:1;fill-rule:nonzero;stroke:none"
             id="path857"
             inkscape:connector-curvature="0" /></g><g
           id="g859"
           transform="translate(74.189,169.9023)"><path
             d="m 0,0 c 3.035,1.202 6.541,-0.023 8.155,-2.852 0.663,-1.162 1.837,-1.931 3.138,-2.058 l 7.363,-0.569 c 0.634,-0.06 1.281,0.032 1.873,0.266 0.614,0.243 1.162,0.638 1.586,1.141 0.697,0.826 1.599,1.473 2.61,1.874 1.666,0.66 3.485,0.621 5.122,-0.11 1.636,-0.73 2.88,-2.06 3.502,-3.744 1.23,-3.333 -0.458,-7.109 -3.764,-8.419 l -0.023,-0.008 c -1.27,-0.499 -2.64,-0.591 -3.961,-0.269 -0.807,0.197 -1.643,0.139 -2.418,-0.169 -0.741,-0.293 -1.374,-0.795 -1.83,-1.45 l -3.707,-5.321 c -0.759,-1.091 -0.93,-2.493 -0.457,-3.749 l 0.011,-0.029 c 0.505,-1.361 1.725,-2.341 3.183,-2.555 l 7.515,-1.109 c 0.698,-0.103 1.414,-0.02 2.07,0.24 0.656,0.26 1.237,0.69 1.679,1.243 0.712,0.887 1.65,1.58 2.715,2.001 1.663,0.66 3.48,0.622 5.115,-0.106 1.634,-0.727 2.878,-2.054 3.503,-3.733 1.241,-3.337 -0.451,-7.123 -3.772,-8.438 -0.142,-0.056 -0.289,-0.109 -0.437,-0.156 -3.403,-1.079 -7.098,0.798 -8.236,4.185 -0.494,1.472 -1.74,2.525 -3.25,2.748 l -7.108,1.047 c -0.697,0.104 -1.411,0.021 -2.067,-0.24 -0.712,-0.281 -1.33,-0.759 -1.788,-1.38 -0.731,-0.991 -1.725,-1.756 -2.875,-2.211 -1.664,-0.659 -3.481,-0.621 -5.115,0.107 -1.635,0.728 -2.879,2.053 -3.503,3.733 -1.208,3.249 0.323,6.903 3.486,8.319 0.09,0.04 0.18,0.078 0.271,0.114 1.195,0.472 2.492,0.587 3.751,0.328 0.79,-0.162 1.601,-0.093 2.345,0.202 0.736,0.292 1.365,0.789 1.817,1.438 l 3.904,5.605 c 0.729,1.048 0.917,2.406 0.5,3.633 -0.019,0.055 -0.036,0.111 -0.053,0.166 -0.486,1.564 -1.839,2.678 -3.449,2.835 l -5.192,0.356 c -0.63,0.059 -1.273,-0.033 -1.861,-0.265 -0.895,-0.355 -1.637,-1.02 -2.088,-1.871 -0.734,-1.385 -1.941,-2.465 -3.399,-3.043 -0.038,-0.015 -0.076,-0.03 -0.114,-0.043 -1.591,-0.598 -3.337,-0.554 -4.915,0.124 -1.58,0.677 -2.814,1.913 -3.477,3.477 -0.7,1.653 -0.705,3.474 -0.013,5.126 C -2.966,-1.935 -1.667,-0.66 0,0"
             style="fill:#dedede;fill-opacity:1;fill-rule:nonzero;stroke:none"
             id="path861"
             inkscape:connector-curvature="0" /></g><g
           id="g863"
           transform="translate(396.6221,264.0635)"><path
             d="m 0,0 c 3.035,1.203 6.541,-0.023 8.155,-2.852 0.663,-1.162 1.836,-1.931 3.138,-2.058 l 7.362,-0.568 c 0.635,-0.06 1.282,0.032 1.873,0.266 0.615,0.243 1.163,0.637 1.587,1.14 0.697,0.826 1.599,1.474 2.61,1.875 1.666,0.66 3.485,0.621 5.122,-0.11 1.636,-0.731 2.88,-2.061 3.502,-3.745 1.23,-3.332 -0.458,-7.109 -3.764,-8.418 l -0.023,-0.009 c -1.271,-0.498 -2.64,-0.59 -3.961,-0.269 -0.806,0.197 -1.643,0.139 -2.418,-0.169 -0.742,-0.293 -1.374,-0.795 -1.83,-1.45 l -3.707,-5.32 c -0.759,-1.091 -0.93,-2.494 -0.457,-3.75 l 0.011,-0.029 c 0.505,-1.361 1.725,-2.341 3.183,-2.555 l 7.515,-1.109 c 0.698,-0.102 1.414,-0.019 2.07,0.24 0.656,0.26 1.236,0.69 1.679,1.243 0.711,0.888 1.65,1.581 2.714,2.001 1.664,0.66 3.481,0.622 5.116,-0.106 1.634,-0.727 2.878,-2.053 3.502,-3.732 1.242,-3.338 -0.45,-7.123 -3.77,-8.439 -0.144,-0.056 -0.29,-0.109 -0.438,-0.155 -3.403,-1.08 -7.098,0.798 -8.236,4.184 -0.495,1.472 -1.74,2.525 -3.251,2.748 l -7.107,1.048 c -0.697,0.103 -1.411,0.02 -2.067,-0.24 -0.712,-0.282 -1.331,-0.76 -1.789,-1.381 -0.73,-0.99 -1.724,-1.755 -2.874,-2.211 -1.664,-0.659 -3.48,-0.621 -5.116,0.108 -1.635,0.727 -2.878,2.053 -3.503,3.733 -1.208,3.249 0.323,6.902 3.486,8.318 0.091,0.041 0.181,0.078 0.272,0.114 1.194,0.473 2.492,0.587 3.751,0.328 0.79,-0.162 1.601,-0.092 2.345,0.202 0.737,0.292 1.365,0.789 1.816,1.438 l 3.904,5.606 c 0.731,1.047 0.917,2.405 0.501,3.632 -0.018,0.056 -0.037,0.111 -0.053,0.166 -0.486,1.565 -1.839,2.678 -3.449,2.835 l -5.192,0.356 C 11.579,-7.035 10.936,-7.126 10.348,-7.359 9.452,-7.713 8.711,-8.378 8.26,-9.23 c -0.734,-1.384 -1.941,-2.465 -3.4,-3.042 -0.037,-0.016 -0.075,-0.03 -0.113,-0.044 -1.591,-0.598 -3.337,-0.553 -4.916,0.124 -1.579,0.678 -2.813,1.913 -3.477,3.478 -0.7,1.652 -0.705,3.473 -0.012,5.126 C -2.966,-1.934 -1.667,-0.66 0,0"
             style="fill:#dedede;fill-opacity:1;fill-rule:nonzero;stroke:none"
             id="path865"
             inkscape:connector-curvature="0" /></g><g
           id="g867"
           transform="translate(138.5972,72.8926)"><path
             d="m 0,0 c 3.898,8.49 13.574,12.891 22.506,10.234 3.671,-1.09 7.619,-0.362 10.561,1.951 l 16.35,13.388 c 1.431,1.13 2.589,2.601 3.348,4.254 0.789,1.718 1.143,3.618 1.025,5.497 -0.194,3.085 0.39,6.21 1.689,9.038 2.14,4.661 5.979,8.179 10.81,9.905 4.829,1.725 10.031,1.435 14.648,-0.818 9.136,-4.458 13.115,-15.607 8.87,-24.852 l -0.032,-0.068 c -1.642,-3.54 -4.291,-6.44 -7.66,-8.387 -2.056,-1.189 -3.67,-2.963 -4.666,-5.132 -0.952,-2.073 -1.269,-4.364 -0.916,-6.621 l 2.861,-18.334 c 0.586,-3.759 3.005,-6.995 6.47,-8.659 l 0.078,-0.038 c 3.737,-1.815 8.197,-1.428 11.638,1.011 l 17.734,12.573 c 1.646,1.167 2.962,2.755 3.806,4.592 0.842,1.834 1.193,3.871 1.015,5.89 -0.285,3.244 0.286,6.533 1.654,9.51 2.136,4.653 5.968,8.168 10.79,9.897 4.819,1.728 10.013,1.447 14.627,-0.791 9.169,-4.447 13.157,-15.622 8.892,-24.91 -0.183,-0.4 -0.385,-0.799 -0.597,-1.187 -4.903,-8.964 -16.257,-12.39 -25.312,-7.636 -3.933,2.065 -8.591,1.778 -12.155,-0.748 L 101.26,-22.333 c -1.642,-1.165 -2.955,-2.75 -3.798,-4.584 -0.914,-1.992 -1.249,-4.203 -0.968,-6.393 0.449,-3.495 -0.094,-7.042 -1.571,-10.258 -2.137,-4.655 -5.97,-8.169 -10.791,-9.898 -4.82,-1.728 -10.015,-1.447 -14.629,0.791 -8.925,4.331 -12.985,14.916 -9.243,24.099 0.107,0.262 0.218,0.518 0.334,0.772 1.535,3.342 3.993,6.143 7.109,8.099 1.955,1.227 3.494,2.976 4.449,5.055 0.947,2.061 1.263,4.333 0.914,6.567 l -3.014,19.316 c -0.564,3.61 -2.863,6.788 -6.151,8.502 -0.15,0.078 -0.296,0.158 -0.439,0.237 -4.099,2.277 -9.1,1.901 -12.739,-0.958 L 39.282,9.48 C 37.861,8.357 36.711,6.895 35.956,5.249 34.807,2.746 34.588,-0.095 35.34,-2.75 c 1.221,-4.313 0.862,-8.936 -1.012,-13.015 -0.048,-0.105 -0.098,-0.211 -0.148,-0.315 -2.109,-4.382 -5.807,-7.744 -10.413,-9.466 -4.606,-1.722 -9.602,-1.61 -14.067,0.315 -4.718,2.033 -8.328,5.789 -10.167,10.576 C -2.307,-9.866 -2.141,-4.661 0,0"
             style="fill:#dedede;fill-opacity:1;fill-rule:nonzero;stroke:none"
             id="path869"
             inkscape:connector-curvature="0" /></g><g
           id="g871"
           transform="translate(260.6104,429.4482)"><path
             d="m 0,0 c 0.172,5.568 4.467,10.23 9.989,10.843 2.27,0.252 4.269,1.568 5.349,3.521 l 5.876,11.147 c 0.523,0.953 0.818,2.03 0.852,3.114 0.035,1.126 -0.212,2.253 -0.712,3.257 -0.822,1.65 -1.226,3.502 -1.169,5.357 0.094,3.057 1.387,5.88 3.641,7.949 2.252,2.068 5.177,3.115 8.237,2.948 6.052,-0.329 10.824,-5.531 10.636,-11.594 l -10e-4,-0.044 c -0.081,-2.326 -0.863,-4.534 -2.262,-6.385 -0.854,-1.13 -1.329,-2.479 -1.373,-3.902 -0.042,-1.359 0.315,-2.691 1.033,-3.85 l 5.824,-9.407 c 1.194,-1.929 3.273,-3.146 5.562,-3.256 l 0.053,-0.002 c 2.474,-0.131 4.834,1.117 6.158,3.255 l 6.826,11.021 c 0.633,1.022 0.988,2.2 1.025,3.405 0.037,1.203 -0.242,2.403 -0.809,3.471 -0.909,1.715 -1.358,3.654 -1.297,5.607 0.094,3.052 1.383,5.872 3.63,7.94 2.247,2.067 5.166,3.118 8.219,2.959 C 81.355,47.038 86.139,41.825 85.95,35.732 85.942,35.47 85.925,35.205 85.898,34.942 85.284,28.88 79.842,24.364 73.765,24.876 71.125,25.098 68.634,23.86 67.262,21.645 L 60.806,11.221 C 60.174,10.201 59.82,9.025 59.783,7.822 59.742,6.516 60.071,5.224 60.734,4.086 c 1.057,-1.815 1.581,-3.89 1.516,-6 -0.094,-3.052 -1.384,-5.872 -3.632,-7.94 -2.246,-2.067 -5.165,-3.118 -8.219,-2.959 -5.908,0.309 -10.593,5.182 -10.668,11.094 -0.002,0.168 -0.001,0.335 0.005,0.502 0.068,2.192 0.768,4.3 2.026,6.097 0.79,1.128 1.229,2.446 1.271,3.809 0.042,1.353 -0.311,2.674 -1.021,3.82 l -6.137,9.912 c -1.146,1.852 -3.146,3.064 -5.351,3.244 -0.1,0.008 -0.199,0.017 -0.295,0.027 -2.781,0.3 -5.441,-1.066 -6.777,-3.481 L 19.379,14.32 c -0.52,-0.946 -0.812,-2.017 -0.845,-3.096 -0.051,-1.641 0.487,-3.252 1.517,-4.537 1.672,-2.086 2.546,-4.708 2.464,-7.384 -0.002,-0.069 -0.005,-0.138 -0.009,-0.207 -0.142,-2.897 -1.394,-5.601 -3.525,-7.616 -2.13,-2.014 -4.9,-3.112 -7.8,-3.09 -3.063,0.022 -5.917,1.248 -8.038,3.451 C 1.021,-5.955 -0.095,-3.057 0,0"
             style="fill:#dedede;fill-opacity:1;fill-rule:nonzero;stroke:none"
             id="path873"
             inkscape:connector-curvature="0" /></g><g
           id="g875"
           transform="translate(227.5693,312.9341)"><path
             d="m 0,0 c 0.172,5.568 4.467,10.229 9.989,10.843 2.27,0.252 4.27,1.568 5.35,3.521 l 5.875,11.147 c 0.524,0.953 0.819,2.029 0.852,3.114 0.035,1.126 -0.211,2.252 -0.712,3.257 -0.822,1.65 -1.226,3.502 -1.168,5.357 0.094,3.056 1.387,5.88 3.64,7.949 2.253,2.067 5.178,3.115 8.237,2.948 6.052,-0.33 10.825,-5.531 10.637,-11.595 l -0.002,-0.044 c -0.081,-2.326 -0.863,-4.534 -2.261,-6.384 -0.855,-1.131 -1.33,-2.48 -1.374,-3.902 -0.042,-1.36 0.316,-2.691 1.033,-3.85 l 5.825,-9.407 c 1.194,-1.929 3.273,-3.146 5.562,-3.256 l 0.052,-0.003 c 2.474,-0.13 4.834,1.118 6.158,3.255 l 6.826,11.021 c 0.633,1.023 0.988,2.2 1.025,3.405 0.037,1.203 -0.242,2.403 -0.808,3.471 -0.91,1.716 -1.358,3.655 -1.298,5.608 0.094,3.052 1.384,5.872 3.631,7.94 2.246,2.067 5.165,3.118 8.219,2.959 6.068,-0.316 10.852,-5.53 10.663,-11.622 -0.008,-0.262 -0.025,-0.528 -0.053,-0.79 -0.613,-6.062 -6.056,-10.578 -12.132,-10.067 -2.64,0.223 -5.132,-1.016 -6.504,-3.23 L 60.807,11.221 C 60.174,10.2 59.82,9.025 59.783,7.822 c -0.04,-1.306 0.288,-2.598 0.951,-3.737 1.058,-1.815 1.582,-3.89 1.517,-5.999 -0.095,-3.053 -1.385,-5.873 -3.632,-7.94 -2.247,-2.068 -5.166,-3.119 -8.22,-2.959 -5.907,0.309 -10.593,5.181 -10.668,11.094 -0.002,0.168 0,0.335 0.005,0.501 0.068,2.193 0.769,4.301 2.027,6.098 0.789,1.128 1.228,2.445 1.271,3.809 0.041,1.353 -0.311,2.673 -1.021,3.82 l -6.137,9.911 c -1.147,1.852 -3.147,3.065 -5.351,3.245 -0.1,0.007 -0.199,0.017 -0.296,0.027 -2.78,0.3 -5.44,-1.067 -6.776,-3.481 L 19.379,14.32 c -0.519,-0.947 -0.812,-2.017 -0.845,-3.096 -0.051,-1.641 0.488,-3.253 1.517,-4.537 1.672,-2.086 2.547,-4.708 2.464,-7.384 -0.002,-0.069 -0.005,-0.138 -0.009,-0.208 -0.141,-2.896 -1.393,-5.601 -3.524,-7.616 -2.13,-2.014 -4.901,-3.111 -7.8,-3.09 -3.063,0.023 -5.918,1.248 -8.039,3.452 C 1.022,-5.955 -0.094,-3.058 0,0"
             style="fill:#dedede;fill-opacity:1;fill-rule:nonzero;stroke:none"
             id="path877"
             inkscape:connector-curvature="0" /></g><g
           id="g879"
           transform="translate(32.1465,352.7378)"><path
             d="m 0,0 c 3.035,1.202 6.541,-0.024 8.155,-2.852 0.664,-1.162 1.837,-1.932 3.138,-2.058 l 7.363,-0.568 c 0.634,-0.061 1.281,0.031 1.873,0.266 0.614,0.243 1.162,0.637 1.586,1.14 0.697,0.826 1.599,1.474 2.61,1.874 1.666,0.66 3.485,0.621 5.122,-0.11 1.636,-0.73 2.88,-2.06 3.502,-3.744 1.23,-3.333 -0.458,-7.109 -3.764,-8.418 l -0.023,-0.009 c -1.27,-0.498 -2.64,-0.591 -3.961,-0.269 -0.806,0.197 -1.643,0.139 -2.418,-0.169 -0.741,-0.293 -1.374,-0.795 -1.83,-1.45 l -3.706,-5.321 c -0.76,-1.091 -0.931,-2.493 -0.458,-3.749 l 0.011,-0.029 c 0.505,-1.361 1.725,-2.341 3.183,-2.555 l 7.515,-1.109 c 0.698,-0.103 1.414,-0.02 2.07,0.24 0.656,0.26 1.237,0.69 1.679,1.243 0.712,0.888 1.65,1.58 2.715,2.001 1.663,0.66 3.48,0.622 5.115,-0.106 1.634,-0.728 2.878,-2.053 3.503,-3.733 1.241,-3.337 -0.451,-7.123 -3.771,-8.438 -0.143,-0.056 -0.29,-0.109 -0.438,-0.156 -3.403,-1.079 -7.098,0.798 -8.236,4.185 -0.494,1.472 -1.74,2.525 -3.25,2.748 l -7.108,1.048 c -0.697,0.102 -1.411,0.019 -2.067,-0.24 -0.712,-0.282 -1.33,-0.76 -1.788,-1.381 -0.731,-0.99 -1.725,-1.755 -2.875,-2.211 -1.664,-0.659 -3.48,-0.621 -5.115,0.107 -1.635,0.728 -2.879,2.054 -3.503,3.734 -1.208,3.249 0.323,6.902 3.486,8.318 0.09,0.04 0.18,0.078 0.271,0.114 1.195,0.473 2.492,0.587 3.751,0.328 0.79,-0.162 1.601,-0.092 2.345,0.202 0.737,0.292 1.365,0.789 1.817,1.438 l 3.904,5.606 c 0.73,1.047 0.917,2.405 0.5,3.632 -0.018,0.056 -0.036,0.111 -0.053,0.166 -0.486,1.565 -1.839,2.678 -3.449,2.835 l -5.192,0.356 C 11.579,-7.035 10.936,-7.126 10.348,-7.359 9.453,-7.714 8.711,-8.378 8.26,-9.23 c -0.734,-1.385 -1.941,-2.465 -3.399,-3.043 -0.038,-0.015 -0.076,-0.029 -0.114,-0.043 -1.591,-0.598 -3.336,-0.554 -4.915,0.124 -1.58,0.678 -2.814,1.913 -3.477,3.477 -0.7,1.653 -0.705,3.474 -0.013,5.127 C -2.966,-1.935 -1.667,-0.66 0,0"
             style="fill:#dedede;fill-opacity:1;fill-rule:nonzero;stroke:none"
             id="path881"
             inkscape:connector-curvature="0" /></g><g
           id="g883"
           transform="translate(399.8457,157.626)"><path
             d="m 0,0 c 5.765,0.016 10.736,-4.263 11.563,-9.953 0.339,-2.339 1.771,-4.361 3.829,-5.41 l 11.734,-5.688 c 1.004,-0.509 2.127,-0.776 3.25,-0.773 1.166,0.004 2.322,0.298 3.344,0.85 1.677,0.909 3.58,1.391 5.5,1.397 3.165,0.009 6.13,-1.231 8.347,-3.488 2.218,-2.258 3.404,-5.247 3.338,-8.416 -0.13,-6.273 -5.342,-11.389 -11.621,-11.407 h -0.046 c -2.408,0.002 -4.718,0.735 -6.681,2.117 -1.2,0.843 -2.612,1.288 -4.084,1.284 -1.409,-0.004 -2.773,-0.42 -3.946,-1.202 L 15,-47.043 c -1.952,-1.302 -3.139,-3.495 -3.173,-5.866 l -10e-4,-0.055 c -0.048,-2.562 1.324,-4.96 3.582,-6.255 l 11.637,-6.675 c 1.08,-0.62 2.309,-0.945 3.558,-0.941 1.245,0.003 2.476,0.334 3.561,0.957 1.743,1 3.733,1.532 5.754,1.538 3.16,0.009 6.122,-1.226 8.339,-3.478 2.217,-2.252 3.405,-5.234 3.347,-8.398 -0.115,-6.287 -5.339,-11.416 -11.647,-11.434 -0.271,0 -0.547,0.008 -0.819,0.026 -6.291,0.424 -11.153,5.895 -10.835,12.198 0.137,2.738 -1.23,5.273 -3.569,6.614 l -11.006,6.313 c -1.078,0.618 -2.306,0.943 -3.551,0.939 -1.353,-0.003 -2.678,-0.388 -3.831,-1.114 -1.841,-1.156 -3.969,-1.771 -6.153,-1.777 -3.161,-0.009 -6.122,1.226 -8.339,3.478 -2.217,2.252 -3.406,5.235 -3.347,8.399 0.113,6.12 4.989,11.136 11.101,11.421 0.174,0.007 0.347,0.011 0.52,0.012 2.269,0.006 4.475,-0.644 6.377,-1.882 1.194,-0.778 2.572,-1.187 3.984,-1.183 1.4,0.004 2.754,0.416 3.914,1.189 l 10.038,6.694 c 1.875,1.251 3.06,3.362 3.168,5.647 0.005,0.105 0.011,0.206 0.019,0.308 0.213,2.886 -1.293,5.589 -3.837,6.887 l -8.304,3.937 c -0.998,0.504 -2.115,0.77 -3.231,0.766 -1.7,-0.004 -3.348,-0.618 -4.641,-1.728 -2.098,-1.801 -4.78,-2.797 -7.551,-2.805 -0.071,-0.001 -0.142,0 -0.214,0.001 -3.001,0.046 -5.842,1.247 -7.999,3.379 -2.159,2.134 -3.391,4.961 -3.47,7.96 -0.083,3.169 1.085,6.164 3.29,8.435 C -6.124,-1.265 -3.166,-0.009 0,0"
             style="fill:#dedede;fill-opacity:1;fill-rule:nonzero;stroke:none"
             id="path885"
             inkscape:connector-curvature="0" /></g><g
           id="g887"
           transform="translate(334.8955,304.4053)"><path
             d="m 0,0 c 0.454,8.022 6.818,14.583 14.803,15.263 3.281,0.279 6.213,2.103 7.843,4.878 l 8.882,15.854 c 0.791,1.355 1.256,2.896 1.345,4.458 0.092,1.623 -0.222,3.255 -0.906,4.723 -1.124,2.409 -1.639,5.094 -1.488,7.765 0.25,4.404 2.218,8.427 5.544,11.326 3.324,2.898 7.58,4.299 11.984,3.946 8.714,-0.699 15.401,-8.375 14.907,-17.11 L 62.91,51.04 c -0.203,-3.351 -1.413,-6.505 -3.498,-9.122 -1.273,-1.597 -2.007,-3.525 -2.123,-5.574 -0.111,-1.959 0.355,-3.891 1.346,-5.589 l 8.05,-13.778 c 1.65,-2.825 4.602,-4.657 7.899,-4.9 l 0.074,-0.005 c 3.563,-0.28 7.011,1.431 8.999,4.465 l 10.249,15.636 c 0.951,1.451 1.506,3.136 1.604,4.871 0.098,1.733 -0.26,3.474 -1.036,5.035 -1.248,2.507 -1.824,5.319 -1.664,8.132 0.249,4.396 2.212,8.414 5.528,11.312 3.315,2.898 7.562,4.305 11.959,3.963 8.737,-0.681 15.44,-8.374 14.943,-17.15 -0.021,-0.378 -0.056,-0.76 -0.104,-1.137 -1.11,-8.718 -9.124,-15.027 -17.865,-14.064 -3.798,0.418 -7.437,-1.275 -9.497,-4.418 L 88.081,13.928 C 87.132,12.48 86.578,10.798 86.48,9.065 86.374,7.183 86.801,5.309 87.714,3.644 c 1.457,-2.657 2.136,-5.667 1.964,-8.707 -0.249,-4.397 -2.213,-8.415 -5.531,-11.313 -3.315,-2.898 -7.562,-4.305 -11.959,-3.961 -8.505,0.663 -15.081,7.861 -14.969,16.388 0.003,0.243 0.011,0.484 0.025,0.723 0.179,3.159 1.267,6.172 3.147,8.717 1.179,1.597 1.862,3.48 1.973,5.445 0.111,1.947 -0.349,3.865 -1.331,5.544 l -8.48,14.518 c -1.585,2.712 -4.424,4.534 -7.595,4.874 -0.145,0.016 -0.286,0.033 -0.425,0.051 -3.998,0.535 -7.884,-1.337 -9.898,-4.768 L 28.47,19.929 c -0.784,-1.346 -1.245,-2.878 -1.333,-4.432 -0.134,-2.365 0.583,-4.708 2.019,-6.598 2.332,-3.069 3.496,-6.882 3.279,-10.737 -0.006,-0.099 -0.013,-0.199 -0.021,-0.299 -0.311,-4.171 -2.216,-8.024 -5.362,-10.849 -3.147,-2.825 -7.182,-4.306 -11.362,-4.167 -4.415,0.146 -8.485,2.019 -11.461,5.274 C 1.253,-8.623 -0.25,-4.404 0,0"
             style="fill:#dedede;fill-opacity:1;fill-rule:nonzero;stroke:none"
             id="path889"
             inkscape:connector-curvature="0" /></g><g
           id="g891"
           transform="translate(115.4214,319.3057)"><path
             d="m 0,0 c -7.897,1.868 -13.299,9.355 -12.565,17.416 0.301,3.312 -0.995,6.549 -3.467,8.66 l -14.199,11.632 c -1.207,1.025 -2.658,1.76 -4.196,2.124 -1.597,0.377 -3.276,0.354 -4.856,-0.068 -2.594,-0.693 -5.355,-0.73 -7.986,-0.108 -4.335,1.025 -7.987,3.693 -10.283,7.511 -2.296,3.818 -2.938,8.297 -1.81,12.614 2.234,8.543 11.048,13.839 19.647,11.805 l 0.062,-0.015 c 3.297,-0.793 6.219,-2.553 8.453,-5.088 1.365,-1.548 3.152,-2.619 5.169,-3.096 1.929,-0.456 3.933,-0.334 5.796,0.352 l 15.123,5.573 c 3.1,1.143 5.443,3.756 6.266,6.991 l 0.019,0.073 c 0.907,3.493 -0.186,7.225 -2.851,9.738 l -13.741,12.951 c -1.275,1.202 -2.853,2.051 -4.562,2.456 -1.706,0.403 -3.5,0.354 -5.189,-0.143 -2.714,-0.798 -5.612,-0.874 -8.381,-0.219 -4.328,1.023 -7.977,3.685 -10.274,7.495 -2.296,3.808 -2.946,8.28 -1.829,12.592 2.218,8.568 11.052,13.877 19.692,11.833 0.372,-0.088 0.746,-0.19 1.112,-0.305 8.474,-2.641 13.333,-11.725 10.833,-20.249 -1.086,-3.702 -0.045,-7.62 2.718,-10.223 L 1.697,90.052 c 1.272,-1.199 2.846,-2.047 4.553,-2.45 1.853,-0.438 3.792,-0.345 5.609,0.27 2.899,0.98 6.013,1.124 9.005,0.416 4.329,-1.024 7.978,-3.686 10.275,-7.496 2.296,-3.809 2.945,-8.281 1.828,-12.593 -2.161,-8.342 -10.48,-13.61 -18.94,-11.994 -0.241,0.046 -0.479,0.097 -0.715,0.153 -3.109,0.735 -5.914,2.349 -8.113,4.667 -1.38,1.456 -3.132,2.467 -5.066,2.925 -1.917,0.453 -3.905,0.334 -5.749,-0.345 l -15.933,-5.872 c -2.978,-1.097 -5.291,-3.598 -6.189,-6.691 -0.04,-0.142 -0.082,-0.279 -0.126,-0.415 -1.237,-3.88 -0.062,-8.075 2.995,-10.685 l 10.076,-8.112 c 1.2,-1.018 2.642,-1.747 4.172,-2.108 2.329,-0.551 4.785,-0.251 6.918,0.843 3.464,1.778 7.461,2.263 11.256,1.366 0.098,-0.024 0.196,-0.048 0.294,-0.073 4.092,-1.046 7.588,-3.62 9.842,-7.248 2.254,-3.628 3.014,-7.902 2.139,-12.033 C 18.904,8.211 16.323,4.494 12.56,2.109 8.796,-0.276 4.336,-1.025 0,0"
             style="fill:#dedede;fill-opacity:1;fill-rule:nonzero;stroke:none"
             id="path893"
             inkscape:connector-curvature="0" /></g></g></g><g
       id="g895"><g
         id="g897"
         clip-path="url(#clipPath901)"><g
           id="g903"
           transform="translate(416,370.6484)"><path
             d="M 0,0 H -219.694 V 68.013 H 0 c 18.781,0 34.007,-15.225 34.007,-34.006 V 34.006 C 34.007,15.225 18.781,0 0,0"
             style="fill:#807efb;fill-opacity:1;fill-rule:nonzero;stroke:none"
             id="path905"
             inkscape:connector-curvature="0" /></g><g
           id="g907"
           transform="translate(423.7344,158.1055)"><path
             d="M 0,0 H -210.425 V 68.014 H 0 c 18.781,0 34.006,-15.226 34.006,-34.007 C 34.006,15.226 18.781,0 0,0"
             style="fill:#48cdd2;fill-opacity:1;fill-rule:nonzero;stroke:none"
             id="path909"
             inkscape:connector-curvature="0" /></g><g
           id="g911"
           transform="translate(79.2661,257.2925)"><path
             d="M 0,0 H 203.001 V 68.013 H 0 c -18.781,0 -34.007,-15.225 -34.007,-34.006 V 34.006 C -34.007,15.225 -18.781,0 0,0"
             style="fill:#ed5276;fill-opacity:1;fill-rule:nonzero;stroke:none"
             id="path913"
             inkscape:connector-curvature="0" /></g><g
           id="g915"
           transform="translate(82.1357,63.6426)"><path
             d="M 0,0 H 224.693 V 68.014 H 0 c -18.782,0 -34.007,-15.226 -34.007,-34.007 C -34.007,15.226 -18.782,0 0,0"
             style="fill:#ffc153;fill-opacity:1;fill-rule:nonzero;stroke:none"
             id="path917"
             inkscape:connector-curvature="0" /></g><text
           xml:space="preserve"
           style="font-style:normal;font-variant:normal;font-weight:normal;font-stretch:normal;font-size:20px;line-height:1.25;font-family:Arial;-inkscape-font-specification:Arial;letter-spacing:0px;word-spacing:0px;fill:#000000;fill-opacity:1;stroke:none;stroke-width:0.75;"
           x="258.25473"
           y="-406.83963"
           id="text1432"
           transform="scale(1,-1)"><tspan
             sodipodi:role="line"
             id="tspan1430"
             x="258.25473"
             y="-384.33963"
             style="stroke-width:0.75;-inkscape-font-specification:Arial;font-family:Arial;font-weight:normal;font-style:normal;font-stretch:normal;font-variant:normal;" /></text>
<text
           xml:space="preserve"
           style="font-style:normal;font-variant:normal;font-weight:normal;font-stretch:normal;font-size:20px;line-height:1.25;font-family:Arial;-inkscape-font-specification:Arial;letter-spacing:0px;word-spacing:0px;fill:#000000;fill-opacity:1;stroke:none;stroke-width:0.75;"
           x="256.48587"
           y="-410.37738"
           id="text1436"
           transform="scale(1,-1)"><tspan
             sodipodi:role="line"
             id="tspan1434"
             x="256.48587"
             y="-387.87738"
             style="stroke-width:0.75;-inkscape-font-specification:Arial;font-family:Arial;font-weight:normal;font-style:normal;font-stretch:normal;font-variant:normal;" /></text>
<text
           xml:space="preserve"
           style="font-style:normal;font-variant:normal;font-weight:normal;font-stretch:normal;font-size:10.00000025px;line-height:1.25;font-family:Arial;-inkscape-font-specification:Arial;letter-spacing:0px;word-spacing:0px;fill:#000000;fill-opacity:1;stroke:none;stroke-width:0.75;"
           x="267.09906"
           y="-400.35379"
           id="text1440"
           transform="scale(1,-1)"><tspan
             sodipodi:role="line"
             id="tspan1438"
             x="267.09906"
             y="-382.33871"
             style="stroke-width:0.75;font-size:10.00000025px;" /></text>
<text
           xml:space="preserve"
           style="font-style:normal;font-variant:normal;font-weight:normal;font-stretch:normal;font-size:16.0000004px;line-height:1.25;font-family:Arial;-inkscape-font-specification:Arial;letter-spacing:0px;word-spacing:0px;fill:#000000;fill-opacity:1;stroke:none;stroke-width:0.75;"
           x="281.25"
           y="-401.53305"
           id="text1444"
           transform="scale(1,-1)"><tspan
             sodipodi:role="line"
             id="tspan1442"
             x="281.25"
             y="-392.52551"
             style="stroke-width:0.75;font-size:16.0000004px;" /></text>
<text
           xml:space="preserve"
           style="font-style:normal;font-variant:normal;font-weight:normal;font-stretch:normal;font-size:16px;line-height:1.25;font-family:Arial;-inkscape-font-specification:Arial;letter-spacing:0px;word-spacing:0px;fill:#000000;fill-opacity:1;stroke:none;stroke-width:0.75"
           x="228.18394"
           y="-411.55664"
           id="text1448"
           transform="scale(1,-1)"><tspan
             sodipodi:role="line"
             id="tspan1446"
             x="228.18394"
             y="-411.55664"
             style="stroke-width:0.75;fill:#ffffff;fill-opacity:1">Vous nous racontez</tspan><tspan
             sodipodi:role="line"
             x="228.18394"
             y="-391.55664"
             style="stroke-width:0.75;fill:#ffffff;fill-opacity:1"
             id="tspan1450">Votre idée</tspan></text>
</g></g><g
       id="g919"><g
         id="g921"><g
           id="g927"><g
             id="g929"><path
               d="m 100.449,399.411 c -0.718,-33.956 26.593,-61.707 60.386,-61.707 v 0 c 10.861,0 21.047,2.871 29.85,7.892 v 0 c 8.043,4.588 17.897,4.627 25.916,-0.002 v 0 l 53.393,-30.826 c 8.109,-4.682 13.165,-13.373 12.962,-22.735 v 0 c -0.002,-0.091 -0.003,-0.182 -0.005,-0.273 v 0 c -0.147,-8.597 -4.433,-16.59 -11.599,-21.341 v 0 l -43.864,-29.071 c -8.876,-5.883 -20.484,-5.797 -29.173,0.357 v 0 c -9.784,6.93 -21.716,11.022 -34.607,11.073 v 0 c -32.7,0.126 -59.854,-26.253 -60.622,-58.946 v 0 c -0.799,-34.022 26.541,-61.852 60.382,-61.852 v 0 c 10.32,0 20.031,2.592 28.526,7.159 v 0 c 7.477,4.019 16.465,4.053 24.016,0.175 v 0 l 53.788,-26.255 c 7.608,-3.907 12.673,-11.329 13.879,-19.796 v 0 c 4.17,-29.268 29.369,-51.762 59.78,-51.762 v 0 c 33.842,0 61.184,27.833 60.382,61.857 v 0 c -0.757,32.17 -27.094,58.352 -59.269,58.931 v 0 c -15.382,0.277 -29.479,-5.199 -40.285,-14.42 v 0 c -8.017,-6.839 -19.35,-8.2 -28.722,-3.387 v 0 l -38.018,18.156 c -9.292,4.772 -14.649,14.686 -13.852,25.101 v 0 c 0.041,0.521 0.074,1.049 0.101,1.584 v 0 c 0.418,8.311 4.647,15.962 11.583,20.559 v 0 l 46.215,30.63 c 8.731,5.787 20.019,5.651 28.781,-0.088 v 0 c 10.181,-6.666 22.497,-10.369 35.712,-9.793 v 0 c 31.613,1.376 57.03,27.39 57.703,59.025 v 0 c 0.721,33.959 -26.591,61.715 -60.386,61.715 v 0 c -11.722,0 -22.659,-3.346 -31.918,-9.128 v 0 c -8.2,-5.121 -18.52,-5.42 -26.892,-0.586 v 0 l -50.498,29.156 c -8.553,4.938 -13.432,14.297 -12.909,24.159 v 0 c 1.698,31.964 -22.549,61.035 -55.985,63.378 v 0 c -1.422,0.1 -2.837,0.149 -4.242,0.149 v 0 C 128.511,458.5 101.144,432.33 100.449,399.411"
               style="fill:url(#radialGradient935);stroke:none"
               id="path937"
               inkscape:connector-curvature="0" /></g></g></g></g><g
       id="g939"><g
         id="g941"
         clip-path="url(#clipPath945)"><g
           id="g947"
           transform="translate(343.457,48.3359)"><path
             d="m 0,0 c -26.495,0 -49.286,19.729 -53.013,45.892 -1.531,10.751 -8.082,20.063 -17.523,24.911 l -53.855,26.289 c -4.607,2.351 -9.767,3.595 -14.928,3.595 -5.359,0 -10.677,-1.336 -15.38,-3.864 -7.721,-4.15 -16.466,-6.344 -25.29,-6.344 -14.546,0 -28.156,5.731 -38.321,16.138 -10.162,10.404 -15.57,24.154 -15.228,38.719 0.677,28.823 24.701,52.271 53.554,52.271 h 0.209 c 11.068,-0.044 21.678,-3.437 30.682,-9.815 5.498,-3.895 11.982,-5.952 18.75,-5.952 6.47,0 12.746,1.893 18.149,5.474 l 43.864,29.072 c 8.992,5.96 14.472,16.024 14.657,26.922 l 0.005,0.247 c 0.256,11.779 -6.02,22.816 -16.378,28.796 l -53.392,30.826 c -4.956,2.861 -10.605,4.373 -16.339,4.373 -5.723,0 -11.388,-1.505 -16.381,-4.353 -8.023,-4.576 -17.175,-6.994 -26.465,-6.994 -14.522,0 -28.115,5.715 -38.276,16.093 -10.158,10.375 -15.583,24.096 -15.276,38.634 0.611,28.893 24.69,52.398 53.676,52.398 1.248,0 2.514,-0.044 3.764,-0.132 28.908,-2.027 51.176,-27.237 49.638,-56.197 -0.668,-12.582 5.584,-24.246 16.316,-30.442 l 50.499,-29.155 c 4.944,-2.855 10.584,-4.363 16.308,-4.363 6.216,0 12.309,1.753 17.621,5.071 8.475,5.293 18.26,8.09 28.298,8.09 14.525,0 28.118,-5.717 38.281,-16.096 10.157,-10.376 15.581,-24.099 15.271,-38.638 -0.598,-28.128 -23.072,-51.119 -51.167,-52.343 -0.8,-0.034 -1.594,-0.052 -2.386,-0.052 -10.43,0 -20.556,3.021 -29.284,8.736 -5.477,3.587 -11.805,5.483 -18.294,5.483 -6.434,0 -12.662,-1.873 -18.007,-5.416 l -46.215,-30.63 c -8.635,-5.723 -14.105,-15.41 -14.633,-25.913 -0.024,-0.478 -0.054,-0.947 -0.09,-1.41 -1.016,-13.261 5.871,-25.705 17.546,-31.699 l 38.109,-18.204 c 4.578,-2.331 9.709,-3.564 14.843,-3.563 7.81,0 15.391,2.798 21.346,7.879 9.669,8.251 22.006,12.796 34.738,12.796 0.328,0 0.657,-0.004 0.987,-0.01 13.79,-0.248 26.831,-5.8 36.72,-15.633 C 47.6,81.654 53.225,68.646 53.549,54.86 53.893,40.296 48.485,26.546 38.322,16.141 28.157,5.732 14.547,0 0,0"
             style="fill:#807efb;fill-opacity:1;fill-rule:nonzero;stroke:none"
             id="path949"
             inkscape:connector-curvature="0" /></g><g
           id="g951"
           transform="translate(381.167,139.8232)"><path
             d="m 0,0 c -9.889,9.833 -22.93,15.385 -36.72,15.633 -0.33,0.006 -0.659,0.01 -0.987,0.01 -12.731,0 -25.069,-4.545 -34.738,-12.796 -5.955,-5.081 -13.535,-7.879 -21.346,-7.879 -5.134,-0.001 -10.265,1.231 -14.843,3.562 l -15.927,7.608 -7.15,-15.367 23.465,-11.456 c 9.441,-4.847 15.992,-14.16 17.523,-24.911 3.727,-26.163 26.518,-45.891 53.013,-45.891 14.547,0 28.157,5.732 38.322,16.14 10.163,10.406 15.571,24.156 15.227,38.72 C 15.515,-22.841 9.89,-9.833 0,0"
             style="fill:#ffc153;fill-opacity:1;fill-rule:nonzero;stroke:none"
             id="path953"
             inkscape:connector-curvature="0" /></g><g
           id="g955"
           transform="translate(234.4238,156.5576)"><path
             d="m 0,0 c -11.674,5.994 -18.562,18.438 -17.545,31.699 0.035,0.463 0.065,0.932 0.089,1.41 0.528,10.503 5.998,20.19 14.633,25.913 L 28.589,79.841 18.982,93.769 -3.161,79.093 c -5.402,-3.581 -11.678,-5.475 -18.149,-5.475 -6.768,0 -13.252,2.058 -18.75,5.952 -9.003,6.378 -19.613,9.772 -30.682,9.816 h -0.209 c -28.853,0 -52.877,-23.448 -53.554,-52.272 -0.342,-14.564 5.066,-28.314 15.228,-38.718 10.166,-10.408 23.776,-16.139 38.321,-16.139 8.824,0 17.569,2.194 25.29,6.345 4.704,2.527 10.021,3.863 15.38,3.863 5.161,0 10.322,-1.243 14.929,-3.595 l 30.389,-14.834 7.151,15.367 z"
             style="fill:#48cdd2;fill-opacity:1;fill-rule:nonzero;stroke:none"
             id="path957"
             inkscape:connector-curvature="0" /></g><g
           id="g959"
           transform="translate(277.8164,246.21)"><path
             d="m 0,0 c 5.345,3.543 11.572,5.416 18.007,5.416 6.489,0 12.816,-1.896 18.294,-5.483 8.727,-5.715 18.853,-8.736 29.284,-8.736 0.792,0 1.586,0.018 2.386,0.052 28.094,1.224 50.569,24.215 51.167,52.343 0.309,14.539 -5.115,28.262 -15.272,38.637 -10.162,10.38 -23.756,16.097 -38.28,16.097 -10.038,0 -19.823,-2.797 -28.298,-8.09 -5.312,-3.318 -11.405,-5.071 -17.621,-5.071 -5.725,0 -11.364,1.508 -16.309,4.363 l -25.232,14.568 -8.528,-14.61 25.997,-15.009 C 5.952,68.497 12.229,57.46 11.973,45.681 L 11.968,45.434 C 11.782,34.536 6.303,24.472 -2.689,18.512 L -24.41,4.117 -14.804,-9.812 Z"
             style="fill:#ed5276;fill-opacity:1;fill-rule:nonzero;stroke:none"
             id="path961"
             inkscape:connector-curvature="0" /></g></g></g><g
       id="g963"><g
         id="g965"><g
           id="g971"><g
             id="g973"><path
               d="m 116.354,398.103 c 0,-24.566 19.915,-44.48 44.481,-44.48 v 0 c 24.565,0 44.48,19.914 44.48,44.48 v 0 c 0,24.566 -19.915,44.48 -44.48,44.48 v 0 c -24.566,0 -44.481,-19.914 -44.481,-44.48"
               style="fill:url(#radialGradient979);stroke:none"
               id="path981"
               inkscape:connector-curvature="0" /></g></g></g></g><g
       id="g983"><g
         id="g985"><g
           id="g991"><g
             id="g993"><path
               d="m 118.988,192.379 c 0,-24.567 19.914,-44.48 44.48,-44.48 v 0 c 24.566,0 44.481,19.913 44.481,44.48 v 0 c 0,24.565 -19.915,44.48 -44.481,44.48 v 0 c -24.566,0 -44.48,-19.915 -44.48,-44.48"
               style="fill:url(#radialGradient999);stroke:none"
               id="path1001"
               inkscape:connector-curvature="0" /></g></g></g></g><g
       id="g1003"><g
         id="g1005"><g
           id="g1011"><g
             id="g1013"><path
               d="m 298.921,290.972 c 0,-24.567 19.916,-44.481 44.481,-44.481 v 0 c 24.567,0 44.481,19.914 44.481,44.481 v 0 c 0,24.565 -19.914,44.48 -44.481,44.48 v 0 c -24.565,0 -44.481,-19.915 -44.481,-44.48"
               style="fill:url(#radialGradient1019);stroke:none"
               id="path1021"
               inkscape:connector-curvature="0" /></g></g></g></g><g
       id="g1023"><g
         id="g1025"><g
           id="g1031"><g
             id="g1033"><path
               d="m 298.976,101.901 c 0,-24.567 19.916,-44.481 44.481,-44.481 v 0 c 24.566,0 44.481,19.914 44.481,44.481 v 0 c 0,24.565 -19.915,44.479 -44.481,44.479 v 0 c -24.565,0 -44.481,-19.914 -44.481,-44.479"
               style="fill:url(#radialGradient1039);stroke:none"
               id="path1041"
               inkscape:connector-curvature="0" /></g></g></g></g><text
       transform="scale(1,-1)"
       style="font-variant:normal;font-weight:bold;font-stretch:normal;font-size:13.56410027px;font-family:'Titillium Lt';-inkscape-font-specification:Titillium-Light;writing-mode:lr-tb;fill:#474549;fill-opacity:1;fill-rule:nonzero;stroke:none"
       id="text1045"
       x="138.9072"
       y="-410.1738"><tspan
         sodipodi:role="line"
         id="tspan1043"
         x="138.9072"
         y="-410.1738">ETAPE</tspan></text>
<text
       transform="scale(1,-1)"
       style="font-variant:normal;font-weight:bold;font-stretch:normal;font-size:43.07699966px;font-family:'Titillium Bd';-inkscape-font-specification:Titillium-Bold;writing-mode:lr-tb;fill:#474549;fill-opacity:1;fill-rule:nonzero;stroke:none"
       id="text1049"
       x="145.7114"
       y="-377.71439"><tspan
         x="145.7114"
         sodipodi:role="line"
         id="tspan1047"
         y="-377.71439">1</tspan></text>
<text
       transform="scale(1,-1)"
       style="font-variant:normal;font-weight:bold;font-stretch:normal;font-size:43.07699966px;font-family:'Titillium Bd';-inkscape-font-specification:Titillium-Bold;writing-mode:lr-tb;fill:#474549;fill-opacity:1;fill-rule:nonzero;stroke:none"
       id="text1057"
       x="328.27979"
       y="-270.9707"><tspan
         x="328.27979"
         y="-270.9707"
         sodipodi:role="line"
         id="tspan1055">2</tspan></text>
<text
       transform="scale(1,-1)"
       style="font-variant:normal;font-weight:bold;font-stretch:normal;font-size:43.07699966px;font-family:'Titillium Bd';-inkscape-font-specification:Titillium-Bold;writing-mode:lr-tb;fill:#474549;fill-opacity:1;fill-rule:nonzero;stroke:none"
       id="text1065"
       x="148.90089"
       y="-171.78419"><tspan
         x="148.90089"
         sodipodi:role="line"
         id="tspan1063"
         y="-171.78419">3</tspan></text>
<text
       transform="scale(1,-1)"
       style="font-variant:normal;font-weight:bold;font-stretch:normal;font-size:43.07699966px;font-family:'Titillium Bd';-inkscape-font-specification:Titillium-Bold;writing-mode:lr-tb;fill:#474549;fill-opacity:1;fill-rule:nonzero;stroke:none"
       id="text1073"
       x="326.7153"
       y="-81.099602"><tspan
         x="326.7153"
         sodipodi:role="line"
         id="tspan1071"
         y="-81.099602">4</tspan></text>
<text
       transform="matrix(1,0,0,-1,232.8716,415.4468)"
       style="font-variant:normal;font-weight:normal;font-stretch:normal;font-size:11px;font-family:Titillium;-inkscape-font-specification:Titillium-Regular;writing-mode:lr-tb;fill:#f9f9f9;fill-opacity:1;fill-rule:nonzero;stroke:none"
       id="text1093"><tspan
         x="0"
         y="10.035633"
         sodipodi:role="line"
         id="tspan1091" /></text>
<g
       id="g1095"><g
         id="g1097"
         clip-path="url(#clipPath1101)"><g
           id="g1103"
           transform="translate(384.4873,422.1719)"><path
             d="m 0,0 c -4.171,0 -7.564,-3.393 -7.564,-7.564 v -13.525 c 0,-4.171 3.393,-7.564 7.564,-7.564 h 20.944 c 0.375,0 0.736,-0.153 0.996,-0.423 0.261,-0.27 0.402,-0.634 0.388,-1.01 l -0.203,-5.902 11.22,7.119 c 0.221,0.141 0.478,0.216 0.741,0.216 h 2.093 c 4.171,0 7.564,3.393 7.564,7.564 V -7.564 C 43.743,-3.393 40.35,0 36.179,0 Z m 20.65,-39.949 c -0.237,0 -0.474,0.061 -0.687,0.183 -0.446,0.256 -0.714,0.737 -0.696,1.25 l 0.244,7.093 H 0 c -5.698,0 -10.334,4.636 -10.334,10.334 V -7.564 C -10.334,-1.866 -5.698,2.77 0,2.77 h 36.179 c 5.698,0 10.334,-4.636 10.334,-10.334 v -13.525 c 0,-5.698 -4.636,-10.334 -10.334,-10.334 h -1.691 l -13.095,-8.31 c -0.227,-0.143 -0.485,-0.216 -0.743,-0.216"
             style="fill:#ffffff;fill-opacity:1;fill-rule:nonzero;stroke:none"
             id="path1105"
             inkscape:connector-curvature="0" /></g><g
           id="g1107"
           transform="translate(390.5859,408.0142)"><path
             d="m 0,0 c 0,-1.361 -1.104,-2.465 -2.465,-2.465 -1.361,0 -2.466,1.104 -2.466,2.465 0,1.362 1.105,2.465 2.466,2.465 C -1.104,2.465 0,1.362 0,0"
             style="fill:#ffffff;fill-opacity:1;fill-rule:nonzero;stroke:none"
             id="path1109"
             inkscape:connector-curvature="0" /></g><g
           id="g1111"
           transform="translate(400.2236,408.0142)"><path
             d="m 0,0 c 0,-1.361 -1.104,-2.465 -2.466,-2.465 -1.361,0 -2.465,1.104 -2.465,2.465 0,1.362 1.104,2.465 2.465,2.465 C -1.104,2.465 0,1.362 0,0"
             style="fill:#ffffff;fill-opacity:1;fill-rule:nonzero;stroke:none"
             id="path1113"
             inkscape:connector-curvature="0" /></g><g
           id="g1115"
           transform="translate(409.8604,408.0142)"><path
             d="m 0,0 c 0,-1.361 -1.104,-2.465 -2.465,-2.465 -1.362,0 -2.466,1.104 -2.466,2.465 0,1.362 1.104,2.465 2.466,2.465 C -1.104,2.465 0,1.362 0,0"
             style="fill:#ffffff;fill-opacity:1;fill-rule:nonzero;stroke:none"
             id="path1117"
             inkscape:connector-curvature="0" /></g><g
           id="g1119"
           transform="translate(419.498,408.0142)"><path
             d="m 0,0 c 0,-1.361 -1.104,-2.465 -2.466,-2.465 -1.361,0 -2.465,1.104 -2.465,2.465 0,1.362 1.104,2.465 2.465,2.465 C -1.104,2.465 0,1.362 0,0"
             style="fill:#ffffff;fill-opacity:1;fill-rule:nonzero;stroke:none"
             id="path1121"
             inkscape:connector-curvature="0" /></g><g
           id="g1123"
           transform="translate(86.5791,73.8564)"><path
             d="m 0,0 c -0.643,-1.105 -1.791,-1.766 -3.068,-1.766 -1.278,0 -2.426,0.661 -3.069,1.766 -8.877,15.263 -13.968,26.832 -13.968,31.741 0,9.394 7.643,17.036 17.037,17.036 9.394,0 17.036,-7.642 17.036,-17.036 C 13.968,26.832 8.877,15.263 0,0 m -3.068,51.23 c -10.747,0 -19.49,-8.743 -19.49,-19.489 0,-6.93 7.777,-21.757 14.301,-32.973 1.087,-1.871 3.027,-2.987 5.189,-2.987 2.161,0 4.101,1.116 5.189,2.987 6.524,11.216 14.3,26.043 14.3,32.973 0,10.746 -8.743,19.489 -19.489,19.489"
             style="fill:#ffffff;fill-opacity:1;fill-rule:nonzero;stroke:none"
             id="path1125"
             inkscape:connector-curvature="0" /></g><g
           id="g1127"
           transform="translate(83.5107,96.2383)"><path
             d="m 0,0 c -5.784,0 -10.49,4.705 -10.49,10.489 0,5.784 4.706,10.49 10.49,10.49 5.785,0 10.49,-4.706 10.49,-10.49 C 10.49,4.705 5.785,0 0,0 m 0,23.433 c -7.137,0 -12.943,-5.807 -12.943,-12.944 0,-7.136 5.806,-12.942 12.943,-12.942 7.137,0 12.943,5.806 12.943,12.942 0,7.137 -5.806,12.944 -12.943,12.944"
             style="fill:#ffffff;fill-opacity:1;fill-rule:nonzero;stroke:none"
             id="path1129"
             inkscape:connector-curvature="0" /></g><g
           id="g1131"
           transform="translate(83.5107,112.5859)"><path
             d="m 0,0 c -3.235,0 -5.858,-2.622 -5.858,-5.858 0,-3.236 2.623,-5.858 5.858,-5.858 3.235,0 5.858,2.622 5.858,5.858 C 5.858,-2.622 3.235,0 0,0"
             style="fill:#ffffff;fill-opacity:1;fill-rule:nonzero;stroke:none"
             id="path1133"
             inkscape:connector-curvature="0" /></g><g
           id="g1135"
           transform="translate(80.0205,280.8516)"><path
             d="M 0,0 6.423,5.135 C 6.568,5.251 6.724,5.36 6.887,5.463 6.905,5.475 6.924,5.485 6.942,5.497 7.093,5.589 7.25,5.676 7.414,5.757 8.913,6.488 10.688,6.487 12.186,5.754 12.351,5.673 12.509,5.585 12.661,5.491 12.682,5.478 12.703,5.466 12.724,5.453 12.888,5.349 13.045,5.238 13.191,5.12 L 29.223,-7.821 H -9.782 Z M -12.046,18.405 4.713,6.898 -12.046,-6.501 Z m 18.848,15.67 c 1.802,1.333 4.219,1.328 6.013,-0.014 L 30.592,20.765 12.545,8.254 C 10.779,8.907 8.821,8.907 7.055,8.256 L -11.164,20.765 Z M 14.88,6.898 31.461,18.393 V -6.485 Z m 19.026,13.829 c 0,0.106 -0.016,0.209 -0.042,0.309 -0.009,0.033 -0.023,0.062 -0.034,0.094 -0.024,0.066 -0.049,0.13 -0.083,0.191 -0.019,0.033 -0.041,0.064 -0.063,0.096 -0.037,0.053 -0.077,0.104 -0.122,0.15 -0.028,0.03 -0.056,0.057 -0.087,0.083 -0.021,0.018 -0.037,0.04 -0.059,0.056 L 14.28,36.019 c -2.667,1.994 -6.257,2.002 -8.933,0.02 l -19.343,-14.33 c -0.023,-0.017 -0.04,-0.039 -0.062,-0.058 -0.031,-0.026 -0.061,-0.054 -0.089,-0.084 -0.045,-0.046 -0.083,-0.096 -0.12,-0.149 -0.023,-0.032 -0.046,-0.063 -0.065,-0.098 -0.033,-0.06 -0.058,-0.123 -0.082,-0.189 -0.011,-0.032 -0.025,-0.062 -0.034,-0.094 -0.027,-0.101 -0.043,-0.204 -0.043,-0.31 v -29.77 c 0,-0.004 10e-4,-0.009 0.002,-0.013 0,-0.073 0.008,-0.147 0.022,-0.221 0.004,-0.02 0.01,-0.039 0.015,-0.058 0.002,-0.008 0.004,-0.015 0.006,-0.022 0.004,-0.016 0.008,-0.031 0.012,-0.047 0.005,-0.014 0.007,-0.029 0.012,-0.044 0.005,-0.013 0.012,-0.026 0.017,-0.039 0.01,-0.025 0.022,-0.05 0.033,-0.074 0.018,-0.038 0.038,-0.076 0.059,-0.112 0.007,-0.011 0.013,-0.022 0.02,-0.033 0.009,-0.014 0.019,-0.029 0.029,-0.043 0.033,-0.046 0.069,-0.089 0.107,-0.129 0.011,-0.012 0.02,-0.024 0.031,-0.036 0.01,-0.009 0.021,-0.018 0.031,-0.027 0.011,-0.01 0.021,-0.017 0.032,-0.026 0.032,-0.029 0.065,-0.057 0.101,-0.081 0.016,-0.012 0.034,-0.02 0.05,-0.031 0.036,-0.022 0.071,-0.044 0.108,-0.062 0.002,-10e-4 0.004,-0.003 0.006,-0.004 0.007,-0.003 0.016,-0.005 0.023,-0.008 h 0.001 c 0.023,-0.011 0.046,-0.02 0.071,-0.03 0.043,-0.016 0.087,-0.03 0.132,-0.041 0.015,-0.004 0.029,-0.01 0.043,-0.013 0.012,-0.003 0.025,-0.004 0.037,-0.006 0.073,-0.014 0.146,-0.023 0.222,-0.023 v 0 h 10e-4 45.952 v 0 h 0.001 c 0.075,0 0.149,0.009 0.221,0.023 0.012,0.002 0.024,0.003 0.036,0.006 0.015,0.003 0.029,0.009 0.044,0.012 0.045,0.012 0.089,0.026 0.133,0.042 0.023,0.01 0.046,0.018 0.069,0.029 0.007,0.003 0.016,0.004 0.023,0.008 0.002,0 0.004,0.003 0.006,0.004 0.039,0.018 0.075,0.041 0.112,0.064 0.016,0.01 0.032,0.018 0.048,0.029 0.035,0.024 0.068,0.052 0.1,0.08 0.011,0.009 0.022,0.017 0.032,0.026 0.011,0.01 0.022,0.019 0.032,0.029 0.011,0.011 0.021,0.024 0.031,0.035 0.038,0.041 0.074,0.084 0.107,0.129 0.01,0.015 0.02,0.029 0.029,0.044 0.007,0.01 0.013,0.021 0.019,0.031 0.023,0.037 0.042,0.075 0.061,0.114 0.011,0.024 0.022,0.048 0.032,0.073 0.005,0.012 0.012,0.024 0.016,0.037 0.006,0.015 0.008,0.031 0.013,0.046 0.005,0.016 0.008,0.031 0.012,0.047 0.003,0.008 0.005,0.017 0.007,0.025 0.005,0.019 0.011,0.036 0.015,0.054 0.014,0.074 0.021,0.148 0.022,0.222 0,0.005 10e-4,0.009 10e-4,0.014 z"
             style="fill:#ffffff;fill-opacity:1;fill-rule:nonzero;stroke:none"
             id="path1137"
             inkscape:connector-curvature="0" /></g><g
           id="g1139"
           transform="translate(434.6953,169.9492)"><path
             d="m 0,0 c 0,-0.205 -0.167,-0.372 -0.372,-0.372 h -32.707 c -0.206,0 -0.373,0.167 -0.373,0.372 v 35.182 h 8.766 c 0.621,0 1.123,0.502 1.123,1.122 v 8.925 H -0.372 C -0.167,45.229 0,45.062 0,44.856 Z m -25.807,43.611 v -6.186 h -6.089 z m 25.435,3.861 h -24.314 c -0.007,0 -0.014,-0.002 -0.022,-0.002 -0.065,-10e-4 -0.131,-0.007 -0.194,-0.02 -0.002,0 -0.004,0 -0.006,-0.001 -0.066,-0.012 -0.128,-0.033 -0.19,-0.057 -0.018,-0.008 -0.036,-0.017 -0.054,-0.025 -0.044,-0.02 -0.085,-0.043 -0.126,-0.068 -0.019,-0.012 -0.036,-0.022 -0.053,-0.034 -0.053,-0.037 -0.104,-0.077 -0.149,-0.124 -0.001,-10e-4 -0.003,-0.002 -0.005,-0.004 L -35.373,37.09 c -0.07,-0.07 -0.125,-0.152 -0.174,-0.238 -0.012,-0.021 -0.022,-0.041 -0.033,-0.063 -0.041,-0.087 -0.076,-0.177 -0.095,-0.271 0,-0.004 0,-0.008 -0.001,-0.011 -0.012,-0.068 -0.019,-0.135 -0.019,-0.203 V 0 c 0,-1.442 1.174,-2.615 2.616,-2.615 h 32.707 c 1.442,0 2.615,1.173 2.615,2.615 v 44.856 c 0,1.443 -1.173,2.616 -2.615,2.616"
             style="fill:#ffffff;fill-opacity:1;fill-rule:nonzero;stroke:none"
             id="path1141"
             inkscape:connector-curvature="0" /></g><g
           id="g1143"
           transform="translate(430.4229,197.6699)"><path
             d="m 0,0 h -24.907 c -0.619,0 -1.121,-0.502 -1.121,-1.121 0,-0.62 0.502,-1.122 1.121,-1.122 H 0 c 0.619,0 1.121,0.502 1.121,1.122 C 1.121,-0.502 0.619,0 0,0"
             style="fill:#ffffff;fill-opacity:1;fill-rule:nonzero;stroke:none"
             id="path1145"
             inkscape:connector-curvature="0" /></g><g
           id="g1147"
           transform="translate(430.4229,191.3887)"><path
             d="m 0,0 h -24.907 c -0.619,0 -1.121,-0.502 -1.121,-1.121 0,-0.62 0.502,-1.122 1.121,-1.122 H 0 c 0.619,0 1.121,0.502 1.121,1.122 C 1.121,-0.502 0.619,0 0,0"
             style="fill:#ffffff;fill-opacity:1;fill-rule:nonzero;stroke:none"
             id="path1149"
             inkscape:connector-curvature="0" /></g><g
           id="g1151"
           transform="translate(430.4229,185.1074)"><path
             d="m 0,0 h -24.907 c -0.619,0 -1.121,-0.502 -1.121,-1.122 0,-0.619 0.502,-1.121 1.121,-1.121 H 0 c 0.619,0 1.121,0.502 1.121,1.121 C 1.121,-0.502 0.619,0 0,0"
             style="fill:#ffffff;fill-opacity:1;fill-rule:nonzero;stroke:none"
             id="path1153"
             inkscape:connector-curvature="0" /></g><g
           id="g1155"
           transform="translate(430.4229,178.8262)"><path
             d="m 0,0 h -24.907 c -0.619,0 -1.121,-0.502 -1.121,-1.122 0,-0.619 0.502,-1.121 1.121,-1.121 H 0 c 0.619,0 1.121,0.502 1.121,1.121 C 1.121,-0.502 0.619,0 0,0"
             style="fill:#ffffff;fill-opacity:1;fill-rule:nonzero;stroke:none"
             id="path1157"
             inkscape:connector-curvature="0" /></g></g></g><text
       style="font-variant:normal;font-weight:bold;font-stretch:normal;font-size:13.56410027px;font-family:'Titillium Lt';-inkscape-font-specification:Titillium-Light;writing-mode:lr-tb;fill:#474549;fill-opacity:1;fill-rule:nonzero;stroke:none;stroke-width:0.99999994"
       id="text1045-6"
       x="321.19556"
       y="-304.35214"
       transform="scale(1,-1)"><tspan
         style="stroke-width:0.99999994"
         sodipodi:role="line"
         id="tspan1043-8"
         x="321.19556"
         y="-304.35214">ETAPE</tspan></text>
<text
       style="font-variant:normal;font-weight:bold;font-stretch:normal;font-size:13.56410027px;font-family:'Titillium Lt';-inkscape-font-specification:Titillium-Light;writing-mode:lr-tb;fill:#474549;fill-opacity:1;fill-rule:nonzero;stroke:none;stroke-width:0.99999994"
       id="text1045-0"
       x="141.14368"
       y="-204.92288"
       transform="scale(1,-1)"><tspan
         style="stroke-width:0.99999994"
         sodipodi:role="line"
         id="tspan1043-3"
         x="141.14368"
         y="-204.92288">ETAPE</tspan></text>
<text
       style="font-variant:normal;font-weight:bold;font-stretch:normal;font-size:13.56410027px;font-family:'Titillium Lt';-inkscape-font-specification:Titillium-Light;writing-mode:lr-tb;fill:#474549;fill-opacity:1;fill-rule:nonzero;stroke:none;stroke-width:0.99999994"
       id="text1045-7"
       x="322.16727"
       y="-115.67287"
       transform="scale(1,-1)"><tspan
         style="stroke-width:0.99999994"
         sodipodi:role="line"
         id="tspan1043-5"
         x="322.16727"
         y="-115.67287">ETAPE</tspan></text>
<text
       xml:space="preserve"
       style="font-style:normal;font-variant:normal;font-weight:normal;font-stretch:normal;font-size:56px;line-height:1.25;font-family:'VCR OSD Mono';-inkscape-font-specification:'VCR OSD Mono';letter-spacing:0px;word-spacing:0px;fill:#000000;fill-opacity:1;stroke:none;stroke-width:0.75"
       x="276.53302"
       y="-399.17453"
       id="text1384"
       transform="scale(1,-1)"><tspan
         sodipodi:role="line"
         id="tspan1382"
         x="276.53302"
         y="-336.17453"
         style="stroke-width:0.75"></tspan></text>
</g></svg>