<?xml version="1.0" encoding="UTF-8" standalone="no"?>
<!-- Created with Inkscape (http://www.inkscape.org/) -->

<svg
   xmlns:dc="http://purl.org/dc/elements/1.1/"
   xmlns:cc="http://creativecommons.org/ns#"
   xmlns:rdf="http://www.w3.org/1999/02/22-rdf-syntax-ns#"
   xmlns:svg="http://www.w3.org/2000/svg"
   xmlns="http://www.w3.org/2000/svg"
   xmlns:sodipodi="http://sodipodi.sourceforge.net/DTD/sodipodi-0.dtd"
   xmlns:inkscape="http://www.inkscape.org/namespaces/inkscape"
   width="182.38893mm"
   height="207.77544mm"
   viewBox="0 0 182.38893 207.77544"
   version="1.1"
   id="svg3175"
   inkscape:version="0.92.4 (5da689c313, 2019-01-14)"
   sodipodi:docname="ourPassionBnner.svg">
  <defs
     id="defs3169">
    <clipPath
       id="clipPath270"
       clipPathUnits="userSpaceOnUse">
      <path
         inkscape:connector-curvature="0"
         id="path268"
         d="M 6459.25,7321.54 H 887.008 V 9460.93 H 6459.25 Z" />
    </clipPath>
    <clipPath
       id="clipPath260"
       clipPathUnits="userSpaceOnUse">
      <path
         inkscape:connector-curvature="0"
         id="path258"
         d="M 2087.02,10699.3 V 8857.8 c 0,-116.62 -94.49,-189.98 -211.06,-189.98 -116.55,0 -211.09,73.36 -211.09,189.98 v 1841.5 z" />
    </clipPath>
    <clipPath
       id="clipPath178"
       clipPathUnits="userSpaceOnUse">
      <path
         inkscape:connector-curvature="0"
         id="path176"
         d="M 0,0 V 14668 H 14664 V 0 Z" />
    </clipPath>
    <clipPath
       id="clipPath270-9"
       clipPathUnits="userSpaceOnUse">
      <path
         inkscape:connector-curvature="0"
         id="path268-4"
         d="M 6459.25,7321.54 H 887.008 V 9460.93 H 6459.25 Z" />
    </clipPath>
    <clipPath
       id="clipPath260-7"
       clipPathUnits="userSpaceOnUse">
      <path
         inkscape:connector-curvature="0"
         id="path258-5"
         d="M 2087.02,10699.3 V 8857.8 c 0,-116.62 -94.49,-189.98 -211.06,-189.98 -116.55,0 -211.09,73.36 -211.09,189.98 v 1841.5 z" />
    </clipPath>
    <clipPath
       id="clipPath178-0"
       clipPathUnits="userSpaceOnUse">
      <path
         inkscape:connector-curvature="0"
         id="path176-8"
         d="M 0,0 V 14668 H 14664 V 0 Z" />
    </clipPath>
  </defs>
  <sodipodi:namedview
     id="base"
     pagecolor="#ffffff"
     bordercolor="#666666"
     borderopacity="1.0"
     inkscape:pageopacity="0.0"
     inkscape:pageshadow="2"
     inkscape:zoom="0.35"
     inkscape:cx="-588.20378"
     inkscape:cy="136.4131"
     inkscape:document-units="mm"
     inkscape:current-layer="layer1"
     showgrid="false"
     inkscape:window-width="1920"
     inkscape:window-height="1017"
     inkscape:window-x="-8"
     inkscape:window-y="-8"
     inkscape:window-maximized="1" />
  <metadata
     id="metadata3172">
    <rdf:RDF>
      <cc:Work
         rdf:about="">
        <dc:format>image/svg+xml</dc:format>
        <dc:type
           rdf:resource="http://purl.org/dc/dcmitype/StillImage" />
        <dc:title />
      </cc:Work>
    </rdf:RDF>
  </metadata>
  <g
     inkscape:label="Layer 1"
     inkscape:groupmode="layer"
     id="layer1"
     transform="translate(-15.777726,-35.615783)">
    <g
       id="g172"
       transform="matrix(0.03690007,0,0,-0.03690007,-29.485376,513.55656)">
      <g
         clip-path="url(#clipPath178-0)"
         id="g174">
        <path
           id="path184"
           style="fill:#8172b6;fill-opacity:1;fill-rule:nonzero;stroke:none"
           d="m 2340.95,10561.2 c -14.04,-12.7 -37.81,-75.3 -37.81,-182.9 0,-67.8 12.18,-127.4 37.81,-182.9 25.64,55.5 37.8,115.1 37.8,182.9 0,107.5 -23.75,170.2 -37.8,182.9 z m 383.5,0 c -14.05,-12.7 -37.82,-75.3 -37.82,-182.9 0,-69 11.92,-127.8 37.82,-183.4 25.93,55.6 37.84,114.4 37.84,183.4 0,107.6 -23.77,170.2 -37.84,182.9 z m 383.52,0 c -14.07,-12.7 -37.82,-75.4 -37.82,-182.9 0,-69 11.91,-127.8 37.82,-183.4 25.92,55.6 37.83,114.4 37.83,183.4 0,107.5 -23.77,170.2 -37.83,182.9 z m 539.42,-613.87 h -347.66 c -70.64,0 -137.22,31.81 -191.76,90.67 -54.53,-58.86 -121.12,-90.67 -191.75,-90.67 -70.63,0 -137.22,31.81 -191.77,90.67 -54.55,-58.86 -121.12,-90.67 -191.75,-90.67 -70.65,0 -137.2,31.81 -191.72,90.67 -54.57,-58.86 -121.15,-90.67 -191.77,-90.67 h -350.42 v 86.97 h 350.42 c 50.1,0 98.66,26.5 138.88,75.4 -48.99,81 -71.95,167.2 -71.95,268.6 0,131.1 32.8,271.1 124.84,271.1 91.99,0 124.77,-140 124.77,-271.1 0,-101.4 -22.94,-187.6 -71.89,-268.6 40.18,-48.9 88.74,-75.4 138.84,-75.4 50.1,0 98.66,26.5 138.89,75.4 -48.97,81.1 -71.94,167.3 -71.94,268.6 0,131.1 32.79,271.1 124.8,271.1 92.03,0 124.82,-140 124.82,-271.1 0,-101.3 -22.95,-187.5 -71.92,-268.6 40.21,-48.9 88.74,-75.4 138.87,-75.4 50.12,0 98.66,26.5 138.87,75.4 -48.98,81.1 -71.92,167.3 -71.92,268.6 0,131.1 32.77,271.1 124.8,271.1 92.03,0 124.82,-140 124.82,-271.1 0,-101.3 -22.97,-187.5 -71.95,-268.6 40.21,-48.9 88.77,-75.4 138.89,-75.4 h 347.66 v -86.97"
           inkscape:connector-curvature="0" />
        <path
           id="path186"
           style="fill:#43546b;fill-opacity:1;fill-rule:nonzero;stroke:none"
           d="m 2724.45,10515.6 c -8.56,-27.3 -17.18,-72.9 -17.18,-137.3 0,-46.4 5.54,-87.5 17.18,-125.9 11.66,38.4 17.2,79.5 17.2,125.9 0,64.4 -8.62,110 -17.2,137.3 z m -0.01,-369.5 -18.69,40.1 c -27.12,58.2 -39.75,119.2 -39.75,192.1 0,103.7 22.45,178.2 44.62,198.2 l 13.82,12.5 13.82,-12.5 c 21.51,-19.4 44.66,-89.7 44.66,-198.2 0,-72.9 -12.64,-133.9 -39.77,-192.1 z m 383.53,369.5 c -8.56,-27.4 -17.18,-72.9 -17.18,-137.3 0,-46.4 5.54,-87.5 17.18,-125.9 11.65,38.4 17.2,79.5 17.2,125.9 0,64.4 -8.63,109.9 -17.2,137.3 z m 0,-369.5 -18.7,40.1 c -27.13,58.2 -39.75,119.2 -39.75,192.1 0,108.5 23.12,178.8 44.61,198.2 l 13.84,12.5 13.85,-12.5 c 21.48,-19.5 44.62,-89.8 44.62,-198.2 0,-72.9 -12.64,-133.9 -39.77,-192.1 z m -767.02,369.5 c -8.56,-27.4 -17.18,-72.9 -17.18,-137.3 0,-45 5.65,-86.2 17.18,-124.7 11.52,38.5 17.17,79.7 17.17,124.7 0,64.4 -8.62,109.9 -17.17,137.3 z m 0,-369.5 -18.73,40.6 c -26.73,58 -39.72,120.6 -39.72,191.6 0,103.7 22.45,178.2 44.63,198.2 l 13.84,12.5 13.83,-12.5 c 21.47,-19.5 44.59,-89.8 44.59,-198.2 0,-71 -12.99,-133.7 -39.71,-191.6 z m 767.02,-77.7 15.14,-16.3 c 50.94,-55.05 112.02,-84.13 176.62,-84.13 h 327.02 v 45.73 h -327.02 c -55.85,0 -110.83,29.4 -154.82,82.9 l -9.28,11.3 7.55,12.5 c 47.06,77.9 68.97,159.9 68.97,257.9 0,115.6 -27.28,250.5 -104.18,250.5 -76.88,0 -104.16,-134.9 -104.16,-250.5 0,-98 21.9,-180 68.95,-257.9 l 7.54,-12.5 -9.28,-11.3 c -43.98,-53.5 -98.96,-82.9 -154.8,-82.9 -55.83,0 -110.8,29.4 -154.8,82.9 l -9.28,11.3 7.54,12.5 c 47.05,77.9 68.96,159.9 68.96,257.9 0,115.6 -27.29,250.5 -104.19,250.5 -76.89,0 -104.17,-134.9 -104.17,-250.5 0,-98 21.92,-180 68.98,-257.9 l 7.54,-12.5 -9.28,-11.3 c -44.02,-53.5 -98.99,-82.9 -154.82,-82.9 -55.83,0 -110.8,29.4 -154.78,82.9 l -9.28,11.2 7.56,12.5 c 47.01,77.9 68.92,159.9 68.92,258 0,115.6 -27.27,250.5 -104.14,250.5 -76.92,0 -104.21,-134.9 -104.21,-250.5 0,-98.1 21.92,-180.1 68.99,-258 l 7.55,-12.5 -9.29,-11.2 c -44.03,-53.5 -99.01,-82.9 -154.81,-82.9 h -329.79 v -45.73 h 329.79 c 64.58,0 125.66,29.08 176.63,84.13 l 15.15,16.3 15.13,-16.4 c 50.93,-54.95 111.99,-84.03 176.58,-84.03 64.59,0 125.66,29.08 176.61,84.13 l 15.14,16.3 15.13,-16.3 c 50.96,-55.05 112.04,-84.13 176.64,-84.13 64.6,0 125.67,29.08 176.61,84.13 z m 560.05,-141.7 h -368.29 c -69.96,0 -135.87,28.23 -191.76,81.9 -55.88,-53.67 -121.78,-81.9 -191.75,-81.9 -69.96,0 -135.87,28.23 -191.77,81.9 -55.89,-53.67 -121.79,-81.9 -191.75,-81.9 -69.96,0 -135.85,28.23 -191.73,81.9 -55.91,-53.67 -121.82,-81.9 -191.76,-81.9 h -371.06 v 128.2 h 371.06 c 40.18,0 79.22,19.7 113.59,57.1 -45.87,80.7 -67.3,165.8 -67.3,266.3 0,182.7 54.38,291.7 145.48,291.7 91.06,0 145.4,-109 145.4,-291.7 0,-100.5 -21.42,-185.6 -67.24,-266.3 34.33,-37.4 73.37,-57.1 113.56,-57.1 40.2,0 79.24,19.7 113.6,57.2 -45.85,80.7 -67.29,165.8 -67.29,266.2 0,182.7 54.38,291.7 145.44,291.7 91.08,0 145.46,-109 145.46,-291.7 0,-100.5 -21.43,-185.5 -67.28,-266.2 34.36,-37.5 73.4,-57.2 113.59,-57.2 40.2,0 79.24,19.7 113.58,57.2 -45.84,80.7 -67.26,165.7 -67.26,266.2 0,182.7 54.37,291.7 145.43,291.7 91.08,0 145.45,-109 145.45,-291.7 0,-100.4 -21.43,-185.5 -67.29,-266.2 34.34,-37.5 73.39,-57.2 113.6,-57.2 h 368.29 v -128.2"
           inkscape:connector-curvature="0" />
        <path
           id="path188"
           style="fill:#f6dd57;fill-opacity:1;fill-rule:nonzero;stroke:none"
           d="m 4605.89,10678.8 c -40.6,0 -73.51,32.9 -73.51,73.5 v 973.1 c 0,144.7 117.75,262.4 262.48,262.4 h 454.54 c 144.76,0 262.49,-117.7 262.49,-262.4 v -666.5 c 0,-40.6 -32.96,-73.5 -73.56,-73.5 -40.56,0 -73.51,32.9 -73.51,73.5 v 666.5 c 0,63.6 -51.77,115.4 -115.42,115.4 h -454.54 c -63.66,0 -115.44,-51.8 -115.44,-115.4 v -973.1 c 0,-40.6 -32.93,-73.5 -73.53,-73.5"
           inkscape:connector-curvature="0" />
        <path
           id="path190"
           style="fill:#43546b;fill-opacity:1;fill-rule:nonzero;stroke:none"
           d="m 4794.86,11967.2 c -133.35,0 -241.84,-108.5 -241.84,-241.8 v -973.1 c 0,-29.1 23.72,-52.9 52.87,-52.9 29.16,0 52.88,23.8 52.88,52.9 v 973.1 c 0,75 61.05,136 136.09,136 h 454.54 c 75.03,0 136.06,-61 136.06,-136 v -666.5 c 0,-29.1 23.74,-52.9 52.87,-52.9 29.18,0 52.91,23.8 52.91,52.9 v 666.5 c 0,133.3 -108.5,241.8 -241.84,241.8 z m -188.97,-1309 c -51.91,0 -94.14,42.2 -94.14,94.1 v 973.1 c 0,156 127,283 283.11,283 h 454.54 c 156.13,0 283.13,-127 283.13,-283 v -666.5 c 0,-51.9 -42.28,-94.1 -94.2,-94.1 -51.87,0 -94.1,42.2 -94.1,94.1 v 666.5 c 0,52.2 -42.54,94.7 -94.83,94.7 h -454.54 c -52.29,0 -94.82,-42.5 -94.82,-94.7 v -973.1 c 0,-51.9 -42.23,-94.1 -94.15,-94.1"
           inkscape:connector-curvature="0" />
        <path
           id="path192"
           style="fill:#5486bf;fill-opacity:1;fill-rule:nonzero;stroke:none"
           d="m 4403.39,10549.8 h 453.836 v 193.773 H 4403.39 Z"
           inkscape:connector-curvature="0" />
        <path
           id="path194"
           style="fill:#43546b;fill-opacity:1;fill-rule:nonzero;stroke:none"
           d="m 4424.03,10570.4 h 412.56 v 152.5 h -412.56 z m 453.83,-41.2 h -495.1 v 235 h 495.1 v -235"
           inkscape:connector-curvature="0" />
        <path
           id="path196"
           style="fill:#6891c6;fill-opacity:1;fill-rule:nonzero;stroke:none"
           d="m 4332,10688.8 v 81.6 c 0,89.8 73.43,163.2 163.18,163.2 h 270.26 c 89.75,0 163.18,-73.4 163.18,-163.2 v -81.6 H 4332"
           inkscape:connector-curvature="0" />
        <path
           id="path198"
           style="fill:#43546b;fill-opacity:1;fill-rule:nonzero;stroke:none"
           d="m 4352.63,10709.5 h 555.35 v 60.9 c 0,78.6 -63.94,142.6 -142.54,142.6 h -270.26 c -78.6,0 -142.55,-64 -142.55,-142.6 z m 596.62,-41.3 h -637.89 v 102.2 c 0,101.4 82.46,183.8 183.82,183.8 h 270.26 c 101.35,0 183.81,-82.4 183.81,-183.8 v -102.2"
           inkscape:connector-curvature="0" />
        <path
           id="path200"
           style="fill:#bbd0da;fill-opacity:1;fill-rule:nonzero;stroke:none"
           d="m 4340.38,8355.61 h 579.855 v 2248.33 H 4340.38 Z"
           inkscape:connector-curvature="0" />
        <path
           id="path202"
           style="fill:#fbd228;fill-opacity:1;fill-rule:nonzero;stroke:none"
           d="m 4507.53,8367.82 h -49.37 c 0,124.75 94.54,187.88 177.94,243.58 80.22,53.6 156,104.21 156,202.55 0,98.28 -75.78,148.9 -156,202.5 -83.4,55.74 -177.94,118.87 -177.94,243.62 0,124.7 94.54,187.85 177.94,243.54 80.22,53.59 156,104.18 156,202.5 0,98.32 -75.78,148.94 -156,202.53 -83.4,55.72 -177.94,118.86 -177.94,243.66 0,124.7 94.54,187.8 177.94,243.5 80.22,53.6 156,104.2 156,202.5 h 49.37 c 0,-124.7 -94.54,-187.9 -177.94,-243.5 -80.22,-53.6 -156,-104.2 -156,-202.5 0,-98.4 75.78,-149 156,-202.6 83.4,-55.72 177.94,-118.85 177.94,-243.59 0,-124.71 -94.54,-187.86 -177.94,-243.56 -80.22,-53.58 -156,-104.19 -156,-202.48 0,-98.34 75.78,-148.95 156,-202.55 83.4,-55.69 177.94,-118.82 177.94,-243.57 0,-124.75 -94.54,-187.88 -177.94,-243.58 -80.22,-53.6 -156,-104.21 -156,-202.55"
           inkscape:connector-curvature="0" />
        <path
           id="path204"
           style="fill:#7daabd;fill-opacity:1;fill-rule:nonzero;stroke:none"
           d="m 4815.99,8367.82 h -49.36 c 0,98.34 -75.79,148.95 -156,202.55 -83.4,55.7 -177.94,118.83 -177.94,243.58 0,124.75 94.54,187.88 177.94,243.57 80.21,53.6 156,104.21 156,202.55 0,98.29 -75.79,148.9 -156,202.48 -83.4,55.7 -177.94,118.85 -177.94,243.56 0,124.74 94.54,187.87 177.94,243.59 80.21,53.6 156,104.2 156,202.6 0,98.3 -75.79,148.9 -156,202.5 -83.4,55.6 -177.94,118.8 -177.94,243.5 h 49.37 c 0,-98.3 75.78,-148.9 156,-202.5 83.4,-55.7 177.93,-118.8 177.93,-243.5 0,-124.8 -94.53,-187.94 -177.93,-243.66 -80.22,-53.59 -156,-104.21 -156,-202.53 0,-98.32 75.78,-148.91 156,-202.5 83.4,-55.69 177.93,-118.84 177.93,-243.54 0,-124.75 -94.53,-187.88 -177.93,-243.62 -80.22,-53.6 -156,-104.22 -156,-202.5 0,-98.34 75.78,-148.95 156,-202.55 83.4,-55.7 177.93,-118.83 177.93,-243.58"
           inkscape:connector-curvature="0" />
        <path
           id="path206"
           style="fill:#43546b;fill-opacity:1;fill-rule:nonzero;stroke:none"
           d="m 4361.02,8373.69 h 538.59 v 2210.51 h -538.59 z m 579.85,-41.28 h -621.12 v 2292.99 h 621.12 V 8332.41"
           inkscape:connector-curvature="0" />
        <path
           id="path208"
           style="fill:#ffffff;fill-opacity:1;fill-rule:nonzero;stroke:none"
           d="m 4479.03,9675.97 -573.19,1234.23 v 381.8 l 84.42,151.4 h -880.97 l 83.26,-151.4 1.17,-381.8 -573.23,-1234.23 c 0,0 -270.08,-589.32 368.33,-589.32 h 1121.9 c 638.42,0 368.31,589.32 368.31,589.32"
           inkscape:connector-curvature="0" />
        <path
           id="path210"
           style="fill:#43546b;fill-opacity:1;fill-rule:nonzero;stroke:none"
           d="m 3144.18,11422.7 68.98,-125.4 1.22,-391.6 -575.17,-1238.43 c -1.12,-2.43 -115.16,-256.57 -10.49,-419.46 59.91,-93.26 181.07,-140.52 360.1,-140.52 h 1121.9 c 179.04,0 300.2,47.26 360.1,140.52 104.19,162.16 -8.36,414.7 -10.54,419.52 L 3885.2,10905.7 v 391.6 l 69.93,125.4 z m 966.54,-2356.69 h -1121.9 c -194.07,0 -326.94,53.7 -394.91,159.64 -116.79,181.96 2.68,447.7 7.82,458.92 l 571.34,1230.23 -1.14,371.8 -97.53,177.4 h 950.99 l -98.92,-177.4 v -371.8 l 571.32,-1230.23 c 5.14,-11.22 124.62,-276.96 7.84,-458.92 -67.97,-105.94 -200.83,-159.64 -394.91,-159.64"
           inkscape:connector-curvature="0" />
        <path
           id="path212"
           style="fill:#5486bf;fill-opacity:1;fill-rule:nonzero;stroke:none"
           d="m 4340.5,9673.35 -255.96,587.75 H 3007.97 l -255.98,-587.75 c 0,0 -0.33,-0.76 -0.88,-1.99 h 1590.27 c -0.55,1.23 -0.88,1.99 -0.88,1.99"
           inkscape:connector-curvature="0" />
        <path
           id="path214"
           style="fill:#63c7b2;fill-opacity:1;fill-rule:nonzero;stroke:none"
           d="m 3066.81,9169.7 h 958.89 c 526.41,0 330.19,468.59 315.68,501.66 H 2751.11 c -14.49,-33.07 -210.74,-501.66 315.7,-501.66"
           inkscape:connector-curvature="0" />
        <path
           id="path216"
           style="fill:#ffffff;fill-opacity:1;fill-rule:nonzero;stroke:none"
           d="m 3887,12468.3 c 0,92.8 -57.53,171.8 -138.71,204.2 7.83,21 12.69,43.4 12.69,67.1 0,106.1 -85.95,192 -192,192 -106.04,0 -192,-85.9 -192,-192 0,-71.4 39.47,-133 97.38,-166.1 -17.23,-31.4 -27.89,-66.9 -27.89,-105.2 0,-1.7 0.44,-3.2 0.49,-4.9 -156.44,-26 -275.82,-161.7 -275.82,-325.5 0,-158.5 111.69,-290.8 260.64,-322.9 -13.62,-24 -22.02,-51.3 -22.02,-80.9 0,-91.3 73.97,-165.2 165.19,-165.2 91.23,0 165.2,73.9 165.2,165.2 0,50.9 -23.55,95.9 -59.83,126.2 91.13,58.9 151.61,161.1 151.61,277.6 0,54.8 -13.55,106.3 -37.14,151.8 55.64,40 92.21,104.9 92.21,178.6"
           inkscape:connector-curvature="0" />
        <path
           id="path218"
           style="fill:#43546b;fill-opacity:1;fill-rule:nonzero;stroke:none"
           d="m 3568.98,12911 c -94.49,0 -171.37,-76.9 -171.37,-171.4 0,-60.7 33.33,-117.5 86.98,-148.2 l 17.62,-10 -9.76,-17.8 c -16.82,-30.7 -25.34,-62.7 -25.34,-95.3 0.26,-1.2 0.44,-2.7 0.47,-4.3 l 0.49,-18 -17.72,-2.9 c -149.83,-25 -258.57,-153.3 -258.57,-305.2 0,-144.9 102.76,-272.2 244.33,-302.7 l 27.49,-5.9 -13.88,-24.4 c -12.82,-22.7 -19.33,-46.5 -19.33,-70.8 0,-79.7 64.85,-144.6 144.56,-144.6 79.72,0 144.57,64.9 144.57,144.6 0,42.3 -19.11,82.6 -52.42,110.4 l -21.51,18 23.55,15.2 c 89.02,57.4 142.16,154.7 142.16,260.2 0,49.9 -11.73,97.7 -34.83,142.3 l -8.22,15.8 14.49,10.5 c 52.36,37.6 83.62,98.1 83.62,161.8 0,81.9 -49.36,154.6 -125.73,185.1 l -18.74,7.5 7.07,18.9 c 7.56,20.2 11.39,40.3 11.39,59.8 0,94.5 -76.88,171.4 -171.37,171.4 z m 5.97,-1362.7 c -102.47,0 -185.83,83.3 -185.83,185.8 0,23 4.41,45.5 13.13,67.2 -147.32,43.5 -251.73,181.1 -251.73,336.6 0,166.2 114.87,307.5 275.64,342.5 1.55,29.3 8.72,58 21.39,85.7 -56.71,39.6 -91.21,104.5 -91.21,173.5 0,117.3 95.39,212.7 212.64,212.7 117.25,0 212.64,-95.4 212.64,-212.7 0,-18.4 -2.67,-37.1 -7.94,-55.8 81.97,-40.5 133.95,-123.1 133.95,-215.5 0,-71.2 -32.21,-139 -86.94,-184.6 21.16,-46 31.88,-95 31.88,-145.8 0,-110.9 -51.83,-213.8 -139.87,-280.1 30.82,-34 48.09,-77.9 48.09,-123.7 0,-102.5 -83.37,-185.8 -185.84,-185.8"
           inkscape:connector-curvature="0" />
        <path
           id="path220"
           style="fill:#d0ced3;fill-opacity:1;fill-rule:nonzero;stroke:none"
           d="m 3559.09,11846.6 c 143.11,19.8 253.74,142.5 253.74,291 0,147.9 -109.82,270.3 -252.15,290.7 -5.39,12.6 -8.56,26 -8.56,40 0,56.4 45.91,102.3 102.33,102.3 28.3,0 51.23,22.9 51.23,51.2 0,28.3 -22.93,51.3 -51.23,51.3 -112.94,0 -204.81,-91.9 -204.81,-204.8 0,-15 1.68,-29.6 4.78,-43.8 -41.57,-9.2 -80.65,-27.3 -115.13,-53.8 -22.94,-17.7 -27.18,-50.6 -9.54,-73.5 17.66,-22.9 50.54,-27.2 73.5,-9.6 33.34,25.7 73.25,39.3 115.45,39.3 104.41,0 189.36,-84.9 189.36,-189.3 0,-104.4 -84.95,-189.4 -189.36,-189.4 -22.71,0 -41.86,-14.5 -49.13,-34.7 -30.75,-31.9 -48.79,-76.5 -48.79,-124.2 0,-94.7 71.02,-171.8 158.29,-171.8 30.09,0 54.49,24.4 54.49,54.5 0,30.1 -24.4,54.5 -54.49,54.5 -26.73,0 -49.31,28.7 -49.31,62.8 0,24.5 11.52,46.9 29.33,57.3"
           inkscape:connector-curvature="0" />
        <path
           id="path222"
           style="fill:#ffffff;fill-opacity:1;fill-rule:nonzero;stroke:none"
           d="m 5572.04,10276.6 v 842 h -403.65 v -842.1 l -426.51,-925.37 v -240.17 h 1254.59 v 234.77 l -424.43,930.87"
           inkscape:connector-curvature="0" />
        <path
           id="path224"
           style="fill:#f89e0f;fill-opacity:1;fill-rule:nonzero;stroke:none"
           d="m 5162.02,10029.9 -371.53,-672.01 v -174.42 h 1127.65 v 170.54 l -333.43,675.89 h -422.69"
           inkscape:connector-curvature="0" />
        <path
           id="path226"
           style="fill:#ec6446;fill-opacity:1;fill-rule:nonzero;stroke:none"
           d="M 4790.49,9183.47 H 5919.5 v 170.54 l -119.82,240.24 c -51.66,-103.24 -103.84,-171.86 -229.74,-171.86 -212.72,0 -212.72,302.25 -425.42,302.25 -151.82,0 -195.32,-153.95 -285.12,-242.11 l -68.91,-124.64 v -174.42"
           inkscape:connector-curvature="0" />
        <path
           id="path228"
           style="fill:#bbd0da;fill-opacity:1;fill-rule:nonzero;stroke:none"
           d="M 6066.99,9110.02 H 4750.68 v 233.15 l 416.2,936.13 v 815.7 h 137.58 v -850 l -416.22,-936.2 v -61.2 h 1178.75 v -137.58"
           inkscape:connector-curvature="0" />
        <path
           id="path230"
           style="fill:#43546b;fill-opacity:1;fill-rule:nonzero;stroke:none"
           d="m 4742.34,9104.94 h 1259.47 v 209.41 l -450.37,930.85 v 826 h -362.42 v -826.1 L 4742.34,9319.7 Z M 6043.1,9063.65 H 4701.07 v 265.48 l 446.69,925.47 v 857.9 h 444.92 v -857.9 l 450.42,-930.82 v -260.13"
           inkscape:connector-curvature="0" />
        <path
           id="path232"
           style="fill:#ffffff;fill-opacity:1;fill-rule:nonzero;stroke:none"
           d="m 5628.3,11166.6 c 0,-35.7 -28.97,-64.7 -64.75,-64.7 h -388.66 c -35.8,0 -64.78,29 -64.78,64.7 v 0 c 0,35.8 28.98,64.8 64.78,64.8 h 388.66 c 35.78,0 64.75,-29 64.75,-64.8 v 0"
           inkscape:connector-curvature="0" />
        <path
           id="path234"
           style="fill:#43546b;fill-opacity:1;fill-rule:nonzero;stroke:none"
           d="m 5174.89,11210.8 c -24.34,0 -44.15,-19.8 -44.15,-44.2 0,-24.3 19.81,-44.1 44.15,-44.1 h 388.66 c 24.31,0 44.11,19.8 44.11,44.1 0,24.4 -19.8,44.2 -44.11,44.2 z m 388.66,-129.6 h -388.66 c -47.1,0 -85.42,38.3 -85.42,85.4 0,47.1 38.32,85.4 85.42,85.4 h 388.66 c 47.1,0 85.4,-38.3 85.4,-85.4 0,-47.1 -38.3,-85.4 -85.4,-85.4"
           inkscape:connector-curvature="0" />
        <path
           id="path236"
           style="fill:#7daabd;fill-opacity:1;fill-rule:nonzero;stroke:none"
           d="m 1678.66,11026.9 h 416.324 v 215.813 H 1678.66 Z"
           inkscape:connector-curvature="0" />
        <path
           id="path238"
           style="fill:#43546b;fill-opacity:1;fill-rule:nonzero;stroke:none"
           d="m 1699.29,11047.5 h 375.07 v 174.6 h -375.07 z m 416.34,-41.2 h -457.6 v 257 h 457.6 v -257"
           inkscape:connector-curvature="0" />
        <path
           id="path240"
           style="fill:#5e7498;fill-opacity:1;fill-rule:nonzero;stroke:none"
           d="m 2184.81,11029.7 c 0,-27.8 -22.62,-50.4 -50.46,-50.4 h -509.08 c -27.88,0 -50.48,22.6 -50.48,50.4 v 0 c 0,27.9 22.6,50.5 50.48,50.5 h 509.08 c 27.84,0 50.46,-22.6 50.46,-50.5 v 0"
           inkscape:connector-curvature="0" />
        <path
           id="path242"
           style="fill:#43546b;fill-opacity:1;fill-rule:nonzero;stroke:none"
           d="m 1625.27,11059.6 c -16.46,0 -29.84,-13.4 -29.84,-29.9 0,-16.4 13.38,-29.8 29.84,-29.8 h 509.08 c 16.45,0 29.83,13.4 29.83,29.8 0,16.5 -13.38,29.9 -29.83,29.9 z m 509.08,-101 h -509.08 c -39.21,0 -71.11,31.9 -71.11,71.1 0,39.2 31.9,71.1 71.11,71.1 h 509.08 c 39.2,0 71.09,-31.9 71.09,-71.1 0,-39.2 -31.89,-71.1 -71.09,-71.1"
           inkscape:connector-curvature="0" />
        <path
           id="path244"
           style="fill:#5e7498;fill-opacity:1;fill-rule:nonzero;stroke:none"
           d="m 2187.45,11259.9 c 0,-27.8 -22.62,-50.4 -50.46,-50.4 H 1627.9 c -27.87,0 -50.47,22.6 -50.47,50.4 v 0 c 0,27.9 22.6,50.5 50.47,50.5 h 509.09 c 27.84,0 50.46,-22.6 50.46,-50.5 v 0"
           inkscape:connector-curvature="0" />
        <path
           id="path246"
           style="fill:#43546b;fill-opacity:1;fill-rule:nonzero;stroke:none"
           d="m 1627.91,11289.7 c -16.46,0 -29.85,-13.4 -29.85,-29.8 0,-16.4 13.39,-29.8 29.85,-29.8 H 2137 c 16.44,0 29.82,13.4 29.82,29.8 0,16.4 -13.38,29.8 -29.82,29.8 z M 2137,11188.8 h -509.09 c -39.22,0 -71.12,31.9 -71.12,71.1 0,39.2 31.9,71.1 71.12,71.1 H 2137 c 39.19,0 71.08,-31.9 71.08,-71.1 0,-39.2 -31.89,-71.1 -71.08,-71.1"
           inkscape:connector-curvature="0" />
        <path
           id="path248"
           style="fill:#ffffff;fill-opacity:1;fill-rule:nonzero;stroke:none"
           d="M 2150.1,10980 V 8841.35 c 0,-151.42 -122.72,-246.72 -274.15,-246.72 -151.39,0 -274.13,95.3 -274.13,246.72 V 10980 h 548.28"
           inkscape:connector-curvature="0" />
        <path
           id="path250"
           style="fill:#43546b;fill-opacity:1;fill-rule:nonzero;stroke:none"
           d="M 1622.45,10959.4 V 8841.35 c 0,-133.13 104.24,-226.08 253.5,-226.08 149.26,0 253.51,92.95 253.51,226.08 v 2118.05 z m 253.5,-2385.41 c -170.81,0 -294.77,112.43 -294.77,267.36 V 10980 c 0,11.4 9.23,20.6 20.63,20.6 h 548.28 c 11.41,0 20.64,-9.2 20.64,-20.6 V 8841.35 c 0,-154.93 -123.98,-267.36 -294.78,-267.36"
           inkscape:connector-curvature="0" />
        <path
           id="path252"
           style="fill:#bfdf14;fill-opacity:1;fill-rule:nonzero;stroke:none"
           d="M 2087.02,10691.2 V 8857.8 c 0,-116.62 -94.49,-189.98 -211.07,-189.98 -116.57,0 -211.08,73.36 -211.08,189.98 v 1833.4 h 422.15"
           inkscape:connector-curvature="0" />
      </g>
    </g>
    <g
       id="g254"
       transform="matrix(0.03690007,0,0,-0.03690007,-29.485376,513.55656)">
      <g
         clip-path="url(#clipPath260-7)"
         id="g256">
        <path
           id="path262"
           style="fill:#94d222;fill-opacity:1;fill-rule:nonzero;stroke:none"
           d="m 2084.36,8448.25 c 0,101.38 -207.25,101.38 -207.25,202.75 0,101.33 207.25,101.33 207.25,202.71 0,101.38 -207.25,101.38 -207.25,202.76 0,101.28 207.25,101.28 207.25,202.66 0,101.28 -207.25,101.28 -207.25,202.67 0,101.34 207.25,101.34 207.25,202.72 0,101.3 -207.25,101.3 -207.25,202.65 0,101.3 207.25,101.3 207.25,202.63 0,101.3 -207.25,101.3 -207.25,202.7 0,101.3 207.25,101.3 207.25,202.6 0,101.3 -207.25,101.3 -207.25,202.6 h -189.97 c 0,-101.3 207.24,-101.3 207.24,-202.6 0,-101.3 -207.24,-101.3 -207.24,-202.6 0,-101.4 207.24,-101.4 207.24,-202.7 0,-101.33 -207.24,-101.33 -207.24,-202.63 0,-101.35 207.24,-101.35 207.24,-202.65 0,-101.38 -207.24,-101.38 -207.24,-202.72 0,-101.39 207.24,-101.39 207.24,-202.67 0,-101.38 -207.24,-101.38 -207.24,-202.66 0,-101.38 207.24,-101.38 207.24,-202.76 0,-101.38 -207.24,-101.38 -207.24,-202.71 0,-101.37 207.24,-101.37 207.24,-202.75 h 189.98"
           inkscape:connector-curvature="0" />
      </g>
    </g>
    <g
       id="g264"
       transform="matrix(0.03690007,0,0,-0.03690007,-29.485376,513.55656)">
      <g
         clip-path="url(#clipPath270-9)"
         id="g266">
        <path
           id="path272"
           style="fill:#fabda8;fill-opacity:1;fill-rule:nonzero;stroke:none"
           d="m 1635.21,7634.22 v 0 c -213.36,0 -387.94,174.57 -387.94,387.97 v 387.91 c 0,213.4 174.58,387.97 387.94,387.97 v 0 c 213.37,0 387.94,-174.57 387.94,-387.97 v -387.91 c 0,-213.4 -174.57,-387.97 -387.94,-387.97"
           inkscape:connector-curvature="0" />
        <path
           id="path274"
           style="fill:#43546b;fill-opacity:1;fill-rule:nonzero;stroke:none"
           d="m 1635.22,8777.43 c -202.54,0 -367.31,-164.78 -367.31,-367.33 v -387.91 c 0,-202.55 164.77,-367.33 367.31,-367.33 202.52,0 367.29,164.78 367.29,367.33 v 387.91 c 0,202.55 -164.77,367.33 -367.29,367.33 z m 0,-1163.8 c -225.3,0 -408.58,183.26 -408.58,408.56 v 387.91 c 0,225.29 183.28,408.56 408.58,408.56 225.28,0 408.56,-183.27 408.56,-408.56 v -387.91 c 0,-225.3 -183.28,-408.56 -408.56,-408.56"
           inkscape:connector-curvature="0" />
        <path
           id="path276"
           style="fill:#fabda8;fill-opacity:1;fill-rule:nonzero;stroke:none"
           d="m 5760.86,7634.22 v 0 c -213.35,0 -387.92,174.57 -387.92,387.97 v 387.91 c 0,213.4 174.57,387.97 387.92,387.97 v 0 c 213.39,0 387.96,-174.57 387.96,-387.97 v -387.91 c 0,-213.4 -174.57,-387.97 -387.96,-387.97"
           inkscape:connector-curvature="0" />
        <path
           id="path278"
           style="fill:#43546b;fill-opacity:1;fill-rule:nonzero;stroke:none"
           d="m 5760.86,8777.43 c -202.5,0 -367.28,-164.78 -367.28,-367.33 v -387.91 c 0,-202.55 164.78,-367.33 367.28,-367.33 202.55,0 367.32,164.78 367.32,367.33 v 387.91 c 0,202.55 -164.77,367.33 -367.32,367.33 z m 0,-1163.8 c -225.29,0 -408.56,183.26 -408.56,408.56 v 387.91 c 0,225.29 183.27,408.56 408.56,408.56 225.29,0 408.56,-183.27 408.56,-408.56 v -387.91 c 0,-225.3 -183.27,-408.56 -408.56,-408.56"
           inkscape:connector-curvature="0" />
        <path
           id="path280"
           style="fill:#fbcbbb;fill-opacity:1;fill-rule:nonzero;stroke:none"
           d="M 5712.45,10636.2 5615.73,6966 c 0,0 -75.24,-924.16 -1074.62,-1300.29 0,0 -311.64,-139.73 -634.02,-128.94 H 3526.88 C 3204.5,5525.98 2892.86,5665.71 2892.86,5665.71 1893.48,6041.84 1818.25,6966 1818.25,6966 l -96.71,3670.2 h 3990.91"
           inkscape:connector-curvature="0" />
        <path
           id="path282"
           style="fill:#43546b;fill-opacity:1;fill-rule:nonzero;stroke:none"
           d="m 1753.72,10604.8 95.86,-3638.01 c 0.66,-7.29 86.17,-907.4 1054.33,-1271.74 l 1.76,-0.73 c 3.06,-1.41 309.38,-136.96 620.16,-126.21 h 381.26 c 312.03,-10.48 618.14,124.85 621.21,126.21 l 1.77,0.73 c 969.61,364.87 1053.7,1264.4 1054.43,1273.46 l 95.78,3636.29 z M 3489.81,5504.81 c -305.49,0 -587.27,122.29 -608.87,131.88 -524.99,197.88 -794.4,547.35 -927.99,805.8 -144.95,280.4 -165.14,511.25 -165.93,520.94 l -97.66,3704.07 h 4055.25 l -97.55,-3702.34 c -0.89,-11.42 -21.06,-242.27 -166.03,-522.67 -133.6,-258.45 -403,-607.92 -928.01,-805.8 -22.46,-9.96 -326.41,-141.99 -646.98,-131.25 l -379.16,-0.05 c -12.37,-0.42 -24.76,-0.58 -37.07,-0.58"
           inkscape:connector-curvature="0" />
        <path
           id="path284"
           style="fill:#f9b29d;fill-opacity:1;fill-rule:nonzero;stroke:none"
           d="m 3777.01,7543.63 c -170.78,0 -309.71,136.69 -309.71,304.77 0,47.26 38.31,85.56 85.58,85.56 47.27,0 85.58,-38.3 85.58,-85.56 0,-73.67 62.15,-133.6 138.55,-133.6 76.39,0 138.54,59.93 138.54,133.6 0,47.26 38.31,85.56 85.58,85.56 47.27,0 85.58,-38.3 85.58,-85.56 0,-168.08 -138.92,-304.77 -309.7,-304.77"
           inkscape:connector-curvature="0" />
        <path
           id="path286"
           style="fill:#43546b;fill-opacity:1;fill-rule:nonzero;stroke:none"
           d="m 3767.55,7510.46 c -183.54,0 -332.87,149.33 -332.87,332.86 0,23.1 18.71,41.81 41.78,41.81 23.08,0 41.79,-18.71 41.79,-41.81 0,-137.43 111.84,-249.29 249.3,-249.29 137.46,0 249.3,111.86 249.3,249.29 0,23.1 18.71,41.81 41.79,41.81 23.08,0 41.79,-18.71 41.79,-41.81 0,-183.53 -149.33,-332.86 -332.88,-332.86"
           inkscape:connector-curvature="0" />
        <path
           id="path288"
           style="fill:#fab440;fill-opacity:1;fill-rule:nonzero;stroke:none"
           d="m 3596.52,12017.9 c -1219.64,17 -2346.26,-898.3 -2276.31,-2017.4 l 13.99,-1364.06 c -13.4,-238.49 261.64,-477.19 442.94,-451.26 l -16.93,927.56 c 421.63,4.4 986.46,46.11 1580.12,249.71 945.77,324.21 1275.4,927.95 1275.4,927.95 419.91,-899.45 1032.01,-1199.24 1032.01,-1199.24 v -809.58 c 218.95,-31.28 361.41,156.66 398.5,441.94 0,0 2.46,1097.11 -3.04,1160.35 -27.09,624.33 -40.6,1085.23 -494.8,1449.83 -263.58,190.4 -429.66,221.8 -429.66,221.8 -170.64,296.8 -637.05,408.6 -1019.44,449.4 l -502.78,13"
           inkscape:connector-curvature="0" />
        <path
           id="path290"
           style="fill:#43546b;fill-opacity:1;fill-rule:nonzero;stroke:none"
           d="m 3563.45,11997.5 c -651.45,0 -1295.17,-268.8 -1727.77,-722.9 -347.62,-364.9 -523.38,-817 -494.88,-1272.9 l 14.03,-1365.05 c -6,-107.67 50.59,-226.34 151.36,-318.81 80.94,-74.24 174.67,-116.68 249.97,-113.85 l -16.95,929.14 20.8,0.26 c 589.11,6.13 1103.85,87.44 1573.63,248.55 485.02,166.29 803.25,407.74 984.81,581.01 196.03,187.05 278.35,335.85 279.16,337.35 l 19.56,35.8 17.26,-36.9 C 5046.5,9416.52 5650.78,9112.64 5656.86,9109.71 l 11.52,-5.66 v -804.08 c 68.53,-6.02 130.04,11.32 183.07,51.61 89.64,68.16 151.51,200.72 174.15,373.3 0.1,43.75 2.3,1096.56 -2.94,1157.19 l -1.25,27.65 c -26.41,612.08 -45.53,1054.38 -485.95,1407.88 -254.94,184.2 -418.95,217.3 -420.58,217.6 l -9.29,1.8 -4.75,8.2 c -168.07,292.4 -638.6,400.2 -1003.73,439.2 l -500.97,12.9 c -10.89,0.2 -21.82,0.2 -32.69,0.2 z M 1749.86,8162.65 c -84.47,0 -185.63,45.95 -271.57,124.8 -109.78,100.7 -171.36,231.63 -164.7,350.14 l -14.02,1362.61 c -29.18,466.5 150.59,929.5 506.23,1302.9 447.63,469.9 1117.55,744.7 1791.01,735.5 h 0.25 l 502.79,-13.1 c 373.08,-39.7 851.71,-150.4 1032.14,-451.9 39.3,-9.5 196.21,-55.3 428.52,-223.2 455.81,-365.8 475.25,-815.9 502.13,-1438.9 l 1.15,-26.74 c 5.5,-62.53 3.2,-1116.45 3.09,-1161.3 l -0.2,-2.62 c -23.95,-184.26 -91.54,-327.03 -190.3,-402.11 -66.64,-50.61 -144.5,-70.05 -231.52,-57.58 l -17.76,2.57 v 814.86 c -39.66,21.22 -176.09,99.5 -351.77,259.66 -184.21,167.95 -446.45,460.64 -661.83,908.66 -35.54,-55.3 -119.34,-173.3 -266.55,-313.81 -184.55,-176.13 -507.82,-421.47 -999.93,-590.18 -468.46,-160.64 -980.88,-242.69 -1565.79,-250.55 l 16.88,-925.05 -18.05,-2.56 c -9.77,-1.36 -19.86,-2.1 -30.2,-2.1"
           inkscape:connector-curvature="0" />
        <path
           id="path292"
           style="fill:#43546b;fill-opacity:1;fill-rule:nonzero;stroke:none"
           d="m 4735.24,8610.24 c 0,-125.74 101.92,-227.64 227.66,-227.64 125.74,0 227.66,101.9 227.66,227.64 0,125.75 -101.92,227.65 -227.66,227.65 -125.74,0 -227.66,-101.9 -227.66,-227.65"
           inkscape:connector-curvature="0" />
        <path
           id="path294"
           style="fill:#43546b;fill-opacity:1;fill-rule:nonzero;stroke:none"
           d="m 2532.34,8610.24 c 0,-125.74 101.92,-227.64 227.65,-227.64 125.74,0 227.67,101.9 227.67,227.64 0,125.75 -101.93,227.65 -227.67,227.65 -125.73,0 -227.65,-101.9 -227.65,-227.65"
           inkscape:connector-curvature="0" />
        <path
           id="path296"
           style="fill:#ffffff;fill-opacity:1;fill-rule:nonzero;stroke:none"
           d="m 2177.77,8395.75 c -48.62,0 -88.02,39.4 -88.02,88.02 0,338.87 275.65,614.52 614.48,614.52 48.62,0 88.03,-39.41 88.03,-88.03 0,-48.62 -39.41,-88.02 -88.03,-88.02 -241.75,0 -438.43,-196.68 -438.43,-438.47 0,-48.62 -39.41,-88.02 -88.03,-88.02"
           inkscape:connector-curvature="0" />
        <path
           id="path298"
           style="fill:#ffffff;fill-opacity:1;fill-rule:nonzero;stroke:none"
           d="m 2341.43,8031.14 c -22.88,0 -45.73,8.91 -62.98,26.57 -48.47,49.61 -87.87,106.56 -117.12,169.18 -20.57,44.06 -1.53,96.45 42.52,116.99 44,20.54 96.42,1.57 117,-42.49 20.84,-44.64 48.96,-85.25 83.56,-120.71 33.97,-34.79 33.29,-90.54 -1.48,-124.49 -17.12,-16.71 -39.32,-25.05 -61.5,-25.05"
           inkscape:connector-curvature="0" />
        <path
           id="path300"
           style="fill:#ffffff;fill-opacity:1;fill-rule:nonzero;stroke:none"
           d="m 4277.5,8395.75 c -48.62,0 -88.02,39.4 -88.02,88.02 0,338.87 275.65,614.52 614.48,614.52 48.63,0 88.03,-39.41 88.03,-88.03 0,-48.62 -39.4,-88.02 -88.03,-88.02 -241.75,0 -438.44,-196.68 -438.44,-438.47 0,-48.62 -39.4,-88.02 -88.02,-88.02"
           inkscape:connector-curvature="0" />
        <path
           id="path302"
           style="fill:#ffffff;fill-opacity:1;fill-rule:nonzero;stroke:none"
           d="m 4441.18,8031.14 c -22.87,0 -45.73,8.91 -62.97,26.52 -48.46,49.61 -87.86,106.56 -117.14,169.23 -20.58,44 -1.56,96.4 42.5,116.99 44.02,20.59 96.41,1.57 117,-42.49 20.88,-44.69 49,-85.3 83.57,-120.71 33.98,-34.79 33.32,-90.49 -1.46,-124.44 -17.12,-16.76 -39.32,-25.1 -61.5,-25.1"
           inkscape:connector-curvature="0" />
        <path
           id="path304"
           style="fill:#5486bf;fill-opacity:1;fill-rule:nonzero;stroke:none"
           d="m 4778.02,7839.44 c -341.83,0 -618.86,277.16 -618.86,619.02 0,341.81 277.03,618.97 618.86,618.97 341.82,0 619.07,-277.16 619.07,-618.97 0,-341.86 -277.25,-619.02 -619.07,-619.02 z m -2071.2,12 c -341.83,0 -618.86,277 -618.86,618.92 0,341.75 277.03,619.07 618.86,619.07 341.91,0 619.01,-277.32 619.01,-619.07 0,-341.92 -277.1,-618.92 -619.01,-618.92 z m 2795.38,943.7 c -124.02,278.57 -402.83,473.58 -726.95,473.58 -372.46,0 -684.97,-257.57 -771.35,-603.62 -65.69,22.47 -145,38.67 -242.41,42.49 -109.39,4.35 -204.02,-10.48 -285.14,-34.95 -88.98,342.18 -399.74,596.08 -769.53,596.08 -323.99,0 -602.97,-195.01 -726.91,-473.58 H 1730.4 v -644.33 h 249.51 c 123.94,-278.57 402.92,-473.52 726.91,-473.52 396.83,0 725.63,292.09 785.35,672.35 62.31,30.23 146.76,55.28 257.26,50.09 161.81,-6.5 224.45,-55.48 244.54,-75.24 69.79,-368.01 393.39,-647.2 781.28,-647.2 324.12,0 602.93,194.95 726.95,473.52 h 203.91 v 644.33 H 5502.2"
           inkscape:connector-curvature="0" />
        <path
           id="path306"
           style="fill:#43546b;fill-opacity:1;fill-rule:nonzero;stroke:none"
           d="m 2706.82,9068.79 c -329.86,0 -598.22,-268.47 -598.22,-598.43 0,-329.92 268.36,-598.28 598.22,-598.28 329.95,0 598.38,268.36 598.38,598.28 0,329.96 -268.43,598.43 -598.38,598.43 z m 0,-1237.99 c -352.61,0 -639.49,286.9 -639.49,639.56 0,352.76 286.88,639.71 639.49,639.71 352.7,0 639.64,-286.95 639.64,-639.71 0,-352.66 -286.94,-639.56 -639.64,-639.56 z m 2071.2,1225.99 c -329.87,0 -598.23,-268.41 -598.23,-598.33 0,-329.97 268.36,-598.38 598.23,-598.38 329.97,0 598.43,268.41 598.43,598.38 0,329.92 -268.46,598.33 -598.43,598.33 z m 0,-1237.99 c -352.63,0 -639.5,286.95 -639.5,639.66 0,352.66 286.87,639.61 639.5,639.61 352.73,0 639.66,-286.95 639.66,-639.61 0,-352.71 -286.93,-639.66 -639.66,-639.66 z m -1057.25,602.25 c 9.81,0 19.68,-0.26 29.62,-0.73 159.13,-6.34 229.99,-53.55 258.04,-81.11 l 4.61,-4.5 1.21,-6.34 c 69.27,-365.33 389.32,-630.49 760.99,-630.49 305.43,0 583.4,181.12 708.14,461.31 l 5.45,12.26 h 196.63 v 603.1 h -196.63 l -5.45,12.2 c -124.79,280.25 -402.74,461.32 -708.14,461.32 -355.95,0 -664.91,-241.79 -751.32,-587.95 l -5.44,-21.85 -21.26,7.29 c -70.31,24.05 -149.89,37.98 -236.54,41.44 -97.02,3.77 -190.64,-7.65 -278.37,-34.11 l -20.53,-6.18 -5.4,20.75 c -88.91,341.86 -397.13,580.61 -749.56,580.61 -305.44,0 -583.37,-181.07 -708.05,-461.32 l -5.45,-12.2 h -242.29 v -603.1 h 242.29 l 5.45,-12.26 c 124.66,-280.24 402.59,-461.31 708.05,-461.31 377.47,0 706.32,281.55 764.96,654.96 l 1.68,10.63 9.71,4.72 c 72.39,35.1 152.2,52.86 237.6,52.86 z m 1054.47,-764.41 c -389.2,0 -724.66,276.01 -800.25,657.32 -23.37,20.54 -85.81,59.52 -226.38,65.13 -85.94,4.14 -165.87,-10.59 -237.83,-43.49 -66.37,-387.87 -410.03,-678.96 -803.96,-678.96 -317.27,0 -606.32,185.42 -740.19,473.53 h -256.86 v 685.61 h 256.86 c 133.88,288.16 422.94,473.58 740.19,473.58 364.17,0 683.52,-242 783.91,-591.09 86.19,23.57 177.37,33.68 271.58,29.96 82.15,-3.25 158.46,-15.61 227.21,-36.78 98.17,353.18 418.16,597.91 785.72,597.91 317.22,0 606.29,-185.42 740.26,-473.58 h 211.25 V 8130.17 H 5515.5 c -133.97,-288.11 -423.03,-473.53 -740.26,-473.53"
           inkscape:connector-curvature="0" />
      </g>
    </g>
    <path
       d="M 192.89696,165.81487 H 20.270303 c -0.42066,0 -0.761617,-0.34022 -0.761617,-0.75977 0,-0.42139 0.340957,-0.76162 0.761617,-0.76162 H 192.89696 c 0.41956,0 0.76162,0.34023 0.76162,0.76162 0,0.41955 -0.34206,0.75977 -0.76162,0.75977"
       style="fill:#43546b;fill-opacity:1;fill-rule:nonzero;stroke:none;stroke-width:0.03690007"
       id="path684-9"
       inkscape:connector-curvature="0" />
  </g>
</svg>
