<?xml version="1.0" encoding="UTF-8" standalone="no"?>
<!-- Created with Inkscape (http://www.inkscape.org/) -->

<svg
   xmlns:dc="http://purl.org/dc/elements/1.1/"
   xmlns:cc="http://creativecommons.org/ns#"
   xmlns:rdf="http://www.w3.org/1999/02/22-rdf-syntax-ns#"
   xmlns:svg="http://www.w3.org/2000/svg"
   xmlns="http://www.w3.org/2000/svg"
   xmlns:sodipodi="http://sodipodi.sourceforge.net/DTD/sodipodi-0.dtd"
   xmlns:inkscape="http://www.inkscape.org/namespaces/inkscape"
   version="1.1"
   id="svg815"
   xml:space="preserve"
   width="454.08203"
   height="343.41373"
   viewBox="0 0 454.08203 343.41373"
   sodipodi:docname="webDesign.svg"
   inkscape:version="0.92.4 (5da689c313, 2019-01-14)"><metadata
     id="metadata821"><rdf:RDF><cc:Work
         rdf:about=""><dc:format>image/svg+xml</dc:format><dc:type
           rdf:resource="http://purl.org/dc/dcmitype/StillImage" /><dc:title /></cc:Work></rdf:RDF></metadata><defs
     id="defs819"><clipPath
       clipPathUnits="userSpaceOnUse"
       id="clipPath841"><path
         d="M 0,500 H 500 V 0 H 0 Z"
         id="path839"
         inkscape:connector-curvature="0" /></clipPath><clipPath
       clipPathUnits="userSpaceOnUse"
       id="clipPath943"><path
         d="M 0,500 H 500 V 0 H 0 Z"
         id="path941"
         inkscape:connector-curvature="0" /></clipPath><clipPath
       clipPathUnits="userSpaceOnUse"
       id="clipPath1149"><path
         d="M 93.379,124.319 83.906,98.663 h 23.287 l -9.868,25.656 z"
         id="path1147"
         inkscape:connector-curvature="0" /></clipPath><clipPath
       clipPathUnits="userSpaceOnUse"
       id="clipPath1165"><path
         d="M 0,500 H 500 V 0 H 0 Z"
         id="path1163"
         inkscape:connector-curvature="0" /></clipPath><clipPath
       clipPathUnits="userSpaceOnUse"
       id="clipPath1183"><path
         d="m 134.936,124.319 -9.472,-25.656 h 23.287 l -9.868,25.656 z"
         id="path1181"
         inkscape:connector-curvature="0" /></clipPath><clipPath
       clipPathUnits="userSpaceOnUse"
       id="clipPath1199"><path
         d="M 0,500 H 500 V 0 H 0 Z"
         id="path1197"
         inkscape:connector-curvature="0" /></clipPath><clipPath
       clipPathUnits="userSpaceOnUse"
       id="clipPath1223"><path
         d="M 0,500 H 500 V 0 H 0 Z"
         id="path1221"
         inkscape:connector-curvature="0" /></clipPath></defs><sodipodi:namedview
     pagecolor="#ffffff"
     bordercolor="#666666"
     borderopacity="1"
     objecttolerance="10"
     gridtolerance="10"
     guidetolerance="10"
     inkscape:pageopacity="0"
     inkscape:pageshadow="2"
     inkscape:window-width="1920"
     inkscape:window-height="1017"
     id="namedview817"
     showgrid="false"
     inkscape:zoom="0.8994398"
     inkscape:cx="116.48697"
     inkscape:cy="166.54382"
     inkscape:window-x="-8"
     inkscape:window-y="-8"
     inkscape:window-maximized="1"
     inkscape:current-layer="g823" /><g
     id="g823"
     inkscape:groupmode="layer"
     inkscape:label="339378-PAYA1Z-901"
     transform="matrix(1.3333333,0,0,-1.3333333,-117.70311,452.22466)"><g
       id="g827"
       transform="translate(90.4336,136.0508)"><path
         d="M 0,0 H 336.249"
         style="fill:none;stroke:#b0d5f7;stroke-width:4.25196838;stroke-linecap:round;stroke-linejoin:round;stroke-miterlimit:10;stroke-dasharray:none;stroke-opacity:1"
         id="path829"
         inkscape:connector-curvature="0" /></g><path
       d="M 400.832,137 H 104.811 v 184.369 h 296.021 z"
       style="fill:#fbfbfd;fill-opacity:1;fill-rule:nonzero;stroke:none"
       id="path831"
       inkscape:connector-curvature="0" /><path
       d="m 180.117,137 h -75.306 v 184.369 h 75.306 z"
       style="fill:#2d61bb;fill-opacity:1;fill-rule:nonzero;stroke:none"
       id="path833"
       inkscape:connector-curvature="0" /><g
       id="g835"><g
         id="g837"
         clip-path="url(#clipPath841)"><g
           id="g843"
           transform="translate(393.8223,339.1685)"><path
             d="m 0,0 h -282.002 c -3.872,0 -7.01,-3.139 -7.01,-7.01 V -17.8 H 7.01 V -7.01 C 7.01,-3.139 3.871,0 0,0"
             style="fill:#61abfd;fill-opacity:1;fill-rule:nonzero;stroke:none"
             id="path845"
             inkscape:connector-curvature="0" /></g><g
           id="g847"
           transform="translate(128.3013,330.2686)"><path
             d="m 0,0 c 0,-1.985 -1.609,-3.594 -3.593,-3.594 -1.985,0 -3.594,1.609 -3.594,3.594 0,1.984 1.609,3.593 3.594,3.593 C -1.609,3.593 0,1.984 0,0"
             style="fill:#daeaff;fill-opacity:1;fill-rule:nonzero;stroke:none"
             id="path849"
             inkscape:connector-curvature="0" /></g><g
           id="g851"
           transform="translate(138.9492,330.2686)"><path
             d="m 0,0 c 0,-1.985 -1.609,-3.594 -3.593,-3.594 -1.985,0 -3.594,1.609 -3.594,3.594 0,1.984 1.609,3.593 3.594,3.593 C -1.609,3.593 0,1.984 0,0"
             style="fill:#f5dd45;fill-opacity:1;fill-rule:nonzero;stroke:none"
             id="path853"
             inkscape:connector-curvature="0" /></g><g
           id="g855"
           transform="translate(149.5977,330.2686)"><path
             d="m 0,0 c 0,-1.985 -1.609,-3.594 -3.594,-3.594 -1.984,0 -3.593,1.609 -3.593,3.594 0,1.984 1.609,3.593 3.593,3.593 C -1.609,3.593 0,1.984 0,0"
             style="fill:#daeaff;fill-opacity:1;fill-rule:nonzero;stroke:none"
             id="path857"
             inkscape:connector-curvature="0" /></g><g
           id="g859"
           transform="translate(165.9326,277.46)"><path
             d="m 0,0 c 0,-12.961 -10.507,-23.469 -23.469,-23.469 -12.962,0 -23.469,10.508 -23.469,23.469 0,12.961 10.507,23.469 23.469,23.469 C -10.507,23.469 0,12.961 0,0"
             style="fill:#61abfd;fill-opacity:1;fill-rule:nonzero;stroke:none"
             id="path861"
             inkscape:connector-curvature="0" /></g><g
           id="g863"
           transform="translate(148.8159,283.5088)"><path
             d="m 0,0 c 0,-3.46 -2.805,-6.265 -6.265,-6.265 -3.46,0 -6.265,2.805 -6.265,6.265 0,3.46 2.805,6.265 6.265,6.265 C -2.805,6.265 0,3.46 0,0"
             style="fill:#2d61bb;fill-opacity:1;fill-rule:nonzero;stroke:none"
             id="path865"
             inkscape:connector-curvature="0" /></g><g
           id="g867"
           transform="translate(128.8081,266.9341)"><path
             d="m 0,0 2.25,4.185 c 1.29,2.401 3.795,3.899 6.521,3.899 h 9.12 c 2.461,0 4.761,-1.223 6.137,-3.262 L 27.283,0 Z"
             style="fill:#2d61bb;fill-opacity:1;fill-rule:nonzero;stroke:none"
             id="path869"
             inkscape:connector-curvature="0" /></g><path
           d="m 387.81,230.662 h -71.362 v 70.267 h 71.362 z"
           style="fill:#daeaff;fill-opacity:1;fill-rule:nonzero;stroke:none"
           id="path871"
           inkscape:connector-curvature="0" /><path
           d="m 387.81,155.065 h -71.362 v 62.65 h 71.362 z"
           style="fill:#daeaff;fill-opacity:1;fill-rule:nonzero;stroke:none"
           id="path873"
           inkscape:connector-curvature="0" /><path
           d="m 367.572,279.869 h -13.356 v 21.06 h 13.356 z"
           style="fill:#447fd3;fill-opacity:1;fill-rule:nonzero;stroke:none"
           id="path875"
           inkscape:connector-curvature="0" /><g
           id="g877"
           transform="translate(217.1592,284.0972)"><path
             d="m 0,0 c 0,-7.115 -5.768,-12.883 -12.883,-12.883 -7.116,0 -12.883,5.768 -12.883,12.883 0,7.115 5.767,12.883 12.883,12.883 C -5.768,12.883 0,7.115 0,0"
             style="fill:#daeaff;fill-opacity:1;fill-rule:nonzero;stroke:none"
             id="path879"
             inkscape:connector-curvature="0" /></g><g
           id="g881"
           transform="translate(226.8066,293.4097)"><path
             d="M 0,0 H 48.312"
             style="fill:none;stroke:#daeaff;stroke-width:4.46299982;stroke-linecap:round;stroke-linejoin:round;stroke-miterlimit:10;stroke-dasharray:none;stroke-opacity:1"
             id="path883"
             inkscape:connector-curvature="0" /></g><g
           id="g885"
           transform="translate(226.8066,283.5908)"><path
             d="M 0,0 H 24.156"
             style="fill:none;stroke:#daeaff;stroke-width:4.46299982;stroke-linecap:round;stroke-linejoin:round;stroke-miterlimit:10;stroke-dasharray:none;stroke-opacity:1"
             id="path887"
             inkscape:connector-curvature="0" /></g><g
           id="g889"
           transform="translate(226.8066,273.772)"><path
             d="M 0,0 H 48.312"
             style="fill:none;stroke:#daeaff;stroke-width:4.46299982;stroke-linecap:round;stroke-linejoin:round;stroke-miterlimit:10;stroke-dasharray:none;stroke-opacity:1"
             id="path891"
             inkscape:connector-curvature="0" /></g><g
           id="g893"
           transform="translate(217.1592,233.3037)"><path
             d="m 0,0 c 0,-7.115 -5.768,-12.883 -12.883,-12.883 -7.116,0 -12.883,5.768 -12.883,12.883 0,7.115 5.767,12.883 12.883,12.883 C -5.768,12.883 0,7.115 0,0"
             style="fill:#daeaff;fill-opacity:1;fill-rule:nonzero;stroke:none"
             id="path895"
             inkscape:connector-curvature="0" /></g><g
           id="g897"
           transform="translate(226.8066,242.6162)"><path
             d="M 0,0 H 48.312"
             style="fill:none;stroke:#daeaff;stroke-width:4.46299982;stroke-linecap:round;stroke-linejoin:round;stroke-miterlimit:10;stroke-dasharray:none;stroke-opacity:1"
             id="path899"
             inkscape:connector-curvature="0" /></g><g
           id="g901"
           transform="translate(226.8066,232.7969)"><path
             d="M 0,0 H 24.156"
             style="fill:none;stroke:#daeaff;stroke-width:4.46299982;stroke-linecap:round;stroke-linejoin:round;stroke-miterlimit:10;stroke-dasharray:none;stroke-opacity:1"
             id="path903"
             inkscape:connector-curvature="0" /></g><g
           id="g905"
           transform="translate(226.8066,222.9785)"><path
             d="M 0,0 H 48.312"
             style="fill:none;stroke:#daeaff;stroke-width:4.46299982;stroke-linecap:round;stroke-linejoin:round;stroke-miterlimit:10;stroke-dasharray:none;stroke-opacity:1"
             id="path907"
             inkscape:connector-curvature="0" /></g><g
           id="g909"
           transform="translate(217.1592,182.5098)"><path
             d="m 0,0 c 0,-7.114 -5.768,-12.883 -12.883,-12.883 -7.116,0 -12.883,5.769 -12.883,12.883 0,7.115 5.767,12.884 12.883,12.884 C -5.768,12.884 0,7.115 0,0"
             style="fill:#daeaff;fill-opacity:1;fill-rule:nonzero;stroke:none"
             id="path911"
             inkscape:connector-curvature="0" /></g><g
           id="g913"
           transform="translate(226.8066,191.8232)"><path
             d="M 0,0 H 48.312"
             style="fill:none;stroke:#daeaff;stroke-width:4.46299982;stroke-linecap:round;stroke-linejoin:round;stroke-miterlimit:10;stroke-dasharray:none;stroke-opacity:1"
             id="path915"
             inkscape:connector-curvature="0" /></g><g
           id="g917"
           transform="translate(226.8066,182.0039)"><path
             d="M 0,0 H 24.156"
             style="fill:none;stroke:#daeaff;stroke-width:4.46299982;stroke-linecap:round;stroke-linejoin:round;stroke-miterlimit:10;stroke-dasharray:none;stroke-opacity:1"
             id="path919"
             inkscape:connector-curvature="0" /></g><g
           id="g921"
           transform="translate(226.8066,172.1855)"><path
             d="M 0,0 H 48.312"
             style="fill:none;stroke:#daeaff;stroke-width:4.46299982;stroke-linecap:round;stroke-linejoin:round;stroke-miterlimit:10;stroke-dasharray:none;stroke-opacity:1"
             id="path923"
             inkscape:connector-curvature="0" /></g><g
           id="g925"
           transform="translate(165.9326,177.2178)"><path
             d="m 0,0 h -46.938 c -1.232,0 -2.231,0.999 -2.231,2.231 0,1.233 0.999,2.232 2.231,2.232 H 0 C 1.232,4.463 2.231,3.464 2.231,2.231 2.231,0.999 1.232,0 0,0"
             style="fill:#61abfd;fill-opacity:1;fill-rule:nonzero;stroke:none"
             id="path927"
             inkscape:connector-curvature="0" /></g><g
           id="g929"
           transform="translate(165.9326,165.8301)"><path
             d="m 0,0 h -46.938 c -1.232,0 -2.231,0.999 -2.231,2.23 0,1.233 0.999,2.232 2.231,2.232 H 0 C 1.232,4.462 2.231,3.463 2.231,2.23 2.231,0.999 1.232,0 0,0"
             style="fill:#61abfd;fill-opacity:1;fill-rule:nonzero;stroke:none"
             id="path931"
             inkscape:connector-curvature="0" /></g></g></g><g
       id="g937"><g
         id="g939"
         clip-path="url(#clipPath943)"><g
           id="g957"
           transform="translate(398.7393,101.3828)"><path
             d="m 0,0 -22.945,115.976 2.065,0.409 L 2.064,0.41 Z"
             style="fill:#2d61bb;fill-opacity:1;fill-rule:nonzero;stroke:none"
             id="path959"
             inkscape:connector-curvature="0" /></g><g
           id="g961"
           transform="translate(367.0723,101.3828)"><path
             d="m 0,0 -22.944,115.976 2.065,0.409 L 2.065,0.41 Z"
             style="fill:#2d61bb;fill-opacity:1;fill-rule:nonzero;stroke:none"
             id="path963"
             inkscape:connector-curvature="0" /></g><path
           d="m 397.315,111.474 h -31.666 v 2.104 h 31.666 z"
           style="fill:#2d61bb;fill-opacity:1;fill-rule:nonzero;stroke:none"
           id="path965"
           inkscape:connector-curvature="0" /><path
           d="m 395.041,123.337 h -31.666 v 2.104 h 31.666 z"
           style="fill:#2d61bb;fill-opacity:1;fill-rule:nonzero;stroke:none"
           id="path967"
           inkscape:connector-curvature="0" /><path
           d="m 392.421,135.198 h -31.667 v 2.104 h 31.667 z"
           style="fill:#2d61bb;fill-opacity:1;fill-rule:nonzero;stroke:none"
           id="path969"
           inkscape:connector-curvature="0" /><path
           d="m 390.838,147.061 h -31.666 v 2.104 h 31.666 z"
           style="fill:#2d61bb;fill-opacity:1;fill-rule:nonzero;stroke:none"
           id="path971"
           inkscape:connector-curvature="0" /><path
           d="m 387.64,158.922 h -31.666 v 2.104 h 31.666 z"
           style="fill:#2d61bb;fill-opacity:1;fill-rule:nonzero;stroke:none"
           id="path973"
           inkscape:connector-curvature="0" /><path
           d="m 385.25,170.785 h -31.666 v 2.104 h 31.666 z"
           style="fill:#2d61bb;fill-opacity:1;fill-rule:nonzero;stroke:none"
           id="path975"
           inkscape:connector-curvature="0" /><path
           d="m 383.439,182.646 h -31.666 v 2.104 h 31.666 z"
           style="fill:#2d61bb;fill-opacity:1;fill-rule:nonzero;stroke:none"
           id="path977"
           inkscape:connector-curvature="0" /><path
           d="m 381.394,194.509 h -31.667 v 2.104 h 31.667 z"
           style="fill:#2d61bb;fill-opacity:1;fill-rule:nonzero;stroke:none"
           id="path979"
           inkscape:connector-curvature="0" /><path
           d="m 379.003,206.371 h -31.666 v 2.104 h 31.666 z"
           style="fill:#2d61bb;fill-opacity:1;fill-rule:nonzero;stroke:none"
           id="path981"
           inkscape:connector-curvature="0" /><g
           id="g991"
           transform="translate(423.1797,164.2871)" /><g
           id="g995"
           transform="translate(361.3398,262.4824)"><path
             d="M 0,0 -0.056,7.319 C -0.06,7.951 -0.782,8.479 -1.632,8.473 L -9.388,8.414 c -1.719,-0.013 -3.126,1.169 -3.136,2.632 l -0.021,2.506 c -0.01,1.465 1.38,2.666 3.099,2.679 l 4.599,0.036 0.009,-1.218 -4.6,-0.035 c -1.046,-0.008 -1.895,-0.66 -1.889,-1.453 l 0.019,-2.506 c 0.006,-0.793 0.865,-1.434 1.912,-1.424 L -1.641,9.69 C -0.104,9.701 1.151,8.641 1.162,7.328 L 1.218,0.009 Z"
             style="fill:#fbfbfd;fill-opacity:1;fill-rule:nonzero;stroke:none"
             id="path997"
             inkscape:connector-curvature="0" /></g><g
           id="g999"
           transform="translate(366.8145,274.7041)"><path
             d="m 0,0 -11.592,-0.088 c -1.815,-0.014 -3.299,1.447 -3.313,3.264 -0.014,1.816 1.448,3.299 3.263,3.313 L -0.05,6.577 C 1.767,6.59 3.25,5.129 3.264,3.313 3.277,1.497 1.816,0.014 0,0"
             style="fill:#2d61bb;fill-opacity:1;fill-rule:nonzero;stroke:none"
             id="path1001"
             inkscape:connector-curvature="0" /></g><g
           id="g1003"
           transform="translate(363.0576,248.335)"><path
             d="m 0,0 -2.209,-0.017 c -0.651,-0.004 -1.183,0.519 -1.188,1.17 l 0.36,13.519 c -0.005,0.651 0.518,1.183 1.17,1.188 l 1.285,0.01 C 0.069,15.875 0.601,15.351 0.605,14.7 L 1.17,1.188 C 1.175,0.537 0.651,0.005 0,0"
             style="fill:#2f282f;fill-opacity:1;fill-rule:nonzero;stroke:none"
             id="path1005"
             inkscape:connector-curvature="0" /></g><g
           id="g1007"
           transform="translate(366.7432,257.3149)"><path
             d="M 0,0 C 1.155,-2.006 0.465,-4.569 -1.542,-5.724 -3.548,-6.878 -6.11,-6.188 -7.266,-4.182 -8.42,-2.175 -7.73,0.387 -5.724,1.542 -3.717,2.697 -1.154,2.006 0,0"
             style="fill:#fe9764;fill-opacity:1;fill-rule:nonzero;stroke:none"
             id="path1009"
             inkscape:connector-curvature="0" /></g><path
           d="m 319.389,235.866 h -7.874 v 10.575 h 7.874 z"
           style="fill:#fe9764;fill-opacity:1;fill-rule:nonzero;stroke:none"
           id="path1011"
           inkscape:connector-curvature="0" /><path
           d="m 304.928,96.114 h 5.252 v 5.285 h -5.252 z"
           style="fill:#fe9764;fill-opacity:1;fill-rule:nonzero;stroke:none"
           id="path1013"
           inkscape:connector-curvature="0" /><path
           d="m 301.638,99.555 h 10.959 v 4.018 h -10.959 z"
           style="fill:#1c181c;fill-opacity:1;fill-rule:nonzero;stroke:none"
           id="path1015"
           inkscape:connector-curvature="0" /><path
           d="m 326.717,96.114 h -5.252 v 5.285 h 5.252 z"
           style="fill:#fe9764;fill-opacity:1;fill-rule:nonzero;stroke:none"
           id="path1017"
           inkscape:connector-curvature="0" /><g
           id="g1019"
           transform="translate(316.5713,195.6465)"><path
             d="m 0,0 h -1.497 -14.39 l 2.62,-92.074 h 8.291 l 1.29,75.973 h 5.874 l 1.29,-75.973 H 11.77 L 14.39,0 Z"
             style="fill:#2f282f;fill-opacity:1;fill-rule:nonzero;stroke:none"
             id="path1021"
             inkscape:connector-curvature="0" /></g><path
           d="m 330.008,99.555 h -10.96 v 4.018 h 10.96 z"
           style="fill:#1c181c;fill-opacity:1;fill-rule:nonzero;stroke:none"
           id="path1023"
           inkscape:connector-curvature="0" /><g
           id="g1025"
           transform="translate(307.6133,252.7993)"><path
             d="m 0,0 c 0,-1.445 -1.172,-2.616 -2.616,-2.616 -1.446,0 -2.617,1.171 -2.617,2.616 0,1.445 1.171,2.616 2.617,2.616 C -1.172,2.616 0,1.445 0,0"
             style="fill:#fe9764;fill-opacity:1;fill-rule:nonzero;stroke:none"
             id="path1027"
             inkscape:connector-curvature="0" /></g><g
           id="g1029"
           transform="translate(328.6445,252.7993)"><path
             d="m 0,0 c 0,-1.445 -1.171,-2.616 -2.616,-2.616 -1.445,0 -2.616,1.171 -2.616,2.616 0,1.445 1.171,2.616 2.616,2.616 C -1.171,2.616 0,1.445 0,0"
             style="fill:#fe9764;fill-opacity:1;fill-rule:nonzero;stroke:none"
             id="path1031"
             inkscape:connector-curvature="0" /></g><g
           id="g1033"
           transform="translate(326.2598,255.0557)"><path
             d="m 0,0 c 0,-5.94 -4.816,-10.757 -10.757,-10.757 -5.94,0 -10.756,4.817 -10.756,10.757 0,5.94 4.816,10.756 10.756,10.756 C -4.816,10.756 0,5.94 0,0"
             style="fill:#2f282f;fill-opacity:1;fill-rule:nonzero;stroke:none"
             id="path1035"
             inkscape:connector-curvature="0" /></g><g
           id="g1037"
           transform="translate(330.9609,195.6465)"><path
             d="m 0,0 h -30.276 l -1.165,33.406 c 0,5.599 3.711,10.139 9.31,10.139 h 13.985 c 5.599,0 9.311,-4.54 9.311,-10.139 z"
             style="fill:#2d61bb;fill-opacity:1;fill-rule:nonzero;stroke:none"
             id="path1039"
             inkscape:connector-curvature="0" /></g><g
           id="g1041"
           transform="translate(308.3799,228.3574)"><path
             d="m 0,0 -18.558,-21.644 0.846,1.61 c 0.118,0.353 0.108,0.943 -0.063,1.346 -0.164,0.414 -0.393,0.64 -0.568,0.768 -0.343,0.245 -0.664,0.247 -0.886,0.174 l 0.708,0.157 15.578,2.18 c 2.504,0.35 4.818,-1.396 5.169,-3.9 0.35,-2.504 -1.396,-4.818 -3.901,-5.169 l -15.576,-2.179 0.709,0.157 c -2.321,-0.715 -5.033,-0.385 -7.16,1.155 -1.063,0.766 -2.024,1.866 -2.593,3.3 -0.585,1.42 -0.641,3.168 -0.208,4.573 0.178,0.578 0.452,1.101 0.801,1.554 l 0.044,0.057 18.323,23.03 c 1.792,2.317 4.234,2.269 6.552,0.478 C 1.534,5.856 1.961,2.525 0.17,0.208 0.118,0.142 0.054,0.062 0,0"
             style="fill:#2d61bb;fill-opacity:1;fill-rule:nonzero;stroke:none"
             id="path1043"
             inkscape:connector-curvature="0" /></g><g
           id="g1045"
           transform="translate(346.5459,230.6172)"><path
             d="m 0,0 c 0,-0.006 -0.004,-0.014 -0.004,-0.021 0,-0.045 -0.011,-0.086 -0.001,-0.13 0,0 0.005,-0.039 0.006,-0.014 v 0.099 z"
             style="fill:#2346ae;fill-opacity:1;fill-rule:nonzero;stroke:none"
             id="path1047"
             inkscape:connector-curvature="0" /></g><g
           id="g1049"
           transform="translate(348.1143,231.7988)"><path
             d="m 0,0 c -0.003,0.001 -0.006,0 -0.01,0.001 l 0.033,-0.01 C 0.032,-0.011 0.007,-0.002 0,0"
             style="fill:#2346ae;fill-opacity:1;fill-rule:nonzero;stroke:none"
             id="path1051"
             inkscape:connector-curvature="0" /></g><g
           id="g1053"
           transform="translate(349.2324,231.9795)"><path
             d="M 0,0 C 0.006,-0.005 0.025,-0.023 0.018,-0.018 L -0.008,0.005 C -0.006,0.003 -0.002,0.002 0,0 m 1.937,-8.92 c 1.169,0.425 2.252,1.119 3.127,2.027 0.435,0.457 0.819,0.956 1.141,1.489 0.162,0.264 0.295,0.54 0.43,0.816 l 0.09,0.192 0.038,0.092 0.076,0.183 1.247,2.914 2.5,5.824 c 1.433,3.255 3.933,8.818 5.753,12.782 0.308,0.67 -0.01,1.457 -0.695,1.731 l -6.36,2.539 C 8.636,21.928 7.9,21.629 7.624,20.988 5.904,16.999 3.463,11.575 2.052,8.376 L -0.558,2.6 -3.245,-3.139 c 0.547,-3.529 3.463,-2.563 4.279,-6.057 0.307,0.074 0.61,0.166 0.903,0.276"
             style="fill:#2d61bb;fill-opacity:1;fill-rule:nonzero;stroke:none"
             id="path1055"
             inkscape:connector-curvature="0" /></g><g
           id="g1057"
           transform="translate(346.541,230.4658)"><path
             d="m 0,0 c -0.01,0.044 0.001,0.085 0.001,0.131 0,0.007 0.004,0.015 0.004,0.02 L 0.006,0.085 V -0.014 C 0.005,-0.039 0,0 0,0 m 2.351,1.087 -2.364,0.699 -0.961,0.277 -6.085,1.781 c -4.057,1.184 -12.917,4.099 -13.048,4.129 -3.176,0.721 -5.814,-1.826 -6.186,-5.155 -0.312,-2.803 1.697,-5.347 4.447,-5.972 4.06,-0.923 8.119,-1.849 12.163,-2.828 l 6.162,-1.491 1.54,-0.38 0.769,-0.19 0.506,-0.119 c 0.306,-0.064 0.608,-0.129 0.921,-0.162 2.206,-0.28 4.486,0.406 6.185,1.762 -2.217,2.82 -2.061,4.682 -4.049,7.649"
             style="fill:#2d61bb;fill-opacity:1;fill-rule:nonzero;stroke:none"
             id="path1059"
             inkscape:connector-curvature="0" /></g><g
           id="g1061"
           transform="translate(319.2803,191.1445)"><path
             d="M 0,0 H 8.174 V -5.4 L 4.087,-8.331 0,-5.5 Z"
             style="fill:none;stroke:#545054;stroke-width:0.63499999;stroke-linecap:butt;stroke-linejoin:miter;stroke-miterlimit:10;stroke-dasharray:none;stroke-opacity:1"
             id="path1063"
             inkscape:connector-curvature="0" /></g><g
           id="g1065"
           transform="translate(304.1904,191.1445)"><path
             d="M 0,0 H 8.174 V -5.4 L 4.087,-8.331 0,-5.5 Z"
             style="fill:none;stroke:#545054;stroke-width:0.63499999;stroke-linecap:butt;stroke-linejoin:miter;stroke-miterlimit:10;stroke-dasharray:none;stroke-opacity:1"
             id="path1067"
             inkscape:connector-curvature="0" /></g><g
           id="g1069"
           transform="translate(328.3877,97.8184)"><path
             d="m 0,0 0.135,-5.624 c 0,0 13.56,-3.844 13.731,-3.844 0.171,0 2.109,-0.627 2.109,-1.881 0,0 -24.648,-0.085 -24.562,0 0.085,0.086 -0.189,5.87 -0.189,5.87 0,0 -0.679,6.649 8.776,5.479"
             style="fill:#2f282f;fill-opacity:1;fill-rule:nonzero;stroke:none"
             id="path1071"
             inkscape:connector-curvature="0" /></g><g
           id="g1073"
           transform="translate(330.458,89.0342)"><path
             d="M 0,0 C 0.321,0 0.595,0.245 0.624,0.57 L 0.622,2.771 C 0.653,3.117 0.399,3.422 0.055,3.454 -0.303,3.489 -0.597,3.23 -0.627,2.886 L -0.625,0.685 C -0.656,0.339 -0.402,0.034 -0.058,0.003 -0.038,0.001 -0.019,0 0,0"
             style="fill:#ffffff;fill-opacity:1;fill-rule:nonzero;stroke:none"
             id="path1075"
             inkscape:connector-curvature="0" /></g><g
           id="g1077"
           transform="translate(333.0352,88.4844)"><path
             d="M 0,0 C 0.32,0 0.594,0.245 0.624,0.57 L 0.621,2.772 C 0.652,3.117 0.398,3.422 0.053,3.453 -0.281,3.492 -0.598,3.229 -0.628,2.885 L -0.626,0.684 C -0.656,0.339 -0.402,0.033 -0.058,0.002 -0.039,0.001 -0.019,0 0,0"
             style="fill:#ffffff;fill-opacity:1;fill-rule:nonzero;stroke:none"
             id="path1079"
             inkscape:connector-curvature="0" /></g><g
           id="g1081"
           transform="translate(335.5811,87.7734)"><path
             d="M 0,0 C 0.32,0 0.595,0.245 0.624,0.57 L 0.621,2.772 C 0.652,3.116 0.398,3.422 0.053,3.453 -0.278,3.485 -0.597,3.23 -0.628,2.885 L -0.626,0.684 C -0.656,0.339 -0.402,0.033 -0.058,0.002 -0.038,0.001 -0.019,0 0,0"
             style="fill:#ffffff;fill-opacity:1;fill-rule:nonzero;stroke:none"
             id="path1083"
             inkscape:connector-curvature="0" /></g><g
           id="g1085"
           transform="translate(319.8008,86.4697)"><path
             d="M 0,0 0.988,-0.993 C 1.486,-1.494 2.164,-1.775 2.87,-1.775 h 18.975 c 0.793,0 1.544,0.353 2.048,0.964 L 24.562,0 Z"
             style="fill:#2f282f;fill-opacity:1;fill-rule:nonzero;stroke:none"
             id="path1087"
             inkscape:connector-curvature="0" /></g><g
           id="g1089"
           transform="translate(302.8506,97.8184)"><path
             d="m 0,0 -0.135,-5.624 c 0,0 -13.559,-3.844 -13.73,-3.844 -0.171,0 -2.109,-0.627 -2.109,-1.881 0,0 24.647,-0.085 24.562,0 -0.086,0.086 0.189,5.87 0.189,5.87 0,0 0.678,6.649 -8.777,5.479"
             style="fill:#2f282f;fill-opacity:1;fill-rule:nonzero;stroke:none"
             id="path1091"
             inkscape:connector-curvature="0" /></g><g
           id="g1093"
           transform="translate(300.7803,89.0342)"><path
             d="m 0,0 c -0.32,0 -0.594,0.245 -0.623,0.57 l 0.001,2.201 c -0.03,0.346 0.224,0.651 0.567,0.683 C 0.304,3.489 0.597,3.23 0.628,2.886 L 0.626,0.685 C 0.657,0.339 0.403,0.034 0.059,0.003 0.039,0.001 0.02,0 0,0"
             style="fill:#ffffff;fill-opacity:1;fill-rule:nonzero;stroke:none"
             id="path1095"
             inkscape:connector-curvature="0" /></g><g
           id="g1097"
           transform="translate(298.2041,88.4844)"><path
             d="m 0,0 c -0.321,0 -0.595,0.245 -0.624,0.57 l 0.002,2.202 c -0.03,0.345 0.224,0.65 0.568,0.681 C 0.28,3.492 0.597,3.229 0.628,2.885 L 0.625,0.684 C 0.656,0.339 0.402,0.033 0.057,0.002 0.038,0.001 0.019,0 0,0"
             style="fill:#ffffff;fill-opacity:1;fill-rule:nonzero;stroke:none"
             id="path1099"
             inkscape:connector-curvature="0" /></g><g
           id="g1101"
           transform="translate(295.6582,87.7734)"><path
             d="m 0,0 c -0.321,0 -0.595,0.245 -0.624,0.57 l 0.002,2.202 c -0.03,0.344 0.224,0.65 0.568,0.681 C 0.277,3.485 0.596,3.23 0.628,2.885 L 0.625,0.684 C 0.656,0.339 0.402,0.033 0.057,0.002 0.038,0.001 0.019,0 0,0"
             style="fill:#ffffff;fill-opacity:1;fill-rule:nonzero;stroke:none"
             id="path1103"
             inkscape:connector-curvature="0" /></g><g
           id="g1105"
           transform="translate(311.4385,86.4697)"><path
             d="m 0,0 -0.989,-0.993 c -0.498,-0.501 -1.176,-0.782 -1.882,-0.782 h -18.975 c -0.793,0 -1.544,0.353 -2.048,0.964 L -24.562,0 Z"
             style="fill:#2f282f;fill-opacity:1;fill-rule:nonzero;stroke:none"
             id="path1107"
             inkscape:connector-curvature="0" /></g><g
           id="g1109"
           transform="translate(275.2676,84.5576)" /><g
           id="g1113"
           transform="translate(276.8672,96.083699)"><path
             d="m 0,0 h -26.299 v 2.341 c 0,0.734 0.595,1.329 1.328,1.329 H -1.329 C -0.595,3.67 0,3.075 0,2.341 Z"
             style="fill:#2d61bb;fill-opacity:1;fill-rule:nonzero;stroke:none"
             id="path1115"
             inkscape:connector-curvature="0" /></g><g
           id="g1117"
           transform="translate(269.6846,84.364899)"><path
             d="m 0,0 h -12.342 c -1.722,0 -3.252,1.034 -3.891,2.634 l -2.84,8.418 c -0.09,0.268 0.054,0.559 0.322,0.649 0.268,0.091 0.56,-0.053 0.649,-0.321 l 2.83,-8.392 c 0.474,-1.181 1.628,-1.963 2.93,-1.963 L 0,1.025 c 1.245,0 2.38,0.735 2.891,1.871 L 6.167,11.4 c 0.103,0.265 0.401,0.394 0.662,0.294 0.265,-0.101 0.396,-0.398 0.294,-0.663 L 3.836,2.502 C 3.15,0.973 1.648,0 0,0"
             style="fill:#545054;fill-opacity:1;fill-rule:nonzero;stroke:none"
             id="path1119"
             inkscape:connector-curvature="0" /></g><g
           id="g1121"
           transform="translate(265.5146,97.918699)"><path
             d="M 0,0 V -7.64"
             style="fill:none;stroke:#2d61bb;stroke-width:2.73300004;stroke-linecap:round;stroke-linejoin:round;stroke-miterlimit:10;stroke-dasharray:none;stroke-opacity:1"
             id="path1123"
             inkscape:connector-curvature="0" /></g><g
           id="g1125"
           transform="translate(268.0381,96.552399)"><path
             d="M 0,0 V -1.229"
             style="fill:none;stroke:#2d61bb;stroke-width:4.0999999;stroke-linecap:round;stroke-linejoin:round;stroke-miterlimit:10;stroke-dasharray:none;stroke-opacity:1"
             id="path1127"
             inkscape:connector-curvature="0" /></g><g
           id="g1129"
           transform="translate(239.9849,83.7344)"><path
             d="M 0,0 H 119.599"
             style="fill:none;stroke:#2d61bb;stroke-width:4.25196838;stroke-linecap:round;stroke-linejoin:round;stroke-miterlimit:10;stroke-dasharray:none;stroke-opacity:1"
             id="path1131"
             inkscape:connector-curvature="0" /></g></g></g><g
       id="g1193" /></g></svg>