<?xml version="1.0" encoding="UTF-8" standalone="no"?>
<!-- Generator: Adobe Illustrator 23.0.2, SVG Export Plug-In . SVG Version: 6.00 Build 0)  -->

<svg
   xmlns:dc="http://purl.org/dc/elements/1.1/"
   xmlns:cc="http://creativecommons.org/ns#"
   xmlns:rdf="http://www.w3.org/1999/02/22-rdf-syntax-ns#"
   xmlns:svg="http://www.w3.org/2000/svg"
   xmlns="http://www.w3.org/2000/svg"
   xmlns:sodipodi="http://sodipodi.sourceforge.net/DTD/sodipodi-0.dtd"
   xmlns:inkscape="http://www.inkscape.org/namespaces/inkscape"
   version="1.1"
   x="0px"
   y="0px"
   viewBox="0 0 376.35001 319.09"
   xml:space="preserve"
   id="svg38452"
   sodipodi:docname="webDesignUX.svg"
   width="376.35001"
   height="319.09"
   inkscape:version="0.92.4 (5da689c313, 2019-01-14)"><metadata
   id="metadata38458"><rdf:RDF><cc:Work
       rdf:about=""><dc:format>image/svg+xml</dc:format><dc:type
         rdf:resource="http://purl.org/dc/dcmitype/StillImage" /></cc:Work></rdf:RDF></metadata><defs
   id="defs38456" /><sodipodi:namedview
   pagecolor="#ffffff"
   bordercolor="#666666"
   borderopacity="1"
   objecttolerance="10"
   gridtolerance="10"
   guidetolerance="10"
   inkscape:pageopacity="0"
   inkscape:pageshadow="2"
   inkscape:window-width="1920"
   inkscape:window-height="1017"
   id="namedview38454"
   showgrid="false"
   inkscape:zoom="0.472"
   inkscape:cx="175.32"
   inkscape:cy="168.43999"
   inkscape:window-x="-8"
   inkscape:window-y="-8"
   inkscape:window-maximized="1"
   inkscape:current-layer="svg38452" />
<style
   type="text/css"
   id="style38137">
	.st0{fill:url(#SVGID_1_);}
	.st1{fill:url(#SVGID_2_);}
	.st2{fill:#1A2F76;}
	.st3{opacity:0.11;fill:#2D4CDA;}
	.st4{fill:none;stroke:#D1BCCC;stroke-width:0.5;stroke-miterlimit:10;stroke-dasharray:6;}
	.st5{fill:none;stroke:#D1BCCC;stroke-width:0.5;stroke-miterlimit:10;}
	.st6{fill:none;stroke:#D1BCCC;stroke-width:0.5;stroke-miterlimit:10;stroke-dasharray:5.9098,5.9098;}
	.st7{fill:none;stroke:#D1BCCC;stroke-width:0.5;stroke-miterlimit:10;stroke-dasharray:5.421,5.421;}
	.st8{fill:#CBCBCB;}
	.st9{fill:none;stroke:#CBCBCB;stroke-width:0.5;stroke-miterlimit:10;stroke-dasharray:3;}
	.st10{opacity:0.52;fill:#B2B2B2;}
	.st11{opacity:0.52;fill:#CBCBCB;}
	.st12{fill:url(#SVGID_3_);}
	.st13{fill:url(#SVGID_4_);}
	.st14{fill:url(#SVGID_5_);}
	.st15{fill:url(#SVGID_6_);}
	.st16{fill:url(#SVGID_7_);}
	.st17{fill:url(#SVGID_8_);}
	.st18{fill:url(#SVGID_9_);}
	.st19{fill:url(#SVGID_10_);}
	.st20{fill:url(#SVGID_11_);}
	.st21{fill:url(#SVGID_12_);}
	.st22{fill:url(#SVGID_13_);}
	.st23{fill:url(#SVGID_14_);}
	.st24{fill:#E5E5E5;}
	.st25{fill:url(#SVGID_15_);}
	.st26{fill:url(#SVGID_16_);}
	.st27{fill:url(#SVGID_17_);}
	.st28{opacity:0.2;fill:#1A2F76;}
	.st29{fill:#F2AC97;}
	.st30{fill:#FFB59F;}
	.st31{fill:#2D4CDA;}
	.st32{fill:url(#SVGID_18_);}
	.st33{fill:url(#SVGID_19_);}
	.st34{fill:#2945C7;}
	.st35{fill:#CC4865;}
	.st36{fill:url(#SVGID_20_);}
	.st37{fill:#E04F6E;}
	.st38{fill:#1E2FA4;}
	.st39{fill:url(#SVGID_21_);}
	.st40{fill:url(#SVGID_22_);}
	.st41{fill:#C2445F;}
</style>
<g
   id="BACKGROUND"
   transform="translate(-74.68,-99.35)">
</g>
<g
   id="OBJECTS"
   transform="translate(-74.68,-99.35)">
	<g
   id="g38448">
		<g
   id="g38154">
			<linearGradient
   id="SVGID_1_"
   gradientUnits="userSpaceOnUse"
   x1="97.142899"
   y1="115.179"
   x2="417.45541"
   y2="115.179">
				<stop
   offset="0.1736"
   style="stop-color:#2D4CDA"
   id="stop38140" />
				<stop
   offset="0.9996"
   style="stop-color:#1E2FA4"
   id="stop38142" />
			</linearGradient>
			<path
   class="st0"
   d="m 417.46,118.92 c 0,-10.81 -8.76,-19.57 -19.57,-19.57 H 116.71 c -10.81,0 -19.57,8.76 -19.57,19.57 v 12.09 h 320.31 v -12.09 z"
   id="path38145"
   inkscape:connector-curvature="0"
   style="fill:url(#SVGID_1_)" />
			<linearGradient
   id="SVGID_2_"
   gradientUnits="userSpaceOnUse"
   x1="97.142899"
   y1="238.7103"
   x2="417.45541"
   y2="238.7103">
				<stop
   offset="0.174"
   style="stop-color:#F7F7F7"
   id="stop38147" />
				<stop
   offset="1"
   style="stop-color:#F1F1F1"
   id="stop38149" />
			</linearGradient>
			<path
   class="st1"
   d="m 97.14,131.01 v 195.84 c 0,10.81 8.76,19.57 19.57,19.57 h 281.18 c 10.81,0 19.57,-8.76 19.57,-19.57 V 131.01 Z"
   id="path38152"
   inkscape:connector-curvature="0"
   style="fill:url(#SVGID_2_)" />
		</g>
		<circle
   class="st2"
   cx="113.52"
   cy="116.34"
   r="3.3399999"
   id="circle38156"
   style="fill:#1a2f76" />
		<path
   class="st2"
   d="m 133.5,116.34 c 0,1.84 -1.49,3.34 -3.34,3.34 -1.84,0 -3.34,-1.49 -3.34,-3.34 0,-1.84 1.49,-3.34 3.34,-3.34 1.84,0.01 3.34,1.5 3.34,3.34 z"
   id="path38158"
   inkscape:connector-curvature="0"
   style="fill:#1a2f76" />
		<circle
   class="st2"
   cx="146.8"
   cy="116.34"
   r="3.3399999"
   id="circle38160"
   style="fill:#1a2f76" />
		<g
   id="g38166">
			<rect
   x="177.05"
   y="271.17001"
   class="st3"
   width="93.25"
   height="48.169998"
   id="rect38162"
   style="opacity:0.11000001;fill:#2d4cda" />
			<rect
   x="124.36"
   y="273.88"
   class="st4"
   width="104.83"
   height="61.98"
   id="rect38164"
   style="fill:none;stroke:#d1bccc;stroke-width:0.5;stroke-miterlimit:10;stroke-dasharray:6" />
		</g>
		<g
   id="g38194">
			<g
   id="g38186">
				<g
   id="g38184">
					<polyline
   class="st5"
   points="275.34,253.49 275.34,256.49 272.34,256.49      "
   id="polyline38168"
   style="fill:none;stroke:#d1bccc;stroke-width:0.5;stroke-miterlimit:10" />
					<line
   class="st6"
   x1="266.42999"
   y1="256.48999"
   x2="127.55"
   y2="256.48999"
   id="line38170"
   style="fill:none;stroke:#d1bccc;stroke-width:0.5;stroke-miterlimit:10;stroke-dasharray:5.9098, 5.9098" />
					<polyline
   class="st5"
   points="124.59,256.49 121.59,256.49 121.59,253.49      "
   id="polyline38172"
   style="fill:none;stroke:#d1bccc;stroke-width:0.5;stroke-miterlimit:10" />
					<line
   class="st7"
   x1="121.59"
   y1="248.07001"
   x2="121.59"
   y2="218.25"
   id="line38174"
   style="fill:none;stroke:#d1bccc;stroke-width:0.5;stroke-miterlimit:10;stroke-dasharray:5.421, 5.421" />
					<polyline
   class="st5"
   points="121.59,215.54 121.59,212.54 124.59,212.54      "
   id="polyline38176"
   style="fill:none;stroke:#d1bccc;stroke-width:0.5;stroke-miterlimit:10" />
					<line
   class="st6"
   x1="130.5"
   y1="212.53999"
   x2="269.38"
   y2="212.53999"
   id="line38178"
   style="fill:none;stroke:#d1bccc;stroke-width:0.5;stroke-miterlimit:10;stroke-dasharray:5.9098, 5.9098" />
					<polyline
   class="st5"
   points="272.34,212.54 275.34,212.54 275.34,215.54      "
   id="polyline38180"
   style="fill:none;stroke:#d1bccc;stroke-width:0.5;stroke-miterlimit:10" />
					<line
   class="st7"
   x1="275.34"
   y1="220.97"
   x2="275.34"
   y2="250.78"
   id="line38182"
   style="fill:none;stroke:#d1bccc;stroke-width:0.5;stroke-miterlimit:10;stroke-dasharray:5.421, 5.421" />
				</g>
			</g>
			
				<rect
   x="181.44"
   y="162.85001"
   transform="rotate(90,198.46295,234.51755)"
   class="st3"
   width="34.049999"
   height="143.34"
   id="rect38188"
   style="opacity:0.11000001;fill:#2d4cda" />
			<path
   class="st8"
   d="m 205.54,234.41 h -3.01 v -3.01 c 0,-0.6 -0.49,-1.09 -1.09,-1.09 -0.6,0 -1.09,0.49 -1.09,1.09 v 3.01 h -3.01 c -0.6,0 -1.09,0.49 -1.09,1.09 0,0.6 0.49,1.09 1.09,1.09 h 3.01 v 3.01 c 0,0.6 0.49,1.09 1.09,1.09 0.6,0 1.09,-0.49 1.09,-1.09 v -3.01 h 3.01 c 0.6,0 1.09,-0.49 1.09,-1.09 0,-0.6 -0.49,-1.09 -1.09,-1.09 z"
   id="path38190"
   inkscape:connector-curvature="0"
   style="fill:#cbcbcb" />
			
				<circle
   transform="matrix(0.2288,-0.9735,0.9735,0.2288,-73.9051,377.719)"
   class="st9"
   cx="201.44"
   cy="235.5"
   id="ellipse38192"
   r="9.7700005"
   style="fill:none;stroke:#cbcbcb;stroke-width:0.5;stroke-miterlimit:10;stroke-dasharray:3" />
		</g>
		<path
   class="st10"
   d="m 214.55,253.12 -4.02,-2.35 0.68,39.99 h -24.3 l 0.68,-39.99 -4.41,2.35 -3.02,93.29 h 5.8 l 0.33,-19.14 h 25.54 l 0.33,19.14 h 5.28 z m -28.18,69.66 0.47,-27.52 h 24.45 l 0.47,27.52 z"
   id="path38196"
   inkscape:connector-curvature="0"
   style="opacity:0.51999996;fill:#b2b2b2" />
		<g
   id="g38235">
			<path
   class="st11"
   d="m 162.44,189.87 h 52.58 c 5.35,0 9.69,-4.34 9.69,-9.69 v -25.8 c 0,-5.35 -4.34,-9.69 -9.69,-9.69 h -52.58 c -5.35,0 -9.69,4.34 -9.69,9.69 v 25.8 c 0.01,5.35 4.35,9.69 9.69,9.69 z"
   id="path38198"
   inkscape:connector-curvature="0"
   style="opacity:0.51999996;fill:#cbcbcb" />
			<linearGradient
   id="SVGID_3_"
   gradientUnits="userSpaceOnUse"
   x1="154.7276"
   y1="164.94"
   x2="226.67551"
   y2="164.94">
				<stop
   offset="0.1736"
   style="stop-color:#2D4CDA"
   id="stop38200" />
				<stop
   offset="0.9996"
   style="stop-color:#1E2FA4"
   id="stop38202" />
			</linearGradient>
			<path
   class="st12"
   d="m 164.41,187.53 h 52.58 c 5.35,0 9.69,-4.34 9.69,-9.69 v -25.8 c 0,-5.35 -4.34,-9.69 -9.69,-9.69 h -52.58 c -5.35,0 -9.69,4.34 -9.69,9.69 v 25.8 c 0.01,5.35 4.34,9.69 9.69,9.69 z"
   id="path38205"
   inkscape:connector-curvature="0"
   style="fill:url(#SVGID_3_)" />
			<linearGradient
   id="SVGID_4_"
   gradientUnits="userSpaceOnUse"
   x1="159.9874"
   y1="153.6797"
   x2="219.9724"
   y2="153.6797">
				<stop
   offset="0.1133"
   style="stop-color:#E04F6E"
   id="stop38207" />
				<stop
   offset="1"
   style="stop-color:#E06F6E"
   id="stop38209" />
			</linearGradient>
			<path
   class="st13"
   d="m 218.6,155.14 h -57.25 c -0.75,0 -1.37,-0.62 -1.37,-1.37 v -0.18 c 0,-0.75 0.62,-1.37 1.37,-1.37 h 57.25 c 0.75,0 1.37,0.62 1.37,1.37 v 0.18 c 0,0.75 -0.61,1.37 -1.37,1.37 z"
   id="path38212"
   inkscape:connector-curvature="0"
   style="fill:url(#SVGID_4_)" />
			<linearGradient
   id="SVGID_5_"
   gradientUnits="userSpaceOnUse"
   x1="159.9874"
   y1="161.1866"
   x2="219.9724"
   y2="161.1866">
				<stop
   offset="0.1133"
   style="stop-color:#E04F6E"
   id="stop38214" />
				<stop
   offset="1"
   style="stop-color:#E06F6E"
   id="stop38216" />
			</linearGradient>
			<path
   class="st14"
   d="m 218.6,162.65 h -57.25 c -0.75,0 -1.37,-0.62 -1.37,-1.37 v -0.18 c 0,-0.75 0.62,-1.37 1.37,-1.37 h 57.25 c 0.75,0 1.37,0.62 1.37,1.37 v 0.18 c 0,0.75 -0.61,1.37 -1.37,1.37 z"
   id="path38219"
   inkscape:connector-curvature="0"
   style="fill:url(#SVGID_5_)" />
			<linearGradient
   id="SVGID_6_"
   gradientUnits="userSpaceOnUse"
   x1="159.9874"
   y1="168.6935"
   x2="219.9724"
   y2="168.6935">
				<stop
   offset="0.1133"
   style="stop-color:#E04F6E"
   id="stop38221" />
				<stop
   offset="1"
   style="stop-color:#E06F6E"
   id="stop38223" />
			</linearGradient>
			<path
   class="st15"
   d="m 218.6,170.15 h -57.25 c -0.75,0 -1.37,-0.62 -1.37,-1.37 v -0.18 c 0,-0.75 0.62,-1.37 1.37,-1.37 h 57.25 c 0.75,0 1.37,0.62 1.37,1.37 v 0.18 c 0,0.76 -0.61,1.37 -1.37,1.37 z"
   id="path38226"
   inkscape:connector-curvature="0"
   style="fill:url(#SVGID_6_)" />
			<linearGradient
   id="SVGID_7_"
   gradientUnits="userSpaceOnUse"
   x1="159.9874"
   y1="176.2003"
   x2="219.9724"
   y2="176.2003">
				<stop
   offset="0.1133"
   style="stop-color:#E04F6E"
   id="stop38228" />
				<stop
   offset="1"
   style="stop-color:#E06F6E"
   id="stop38230" />
			</linearGradient>
			<path
   class="st16"
   d="m 218.6,177.66 h -57.25 c -0.75,0 -1.37,-0.62 -1.37,-1.37 v -0.18 c 0,-0.75 0.62,-1.37 1.37,-1.37 h 57.25 c 0.75,0 1.37,0.62 1.37,1.37 v 0.18 c 0,0.75 -0.61,1.37 -1.37,1.37 z"
   id="path38233"
   inkscape:connector-curvature="0"
   style="fill:url(#SVGID_7_)" />
		</g>
		<g
   id="g38274">
			<path
   class="st11"
   d="M 134.98,144.7 H 97.14 v 45.18 h 37.83 c 5.35,0 9.69,-4.34 9.69,-9.69 v -25.8 c 0,-5.36 -4.33,-9.69 -9.68,-9.69 z"
   id="path38237"
   inkscape:connector-curvature="0"
   style="opacity:0.51999996;fill:#cbcbcb" />
			<linearGradient
   id="SVGID_8_"
   gradientUnits="userSpaceOnUse"
   x1="74.684998"
   y1="164.94"
   x2="146.6329"
   y2="164.94">
				<stop
   offset="0.1736"
   style="stop-color:#2D4CDA"
   id="stop38239" />
				<stop
   offset="0.9996"
   style="stop-color:#1E2FA4"
   id="stop38241" />
			</linearGradient>
			<path
   class="st17"
   d="m 84.37,187.53 h 52.58 c 5.35,0 9.69,-4.34 9.69,-9.69 v -25.8 c 0,-5.35 -4.34,-9.69 -9.69,-9.69 H 84.37 c -5.35,0 -9.69,4.34 -9.69,9.69 v 25.8 c 0.01,5.35 4.34,9.69 9.69,9.69 z"
   id="path38244"
   inkscape:connector-curvature="0"
   style="fill:url(#SVGID_8_)" />
			<linearGradient
   id="SVGID_9_"
   gradientUnits="userSpaceOnUse"
   x1="79.944801"
   y1="153.6797"
   x2="139.92979"
   y2="153.6797">
				<stop
   offset="0.1133"
   style="stop-color:#E04F6E"
   id="stop38246" />
				<stop
   offset="1"
   style="stop-color:#E06F6E"
   id="stop38248" />
			</linearGradient>
			<path
   class="st18"
   d="M 138.56,155.14 H 81.31 c -0.75,0 -1.37,-0.62 -1.37,-1.37 v -0.18 c 0,-0.75 0.62,-1.37 1.37,-1.37 h 57.25 c 0.75,0 1.37,0.62 1.37,1.37 v 0.18 c 0,0.75 -0.62,1.37 -1.37,1.37 z"
   id="path38251"
   inkscape:connector-curvature="0"
   style="fill:url(#SVGID_9_)" />
			<linearGradient
   id="SVGID_10_"
   gradientUnits="userSpaceOnUse"
   x1="79.944801"
   y1="161.1866"
   x2="139.92979"
   y2="161.1866">
				<stop
   offset="0.1133"
   style="stop-color:#E04F6E"
   id="stop38253" />
				<stop
   offset="1"
   style="stop-color:#E06F6E"
   id="stop38255" />
			</linearGradient>
			<path
   class="st19"
   d="M 138.56,162.65 H 81.31 c -0.75,0 -1.37,-0.62 -1.37,-1.37 v -0.18 c 0,-0.75 0.62,-1.37 1.37,-1.37 h 57.25 c 0.75,0 1.37,0.62 1.37,1.37 v 0.18 c 0,0.75 -0.62,1.37 -1.37,1.37 z"
   id="path38258"
   inkscape:connector-curvature="0"
   style="fill:url(#SVGID_10_)" />
			<linearGradient
   id="SVGID_11_"
   gradientUnits="userSpaceOnUse"
   x1="79.944801"
   y1="168.6935"
   x2="139.92979"
   y2="168.6935">
				<stop
   offset="0.1133"
   style="stop-color:#E04F6E"
   id="stop38260" />
				<stop
   offset="1"
   style="stop-color:#E06F6E"
   id="stop38262" />
			</linearGradient>
			<path
   class="st20"
   d="M 138.56,170.15 H 81.31 c -0.75,0 -1.37,-0.62 -1.37,-1.37 v -0.18 c 0,-0.75 0.62,-1.37 1.37,-1.37 h 57.25 c 0.75,0 1.37,0.62 1.37,1.37 v 0.18 c 0,0.76 -0.62,1.37 -1.37,1.37 z"
   id="path38265"
   inkscape:connector-curvature="0"
   style="fill:url(#SVGID_11_)" />
			<linearGradient
   id="SVGID_12_"
   gradientUnits="userSpaceOnUse"
   x1="79.944801"
   y1="176.2003"
   x2="139.92979"
   y2="176.2003">
				<stop
   offset="0.1133"
   style="stop-color:#E04F6E"
   id="stop38267" />
				<stop
   offset="1"
   style="stop-color:#E06F6E"
   id="stop38269" />
			</linearGradient>
			<path
   class="st21"
   d="M 138.56,177.66 H 81.31 c -0.75,0 -1.37,-0.62 -1.37,-1.37 v -0.18 c 0,-0.75 0.62,-1.37 1.37,-1.37 h 57.25 c 0.75,0 1.37,0.62 1.37,1.37 v 0.18 c 0,0.75 -0.62,1.37 -1.37,1.37 z"
   id="path38272"
   inkscape:connector-curvature="0"
   style="fill:url(#SVGID_12_)" />
		</g>
		<rect
   x="313.13"
   y="196.94"
   class="st3"
   width="88.580002"
   height="43.75"
   id="rect38276"
   style="opacity:0.11000001;fill:#2d4cda" />
		<rect
   x="313.13"
   y="253.52"
   class="st3"
   width="88.580002"
   height="43.75"
   id="rect38278"
   style="opacity:0.11000001;fill:#2d4cda" />
		<g
   id="g38371">
			<g
   id="g38305">
				<path
   class="st11"
   d="M 417.46,158.52 H 314.61 c -6.27,0 -11.41,5.13 -11.41,11.41 v 0 c 0,6.27 5.13,11.41 11.41,11.41 h 102.84 v -22.82 z"
   id="path38280"
   inkscape:connector-curvature="0"
   style="opacity:0.51999996;fill:#cbcbcb" />
				<linearGradient
   id="SVGID_13_"
   gradientUnits="userSpaceOnUse"
   x1="305.41769"
   y1="167.0963"
   x2="431.991"
   y2="167.0963">
					<stop
   offset="0.1736"
   style="stop-color:#2D4CDA"
   id="stop38282" />
					<stop
   offset="0.9996"
   style="stop-color:#1E2FA4"
   id="stop38284" />
				</linearGradient>
				<path
   class="st22"
   d="M 420.58,178.5 H 316.82 c -6.27,0 -11.41,-5.13 -11.41,-11.41 v 0 c 0,-6.27 5.13,-11.41 11.41,-11.41 h 103.76 c 6.27,0 11.41,5.13 11.41,11.41 v 0 c 0,6.28 -5.13,11.41 -11.41,11.41 z"
   id="path38287"
   inkscape:connector-curvature="0"
   style="fill:url(#SVGID_13_)" />
				
					<linearGradient
   id="SVGID_14_"
   gradientUnits="userSpaceOnUse"
   x1="312.04971"
   y1="186.2211"
   x2="401.0069"
   y2="186.2211"
   gradientTransform="matrix(1,0,0,0.5407,0,66.4065)">
					<stop
   offset="0.174"
   style="stop-color:#F7F7F7"
   id="stop38289" />
					<stop
   offset="1"
   style="stop-color:#F1F1F1"
   id="stop38291" />
				</linearGradient>
				<path
   class="st23"
   d="m 394.84,173.26 h -76.62 c -3.39,0 -6.17,-2.78 -6.17,-6.17 v 0 c 0,-3.39 2.78,-6.17 6.17,-6.17 h 76.62 c 3.39,0 6.17,2.78 6.17,6.17 v 0 c 0,3.4 -2.78,6.17 -6.17,6.17 z"
   id="path38294"
   inkscape:connector-curvature="0"
   style="fill:url(#SVGID_14_)" />
				<path
   class="st24"
   d="m 314.09,169.13 c 0,-3.39 2.78,-6.17 6.17,-6.17 h 76.62 c 1.18,0 2.28,0.34 3.21,0.92 -1.09,-1.77 -3.03,-2.95 -5.25,-2.95 h -76.62 c -3.39,0 -6.17,2.78 -6.17,6.17 0,2.22 1.19,4.16 2.95,5.25 -0.57,-0.94 -0.91,-2.04 -0.91,-3.22 z"
   id="path38296"
   inkscape:connector-curvature="0"
   style="fill:#e5e5e5" />
				
					<linearGradient
   id="SVGID_15_"
   gradientUnits="userSpaceOnUse"
   x1="414.82059"
   y1="136.0629"
   x2="422.69531"
   y2="136.0629"
   gradientTransform="matrix(0.7071,0.7071,-0.7071,0.7071,214.6242,-224.7694)">
					<stop
   offset="0.174"
   style="stop-color:#F7F7F7"
   id="stop38298" />
					<stop
   offset="1"
   style="stop-color:#F1F1F1"
   id="stop38300" />
				</linearGradient>
				<path
   class="st25"
   d="m 419.68,167.95 c 1.54,-1.54 1.54,-4.03 0,-5.57 -1.54,-1.54 -4.03,-1.54 -5.57,0 -1.32,1.32 -1.5,3.35 -0.55,4.87 l -4.21,4.21 c -0.34,0.34 -0.34,0.9 0,1.25 0.34,0.34 0.9,0.34 1.25,0 l 4.21,-4.21 c 1.52,0.95 3.55,0.77 4.87,-0.55 z m -4.15,-1.41 c -0.76,-0.76 -0.76,-1.99 0,-2.74 0.76,-0.76 1.99,-0.76 2.74,0 0.76,0.76 0.76,1.99 0,2.74 -0.76,0.75 -1.99,0.75 -2.74,0 z"
   id="path38303"
   inkscape:connector-curvature="0"
   style="fill:url(#SVGID_15_)" />
			</g>
			<g
   id="g38327">
				<g
   id="g38323">
					<linearGradient
   id="SVGID_16_"
   gradientUnits="userSpaceOnUse"
   x1="314.85529"
   y1="317.87271"
   x2="451.02649"
   y2="317.87271">
						<stop
   offset="0"
   style="stop-color:#E06F6E"
   id="stop38307" />
						<stop
   offset="0.8867"
   style="stop-color:#E04F6E"
   id="stop38309" />
					</linearGradient>
					<rect
   x="314.85999"
   y="313.67999"
   class="st26"
   width="136.17"
   height="8.3800001"
   id="rect38312"
   style="fill:url(#SVGID_16_)" />
					<linearGradient
   id="SVGID_17_"
   gradientUnits="userSpaceOnUse"
   x1="314.85529"
   y1="311.89789"
   x2="451.02649"
   y2="311.89789">
						<stop
   offset="0.1133"
   style="stop-color:#E04F6E"
   id="stop38314" />
						<stop
   offset="1"
   style="stop-color:#E06F6E"
   id="stop38316" />
					</linearGradient>
					<polygon
   class="st27"
   points="444.79,310.11 451.03,313.68 314.86,313.68 322.81,310.11 "
   id="polygon38319"
   style="fill:url(#SVGID_17_)" />
					<polygon
   class="st11"
   points="321.55,326.55 314.86,322.06 417.46,322.06 417.46,326.55 "
   id="polygon38321"
   style="opacity:0.51999996;fill:#cbcbcb" />
				</g>
				<path
   class="st28"
   d="m 386.88,312.55 c 0,1.34 -7.71,2.43 -17.23,2.43 -9.52,0 -17.23,-1.09 -17.23,-2.43 0,-1.34 7.71,-2.43 17.23,-2.43 9.52,0 17.23,1.08 17.23,2.43 z"
   id="path38325"
   inkscape:connector-curvature="0"
   style="opacity:0.2;fill:#1a2f76" />
			</g>
			<g
   id="g38369">
				<g
   id="g38349">
					<path
   class="st29"
   d="m 355.62,167.05 c 0,0 0.3,4.41 -0.63,5.37 1.46,1.15 6.24,-0.67 6.24,-0.67 v -3.45 z"
   id="path38329"
   inkscape:connector-curvature="0"
   style="fill:#f2ac97" />
					<path
   class="st30"
   d="m 358.51,147.28 c 2.56,-0.63 6.16,0.43 6.88,4.87 0.72,4.44 2.34,5.93 1.86,6.79 -0.48,0.86 -1.82,4.4 -1.62,7.36 0.19,2.96 -6.69,1.91 -8.79,1.43 -2.1,-0.48 -6.98,-6.98 -5.93,-12.23 1.05,-5.26 4.49,-7.46 7.6,-8.22 z"
   id="path38331"
   inkscape:connector-curvature="0"
   style="fill:#ffb59f" />
					<path
   class="st2"
   d="m 360.08,149.1 c 0.96,1.34 7.07,0.48 5.73,-2.39 -1.34,-2.87 -8.98,-6.4 -15.58,-2.48 0,0 -8.22,0.67 -5.83,11.18 2.39,10.51 7.65,13.57 12.04,11.28 4.4,-2.29 2.58,-5.73 2.96,-9.08 0.4,-3.35 0.68,-8.51 0.68,-8.51 z"
   id="path38333"
   inkscape:connector-curvature="0"
   style="fill:#1a2f76" />
					<path
   class="st30"
   d="m 360.37,157.71 c 0,0 -3.63,-3.14 -3.92,0 -0.29,3.14 3.92,2.95 3.92,2.95 z"
   id="path38335"
   inkscape:connector-curvature="0"
   style="fill:#ffb59f" />
					<path
   class="st29"
   d="m 393.34,181.3 c 0.65,-1.91 0.93,-4.49 1.51,-3.85 0.57,0.65 0,2.87 0.79,2.44 0.79,-0.43 2.8,-2.08 2.01,-4.01 -0.79,-1.94 3.37,-1.43 4.01,0.86 0.65,2.29 -4.69,9.67 -4.69,9.67 z"
   id="path38337"
   inkscape:connector-curvature="0"
   style="fill:#f2ac97" />
					<path
   class="st2"
   d="m 371.36,226.7 c 0,0 -7.64,1.24 -13.25,1 -2.54,-0.11 -9.67,0.46 -9.67,0.46 0,0 -6.42,26.25 -1.4,77.1 4.44,0 6.16,0 6.16,0 0,0 0.43,-56.05 5.29,-56.89 10.49,1.06 5.29,56.89 5.29,56.89 0,0 1.72,0 6.16,0 8.89,-48.74 1.42,-78.56 1.42,-78.56 z"
   id="path38339"
   inkscape:connector-curvature="0"
   style="fill:#1a2f76" />
					<path
   class="st31"
   d="m 354.99,172.42 c -3.03,0.19 -10.58,-1.62 -14.98,6.31 -4.4,7.93 -14.72,22.36 -15.77,26 -1.05,3.63 0,24.66 0,24.66 l 5.54,-0.86 c 0,0 0.67,-20.64 1.62,-23.8 0.96,-3.15 11.75,-13.54 11.75,-13.54 0,0 0.81,22.58 5.26,38.2 9.75,2.1 23.59,0.53 23.59,0.53 0,0 2.03,-34.51 1.46,-37.19 2.58,6.59 7.64,13.33 8.88,13.81 1.24,0.48 14.43,-17.68 14.81,-20.84 0.38,-3.15 -3.82,-4.4 -3.82,-4.4 0,0 -8.22,13.09 -8.98,12.23 -0.76,-0.86 -8.79,-16.73 -10.9,-18.35 -2.1,-1.62 -10.94,-3.87 -12.23,-3.44 -1.29,0.43 -6.23,0.68 -6.23,0.68 z"
   id="path38341"
   inkscape:connector-curvature="0"
   style="fill:#2d4cda" />
					<path
   class="st29"
   d="m 329.22,228.61 c 0.47,2.76 -1.75,8.42 -3.97,7.84 -2.22,-0.57 -0.32,-7.18 -0.32,-7.18 z"
   id="path38343"
   inkscape:connector-curvature="0"
   style="fill:#f2ac97" />
					<path
   class="st2"
   d="m 347.04,305.26 c 0,0 -2.58,7.88 2.01,8.03 4.59,0.14 18.23,-0.51 14.77,-3.58 -3.39,-3.01 -10.61,-4.44 -10.61,-4.44 h -6.17 z"
   id="path38345"
   inkscape:connector-curvature="0"
   style="fill:#1a2f76" />
					<path
   class="st2"
   d="m 363.85,305.26 c 0,0 -2.58,7.88 2.01,8.03 4.59,0.14 18.23,-0.51 14.77,-3.58 -3.39,-3.01 -10.61,-4.44 -10.61,-4.44 h -6.17 z"
   id="path38347"
   inkscape:connector-curvature="0"
   style="fill:#1a2f76" />
				</g>
				<linearGradient
   id="SVGID_18_"
   gradientUnits="userSpaceOnUse"
   x1="355.2016"
   y1="150.9276"
   x2="367.3389"
   y2="150.9276">
					<stop
   offset="0.174"
   style="stop-color:#F7F7F7"
   id="stop38351" />
					<stop
   offset="1"
   style="stop-color:#F1F1F1"
   id="stop38353" />
				</linearGradient>
				<path
   class="st32"
   d="m 363.29,152.28 c -0.37,3.77 1.81,5.93 3.75,7.09 0.08,-0.18 0.15,-0.32 0.21,-0.43 0.48,-0.86 -1.15,-2.34 -1.86,-6.79 -0.19,-1.17 -0.58,-2.1 -1.1,-2.83 1.24,-0.46 2.13,-1.34 1.53,-2.61 -1.01,-2.16 -5.6,-4.7 -10.62,-4.14 1.29,0.5 8.69,3.66 8.09,9.71 z"
   id="path38356"
   inkscape:connector-curvature="0"
   style="fill:url(#SVGID_18_)" />
				<linearGradient
   id="SVGID_19_"
   gradientUnits="userSpaceOnUse"
   x1="361.2312"
   y1="184.7314"
   x2="394.8223"
   y2="184.7314">
					<stop
   offset="0.174"
   style="stop-color:#F7F7F7"
   id="stop38358" />
					<stop
   offset="1"
   style="stop-color:#F1F1F1"
   id="stop38360" />
				</linearGradient>
				<path
   class="st33"
   d="m 384.77,197.67 c 3.94,-1.68 10.05,-15.71 10.05,-15.71 l -1.27,-1.33 c -0.07,0.23 -0.13,0.46 -0.21,0.68 0,0 -8.22,13.09 -8.98,12.23 -0.76,-0.86 -8.16,-16.01 -10.9,-18.35 -2.02,-1.73 -10.94,-3.87 -12.23,-3.44 v 0 c 0,0 9.51,3.13 15.13,13.25 3.55,6.38 5.9,13.74 8.41,12.67 z"
   id="path38363"
   inkscape:connector-curvature="0"
   style="fill:url(#SVGID_19_)" />
				<path
   class="st34"
   d="m 373.48,192.73 c 0,0 -3.02,-2.73 -4.17,14.58 -0.9,13.6 2.71,22.61 2.71,22.61 0,0 2.03,-34.52 1.46,-37.19 z"
   id="path38365"
   inkscape:connector-curvature="0"
   style="fill:#2945c7" />
				<path
   class="st34"
   d="m 329.28,203.2 c -3.53,7.38 -1.4,25.59 -1.4,25.59 l 1.9,-0.28 c 0,0 0.67,-20.64 1.62,-23.8 0.96,-3.15 11.75,-13.54 11.75,-13.54 0,0 -10.33,4.65 -13.87,12.03 z"
   id="path38367"
   inkscape:connector-curvature="0"
   style="fill:#2945c7" />
			</g>
		</g>
		<g
   id="g38446">
			<ellipse
   class="st28"
   cx="197.71001"
   cy="409.10999"
   rx="45.049999"
   ry="9.3299999"
   id="ellipse38373"
   style="opacity:0.2;fill:#1a2f76" />
			<g
   id="g38394">
				<polygon
   class="st35"
   points="175.92,410.25 172.37,412.68 186.45,244.29 187.6,250.77 "
   id="polygon38375"
   style="fill:#cc4865" />
				<polygon
   class="st35"
   points="222.17,410.25 225.72,412.68 211.64,244.29 210.49,250.77 "
   id="polygon38377"
   style="fill:#cc4865" />
				<polygon
   class="st35"
   points="212.38,279.55 214.41,281.05 183.68,281.05 185.71,279.55 "
   id="polygon38379"
   style="fill:#cc4865" />
				<polygon
   class="st35"
   points="214.4,309.91 216.72,311.63 181.5,311.63 183.83,309.91 "
   id="polygon38381"
   style="fill:#cc4865" />
				<polygon
   class="st35"
   points="216.65,342.5 219.31,344.46 179.07,344.46 181.73,342.5 "
   id="polygon38383"
   style="fill:#cc4865" />
				<polygon
   class="st35"
   points="218.8,377.56 221.78,379.75 176.75,379.75 179.73,377.56 "
   id="polygon38385"
   style="fill:#cc4865" />
				<linearGradient
   id="SVGID_20_"
   gradientUnits="userSpaceOnUse"
   x1="164.84331"
   y1="328.48651"
   x2="233.2433"
   y2="328.48651">
					<stop
   offset="0.1133"
   style="stop-color:#E04F6E"
   id="stop38387" />
					<stop
   offset="1"
   style="stop-color:#E06F6E"
   id="stop38389" />
				</linearGradient>
				<path
   class="st36"
   d="m 225.72,412.68 h 7.53 L 219.17,244.3 h -7.53 l 3.07,36.75 h -31.34 l 3.07,-36.75 h -7.53 l -14.08,168.38 h 7.53 l 1.96,-23.5 h 49.42 z m -5.71,-68.22 h -41.94 l 2.13,-25.45 h 37.69 z m -4.76,-56.97 2.02,24.14 h -36.45 l 2.02,-24.14 z m -40.13,92.26 2.24,-26.85 h 43.35 l 2.24,26.85 z"
   id="path38392"
   inkscape:connector-curvature="0"
   style="fill:url(#SVGID_20_)" />
			</g>
			<g
   id="g38444">
				<g
   id="g38422">
					<path
   class="st29"
   d="m 192.1,148.33 c 0,0 0.33,4.97 -0.71,6.05 1.65,1.29 7.03,-0.75 7.03,-0.75 v -3.88 z"
   id="path38396"
   inkscape:connector-curvature="0"
   style="fill:#f2ac97" />
					<path
   class="st30"
   d="m 195.35,126.05 c 2.88,-0.71 6.95,0.48 7.76,5.49 0.81,5.01 2.64,6.68 2.1,7.65 -0.54,0.97 -2.05,4.95 -1.83,8.29 0.22,3.34 -7.54,2.15 -9.91,1.62 -2.37,-0.54 -7.86,-7.86 -6.68,-13.79 1.19,-5.92 5.06,-8.4 8.56,-9.26 z"
   id="path38398"
   inkscape:connector-curvature="0"
   style="fill:#ffb59f" />
					<path
   class="st37"
   d="m 202.13,125.87 c 4.13,3.26 -0.85,7.06 -2.69,8.71 0.3,-2.23 -1.01,-2.97 -1.01,-2.97 0,0 -3.09,3.22 -2.46,8.83 0.63,5.61 -3.86,7.9 -3.86,7.9 0,0 -15.06,-5.92 -8.3,-18.96 6.76,-13.04 18.32,-3.51 18.32,-3.51 z"
   id="path38400"
   inkscape:connector-curvature="0"
   style="fill:#e04f6e" />
					<path
   class="st30"
   d="m 197.45,137.81 c 0,0 -4.09,-3.54 -4.42,0 -0.32,3.54 4.42,3.32 4.42,3.32 z"
   id="path38402"
   inkscape:connector-curvature="0"
   style="fill:#ffb59f" />
					<path
   class="st37"
   d="m 186.95,125.08 c -1.08,-4.62 -13.27,-11.85 -16.65,-0.46 -3.38,11.39 12.93,29.76 2.61,33.56 8.75,3.38 13.97,-0.05 13.71,-4.61 -0.26,-4.55 -2.16,-12.48 -1.58,-19.08 0.58,-6.6 1.91,-9.41 1.91,-9.41 z"
   id="path38404"
   inkscape:connector-curvature="0"
   style="fill:#e04f6e" />
					<path
   class="st29"
   d="m 176.57,167.77 c 0,0 -9.24,7.62 -8.58,10.42 0.66,2.81 21.34,16.23 21.34,16.23 l -0.24,-4.52 c 0,0 -15.38,-10.67 -14.94,-11.88 0.72,-1.97 4.9,-5.64 4.9,-5.64 z"
   id="path38406"
   inkscape:connector-curvature="0"
   style="fill:#f2ac97" />
					<path
   class="st38"
   d="m 191.39,154.38 c 0,0 5.12,-0.9 7.03,-0.75 1.91,0.14 12.86,2.41 19.3,9.92 -1.16,2.39 -3.47,6.61 -3.47,6.61 l -5.94,-4.05 c 0,0 2.31,31.36 -1.16,40.27 -6.77,4.29 -18.93,-2.47 -18.93,-2.47 0,0 3.16,-11.84 -2.36,-36.4 -3.47,3.96 -5.78,6.85 -5.78,6.85 l -4.38,-8.17 c 0.01,-0.01 11.15,-11.64 15.69,-11.81 z"
   id="path38408"
   inkscape:connector-curvature="0"
   style="fill:#1e2fa4" />
					<path
   class="st29"
   d="m 230.86,158.2 v 0 c 0,0 -1.41,-6.33 -2.58,-8.09 -1.18,-1.77 -2.14,-3.25 -2.15,-1.38 -0.01,1.44 0.01,4.59 -0.26,5.35 -0.26,0.76 -1.22,-1.05 -1.98,-1.14 -0.77,-0.08 3.12,4.25 3.84,5.89 0,0 1.54,14.14 0.22,14.03 -1.32,-0.11 -11.01,-7.76 -11.01,-7.76 l -2.68,5.04 c 0,0 14.25,10.91 17.55,8.82 2.87,-1.8 0.16,-17.43 -0.95,-20.76 z"
   id="path38410"
   inkscape:connector-curvature="0"
   style="fill:#f2ac97" />
					<path
   class="st2"
   d="m 207.51,202.66 c 0,0 -6.43,1.04 -11.15,0.84 -2.14,-0.09 -8.13,0.39 -8.13,0.39 0,0 -5.4,22.09 -1.18,64.86 3.74,0 5.19,0 5.19,0 0,0 1.13,-51.29 5.22,-51.99 8.82,0.89 3.68,51.99 3.68,51.99 0,0 1.45,0 5.19,0 7.47,-41 1.18,-66.09 1.18,-66.09 z"
   id="path38412"
   inkscape:connector-curvature="0"
   style="fill:#1a2f76" />
					<path
   class="st2"
   d="m 187.43,274.47 c 0,0 -1.94,5.92 1.51,6.02 3.44,0.11 12.35,0.59 9.75,-1.72 -2.54,-2.26 -7.83,-4.3 -7.83,-4.3 z"
   id="path38414"
   inkscape:connector-curvature="0"
   style="fill:#1a2f76" />
					<path
   class="st2"
   d="m 201.5,274.47 c 0,0 -1.94,5.92 1.51,6.02 3.44,0.11 11.41,0.83 8.82,-1.47 -2.54,-2.26 -6.9,-4.55 -6.9,-4.55 z"
   id="path38416"
   inkscape:connector-curvature="0"
   style="fill:#1a2f76" />
					<polygon
   class="st29"
   points="190.86,274.47 191.36,268.75 187.42,268.75 187.42,274.47 "
   id="polygon38418"
   style="fill:#f2ac97" />
					<polygon
   class="st29"
   points="205.07,274.47 205.56,268.75 201.63,268.75 201.63,274.47 "
   id="polygon38420"
   style="fill:#f2ac97" />
				</g>
				<linearGradient
   id="SVGID_21_"
   gradientUnits="userSpaceOnUse"
   x1="190.9073"
   y1="130.85519"
   x2="205.3063"
   y2="130.85519">
					<stop
   offset="0.174"
   style="stop-color:#F7F7F7"
   id="stop38424" />
					<stop
   offset="1"
   style="stop-color:#F1F1F1"
   id="stop38426" />
				</linearGradient>
				<path
   class="st39"
   d="m 201.95,131.07 c 0.11,4.84 3.25,8.12 3.25,8.12 0.54,-0.97 -1.29,-2.64 -2.1,-7.65 -0.04,-0.23 -0.09,-0.44 -0.14,-0.65 1,-1.58 1.25,-3.37 -0.85,-5.03 0,0 -5.56,-4.57 -11.22,-3.03 5.85,0.22 10.95,3.41 11.06,8.24 z"
   id="path38429"
   inkscape:connector-curvature="0"
   style="fill:url(#SVGID_21_)" />
				<linearGradient
   id="SVGID_22_"
   gradientUnits="userSpaceOnUse"
   x1="198.4231"
   y1="164.1022"
   x2="230.19901"
   y2="164.1022">
					<stop
   offset="0.174"
   style="stop-color:#F7F7F7"
   id="stop38431" />
					<stop
   offset="1"
   style="stop-color:#F1F1F1"
   id="stop38433" />
				</linearGradient>
				<path
   class="st40"
   d="m 227.73,158.83 c 0,0 1.54,14.14 0.22,14.03 -1.32,-0.11 -11.01,-7.76 -11.01,-7.76 v 0.01 c 0.29,-0.56 0.56,-1.1 0.79,-1.57 -6.44,-7.5 -17.38,-9.77 -19.3,-9.92 0,0 11.01,4.23 15.41,9.93 4.4,5.7 17.49,16.81 16.28,7.35 -1.21,-9.46 -2.39,-12.07 -2.39,-12.07 z"
   id="path38436"
   inkscape:connector-curvature="0"
   style="fill:url(#SVGID_22_)" />
				<path
   class="st2"
   d="m 206.02,165.18 c -0.22,1.21 0.66,22.33 0,28.61 -0.53,5.02 1.25,8.27 1.99,9.37 2.18,-11.53 0.3,-37.06 0.3,-37.06 0,0 -2.07,-2.13 -2.29,-0.92 z"
   id="path38438"
   inkscape:connector-curvature="0"
   style="fill:#1a2f76" />
				<path
   class="st2"
   d="m 186.72,171.53 c 0.08,0.39 0.15,0.77 0.22,1.16 0.18,0.94 0.34,1.85 0.5,2.75 0.06,0.37 0.13,0.74 0.19,1.11 0.18,1.12 0.35,2.2 0.49,3.25 0.01,0.07 0.02,0.15 0.03,0.22 0.15,1.11 0.27,2.16 0.38,3.19 0.04,0.34 0.07,0.66 0.1,0.98 0.07,0.71 0.13,1.4 0.19,2.07 0.03,0.32 0.05,0.64 0.07,0.96 0.06,0.77 0.1,1.52 0.13,2.24 0.09,1.79 0.11,3.39 0.1,4.84 v 0 c 0,0 0,0 0,0 0,0.08 0,0.16 0,0.24 0.07,-0.03 0.14,-0.05 0.21,-0.1 4.32,-12.56 -0.91,-28.48 -2.71,-29.62 -1.8,-1.14 -6.24,4.66 -7.58,7.59 l 1.05,1.95 c 0,0 2.31,-2.89 5.78,-6.85 0.31,1.37 0.59,2.71 0.85,4.02 z"
   id="path38440"
   inkscape:connector-curvature="0"
   style="fill:#1a2f76" />
				<path
   class="st41"
   d="m 179.19,159.52 c 4.88,0.08 7.62,-2.63 7.43,-5.95 -0.26,-4.55 -2.16,-12.48 -1.58,-19.08 0.16,-1.83 0.38,-3.37 0.61,-4.64 v -0.01 c -2.47,-0.97 -6.32,-1.66 -3.6,12.97 2.7,14.47 1.39,16.46 -2.86,16.71 z"
   id="path38442"
   inkscape:connector-curvature="0"
   style="fill:#c2445f" />
			</g>
		</g>
	</g>
</g>
<g
   id="DESIGNED_BY_FREEPIK"
   transform="translate(-74.68,-99.35)">
</g>
</svg>