<?xml version="1.0" encoding="UTF-8" standalone="no"?>
<!-- Generator: Adobe Illustrator 23.0.2, SVG Export Plug-In . SVG Version: 6.00 Build 0)  -->

<svg
   xmlns:dc="http://purl.org/dc/elements/1.1/"
   xmlns:cc="http://creativecommons.org/ns#"
   xmlns:rdf="http://www.w3.org/1999/02/22-rdf-syntax-ns#"
   xmlns:svg="http://www.w3.org/2000/svg"
   xmlns="http://www.w3.org/2000/svg"
   xmlns:xlink="http://www.w3.org/1999/xlink"
   xmlns:sodipodi="http://sodipodi.sourceforge.net/DTD/sodipodi-0.dtd"
   xmlns:inkscape="http://www.inkscape.org/namespaces/inkscape"
   version="1.1"
   id="Ñëîé_1"
   x="0px"
   y="0px"
   viewBox="0 0 600 400"
   style="enable-background:new 0 0 600 400;"
   xml:space="preserve"
   sodipodi:docname="wordpress_traning.svg"
   inkscape:version="0.92.2 (5c3e80d, 2017-08-06)"><metadata
     id="metadata15033"><rdf:RDF><cc:Work
         rdf:about=""><dc:format>image/svg+xml</dc:format><dc:type
           rdf:resource="http://purl.org/dc/dcmitype/StillImage" /><dc:title></dc:title></cc:Work></rdf:RDF></metadata><defs
     id="defs15031" /><sodipodi:namedview
     pagecolor="#ffffff"
     bordercolor="#666666"
     borderopacity="1"
     objecttolerance="10"
     gridtolerance="10"
     guidetolerance="10"
     inkscape:pageopacity="0"
     inkscape:pageshadow="2"
     inkscape:window-width="1920"
     inkscape:window-height="1017"
     id="namedview15029"
     showgrid="false"
     inkscape:zoom="1.8933333"
     inkscape:cx="251.20625"
     inkscape:cy="173.5952"
     inkscape:window-x="-8"
     inkscape:window-y="-8"
     inkscape:window-maximized="1"
     inkscape:current-layer="Ñëîé_1" /><style
     type="text/css"
     id="style13859">
	.st0{fill:url(#SVGID_1_);}
	.st1{fill:#FFFFFF;}
	.st2{fill:#180D5B;}
	.st3{fill:#2B237C;}
	.st4{fill:url(#SVGID_2_);}
	.st5{opacity:0.5;}
	.st6{fill:url(#SVGID_3_);}
	.st7{fill:url(#SVGID_4_);}
	.st8{fill:url(#SVGID_5_);}
	.st9{fill:url(#SVGID_7_);}
	.st10{fill:url(#SVGID_8_);}
	.st11{fill:url(#SVGID_9_);}
	.st12{fill:#24126A;}
	.st13{opacity:0.51;}
	.st14{fill:#453C9E;}
	.st15{fill:url(#SVGID_10_);}
	.st16{fill:url(#SVGID_11_);}
	.st17{fill:#2842A2;}
	.st18{fill:#ADB1F2;}
	.st19{fill:#9198DB;}
	.st20{fill:url(#SVGID_12_);}
	.st21{opacity:0.11;}
	.st22{clip-path:url(#SVGID_13_);}
	.st23{fill:url(#SVGID_14_);}
	.st24{fill:url(#SVGID_15_);}
	.st25{opacity:0.5;fill:#24126A;}
	.st26{opacity:0.3;fill:#FFFFFF;}
	.st27{fill:url(#SVGID_16_);}
	.st28{fill:url(#SVGID_17_);}
	.st29{fill:#5351AF;}
	.st30{opacity:0.48;fill:url(#SVGID_18_);}
	.st31{opacity:0.48;fill:url(#SVGID_19_);}
	.st32{opacity:0.48;fill:url(#SVGID_20_);}
	.st33{opacity:0.48;fill:url(#SVGID_21_);}
	.st34{opacity:0.48;fill:url(#SVGID_22_);}
	.st35{opacity:0.48;fill:url(#SVGID_23_);}
	.st36{opacity:0.48;fill:url(#SVGID_24_);}
	.st37{opacity:0.48;fill:url(#SVGID_25_);}
	.st38{opacity:0.48;fill:url(#SVGID_26_);}
	.st39{opacity:0.48;fill:url(#SVGID_27_);}
	.st40{fill:url(#SVGID_28_);}
	.st41{fill:url(#SVGID_29_);}
	.st42{opacity:0.5;fill:#FFFFFF;}
	.st43{fill:url(#SVGID_30_);}
	.st44{fill:#0F054C;}
	.st45{opacity:0.5;fill:url(#SVGID_31_);}
	.st46{opacity:0.5;fill:url(#SVGID_32_);}
	.st47{opacity:0.5;fill:url(#SVGID_33_);}
	.st48{opacity:0.5;fill:url(#SVGID_34_);}
	.st49{opacity:0.5;fill:url(#SVGID_35_);}
	.st50{opacity:0.5;fill:url(#SVGID_36_);}
	.st51{opacity:0.5;fill:url(#SVGID_37_);}
	.st52{opacity:0.5;fill:url(#SVGID_38_);}
	.st53{fill:#42E8E0;}
</style><g
     id="Íîâûé_ñèìâîë_2" /><g
     id="Íîâûé_ñèìâîë"><g
       id="Íîâûé_ñèìâîë_1_" /></g><radialGradient
     id="SVGID_1_"
     cx="784.9998"
     cy="458.9062"
     r="1041.2725"
     gradientTransform="matrix(1 0 0 0.8889 0 80.0783)"
     gradientUnits="userSpaceOnUse"><stop
       offset="0"
       style="stop-color:#2B237C"
       id="stop13864" /><stop
       offset="1"
       style="stop-color:#180D5B"
       id="stop13866" /></radialGradient><linearGradient
     id="SVGID_3_"
     gradientUnits="userSpaceOnUse"
     x1="433.5802"
     y1="201.0458"
     x2="535.2052"
     y2="201.0458"><stop
       offset="0"
       style="stop-color:#42E8E0"
       id="stop14364" /><stop
       offset="1"
       style="stop-color:#42E8E0"
       id="stop14366" /></linearGradient><linearGradient
     id="SVGID_5_"
     gradientUnits="userSpaceOnUse"
     x1="185.9268"
     y1="161.7641"
     x2="294.5573"
     y2="161.7641"
     gradientTransform="matrix(0.76620603,0,0,0.81150566,146.54686,28.996677)"><stop
       offset="0"
       style="stop-color:#5761D7"
       id="stop14400" /><stop
       offset="0.0726"
       style="stop-color:#5472D8"
       id="stop14402" /><stop
       offset="0.2791"
       style="stop-color:#4E9CDB"
       id="stop14404" /><stop
       offset="0.4801"
       style="stop-color:#49BDDD"
       id="stop14406" /><stop
       offset="0.6715"
       style="stop-color:#45D5DF"
       id="stop14408" /><stop
       offset="0.8493"
       style="stop-color:#43E3E0"
       id="stop14410" /><stop
       offset="1"
       style="stop-color:#42E8E0"
       id="stop14412" /></linearGradient><path
     class="st8"
     d="m 289.41364,185.99056 c -0.13792,0 -0.27584,-0.0812 -0.35246,-0.21911 -0.11493,-0.21099 -0.046,-0.47067 0.14558,-0.5924 l 82.41312,-50.58114 c 0.19155,-0.12173 0.4444,-0.0487 0.55933,0.15418 0.11493,0.21099 0.046,0.47068 -0.14558,0.5924 l -82.41312,50.58115 c -0.0613,0.0487 -0.13792,0.0649 -0.20687,0.0649 z"
     id="path14415"
     style="fill:url(#SVGID_5_);stroke-width:0.78853059"
     inkscape:connector-curvature="0" /><g
     id="g14597"
     transform="translate(103.07824,-7.4694378)"><g
       id="g14595"><g
         id="g14593"><g
           id="g14434"><linearGradient
             id="SVGID_7_"
             gradientUnits="userSpaceOnUse"
             x1="83.146599"
             y1="272.2775"
             x2="311.18619"
             y2="272.2775"><stop
               offset="0"
               style="stop-color:#42E8E0"
               id="stop14417" /><stop
               offset="0.1507"
               style="stop-color:#43E3E0"
               id="stop14419" /><stop
               offset="0.3285"
               style="stop-color:#45D5DF"
               id="stop14421" /><stop
               offset="0.5199"
               style="stop-color:#49BDDD"
               id="stop14423" /><stop
               offset="0.7209"
               style="stop-color:#4E9CDB"
               id="stop14425" /><stop
               offset="0.9274"
               style="stop-color:#5472D8"
               id="stop14427" /><stop
               offset="1"
               style="stop-color:#5761D7"
               id="stop14429" /></linearGradient><path
             class="st9"
             d="m 168.45,338.05 c -1.94,0 -3.88,-0.5 -5.62,-1.5 L 83.89,290.97 c -0.47,-0.27 -0.74,-0.75 -0.74,-1.29 0,-0.54 0.28,-1.02 0.74,-1.29 l 141.73,-81.82 c 0.17,-0.1 0.37,-0.1 0.54,0 l 84.29,48.66 c 0.47,0.27 0.74,0.75 0.74,1.29 0,0.54 -0.28,1.02 -0.74,1.29 l -136.38,78.74 c -1.74,1 -3.68,1.5 -5.62,1.5 z M 225.88,207.66 84.43,289.33 c -0.17,0.1 -0.21,0.25 -0.21,0.36 0,0.11 0.04,0.26 0.21,0.36 l 78.94,45.58 c 3.14,1.81 7.03,1.81 10.16,0 l 136.38,-78.74 c 0.17,-0.1 0.21,-0.25 0.21,-0.36 0,-0.11 -0.04,-0.26 -0.21,-0.36 z"
             id="path14432"
             style="fill:url(#SVGID_7_)"
             inkscape:connector-curvature="0" /></g><g
           id="g14535"><g
             id="g14468"><linearGradient
               id="SVGID_8_"
               gradientUnits="userSpaceOnUse"
               x1="50.679798"
               y1="161.0273"
               x2="226.09039"
               y2="161.0273"><stop
                 offset="0"
                 style="stop-color:#C0BFF6"
                 id="stop14436" /><stop
                 offset="0.2938"
                 style="stop-color:#C5C4F7"
                 id="stop14438" /><stop
                 offset="0.6399"
                 style="stop-color:#D3D2F9"
                 id="stop14440" /><stop
                 offset="1"
                 style="stop-color:#E9E9FD"
                 id="stop14442" /></linearGradient><path
               class="st10"
               d="m 226.06,171.94 -19,-112.72 1.53,-0.64 -2.3,-1.32 v 0.01 c -0.45,-0.3 -1.08,-0.28 -1.77,0.12 L 52.68,145.06 c -1.25,0.72 -2.19,2.57 -1.97,3.86 l 19.15,113.62 c 0.1,0.59 0.39,0.98 0.8,1.16 v 0 l 2.25,1.3 0.39,-2.1 -0.13,0.04 150.92,-87.14 c 1.24,-0.73 2.19,-2.57 1.97,-3.86 z"
               id="path14445"
               style="fill:url(#SVGID_8_)"
               inkscape:connector-curvature="0" /><linearGradient
               id="SVGID_9_"
               gradientUnits="userSpaceOnUse"
               x1="50.680901"
               y1="206.0121"
               x2="80.800697"
               y2="206.0121"><stop
                 offset="0"
                 style="stop-color:#5761D7"
                 id="stop14447" /><stop
                 offset="0.1779"
                 style="stop-color:#5C66D9"
                 id="stop14449" /><stop
                 offset="0.3876"
                 style="stop-color:#6A73DF"
                 id="stop14451" /><stop
                 offset="0.6134"
                 style="stop-color:#8289E8"
                 id="stop14453" /><stop
                 offset="0.849"
                 style="stop-color:#A3A7F5"
                 id="stop14455" /><stop
                 offset="1"
                 style="stop-color:#BCBEFF"
                 id="stop14457" /></linearGradient><path
               class="st11"
               d="m 53.53,148.14 -2.5,-1.1 c -0.28,0.64 -0.42,1.31 -0.32,1.88 l 19.15,113.62 c 0.1,0.59 0.39,0.98 0.8,1.16 v 0 l 2.25,1.3 0.39,-2.1 -0.13,0.04 7.64,-4.41 z"
               id="path14460"
               style="fill:url(#SVGID_9_)"
               inkscape:connector-curvature="0" /><path
               class="st12"
               d="M 226.47,177.16 74.63,264.83 c -1.17,0.68 -2.18,0.29 -2.38,-0.93 L 53.09,150.28 c -0.22,-1.29 0.72,-3.14 1.97,-3.86 L 206.9,58.75 c 1.17,-0.68 2.18,-0.29 2.38,0.93 l 19.15,113.62 c 0.23,1.29 -0.71,3.14 -1.96,3.86 z"
               id="path14462"
               inkscape:connector-curvature="0"
               style="fill:#24126a" /><g
               class="st13"
               id="g14466"
               style="opacity:0.51000001"><polygon
                 class="st14"
                 points="58.56,150.51 76.71,257.52 222.98,173.07 204.92,66.01 "
                 id="polygon14464"
                 style="fill:#453c9e" /></g></g><g
             id="g14533"><linearGradient
               id="SVGID_10_"
               gradientUnits="userSpaceOnUse"
               x1="74.180801"
               y1="256.58041"
               x2="321.91791"
               y2="256.58041"><stop
                 offset="0"
                 style="stop-color:#5761D7"
                 id="stop14470" /><stop
                 offset="0.1779"
                 style="stop-color:#5C66D9"
                 id="stop14472" /><stop
                 offset="0.3876"
                 style="stop-color:#6A73DF"
                 id="stop14474" /><stop
                 offset="0.6134"
                 style="stop-color:#8289E8"
                 id="stop14476" /><stop
                 offset="0.849"
                 style="stop-color:#A3A7F5"
                 id="stop14478" /><stop
                 offset="1"
                 style="stop-color:#BCBEFF"
                 id="stop14480" /></linearGradient><path
               class="st15"
               d="m 321.92,230.95 -8.29,4.33 -83.09,-47.97 c -1.39,-0.8 -3.82,-0.7 -5.42,0.22 L 81.81,270.27 c -1.37,-0.77 -7.62,-3.77 -7.62,-3.77 l 3.03,7.9 c 0,0 0.01,-0.01 0.01,-0.01 0.13,0.35 0.4,0.68 0.85,0.94 l 87.51,50.53 c 1.39,0.8 3.82,0.7 5.42,-0.22 l 146.65,-84.67 c 0.66,-0.38 1.06,-0.84 1.23,-1.31 l 0.01,0.01 z"
               id="path14483"
               style="fill:url(#SVGID_10_)"
               inkscape:connector-curvature="0" /><linearGradient
               id="SVGID_11_"
               gradientUnits="userSpaceOnUse"
               x1="157.4213"
               y1="248.3199"
               x2="405.29041"
               y2="248.3199"><stop
                 offset="0"
                 style="stop-color:#C0BFF6"
                 id="stop14485" /><stop
                 offset="0.2938"
                 style="stop-color:#C5C4F7"
                 id="stop14487" /><stop
                 offset="0.6399"
                 style="stop-color:#D3D2F9"
                 id="stop14489" /><stop
                 offset="1"
                 style="stop-color:#E9E9FD"
                 id="stop14491" /></linearGradient><path
               class="st16"
               d="m 320.64,232.31 -150.3,86.78 c -1.65,0.95 -4.13,1.05 -5.56,0.23 L 75.09,267.54 c -1.42,-0.82 -1.25,-2.26 0.4,-3.21 l 150.3,-86.78 c 1.65,-0.95 4.13,-1.05 5.56,-0.23 l 89.69,51.78 c 1.42,0.83 1.24,2.26 -0.4,3.21 z"
               id="path14494"
               style="fill:url(#SVGID_11_)"
               inkscape:connector-curvature="0" /><path
               class="st17"
               d="m 125,300.32 v -1.65 c 0,-0.16 0.1,-0.23 0.21,-0.16 l 5.81,3.36 c 0.12,0.07 0.21,0.25 0.21,0.41 v 1.65 c 0,0.16 -0.1,0.23 -0.21,0.16 l -5.81,-3.36 C 125.1,300.65 125,300.47 125,300.32 Z"
               id="path14496"
               inkscape:connector-curvature="0"
               style="fill:#2842a2" /><path
               class="st17"
               d="m 133.7,305.34 v -1.65 c 0,-0.16 0.1,-0.23 0.21,-0.16 l 5.81,3.36 c 0.12,0.07 0.21,0.25 0.21,0.41 v 1.65 c 0,0.16 -0.1,0.23 -0.21,0.16 l -5.81,-3.36 c -0.12,-0.08 -0.21,-0.26 -0.21,-0.41 z"
               id="path14498"
               inkscape:connector-curvature="0"
               style="fill:#2842a2" /><path
               class="st18"
               d="m 98.47,262.69 124.9,-72.11 c 0.83,-0.48 1.86,-0.48 2.69,0 l 44.48,25.73 c 0.64,0.37 0.64,1.29 0,1.66 L 145.7,290.05 c -0.83,0.48 -1.86,0.48 -2.69,0 l -44.54,-25.7 c -0.64,-0.37 -0.64,-1.29 0,-1.66 z"
               id="path14500"
               inkscape:connector-curvature="0"
               style="fill:#adb1f2" /><path
               class="st19"
               d="m 98.47,264.35 0.45,0.26 124.45,-71.85 c 0.83,-0.48 1.86,-0.48 2.69,0 l 44.03,25.47 0.45,-0.26 c 0.64,-0.37 0.64,-1.29 0,-1.66 l -44.48,-25.73 c -0.83,-0.48 -1.86,-0.48 -2.69,0 l -124.9,72.11 c -0.64,0.37 -0.64,1.29 0,1.66 z"
               id="path14502"
               inkscape:connector-curvature="0"
               style="fill:#9198db" /><g
               id="g14518"><polygon
                 class="st12"
                 points="120.93,259.73 116.1,256.95 224.6,194.31 229.42,197.09 "
                 id="polygon14504"
                 style="fill:#24126a" /><polygon
                 class="st12"
                 points="139.48,262.67 134.66,259.89 236.42,201.14 241.25,203.92 "
                 id="polygon14506"
                 style="fill:#24126a" /><polygon
                 class="st12"
                 points="129.14,277.54 124.31,274.76 244.12,205.58 248.95,208.37 "
                 id="polygon14508"
                 style="fill:#24126a" /><polygon
                 class="st12"
                 points="136.84,281.99 132.01,279.21 251.83,210.03 256.65,212.82 "
                 id="polygon14510"
                 style="fill:#24126a" /><polygon
                 class="st12"
                 points="144.54,286.44 139.72,283.65 259.53,214.48 264.35,217.26 "
                 id="polygon14512"
                 style="fill:#24126a" /><polygon
                 class="st12"
                 points="109.55,266.3 104.72,263.52 109.55,260.73 114.37,263.52 "
                 id="polygon14514"
                 style="fill:#24126a" /><polygon
                 class="st12"
                 points="121.37,273.13 116.55,270.35 126.56,264.56 131.39,267.35 "
                 id="polygon14516"
                 style="fill:#24126a" /></g><linearGradient
               id="SVGID_12_"
               gradientUnits="userSpaceOnUse"
               x1="199.39771"
               y1="262.39099"
               x2="262.84509"
               y2="262.39099"><stop
                 offset="0"
                 style="stop-color:#C0BFF6"
                 id="stop14520" /><stop
                 offset="0.2938"
                 style="stop-color:#C5C4F7"
                 id="stop14522" /><stop
                 offset="0.6399"
                 style="stop-color:#D3D2F9"
                 id="stop14524" /><stop
                 offset="1"
                 style="stop-color:#E9E9FD"
                 id="stop14526" /></linearGradient><path
               class="st20"
               d="m 228.18,280.14 33.68,-19.44 c 1.32,-0.76 1.32,-1.99 0,-2.75 l -23.03,-13.3 c -1.32,-0.76 -3.45,-0.76 -4.77,0 l -33.68,19.44 c -1.32,0.76 -1.32,1.99 0,2.75 l 23.03,13.3 c 1.32,0.76 3.45,0.76 4.77,0 z"
               id="path14529"
               style="fill:url(#SVGID_12_)"
               inkscape:connector-curvature="0" /><path
               class="st19"
               d="m 200.38,265.21 33.68,-19.44 c 1.32,-0.76 3.45,-0.76 4.77,0 l 23.03,13.3 c 0.41,0.23 0.67,0.52 0.83,0.81 0.35,-0.66 0.08,-1.41 -0.83,-1.94 l -23.03,-13.3 c -1.32,-0.76 -3.45,-0.76 -4.77,0 l -33.68,19.44 c -0.91,0.53 -1.18,1.27 -0.83,1.94 0.16,-0.29 0.43,-0.57 0.83,-0.81 z"
               id="path14531"
               inkscape:connector-curvature="0"
               style="fill:#9198db" /></g></g><g
           class="st21"
           id="g14591"
           style="opacity:0.11000001"><defs
             id="defs14538"><polygon
               id="SVGID_6_"
               class="st21"
               points="58.56,150.51 76.71,257.52 222.98,173.07 204.92,66.01 "
               style="opacity:0.11000001" /></defs><clipPath
             id="SVGID_13_"><use
               xlink:href="#SVGID_6_"
               style="overflow:visible"
               id="use14540"
               x="0"
               y="0"
               width="100%"
               height="100%" /></clipPath><g
             class="st22"
             clip-path="url(#SVGID_13_)"
             id="g14589"><linearGradient
               id="SVGID_14_"
               gradientUnits="userSpaceOnUse"
               x1="62.7211"
               y1="193.38049"
               x2="310.59021"
               y2="193.38049"><stop
                 offset="0"
                 style="stop-color:#C0BFF6"
                 id="stop14543" /><stop
                 offset="0.2938"
                 style="stop-color:#C5C4F7"
                 id="stop14545" /><stop
                 offset="0.6399"
                 style="stop-color:#D3D2F9"
                 id="stop14547" /><stop
                 offset="1"
                 style="stop-color:#E9E9FD"
                 id="stop14549" /></linearGradient><path
               class="st23"
               d="m 225.94,177.37 -150.3,86.78 c -1.65,0.95 -4.13,1.05 -5.56,0.23 L -19.61,212.6 c -1.42,-0.82 -1.25,-2.26 0.4,-3.21 l 150.3,-86.78 c 1.65,-0.95 4.13,-1.05 5.56,-0.23 l 89.69,51.78 c 1.42,0.83 1.24,2.26 -0.4,3.21 z"
               id="path14552"
               style="fill:url(#SVGID_14_)"
               inkscape:connector-curvature="0" /><linearGradient
               id="SVGID_15_"
               gradientUnits="userSpaceOnUse"
               x1="46.4072"
               y1="175.1851"
               x2="109.8546"
               y2="175.1851"><stop
                 offset="0"
                 style="stop-color:#C0BFF6"
                 id="stop14554" /><stop
                 offset="0.2938"
                 style="stop-color:#C5C4F7"
                 id="stop14556" /><stop
                 offset="0.6399"
                 style="stop-color:#D3D2F9"
                 id="stop14558" /><stop
                 offset="1"
                 style="stop-color:#E9E9FD"
                 id="stop14560" /></linearGradient><path
               class="st24"
               d="m 75.19,192.93 33.68,-19.44 c 1.32,-0.76 1.32,-1.99 0,-2.75 l -23.03,-13.3 c -1.32,-0.76 -3.45,-0.76 -4.77,0 l -33.68,19.44 c -1.32,0.76 -1.32,1.99 0,2.75 l 23.03,13.3 c 1.32,0.76 3.45,0.76 4.77,0 z"
               id="path14563"
               style="fill:url(#SVGID_15_)"
               inkscape:connector-curvature="0" /><path
               class="st19"
               d="m 47.39,178.01 33.68,-19.44 c 1.32,-0.76 3.45,-0.76 4.77,0 l 23.03,13.3 c 0.41,0.23 0.67,0.52 0.83,0.81 0.35,-0.66 0.08,-1.41 -0.83,-1.94 l -23.03,-13.3 c -1.32,-0.76 -3.45,-0.76 -4.77,0 l -33.68,19.44 c -0.91,0.53 -1.18,1.27 -0.83,1.94 0.16,-0.29 0.43,-0.58 0.83,-0.81 z"
               id="path14565"
               inkscape:connector-curvature="0"
               style="fill:#9198db" /><g
               id="g14587"><path
                 class="st18"
                 d="m 32.59,223.32 124.9,-72.11 c 0.83,-0.48 1.86,-0.48 2.69,0 l 44.48,25.73 c 0.64,0.37 0.64,1.29 0,1.66 L 79.81,250.68 c -0.83,0.48 -1.86,0.48 -2.69,0 l -44.54,-25.7 c -0.63,-0.37 -0.63,-1.29 0.01,-1.66 z"
                 id="path14567"
                 inkscape:connector-curvature="0"
                 style="fill:#adb1f2" /><path
                 class="st19"
                 d="m 32.59,224.98 0.45,0.26 124.45,-71.85 c 0.83,-0.48 1.86,-0.48 2.69,0 l 44.03,25.47 0.45,-0.26 c 0.64,-0.37 0.64,-1.29 0,-1.66 l -44.48,-25.73 c -0.83,-0.48 -1.86,-0.48 -2.69,0 l -124.9,72.11 c -0.64,0.37 -0.64,1.29 0,1.66 z"
                 id="path14569"
                 inkscape:connector-curvature="0"
                 style="fill:#9198db" /><g
                 id="g14585"><polygon
                   class="st12"
                   points="84.21,238.01 88.52,240.49 197.33,177.67 193.02,175.19 "
                   id="polygon14571"
                   style="fill:#24126a" /><polygon
                   class="st12"
                   points="78.13,228.28 82.44,230.76 185.86,171.05 181.55,168.57 "
                   id="polygon14573"
                   style="fill:#24126a" /><polygon
                   class="st12"
                   points="60.75,238.31 65.06,240.8 74.72,235.22 70.41,232.73 "
                   id="polygon14575"
                   style="fill:#24126a" /><polygon
                   class="st12"
                   points="72.21,244.93 76.52,247.42 83.25,243.54 78.94,241.05 "
                   id="polygon14577"
                   style="fill:#24126a" /><polygon
                   class="st12"
                   points="53.57,234.16 57.88,236.65 178.68,166.91 174.37,164.42 "
                   id="polygon14579"
                   style="fill:#24126a" /><polygon
                   class="st12"
                   points="46.38,230.02 50.69,232.5 171.49,162.76 167.18,160.27 "
                   id="polygon14581"
                   style="fill:#24126a" /><polygon
                   class="st12"
                   points="39.2,225.87 43.51,228.36 164.31,158.61 160,156.12 "
                   id="polygon14583"
                   style="fill:#24126a" /></g></g></g></g></g></g></g><polygon
     class="st25"
     points="81.36,161.76 100.92,249.64 113.26,242.52 85.54,159.46 "
     id="polygon14599"
     transform="translate(103.07824,-7.4694378)"
     style="opacity:0.5;fill:#24126a" /><polygon
     class="st25"
     points="111.35,255.25 111.35,257.52 156.48,283.82 158.61,282.59 176.27,292.74 185.44,287.08 113.26,242.52 100.92,249.64 "
     id="polygon14601"
     transform="translate(103.07824,-7.4694378)"
     style="opacity:0.5;fill:#24126a" /><g
     id="g14805"
     transform="translate(103.07824,-7.4694378)"><path
       class="st26"
       d="m 191.46,293.27 104.02,-60.06 c -0.02,-0.27 -0.17,-0.56 -0.37,-0.75 l -104.4,60.28 z"
       id="path14603"
       inkscape:connector-curvature="0"
       style="opacity:0.3;fill:#ffffff" /><path
       class="st26"
       d="m 187.05,94.12 -103.49,59.75 0.75,0.53 103.37,-59.68 c -0.14,-0.31 -0.4,-0.56 -0.63,-0.6 z"
       id="path14605"
       inkscape:connector-curvature="0"
       style="opacity:0.3;fill:#ffffff" /><g
       id="g14633"><linearGradient
         id="SVGID_16_"
         gradientUnits="userSpaceOnUse"
         x1="118.7644"
         y1="122.1667"
         x2="238.56619"
         y2="282.82941"><stop
           offset="0"
           style="stop-color:#BCBEFF"
           id="stop14607" /><stop
           offset="0.4839"
           style="stop-color:#5761D7"
           id="stop14609" /><stop
           offset="0.5757"
           style="stop-color:#5C66D9"
           id="stop14611" /><stop
           offset="0.6839"
           style="stop-color:#6A73DF"
           id="stop14613" /><stop
           offset="0.8005"
           style="stop-color:#8289E8"
           id="stop14615" /><stop
           offset="0.922"
           style="stop-color:#A3A7F5"
           id="stop14617" /><stop
           offset="1"
           style="stop-color:#BCBEFF"
           id="stop14619" /></linearGradient><path
         class="st27"
         d="m 294.94,232.32 -69.5,-40.13 c -0.03,-0.02 -0.06,-0.02 -0.09,-0.03 v -0.02 l -7.15,-7.6 -30.47,-89.72 c -0.13,-0.39 -0.46,-0.72 -0.74,-0.72 l -1.45,-0.02 c -0.06,0 -0.11,0.02 -0.16,0.05 v 0 l -102.13,59 32.44,91.13 6.05,7.39 14.61,8.83 45.01,25.61 11.84,8.4 102.14,-59 v 0 0 0 c 0.1,-0.06 0.16,-0.18 0.16,-0.36 v -1.87 c -0.01,-0.33 -0.26,-0.76 -0.56,-0.94 z"
         id="path14622"
         style="fill:url(#SVGID_16_)"
         inkscape:connector-curvature="0" /><linearGradient
         id="SVGID_17_"
         gradientUnits="userSpaceOnUse"
         x1="-367.99939"
         y1="1597.0494"
         x2="-254.9581"
         y2="1668.6396"
         gradientTransform="matrix(0.866,0.5,0,1.1547,395.232,-1501.7002)"><stop
           offset="0"
           style="stop-color:#5761D7"
           id="stop14624" /><stop
           offset="1"
           style="stop-color:#5761D7"
           id="stop14626" /></linearGradient><path
         class="st28"
         d="m 192.79,291.33 -69.5,-40.13 c -0.03,-0.02 -0.06,-0.02 -0.09,-0.03 v -0.02 l -7.15,-7.6 -30.47,-89.72 c -0.13,-0.39 -0.46,-0.72 -0.74,-0.72 l -1.45,-0.02 c -0.27,0 -0.39,0.31 -0.25,0.71 l 30.47,89.72 c 0.13,0.39 0.46,0.72 0.74,0.72 l 0.35,0.38 c -0.01,0.29 0.13,0.66 0.38,0.93 l 6.58,7.17 c 0.25,0.27 0.53,0.36 0.71,0.25 l 0.38,0.41 c 0,0.35 0.25,0.78 0.55,0.96 l 69.5,40.13 c 0.3,0.18 0.55,0.03 0.55,-0.32 v -1.87 c -0.01,-0.35 -0.26,-0.77 -0.56,-0.95 z"
         id="path14629"
         style="fill:url(#SVGID_17_)"
         inkscape:connector-curvature="0" /><polygon
         class="st29"
         points="225.34,192.16 218.19,184.55 116.05,243.56 123.29,251.2 "
         id="polygon14631"
         style="fill:#5351af" /></g><linearGradient
       id="SVGID_18_"
       gradientUnits="userSpaceOnUse"
       x1="112.0644"
       y1="173.1815"
       x2="219.38091"
       y2="173.1815"><stop
         offset="0"
         style="stop-color:#42E8E0"
         id="stop14635" /><stop
         offset="0.1507"
         style="stop-color:#43E3E0"
         id="stop14637" /><stop
         offset="0.3285"
         style="stop-color:#45D5DF"
         id="stop14639" /><stop
         offset="0.5199"
         style="stop-color:#49BDDD"
         id="stop14641" /><stop
         offset="0.7209"
         style="stop-color:#4E9CDB"
         id="stop14643" /><stop
         offset="0.9274"
         style="stop-color:#5472D8"
         id="stop14645" /><stop
         offset="1"
         style="stop-color:#5761D7"
         id="stop14647" /></linearGradient><polygon
       class="st30"
       points="112.06,161.72 214.21,102.71 219.38,184.64 117.23,243.65 "
       id="polygon14650"
       style="opacity:0.47999998;fill:url(#SVGID_18_)" /><linearGradient
       id="SVGID_19_"
       gradientUnits="userSpaceOnUse"
       x1="118.132"
       y1="177.6167"
       x2="229.0824"
       y2="177.6167"><stop
         offset="0"
         style="stop-color:#42E8E0"
         id="stop14652" /><stop
         offset="0.1507"
         style="stop-color:#43E3E0"
         id="stop14654" /><stop
         offset="0.3285"
         style="stop-color:#45D5DF"
         id="stop14656" /><stop
         offset="0.5199"
         style="stop-color:#49BDDD"
         id="stop14658" /><stop
         offset="0.7209"
         style="stop-color:#4E9CDB"
         id="stop14660" /><stop
         offset="0.9274"
         style="stop-color:#5472D8"
         id="stop14662" /><stop
         offset="1"
         style="stop-color:#5761D7"
         id="stop14664" /></linearGradient><polygon
       class="st31"
       points="126.94,170.4 229.08,111.39 220.28,184.83 118.13,243.84 "
       id="polygon14667"
       style="opacity:0.47999998;fill:url(#SVGID_19_)" /><linearGradient
       id="SVGID_20_"
       gradientUnits="userSpaceOnUse"
       x1="119.0699"
       y1="183.8176"
       x2="243.6272"
       y2="183.8176"><stop
         offset="0"
         style="stop-color:#42E8E0"
         id="stop14669" /><stop
         offset="0.1507"
         style="stop-color:#43E3E0"
         id="stop14671" /><stop
         offset="0.3285"
         style="stop-color:#45D5DF"
         id="stop14673" /><stop
         offset="0.5199"
         style="stop-color:#49BDDD"
         id="stop14675" /><stop
         offset="0.7209"
         style="stop-color:#4E9CDB"
         id="stop14677" /><stop
         offset="0.9274"
         style="stop-color:#5472D8"
         id="stop14679" /><stop
         offset="1"
         style="stop-color:#5761D7"
         id="stop14681" /></linearGradient><polygon
       class="st32"
       points="141.48,182.38 243.63,123.37 221.22,185.26 119.07,244.27 "
       id="polygon14684"
       style="opacity:0.47999998;fill:url(#SVGID_20_)" /><linearGradient
       id="SVGID_21_"
       gradientUnits="userSpaceOnUse"
       x1="120.0084"
       y1="191.5269"
       x2="257.24139"
       y2="191.5269"><stop
         offset="0"
         style="stop-color:#42E8E0"
         id="stop14686" /><stop
         offset="0.1507"
         style="stop-color:#43E3E0"
         id="stop14688" /><stop
         offset="0.3285"
         style="stop-color:#45D5DF"
         id="stop14690" /><stop
         offset="0.5199"
         style="stop-color:#49BDDD"
         id="stop14692" /><stop
         offset="0.7209"
         style="stop-color:#4E9CDB"
         id="stop14694" /><stop
         offset="0.9274"
         style="stop-color:#5472D8"
         id="stop14696" /><stop
         offset="1"
         style="stop-color:#5761D7"
         id="stop14698" /></linearGradient><polygon
       class="st33"
       points="155.09,197.15 257.24,138.14 222.16,185.91 120.01,244.91 "
       id="polygon14701"
       style="opacity:0.47999998;fill:url(#SVGID_21_)" /><linearGradient
       id="SVGID_22_"
       gradientUnits="userSpaceOnUse"
       x1="120.9086"
       y1="200.4239"
       x2="269.35931"
       y2="200.4239"><stop
         offset="0"
         style="stop-color:#42E8E0"
         id="stop14703" /><stop
         offset="0.1507"
         style="stop-color:#43E3E0"
         id="stop14705" /><stop
         offset="0.3285"
         style="stop-color:#45D5DF"
         id="stop14707" /><stop
         offset="0.5199"
         style="stop-color:#49BDDD"
         id="stop14709" /><stop
         offset="0.7209"
         style="stop-color:#4E9CDB"
         id="stop14711" /><stop
         offset="0.9274"
         style="stop-color:#5472D8"
         id="stop14713" /><stop
         offset="1"
         style="stop-color:#5761D7"
         id="stop14715" /></linearGradient><polygon
       class="st34"
       points="167.21,214.1 269.36,155.09 223.06,186.75 120.91,245.76 "
       id="polygon14718"
       style="opacity:0.47999998;fill:url(#SVGID_22_)" /><linearGradient
       id="SVGID_23_"
       gradientUnits="userSpaceOnUse"
       x1="121.7331"
       y1="210.13921"
       x2="279.47729"
       y2="210.13921"><stop
         offset="0"
         style="stop-color:#42E8E0"
         id="stop14720" /><stop
         offset="0.1507"
         style="stop-color:#43E3E0"
         id="stop14722" /><stop
         offset="0.3285"
         style="stop-color:#45D5DF"
         id="stop14724" /><stop
         offset="0.5199"
         style="stop-color:#49BDDD"
         id="stop14726" /><stop
         offset="0.7209"
         style="stop-color:#4E9CDB"
         id="stop14728" /><stop
         offset="0.9274"
         style="stop-color:#5472D8"
         id="stop14730" /><stop
         offset="1"
         style="stop-color:#5761D7"
         id="stop14732" /></linearGradient><polygon
       class="st35"
       points="279.48,173.51 177.33,232.52 121.73,246.76 223.88,187.76 "
       id="polygon14735"
       style="opacity:0.47999998;fill:url(#SVGID_23_)" /><linearGradient
       id="SVGID_24_"
       gradientUnits="userSpaceOnUse"
       x1="122.4477"
       y1="220.269"
       x2="287.17511"
       y2="220.269"><stop
         offset="0"
         style="stop-color:#42E8E0"
         id="stop14737" /><stop
         offset="0.1507"
         style="stop-color:#43E3E0"
         id="stop14739" /><stop
         offset="0.3285"
         style="stop-color:#45D5DF"
         id="stop14741" /><stop
         offset="0.5199"
         style="stop-color:#49BDDD"
         id="stop14743" /><stop
         offset="0.7209"
         style="stop-color:#4E9CDB"
         id="stop14745" /><stop
         offset="0.9274"
         style="stop-color:#5472D8"
         id="stop14747" /><stop
         offset="1"
         style="stop-color:#5761D7"
         id="stop14749" /></linearGradient><polygon
       class="st36"
       points="287.18,192.65 185.03,251.66 122.45,247.89 224.59,188.88 "
       id="polygon14752"
       style="opacity:0.47999998;fill:url(#SVGID_24_)" /><linearGradient
       id="SVGID_25_"
       gradientUnits="userSpaceOnUse"
       x1="123.0225"
       y1="230.3922"
       x2="292.13269"
       y2="230.3922"><stop
         offset="0"
         style="stop-color:#42E8E0"
         id="stop14754" /><stop
         offset="0.1507"
         style="stop-color:#43E3E0"
         id="stop14756" /><stop
         offset="0.3285"
         style="stop-color:#45D5DF"
         id="stop14758" /><stop
         offset="0.5199"
         style="stop-color:#49BDDD"
         id="stop14760" /><stop
         offset="0.7209"
         style="stop-color:#4E9CDB"
         id="stop14762" /><stop
         offset="0.9274"
         style="stop-color:#5472D8"
         id="stop14764" /><stop
         offset="1"
         style="stop-color:#5761D7"
         id="stop14766" /></linearGradient><polygon
       class="st37"
       points="292.13,211.7 189.99,270.71 123.02,249.08 225.17,190.07 "
       id="polygon14769"
       style="opacity:0.47999998;fill:url(#SVGID_25_)" /><linearGradient
       id="SVGID_26_"
       gradientUnits="userSpaceOnUse"
       x1="123.4337"
       y1="240.0883"
       x2="294.1441"
       y2="240.0883"><stop
         offset="0"
         style="stop-color:#42E8E0"
         id="stop14771" /><stop
         offset="0.1507"
         style="stop-color:#43E3E0"
         id="stop14773" /><stop
         offset="0.3285"
         style="stop-color:#45D5DF"
         id="stop14775" /><stop
         offset="0.5199"
         style="stop-color:#49BDDD"
         id="stop14777" /><stop
         offset="0.7209"
         style="stop-color:#4E9CDB"
         id="stop14779" /><stop
         offset="0.9274"
         style="stop-color:#5472D8"
         id="stop14781" /><stop
         offset="1"
         style="stop-color:#5761D7"
         id="stop14783" /></linearGradient><polygon
       class="st38"
       points="294.14,229.88 192,288.88 123.43,250.3 225.58,191.29 "
       id="polygon14786"
       style="opacity:0.47999998;fill:url(#SVGID_26_)" /><linearGradient
       id="SVGID_27_"
       gradientUnits="userSpaceOnUse"
       x1="97.485199"
       y1="170.6967"
       x2="218.5596"
       y2="170.6967"><stop
         offset="0"
         style="stop-color:#42E8E0"
         id="stop14788" /><stop
         offset="0.1507"
         style="stop-color:#43E3E0"
         id="stop14790" /><stop
         offset="0.3285"
         style="stop-color:#45D5DF"
         id="stop14792" /><stop
         offset="0.5199"
         style="stop-color:#49BDDD"
         id="stop14794" /><stop
         offset="0.7209"
         style="stop-color:#4E9CDB"
         id="stop14796" /><stop
         offset="0.9274"
         style="stop-color:#5472D8"
         id="stop14798" /><stop
         offset="1"
         style="stop-color:#5761D7"
         id="stop14800" /></linearGradient><polygon
       class="st39"
       points="116.41,243.71 97.49,156.69 199.63,97.68 218.56,184.71 "
       id="polygon14803"
       style="opacity:0.47999998;fill:url(#SVGID_27_)" /></g><g
     id="g14992"
     transform="translate(80.669928,5.6020782)"><linearGradient
       id="SVGID_28_"
       gradientUnits="userSpaceOnUse"
       x1="270.1564"
       y1="116.7428"
       x2="367.63391"
       y2="116.7428"><stop
         offset="0"
         style="stop-color:#42E8E0"
         id="stop14807" /><stop
         offset="0.1507"
         style="stop-color:#43E3E0"
         id="stop14809" /><stop
         offset="0.3285"
         style="stop-color:#45D5DF"
         id="stop14811" /><stop
         offset="0.5199"
         style="stop-color:#49BDDD"
         id="stop14813" /><stop
         offset="0.7209"
         style="stop-color:#4E9CDB"
         id="stop14815" /><stop
         offset="0.9274"
         style="stop-color:#5472D8"
         id="stop14817" /><stop
         offset="1"
         style="stop-color:#5761D7"
         id="stop14819" /></linearGradient><path
       class="st40"
       d="m 318.9,145.11 c -0.09,0 -0.18,-0.02 -0.27,-0.07 l -48.2,-27.83 c -0.17,-0.1 -0.27,-0.27 -0.27,-0.46 0,-0.19 0.1,-0.37 0.27,-0.46 l 48.2,-27.83 c 0.17,-0.1 0.37,-0.1 0.54,0 l 48.2,27.83 c 0.17,0.1 0.27,0.27 0.27,0.46 0,0.19 -0.1,0.37 -0.27,0.46 l -48.2,27.83 c -0.09,0.04 -0.18,0.07 -0.27,0.07 z m -47.14,-28.37 47.13,27.21 47.13,-27.21 -47.13,-27.21 z"
       id="path14822"
       style="fill:url(#SVGID_28_)"
       inkscape:connector-curvature="0" /><linearGradient
       id="SVGID_29_"
       gradientUnits="userSpaceOnUse"
       x1="273.7023"
       y1="114.7311"
       x2="338.10818"
       y2="114.7311"><stop
         offset="0.2473"
         style="stop-color:#5761D7"
         id="stop14824" /><stop
         offset="0.4363"
         style="stop-color:#6C74DF"
         id="stop14826" /><stop
         offset="0.8245"
         style="stop-color:#A2A6F5"
         id="stop14828" /><stop
         offset="1"
         style="stop-color:#BCBEFF"
         id="stop14830" /></linearGradient><polygon
       class="st41"
       points="318.89,122.06 273.7,97.12 273.7,106.25 318.9,132.34 364.09,106.25 364.09,97.13 "
       id="polygon14833"
       style="fill:url(#SVGID_29_)" /><polygon
       class="st42"
       points="318.9,132.34 364.09,106.25 364.09,105.8 318.9,131.89 273.7,105.8 273.7,106.25 "
       id="polygon14835"
       style="opacity:0.5;fill:#ffffff" /><linearGradient
       id="SVGID_30_"
       gradientUnits="userSpaceOnUse"
       x1="273.7023"
       y1="97.125298"
       x2="364.08749"
       y2="97.125298"><stop
         offset="0"
         style="stop-color:#C0BFF6"
         id="stop14837" /><stop
         offset="0.2938"
         style="stop-color:#C5C4F7"
         id="stop14839" /><stop
         offset="0.6399"
         style="stop-color:#D3D2F9"
         id="stop14841" /><stop
         offset="1"
         style="stop-color:#E9E9FD"
         id="stop14843" /></linearGradient><polygon
       class="st43"
       points="318.89,71.03 364.09,97.13 318.9,123.22 273.7,97.12 "
       id="polygon14846"
       style="fill:url(#SVGID_30_)" /><polygon
       class="st42"
       points="273.7,97.12 318.9,123.22 364.09,97.13 363.44,96.75 318.9,122.47 274.35,96.75 "
       id="polygon14848"
       style="opacity:0.5;fill:#ffffff" /><polygon
       class="st44"
       points="318.89,81 346.83,97.13 318.9,113.26 290.96,97.13 "
       id="polygon14850"
       style="fill:#0f054c" /><g
       id="g14990"><linearGradient
         id="SVGID_31_"
         gradientUnits="userSpaceOnUse"
         x1="290.95609"
         y1="97.125504"
         x2="346.83359"
         y2="97.125504"><stop
           offset="0"
           style="stop-color:#42E8E0"
           id="stop14852" /><stop
           offset="0.1507"
           style="stop-color:#43E3E0"
           id="stop14854" /><stop
           offset="0.3285"
           style="stop-color:#45D5DF"
           id="stop14856" /><stop
           offset="0.5199"
           style="stop-color:#49BDDD"
           id="stop14858" /><stop
           offset="0.7209"
           style="stop-color:#4E9CDB"
           id="stop14860" /><stop
           offset="0.9274"
           style="stop-color:#5472D8"
           id="stop14862" /><stop
           offset="1"
           style="stop-color:#5761D7"
           id="stop14864" /></linearGradient><polygon
         class="st45"
         points="318.89,81 346.83,97.13 318.9,113.26 290.96,97.13 "
         id="polygon14867"
         style="opacity:0.5;fill:url(#SVGID_31_)" /><g
         id="g14971"><linearGradient
           id="SVGID_32_"
           gradientUnits="userSpaceOnUse"
           x1="318.8945"
           y1="77.777298"
           x2="346.83359"
           y2="77.777298"><stop
             offset="0"
             style="stop-color:#42E8E0"
             id="stop14869" /><stop
             offset="0.1507"
             style="stop-color:#43E3E0"
             id="stop14871" /><stop
             offset="0.3285"
             style="stop-color:#45D5DF"
             id="stop14873" /><stop
             offset="0.5199"
             style="stop-color:#49BDDD"
             id="stop14875" /><stop
             offset="0.7209"
             style="stop-color:#4E9CDB"
             id="stop14877" /><stop
             offset="0.9274"
             style="stop-color:#5472D8"
             id="stop14879" /><stop
             offset="1"
             style="stop-color:#5761D7"
             id="stop14881" /></linearGradient><polygon
           class="st46"
           points="346.83,97.13 318.89,80.99 318.89,58.43 346.83,74.56 "
           id="polygon14884"
           style="opacity:0.5;fill:url(#SVGID_32_)" /><linearGradient
           id="SVGID_33_"
           gradientUnits="userSpaceOnUse"
           x1="290.95609"
           y1="77.777"
           x2="318.89529"
           y2="77.777"><stop
             offset="0"
             style="stop-color:#42E8E0"
             id="stop14886" /><stop
             offset="0.1507"
             style="stop-color:#43E3E0"
             id="stop14888" /><stop
             offset="0.3285"
             style="stop-color:#45D5DF"
             id="stop14890" /><stop
             offset="0.5199"
             style="stop-color:#49BDDD"
             id="stop14892" /><stop
             offset="0.7209"
             style="stop-color:#4E9CDB"
             id="stop14894" /><stop
             offset="0.9274"
             style="stop-color:#5472D8"
             id="stop14896" /><stop
             offset="1"
             style="stop-color:#5761D7"
             id="stop14898" /></linearGradient><polygon
           class="st47"
           points="290.96,74.56 318.89,58.43 318.9,80.99 290.96,97.13 "
           id="polygon14901"
           style="opacity:0.5;fill:url(#SVGID_33_)" /><linearGradient
           id="SVGID_34_"
           gradientUnits="userSpaceOnUse"
           x1="290.95609"
           y1="74.559303"
           x2="346.83359"
           y2="74.559303"><stop
             offset="0"
             style="stop-color:#42E8E0"
             id="stop14903" /><stop
             offset="0.1507"
             style="stop-color:#43E3E0"
             id="stop14905" /><stop
             offset="0.3285"
             style="stop-color:#45D5DF"
             id="stop14907" /><stop
             offset="0.5199"
             style="stop-color:#49BDDD"
             id="stop14909" /><stop
             offset="0.7209"
             style="stop-color:#4E9CDB"
             id="stop14911" /><stop
             offset="0.9274"
             style="stop-color:#5472D8"
             id="stop14913" /><stop
             offset="1"
             style="stop-color:#5761D7"
             id="stop14915" /></linearGradient><polygon
           class="st48"
           points="318.89,58.43 346.83,74.56 318.9,90.69 290.96,74.56 "
           id="polygon14918"
           style="opacity:0.5;fill:url(#SVGID_34_)" /><linearGradient
           id="SVGID_35_"
           gradientUnits="userSpaceOnUse"
           x1="290.95609"
           y1="74.559303"
           x2="346.83359"
           y2="74.559303"><stop
             offset="0"
             style="stop-color:#42E8E0"
             id="stop14920" /><stop
             offset="0.1507"
             style="stop-color:#43E3E0"
             id="stop14922" /><stop
             offset="0.3285"
             style="stop-color:#45D5DF"
             id="stop14924" /><stop
             offset="0.5199"
             style="stop-color:#49BDDD"
             id="stop14926" /><stop
             offset="0.7209"
             style="stop-color:#4E9CDB"
             id="stop14928" /><stop
             offset="0.9274"
             style="stop-color:#5472D8"
             id="stop14930" /><stop
             offset="1"
             style="stop-color:#5761D7"
             id="stop14932" /></linearGradient><polygon
           class="st49"
           points="318.89,58.43 346.83,74.56 318.9,90.69 290.96,74.56 "
           id="polygon14935"
           style="opacity:0.5;fill:url(#SVGID_35_)" /><linearGradient
           id="SVGID_36_"
           gradientUnits="userSpaceOnUse"
           x1="318.89481"
           y1="78.921303"
           x2="318.89481"
           y2="23.0438"><stop
             offset="0"
             style="stop-color:#42E8E0"
             id="stop14937" /><stop
             offset="0.1507"
             style="stop-color:#43E3E0"
             id="stop14939" /><stop
             offset="0.3285"
             style="stop-color:#45D5DF"
             id="stop14941" /><stop
             offset="0.5199"
             style="stop-color:#49BDDD"
             id="stop14943" /><stop
             offset="0.7209"
             style="stop-color:#4E9CDB"
             id="stop14945" /><stop
             offset="0.9274"
             style="stop-color:#5472D8"
             id="stop14947" /><stop
             offset="1"
             style="stop-color:#5761D7"
             id="stop14949" /></linearGradient><polygon
           class="st50"
           points="290.96,74.56 318.9,90.69 346.83,74.56 346.35,74.28 318.9,90.13 291.44,74.28 "
           id="polygon14952"
           style="opacity:0.5;fill:url(#SVGID_36_)" /><linearGradient
           id="SVGID_37_"
           gradientUnits="userSpaceOnUse"
           x1="256.0621"
           y1="93.9077"
           x2="370.6731"
           y2="93.9077"><stop
             offset="0"
             style="stop-color:#42E8E0"
             id="stop14954" /><stop
             offset="0.1507"
             style="stop-color:#43E3E0"
             id="stop14956" /><stop
             offset="0.3285"
             style="stop-color:#45D5DF"
             id="stop14958" /><stop
             offset="0.5199"
             style="stop-color:#49BDDD"
             id="stop14960" /><stop
             offset="0.7209"
             style="stop-color:#4E9CDB"
             id="stop14962" /><stop
             offset="0.9274"
             style="stop-color:#5472D8"
             id="stop14964" /><stop
             offset="1"
             style="stop-color:#5761D7"
             id="stop14966" /></linearGradient><polygon
           class="st51"
           points="346.83,97.13 346.83,74.56 318.9,90.69 318.9,113.26 "
           id="polygon14969"
           style="opacity:0.5;fill:url(#SVGID_37_)" /></g><linearGradient
         id="SVGID_38_"
         gradientUnits="userSpaceOnUse"
         x1="280.5549"
         y1="81.596298"
         x2="337.6412"
         y2="110.4339"><stop
           offset="0"
           style="stop-color:#42E8E0"
           id="stop14973" /><stop
           offset="0.1507"
           style="stop-color:#43E3E0"
           id="stop14975" /><stop
           offset="0.3285"
           style="stop-color:#45D5DF"
           id="stop14977" /><stop
           offset="0.5199"
           style="stop-color:#49BDDD"
           id="stop14979" /><stop
           offset="0.7209"
           style="stop-color:#4E9CDB"
           id="stop14981" /><stop
           offset="0.9274"
           style="stop-color:#5472D8"
           id="stop14983" /><stop
           offset="1"
           style="stop-color:#5761D7"
           id="stop14985" /></linearGradient><polygon
         class="st52"
         points="318.9,113.26 318.9,90.69 290.96,74.56 290.96,97.13 "
         id="polygon14988"
         style="opacity:0.5;fill:url(#SVGID_38_)" /></g></g><g
     id="Íîâûé_ñèìâîë_3_"><g
       id="Íîâûé_ñèìâîë_2_" /></g></svg>